<svg xmlns="http://www.w3.org/2000/svg" width="1241.5" height="674.867" viewBox="0 0 1241.5 674.867">
  <g id="sintesis" transform="translate(-89.5 -132.01)">
    <line id="Línea_786" data-name="Línea 786" y2="123.415" transform="translate(427.09 549.658)" fill="none" stroke="#81b728" stroke-miterlimit="10" stroke-width="3"/>
    <line id="Línea_787" data-name="Línea 787" x2="55.582" transform="translate(91 695.464)" fill="none" stroke="#81b728" stroke-miterlimit="10" stroke-width="3"/>
    <path id="Trazado_622639" data-name="Trazado 622639" d="M172.671,477.79H91V732.639h62.819" transform="translate(0 46.447)" fill="none" stroke="#81b728" stroke-miterlimit="10" stroke-width="3"/>
    <line id="Línea_788" data-name="Línea 788" y2="66.925" transform="translate(345.01 357.73)" fill="none" stroke="#81b728" stroke-miterlimit="10" stroke-width="3"/>
    <path id="Trazado_622640" data-name="Trazado 622640" d="M406.415,466V390H244.91v75.081" transform="translate(20.674 34.655)" fill="none" stroke="#81b728" stroke-miterlimit="10" stroke-width="3"/>
    <line id="Línea_789" data-name="Línea 789" y2="66.925" transform="translate(1166.16 357.73)" fill="none" stroke="#81b728" stroke-miterlimit="10" stroke-width="3"/>
    <path id="Trazado_622641" data-name="Trazado 622641" d="M1130.315,466V390H968.81v75.081" transform="translate(117.913 34.655)" fill="none" stroke="#81b728" stroke-miterlimit="10" stroke-width="3"/>
    <line id="Línea_790" data-name="Línea 790" y2="142.925" transform="translate(756.453 357.73)" fill="none" stroke="#81b728" stroke-miterlimit="10" stroke-width="3"/>
    <path id="Trazado_622642" data-name="Trazado 622642" d="M829.568,466V390H540.7v75.081" transform="translate(60.407 34.655)" fill="none" stroke="#81b728" stroke-miterlimit="10" stroke-width="3"/>
    <line id="Línea_791" data-name="Línea 791" y2="100.955" transform="translate(757.768 215.939)" fill="none" stroke="#81b728" stroke-miterlimit="10" stroke-width="3"/>
    <path id="Trazado_622643" data-name="Trazado 622643" d="M1191.421,525.584h-134.2a11.3,11.3,0,0,1-11.309-11.309V443.459a11.311,11.311,0,0,1,11.309-11.309h134.2a11.3,11.3,0,0,1,11.309,11.309v70.816A11.318,11.318,0,0,1,1191.421,525.584Z" transform="translate(128.269 40.317)" fill="#ea5330"/>
    <path id="Trazado_622644" data-name="Trazado 622644" d="M1035.51,527.683H906.231a13.77,13.77,0,0,1-13.771-13.771V448.031a13.77,13.77,0,0,1,13.771-13.771H1035.51a13.77,13.77,0,0,1,13.771,13.771v65.882A13.77,13.77,0,0,1,1035.51,527.683Z" transform="translate(107.657 40.6)" fill="#ea5330"/>
    <path id="Trazado_622645" data-name="Trazado 622645" d="M852.6,510.489H752.987a12.974,12.974,0,0,1-12.977-12.977V459.467a12.974,12.974,0,0,1,12.977-12.977H852.6a12.974,12.974,0,0,1,12.977,12.977v38.045A12.981,12.981,0,0,1,852.6,510.489Z" transform="translate(87.179 42.243)" fill="#ea5330"/>
    <path id="Trazado_622646" data-name="Trazado 622646" d="M735.862,510.09H618.425a11.275,11.275,0,0,1-11.275-11.275v-41.46a11.275,11.275,0,0,1,11.275-11.275H735.862a11.275,11.275,0,0,1,11.275,11.275v41.46A11.275,11.275,0,0,1,735.862,510.09Z" transform="translate(69.333 42.188)" fill="#ea5330"/>
    <path id="Trazado_622647" data-name="Trazado 622647" d="M599.078,510.09H497.192a11.836,11.836,0,0,1-11.842-11.842V457.922a11.836,11.836,0,0,1,11.842-11.842H599.078a11.836,11.836,0,0,1,11.842,11.842v40.325A11.836,11.836,0,0,1,599.078,510.09Z" transform="translate(52.972 42.188)" fill="#ea5330"/>
    <path id="Trazado_622648" data-name="Trazado 622648" d="M301.919,512.59H173.593a19.025,19.025,0,0,1-19.023-19.023V467.6a19.025,19.025,0,0,1,19.023-19.023H301.919A19.025,19.025,0,0,1,320.942,467.6v25.965A19.025,19.025,0,0,1,301.919,512.59Z" transform="translate(8.539 42.524)" fill="#ea5330"/>
    <path id="Trazado_622649" data-name="Trazado 622649" d="M455.919,512.59H327.593a19.025,19.025,0,0,1-19.023-19.023V467.6a19.025,19.025,0,0,1,19.023-19.023H455.919A19.025,19.025,0,0,1,474.942,467.6v25.965A19.025,19.025,0,0,1,455.919,512.59Z" transform="translate(29.225 42.524)" fill="#ea5330"/>
    <path id="Trazado_622650" data-name="Trazado 622650" d="M400.026,343.762H250.3a20.981,20.981,0,0,1-20.985-20.985V309.165A20.981,20.981,0,0,1,250.3,288.18H400.026a20.981,20.981,0,0,1,20.985,20.985v13.612A20.988,20.988,0,0,1,400.026,343.762Z" transform="translate(18.579 20.978)" fill="#81b728"/>
    <path id="Trazado_622651" data-name="Trazado 622651" d="M301.016,659.822H151.285A20.981,20.981,0,0,1,130.3,638.837V625.225a20.981,20.981,0,0,1,20.985-20.985H301.016A20.981,20.981,0,0,1,322,625.225v13.612A20.981,20.981,0,0,1,301.016,659.822Z" transform="translate(5.279 63.433)" fill="#119788"/>
    <path id="Trazado_622652" data-name="Trazado 622652" d="M301.016,733.542H151.285A20.981,20.981,0,0,1,130.3,712.557V698.945a20.981,20.981,0,0,1,20.985-20.985H301.016A20.981,20.981,0,0,1,322,698.945v13.612A20.988,20.988,0,0,1,301.016,733.542Z" transform="translate(5.279 73.335)" fill="#119788"/>
    <path id="Trazado_622653" data-name="Trazado 622653" d="M480.6,659.822H330.865a20.981,20.981,0,0,1-20.985-20.985V625.225a20.981,20.981,0,0,1,20.985-20.985H480.6a20.981,20.981,0,0,1,20.985,20.985v13.612A20.988,20.988,0,0,1,480.6,659.822Z" transform="translate(29.401 63.433)" fill="#119788"/>
    <path id="Trazado_622654" data-name="Trazado 622654" d="M764.026,343.762H614.3a20.981,20.981,0,0,1-20.985-20.985V309.165A20.981,20.981,0,0,1,614.3,288.18H764.026a20.981,20.981,0,0,1,20.985,20.985v13.612A20.988,20.988,0,0,1,764.026,343.762Z" transform="translate(67.473 20.978)" fill="#81b728"/>
    <path id="Trazado_622655" data-name="Trazado 622655" d="M1121.516,343.352H971.785A20.981,20.981,0,0,1,950.8,322.367V308.755a20.981,20.981,0,0,1,20.985-20.985h149.731a20.981,20.981,0,0,1,20.985,20.985v13.612A20.988,20.988,0,0,1,1121.516,343.352Z" transform="translate(115.494 20.923)" fill="#81b728"/>
    <path id="Trazado_622656" data-name="Trazado 622656" d="M876.528,220.476H519.352A19.354,19.354,0,0,1,500,201.124V151.362a19.355,19.355,0,0,1,19.352-19.352H876.517a19.354,19.354,0,0,1,19.352,19.352v49.763A19.338,19.338,0,0,1,876.528,220.476Z" transform="translate(54.94)" fill="#119788"/>
    <g id="Grupo" transform="translate(566.423 149.34)">
      <path id="Trazado_622660" data-name="Trazado 622660" d="M4.355,0H1.5V-14.219H4.355ZM9.57-10.566,9.7-9.053a3.865,3.865,0,0,1,1.3-1.26,3.372,3.372,0,0,1,1.729-.449,3.142,3.142,0,0,1,2.5,1.03,4.884,4.884,0,0,1,.9,3.257V0H13.262V-6.465a2.529,2.529,0,0,0-.4-1.606,1.458,1.458,0,0,0-1.187-.474,2.49,2.49,0,0,0-1.118.239,2.183,2.183,0,0,0-.8.659V0H6.914V-10.566Zm12.1-2.588v2.588h1.787v2H21.67v5.381a1.228,1.228,0,0,0,.259.879.909.909,0,0,0,.679.264A2.722,2.722,0,0,0,23-2.065a3.29,3.29,0,0,0,.381-.083l.234,2.061a5.773,5.773,0,0,1-.835.22,4.978,4.978,0,0,1-.884.073,3.039,3.039,0,0,1-2.271-.811,3.554,3.554,0,0,1-.8-2.568V-8.564H17.285v-2h1.543v-2.588ZM29.795.205A4.754,4.754,0,0,1,26.1-1.245,5.315,5.315,0,0,1,24.775-4.98v-.391a5.785,5.785,0,0,1,1.289-3.887,4.382,4.382,0,0,1,3.545-1.5,4.1,4.1,0,0,1,3.267,1.3,5.152,5.152,0,0,1,1.138,3.511v1.475h-6.3l-.029.059a2.855,2.855,0,0,0,.659,1.758,2.207,2.207,0,0,0,1.753.674,5.865,5.865,0,0,0,1.626-.2,6.634,6.634,0,0,0,1.382-.6l.771,1.758a5.293,5.293,0,0,1-1.719.869A7.622,7.622,0,0,1,29.795.205Zm-.186-8.77a1.584,1.584,0,0,0-1.323.591,2.964,2.964,0,0,0-.562,1.567l.02.049h3.477v-.215a2.468,2.468,0,0,0-.381-1.46A1.409,1.409,0,0,0,29.609-8.564Zm11.621.449-1.045-.029a1.9,1.9,0,0,0-1.045.264,1.671,1.671,0,0,0-.625.742V0H35.674V-10.566H38.32L38.447-9a3.333,3.333,0,0,1,.962-1.294,2.144,2.144,0,0,1,1.362-.464,2.131,2.131,0,0,1,.4.034q.181.034.366.083ZM52.246-4.99a6.069,6.069,0,0,1-1.084,3.77A3.586,3.586,0,0,1,48.135.205,3.384,3.384,0,0,1,46.66-.1a3.029,3.029,0,0,1-1.1-.9V4.063H42.715V-10.566h2.568l.166,1.25a3.386,3.386,0,0,1,1.128-1.069,3.051,3.051,0,0,1,1.538-.376,3.516,3.516,0,0,1,3.047,1.533A6.843,6.843,0,0,1,52.246-5.2ZM49.395-5.2a5.112,5.112,0,0,0-.5-2.422,1.625,1.625,0,0,0-1.523-.928,2.153,2.153,0,0,0-1.1.264,1.881,1.881,0,0,0-.718.752V-2.9a1.748,1.748,0,0,0,.718.684,2.418,2.418,0,0,0,1.118.234,1.64,1.64,0,0,0,1.519-.811,4.279,4.279,0,0,0,.483-2.2Zm10.166-2.92-1.045-.029a1.9,1.9,0,0,0-1.045.264,1.671,1.671,0,0,0-.625.742V0H54V-10.566H56.65L56.777-9a3.333,3.333,0,0,1,.962-1.294,2.144,2.144,0,0,1,1.362-.464,2.131,2.131,0,0,1,.4.034q.181.034.366.083ZM65.439.205a4.754,4.754,0,0,1-3.691-1.45A5.315,5.315,0,0,1,60.42-4.98v-.391a5.785,5.785,0,0,1,1.289-3.887,4.382,4.382,0,0,1,3.545-1.5,4.1,4.1,0,0,1,3.267,1.3,5.152,5.152,0,0,1,1.138,3.511v1.475h-6.3l-.029.059a2.855,2.855,0,0,0,.659,1.758,2.207,2.207,0,0,0,1.753.674,5.865,5.865,0,0,0,1.626-.2,6.634,6.634,0,0,0,1.382-.6l.771,1.758A5.293,5.293,0,0,1,67.8-.146,7.622,7.622,0,0,1,65.439.205Zm-.186-8.77a1.584,1.584,0,0,0-1.323.591,2.964,2.964,0,0,0-.562,1.567l.02.049h3.477v-.215a2.468,2.468,0,0,0-.381-1.46A1.409,1.409,0,0,0,65.254-8.564Zm9.482-4.59v2.588h1.787v2H74.736v5.381A1.228,1.228,0,0,0,75-2.3a.909.909,0,0,0,.679.264,2.722,2.722,0,0,0,.391-.024,3.29,3.29,0,0,0,.381-.083L76.68-.088a5.773,5.773,0,0,1-.835.22,4.978,4.978,0,0,1-.884.073A3.039,3.039,0,0,1,72.69-.605a3.554,3.554,0,0,1-.8-2.568V-8.564H70.352v-2h1.543v-2.588ZM84.512,0a6,6,0,0,1-.269-.762,5.3,5.3,0,0,1-.161-.82A3.908,3.908,0,0,1,82.92-.3,2.913,2.913,0,0,1,81.2.205a3.568,3.568,0,0,1-2.559-.854,3.061,3.061,0,0,1-.9-2.329,2.786,2.786,0,0,1,1.2-2.407,5.974,5.974,0,0,1,3.491-.854h1.6v-.84a1.644,1.644,0,0,0-.4-1.182,1.572,1.572,0,0,0-1.191-.42,1.549,1.549,0,0,0-1.069.337A1.176,1.176,0,0,0,81-7.422H78.252l-.02-.059A2.68,2.68,0,0,1,79.4-9.79a5.069,5.069,0,0,1,3.228-.972,4.73,4.73,0,0,1,3.081.957,3.333,3.333,0,0,1,1.177,2.744V-2.7A8.256,8.256,0,0,0,87-1.3,7.008,7.008,0,0,0,87.354,0ZM81.9-1.9a2.429,2.429,0,0,0,1.328-.371,2,2,0,0,0,.8-.859V-4.629h-1.6a1.9,1.9,0,0,0-1.372.449,1.476,1.476,0,0,0-.464,1.1,1.1,1.1,0,0,0,.347.854A1.371,1.371,0,0,0,81.9-1.9Zm11.533-.078a1.587,1.587,0,0,0,1.182-.444,1.614,1.614,0,0,0,.439-1.187h2.6l.02.059A3.307,3.307,0,0,1,96.484-.874,4.455,4.455,0,0,1,93.438.205a4.5,4.5,0,0,1-3.623-1.5,5.7,5.7,0,0,1-1.279-3.833V-5.42A5.735,5.735,0,0,1,89.81-9.253a4.463,4.463,0,0,1,3.608-1.509,4.358,4.358,0,0,1,3.115,1.113,3.72,3.72,0,0,1,1.143,2.93l-.02.059h-2.6a2.109,2.109,0,0,0-.435-1.362,1.46,1.46,0,0,0-1.206-.542,1.627,1.627,0,0,0-1.567.884,4.847,4.847,0,0,0-.464,2.261v.293a4.829,4.829,0,0,0,.464,2.275A1.649,1.649,0,0,0,93.438-1.982ZM102.334,0H99.482V-10.566h2.852Zm0-13.1H99.482v-2.139h2.852Zm1.9,7.715a5.67,5.67,0,0,1,1.318-3.872,4.6,4.6,0,0,1,3.652-1.509,4.644,4.644,0,0,1,3.672,1.5,5.64,5.64,0,0,1,1.328,3.877v.205a5.649,5.649,0,0,1-1.323,3.882,4.625,4.625,0,0,1-3.657,1.5,4.637,4.637,0,0,1-3.667-1.5,5.649,5.649,0,0,1-1.323-3.882Zm2.842.205a4.6,4.6,0,0,0,.508,2.319,1.753,1.753,0,0,0,1.641.874,1.736,1.736,0,0,0,1.616-.879,4.566,4.566,0,0,0,.513-2.314v-.205a4.52,4.52,0,0,0-.518-2.295,1.751,1.751,0,0,0-1.631-.889,1.73,1.73,0,0,0-1.616.894,4.561,4.561,0,0,0-.513,2.29Zm2.705-9.9h3.174l.02.059-2.705,2.539h-2.432Zm8.789,4.512.127,1.514a3.865,3.865,0,0,1,1.3-1.26,3.372,3.372,0,0,1,1.729-.449,3.142,3.142,0,0,1,2.5,1.03,4.884,4.884,0,0,1,.9,3.257V0h-2.861V-6.465a2.529,2.529,0,0,0-.4-1.606,1.458,1.458,0,0,0-1.187-.474,2.49,2.49,0,0,0-1.118.239,2.183,2.183,0,0,0-.8.659V0h-2.852V-10.566ZM131.8-5.2a6.866,6.866,0,0,1,1.079-4.033,3.5,3.5,0,0,1,3.042-1.533,2.959,2.959,0,0,1,1.426.342,3.43,3.43,0,0,1,1.113.977v-5.791h2.861V0h-2.432l-.244-1.3a3.532,3.532,0,0,1-1.182,1.118A3.124,3.124,0,0,1,135.9.205a3.573,3.573,0,0,1-3.022-1.426A6.088,6.088,0,0,1,131.8-4.99Zm2.842.205a4.3,4.3,0,0,0,.469,2.183,1.632,1.632,0,0,0,1.523.8,2.219,2.219,0,0,0,1.074-.249,1.987,1.987,0,0,0,.752-.728v-4.5a2.195,2.195,0,0,0-.747-.776,1.987,1.987,0,0,0-1.06-.278,1.609,1.609,0,0,0-1.528.928,5.243,5.243,0,0,0-.483,2.422Zm13.467,5.2a4.754,4.754,0,0,1-3.691-1.45,5.315,5.315,0,0,1-1.328-3.735v-.391a5.785,5.785,0,0,1,1.289-3.887,4.382,4.382,0,0,1,3.545-1.5,4.1,4.1,0,0,1,3.267,1.3,5.152,5.152,0,0,1,1.138,3.511v1.475h-6.3L146-4.414a2.855,2.855,0,0,0,.659,1.758,2.207,2.207,0,0,0,1.753.674,5.865,5.865,0,0,0,1.626-.2,6.634,6.634,0,0,0,1.382-.6l.771,1.758a5.293,5.293,0,0,1-1.719.869A7.622,7.622,0,0,1,148.105.205Zm-.186-8.77a1.584,1.584,0,0,0-1.323.591,2.964,2.964,0,0,0-.562,1.567l.02.049h3.477v-.215a2.468,2.468,0,0,0-.381-1.46A1.409,1.409,0,0,0,147.92-8.564ZM156.982,0h-2.852V-15.234h2.852Zm11.9.205a4.754,4.754,0,0,1-3.691-1.45,5.315,5.315,0,0,1-1.328-3.735v-.391a5.785,5.785,0,0,1,1.289-3.887,4.382,4.382,0,0,1,3.545-1.5,4.1,4.1,0,0,1,3.267,1.3,5.152,5.152,0,0,1,1.138,3.511v1.475h-6.3l-.029.059a2.855,2.855,0,0,0,.659,1.758,2.207,2.207,0,0,0,1.753.674,5.865,5.865,0,0,0,1.626-.2,6.634,6.634,0,0,0,1.382-.6l.771,1.758a5.293,5.293,0,0,1-1.719.869A7.622,7.622,0,0,1,168.887.205Zm-.186-8.77a1.584,1.584,0,0,0-1.323.591,2.964,2.964,0,0,0-.562,1.567l.02.049h3.477v-.215a2.468,2.468,0,0,0-.381-1.46A1.409,1.409,0,0,0,168.7-8.564Zm8.672-2,.127,1.514a3.865,3.865,0,0,1,1.3-1.26,3.372,3.372,0,0,1,1.729-.449,3.142,3.142,0,0,1,2.5,1.03,4.884,4.884,0,0,1,.9,3.257V0h-2.861V-6.465a2.529,2.529,0,0,0-.4-1.606,1.458,1.458,0,0,0-1.187-.474,2.49,2.49,0,0,0-1.118.239,2.183,2.183,0,0,0-.8.659V0h-2.852V-10.566Zm12.1-2.588v2.588h1.787v2h-1.787v5.381a1.228,1.228,0,0,0,.259.879.909.909,0,0,0,.679.264,2.722,2.722,0,0,0,.391-.024,3.29,3.29,0,0,0,.381-.083l.234,2.061a5.772,5.772,0,0,1-.835.22,4.978,4.978,0,0,1-.884.073,3.039,3.039,0,0,1-2.271-.811,3.554,3.554,0,0,1-.8-2.568V-8.564h-1.543v-2h1.543v-2.588Zm3.105,7.773A5.67,5.67,0,0,1,193.9-9.253a4.6,4.6,0,0,1,3.652-1.509,4.644,4.644,0,0,1,3.672,1.5,5.64,5.64,0,0,1,1.328,3.877v.205a5.649,5.649,0,0,1-1.323,3.882,4.625,4.625,0,0,1-3.657,1.5,4.637,4.637,0,0,1-3.667-1.5,5.649,5.649,0,0,1-1.323-3.882Zm2.842.205a4.6,4.6,0,0,0,.508,2.319,1.753,1.753,0,0,0,1.641.874,1.736,1.736,0,0,0,1.616-.879,4.566,4.566,0,0,0,.513-2.314v-.205a4.52,4.52,0,0,0-.518-2.295,1.751,1.751,0,0,0-1.631-.889,1.73,1.73,0,0,0-1.616.894,4.561,4.561,0,0,0-.513,2.29Zm14.443-2.939-1.045-.029a1.9,1.9,0,0,0-1.045.264,1.671,1.671,0,0,0-.625.742V0h-2.842V-10.566h2.646L207.08-9a3.333,3.333,0,0,1,.962-1.294,2.144,2.144,0,0,1,1.362-.464,2.131,2.131,0,0,1,.4.034q.181.034.366.083Zm4.092-2.451.127,1.514a3.865,3.865,0,0,1,1.3-1.26,3.372,3.372,0,0,1,1.729-.449,3.142,3.142,0,0,1,2.5,1.03,4.884,4.884,0,0,1,.9,3.257V0h-2.861V-6.465a2.529,2.529,0,0,0-.4-1.606,1.458,1.458,0,0,0-1.187-.474,2.49,2.49,0,0,0-1.118.239,2.183,2.183,0,0,0-.8.659V0H211.3V-10.566ZM222.2-5.381a5.67,5.67,0,0,1,1.318-3.872,4.6,4.6,0,0,1,3.652-1.509,4.644,4.644,0,0,1,3.672,1.5,5.64,5.64,0,0,1,1.328,3.877v.205a5.649,5.649,0,0,1-1.323,3.882,4.625,4.625,0,0,1-3.657,1.5,4.637,4.637,0,0,1-3.667-1.5A5.649,5.649,0,0,1,222.2-5.176Zm2.842.205a4.6,4.6,0,0,0,.508,2.319,1.753,1.753,0,0,0,1.641.874,1.736,1.736,0,0,0,1.616-.879,4.566,4.566,0,0,0,.513-2.314v-.205a4.52,4.52,0,0,0-.518-2.295,1.751,1.751,0,0,0-1.631-.889,1.73,1.73,0,0,0-1.616.894,4.561,4.561,0,0,0-.513,2.29ZM236.9-.127l-1.553,3.076h-1.9l.684-3.164V-2.441H236.9Zm10.967-4.307.117.586h.059l2.021-6.719h3.066L248.848,1.582a5.593,5.593,0,0,1-1.221,1.909,3.131,3.131,0,0,1-2.314.776,3.579,3.579,0,0,1-.669-.059q-.308-.059-.747-.166l.332-2.08L244.5,2a2.014,2.014,0,0,0,.264.02,1.554,1.554,0,0,0,1.084-.347,2.287,2.287,0,0,0,.586-.864l.332-.82-3.75-10.557h3.066Z" transform="translate(53.155 19)" fill="#fff"/>
      <path id="Trazado_622661" data-name="Trazado 622661" d="M7.324,0a6,6,0,0,1-.269-.762,5.3,5.3,0,0,1-.161-.82A3.908,3.908,0,0,1,5.732-.3,2.913,2.913,0,0,1,4.014.205,3.568,3.568,0,0,1,1.455-.649a3.061,3.061,0,0,1-.9-2.329,2.786,2.786,0,0,1,1.2-2.407A5.974,5.974,0,0,1,5.244-6.24h1.6v-.84a1.644,1.644,0,0,0-.4-1.182,1.572,1.572,0,0,0-1.191-.42,1.549,1.549,0,0,0-1.069.337,1.176,1.176,0,0,0-.376.923H1.064l-.02-.059A2.68,2.68,0,0,1,2.212-9.79a5.069,5.069,0,0,1,3.228-.972A4.73,4.73,0,0,1,8.521-9.8,3.333,3.333,0,0,1,9.7-7.061V-2.7A8.256,8.256,0,0,0,9.81-1.3,7.008,7.008,0,0,0,10.166,0ZM4.717-1.9a2.429,2.429,0,0,0,1.328-.371,2,2,0,0,0,.8-.859V-4.629h-1.6a1.9,1.9,0,0,0-1.372.449,1.476,1.476,0,0,0-.464,1.1,1.1,1.1,0,0,0,.347.854A1.371,1.371,0,0,0,4.717-1.9Zm9.766-8.662.117,1.4a3.55,3.55,0,0,1,1.274-1.177,3.665,3.665,0,0,1,1.772-.415,3.228,3.228,0,0,1,1.738.449,2.771,2.771,0,0,1,1.094,1.357,3.662,3.662,0,0,1,1.27-1.328,3.445,3.445,0,0,1,1.836-.479A3.011,3.011,0,0,1,26.05-9.653a5.291,5.291,0,0,1,.9,3.384V0H24.1V-6.279a2.962,2.962,0,0,0-.391-1.768,1.387,1.387,0,0,0-1.162-.5,1.991,1.991,0,0,0-1.05.269,1.956,1.956,0,0,0-.708.747q0,.186.01.317t.01.269V0H17.969V-6.279a2.97,2.97,0,0,0-.391-1.753,1.38,1.38,0,0,0-1.172-.513,2.212,2.212,0,0,0-1.011.22,1.938,1.938,0,0,0-.718.62V0H11.836V-10.566ZM38.672-4.99a6.181,6.181,0,0,1-1.055,3.779A3.567,3.567,0,0,1,34.57.205a3.22,3.22,0,0,1-1.616-.391,3.34,3.34,0,0,1-1.167-1.143L31.553,0H29.141V-15.234h2.842v5.791a3.228,3.228,0,0,1,1.1-.977,3.071,3.071,0,0,1,1.47-.342,3.5,3.5,0,0,1,3.066,1.519A6.971,6.971,0,0,1,38.672-5.2ZM35.83-5.2a5.5,5.5,0,0,0-.454-2.446,1.593,1.593,0,0,0-1.548-.9,2.128,2.128,0,0,0-1.123.278,1.929,1.929,0,0,0-.723.8V-3a1.812,1.812,0,0,0,.728.732,2.342,2.342,0,0,0,1.138.254,1.621,1.621,0,0,0,1.543-.776,4.522,4.522,0,0,0,.439-2.2Zm7.6,5.2H40.576V-10.566h2.852Zm0-13.1H40.576v-2.139h2.852ZM50.352.205a4.754,4.754,0,0,1-3.691-1.45A5.315,5.315,0,0,1,45.332-4.98v-.391a5.785,5.785,0,0,1,1.289-3.887,4.382,4.382,0,0,1,3.545-1.5,4.1,4.1,0,0,1,3.267,1.3A5.152,5.152,0,0,1,54.57-5.947v1.475h-6.3l-.029.059A2.855,2.855,0,0,0,48.9-2.656a2.207,2.207,0,0,0,1.753.674,5.865,5.865,0,0,0,1.626-.2,6.634,6.634,0,0,0,1.382-.6l.771,1.758a5.293,5.293,0,0,1-1.719.869A7.622,7.622,0,0,1,50.352.205Zm-.186-8.77a1.584,1.584,0,0,0-1.323.591,2.964,2.964,0,0,0-.562,1.567l.02.049h3.477v-.215a2.468,2.468,0,0,0-.381-1.46A1.409,1.409,0,0,0,50.166-8.564Zm8.672-2,.127,1.514a3.865,3.865,0,0,1,1.3-1.26,3.372,3.372,0,0,1,1.729-.449,3.142,3.142,0,0,1,2.5,1.03,4.884,4.884,0,0,1,.9,3.257V0H62.529V-6.465a2.529,2.529,0,0,0-.4-1.606,1.458,1.458,0,0,0-1.187-.474,2.49,2.49,0,0,0-1.118.239,2.183,2.183,0,0,0-.8.659V0H56.182V-10.566Zm12.1-2.588v2.588h1.787v2H70.938v5.381A1.228,1.228,0,0,0,71.2-2.3a.909.909,0,0,0,.679.264,2.722,2.722,0,0,0,.391-.024,3.29,3.29,0,0,0,.381-.083l.234,2.061a5.773,5.773,0,0,1-.835.22,4.978,4.978,0,0,1-.884.073,3.039,3.039,0,0,1-2.271-.811,3.554,3.554,0,0,1-.8-2.568V-8.564H66.553v-2H68.1v-2.588ZM80.713,0a6,6,0,0,1-.269-.762,5.3,5.3,0,0,1-.161-.82A3.908,3.908,0,0,1,79.121-.3,2.913,2.913,0,0,1,77.4.205a3.568,3.568,0,0,1-2.559-.854,3.061,3.061,0,0,1-.9-2.329,2.786,2.786,0,0,1,1.2-2.407,5.974,5.974,0,0,1,3.491-.854h1.6v-.84a1.644,1.644,0,0,0-.4-1.182,1.572,1.572,0,0,0-1.191-.42,1.549,1.549,0,0,0-1.069.337,1.176,1.176,0,0,0-.376.923H74.453l-.02-.059A2.68,2.68,0,0,1,75.6-9.79a5.069,5.069,0,0,1,3.228-.972,4.73,4.73,0,0,1,3.081.957,3.333,3.333,0,0,1,1.177,2.744V-2.7A8.256,8.256,0,0,0,83.2-1.3,7.008,7.008,0,0,0,83.555,0ZM78.105-1.9a2.429,2.429,0,0,0,1.328-.371,2,2,0,0,0,.8-.859V-4.629h-1.6a1.9,1.9,0,0,0-1.372.449,1.476,1.476,0,0,0-.464,1.1,1.1,1.1,0,0,0,.347.854A1.371,1.371,0,0,0,78.105-1.9Zm11.533-.078a1.587,1.587,0,0,0,1.182-.444,1.614,1.614,0,0,0,.439-1.187h2.6l.02.059A3.307,3.307,0,0,1,92.686-.874,4.455,4.455,0,0,1,89.639.205a4.5,4.5,0,0,1-3.623-1.5,5.7,5.7,0,0,1-1.279-3.833V-5.42a5.735,5.735,0,0,1,1.274-3.833,4.463,4.463,0,0,1,3.608-1.509,4.358,4.358,0,0,1,3.115,1.113,3.72,3.72,0,0,1,1.143,2.93l-.02.059h-2.6a2.109,2.109,0,0,0-.435-1.362,1.46,1.46,0,0,0-1.206-.542,1.627,1.627,0,0,0-1.567.884,4.847,4.847,0,0,0-.464,2.261v.293a4.829,4.829,0,0,0,.464,2.275A1.649,1.649,0,0,0,89.639-1.982ZM98.535,0H95.684V-10.566h2.852Zm0-13.1H95.684v-2.139h2.852Zm1.9,7.715a5.67,5.67,0,0,1,1.318-3.872,4.6,4.6,0,0,1,3.652-1.509,4.644,4.644,0,0,1,3.672,1.5,5.64,5.64,0,0,1,1.328,3.877v.205a5.649,5.649,0,0,1-1.323,3.882,4.625,4.625,0,0,1-3.657,1.5,4.637,4.637,0,0,1-3.667-1.5,5.649,5.649,0,0,1-1.323-3.882Zm2.842.205a4.6,4.6,0,0,0,.508,2.319,1.753,1.753,0,0,0,1.641.874,1.736,1.736,0,0,0,1.616-.879,4.566,4.566,0,0,0,.513-2.314v-.205a4.52,4.52,0,0,0-.518-2.295,1.751,1.751,0,0,0-1.631-.889,1.73,1.73,0,0,0-1.616.894,4.561,4.561,0,0,0-.513,2.29Zm2.705-9.9h3.174l.02.059-2.705,2.539h-2.432Zm8.789,4.512.127,1.514a3.865,3.865,0,0,1,1.3-1.26,3.372,3.372,0,0,1,1.729-.449,3.142,3.142,0,0,1,2.5,1.03,4.884,4.884,0,0,1,.9,3.257V0h-2.861V-6.465a2.529,2.529,0,0,0-.4-1.606,1.458,1.458,0,0,0-1.187-.474,2.49,2.49,0,0,0-1.118.239,2.183,2.183,0,0,0-.8.659V0h-2.852V-10.566ZM133.018.205a4.754,4.754,0,0,1-3.691-1.45A5.315,5.315,0,0,1,128-4.98v-.391a5.785,5.785,0,0,1,1.289-3.887,4.382,4.382,0,0,1,3.545-1.5,4.1,4.1,0,0,1,3.267,1.3,5.152,5.152,0,0,1,1.138,3.511v1.475h-6.3l-.029.059a2.855,2.855,0,0,0,.659,1.758,2.207,2.207,0,0,0,1.753.674,5.865,5.865,0,0,0,1.626-.2,6.634,6.634,0,0,0,1.382-.6l.771,1.758a5.293,5.293,0,0,1-1.719.869A7.622,7.622,0,0,1,133.018.205Zm-.186-8.77a1.584,1.584,0,0,0-1.323.591,2.964,2.964,0,0,0-.562,1.567l.02.049h3.477v-.215a2.468,2.468,0,0,0-.381-1.46A1.409,1.409,0,0,0,132.832-8.564Zm8.672-2,.127,1.514a3.865,3.865,0,0,1,1.3-1.26,3.372,3.372,0,0,1,1.729-.449,3.142,3.142,0,0,1,2.5,1.03,4.884,4.884,0,0,1,.9,3.257V0H145.2V-6.465a2.529,2.529,0,0,0-.4-1.606,1.458,1.458,0,0,0-1.187-.474,2.49,2.49,0,0,0-1.118.239,2.183,2.183,0,0,0-.8.659V0h-2.852V-10.566ZM158.164,0h-2.852V-15.234h2.852Zm8.574,0a6,6,0,0,1-.269-.762,5.3,5.3,0,0,1-.161-.82A3.909,3.909,0,0,1,165.146-.3a2.913,2.913,0,0,1-1.719.508,3.568,3.568,0,0,1-2.559-.854,3.061,3.061,0,0,1-.9-2.329,2.786,2.786,0,0,1,1.2-2.407,5.974,5.974,0,0,1,3.491-.854h1.6v-.84a1.644,1.644,0,0,0-.4-1.182,1.572,1.572,0,0,0-1.191-.42,1.549,1.549,0,0,0-1.069.337,1.176,1.176,0,0,0-.376.923h-2.744l-.02-.059a2.68,2.68,0,0,1,1.167-2.31,5.069,5.069,0,0,1,3.228-.972,4.73,4.73,0,0,1,3.081.957,3.333,3.333,0,0,1,1.177,2.744V-2.7a8.256,8.256,0,0,0,.112,1.4A7.008,7.008,0,0,0,169.58,0Zm-2.607-1.9a2.429,2.429,0,0,0,1.328-.371,2,2,0,0,0,.8-.859V-4.629h-1.6a1.9,1.9,0,0,0-1.372.449,1.476,1.476,0,0,0-.464,1.1,1.1,1.1,0,0,0,.347.854A1.371,1.371,0,0,0,164.131-1.9ZM185.762-4.99a6.069,6.069,0,0,1-1.084,3.77A3.586,3.586,0,0,1,181.65.205,3.384,3.384,0,0,1,180.176-.1a3.029,3.029,0,0,1-1.1-.9V4.063H176.23V-10.566H178.8l.166,1.25a3.386,3.386,0,0,1,1.128-1.069,3.051,3.051,0,0,1,1.538-.376,3.516,3.516,0,0,1,3.047,1.533A6.843,6.843,0,0,1,185.762-5.2ZM182.91-5.2a5.112,5.112,0,0,0-.5-2.422,1.625,1.625,0,0,0-1.523-.928,2.153,2.153,0,0,0-1.1.264,1.881,1.881,0,0,0-.718.752V-2.9a1.748,1.748,0,0,0,.718.684,2.418,2.418,0,0,0,1.118.234,1.64,1.64,0,0,0,1.519-.811,4.279,4.279,0,0,0,.483-2.2Zm10.166-2.92-1.045-.029a1.9,1.9,0,0,0-1.045.264,1.671,1.671,0,0,0-.625.742V0H187.52V-10.566h2.646L190.293-9a3.333,3.333,0,0,1,.962-1.294,2.144,2.144,0,0,1,1.362-.464,2.131,2.131,0,0,1,.4.034q.181.034.366.083Zm.85,2.734a5.67,5.67,0,0,1,1.318-3.872,4.6,4.6,0,0,1,3.652-1.509,4.644,4.644,0,0,1,3.672,1.5A5.64,5.64,0,0,1,203.9-5.381v.205a5.649,5.649,0,0,1-1.323,3.882,4.625,4.625,0,0,1-3.657,1.5,4.637,4.637,0,0,1-3.667-1.5,5.649,5.649,0,0,1-1.323-3.882Zm2.842.205a4.6,4.6,0,0,0,.508,2.319,1.753,1.753,0,0,0,1.641.874,1.736,1.736,0,0,0,1.616-.879,4.566,4.566,0,0,0,.513-2.314v-.205a4.52,4.52,0,0,0-.518-2.295,1.751,1.751,0,0,0-1.631-.889,1.73,1.73,0,0,0-1.616.894,4.561,4.561,0,0,0-.513,2.29Zm18.418.186a6.069,6.069,0,0,1-1.084,3.77A3.586,3.586,0,0,1,211.074.205,3.384,3.384,0,0,1,209.6-.1a3.029,3.029,0,0,1-1.1-.9V4.063h-2.842V-10.566h2.568l.166,1.25a3.386,3.386,0,0,1,1.128-1.069,3.051,3.051,0,0,1,1.538-.376A3.516,3.516,0,0,1,214.1-9.229,6.843,6.843,0,0,1,215.186-5.2ZM212.334-5.2a5.112,5.112,0,0,0-.5-2.422,1.625,1.625,0,0,0-1.523-.928,2.153,2.153,0,0,0-1.1.264,1.881,1.881,0,0,0-.718.752V-2.9a1.748,1.748,0,0,0,.718.684,2.418,2.418,0,0,0,1.118.234,1.64,1.64,0,0,0,1.519-.811,4.279,4.279,0,0,0,.483-2.2ZM223.174,0a6,6,0,0,1-.269-.762,5.3,5.3,0,0,1-.161-.82A3.909,3.909,0,0,1,221.582-.3a2.913,2.913,0,0,1-1.719.508A3.568,3.568,0,0,1,217.3-.649a3.061,3.061,0,0,1-.9-2.329,2.786,2.786,0,0,1,1.2-2.407,5.974,5.974,0,0,1,3.491-.854h1.6v-.84a1.644,1.644,0,0,0-.4-1.182,1.572,1.572,0,0,0-1.191-.42,1.549,1.549,0,0,0-1.069.337,1.176,1.176,0,0,0-.376.923h-2.744l-.02-.059a2.68,2.68,0,0,1,1.167-2.31,5.069,5.069,0,0,1,3.228-.972,4.73,4.73,0,0,1,3.081.957,3.333,3.333,0,0,1,1.177,2.744V-2.7a8.256,8.256,0,0,0,.112,1.4,7.008,7.008,0,0,0,.356,1.3Zm-2.607-1.9a2.429,2.429,0,0,0,1.328-.371,2,2,0,0,0,.8-.859V-4.629h-1.6a1.9,1.9,0,0,0-1.372.449,1.476,1.476,0,0,0-.464,1.1,1.1,1.1,0,0,0,.347.854A1.371,1.371,0,0,0,220.566-1.9Zm6.7-3.291a6.843,6.843,0,0,1,1.084-4.033,3.516,3.516,0,0,1,3.047-1.533,3,3,0,0,1,1.563.4,3.507,3.507,0,0,1,1.152,1.143l.225-1.348h2.451V-.049a3.927,3.927,0,0,1-1.348,3.188,5.69,5.69,0,0,1-3.76,1.128,7.163,7.163,0,0,1-1.7-.22,7.891,7.891,0,0,1-1.66-.6l.479-2.129a6.544,6.544,0,0,0,1.353.474,6.7,6.7,0,0,0,1.509.161,2.552,2.552,0,0,0,1.724-.488,1.933,1.933,0,0,0,.552-1.523v-.957a3.19,3.19,0,0,1-1.1.908,3.253,3.253,0,0,1-1.455.313,3.586,3.586,0,0,1-3.027-1.426,6.069,6.069,0,0,1-1.084-3.77Zm2.852.205a4.341,4.341,0,0,0,.464,2.183,1.621,1.621,0,0,0,1.519.8,2.354,2.354,0,0,0,1.108-.239,1.828,1.828,0,0,0,.728-.7v-4.58a1.949,1.949,0,0,0-.728-.752,2.133,2.133,0,0,0-1.089-.264,1.6,1.6,0,0,0-1.523.928,5.288,5.288,0,0,0-.479,2.422ZM245.205,0a6,6,0,0,1-.269-.762,5.3,5.3,0,0,1-.161-.82A3.909,3.909,0,0,1,243.613-.3a2.913,2.913,0,0,1-1.719.508,3.568,3.568,0,0,1-2.559-.854,3.061,3.061,0,0,1-.9-2.329,2.786,2.786,0,0,1,1.2-2.407,5.974,5.974,0,0,1,3.491-.854h1.6v-.84a1.644,1.644,0,0,0-.4-1.182,1.572,1.572,0,0,0-1.191-.42,1.549,1.549,0,0,0-1.069.337,1.176,1.176,0,0,0-.376.923h-2.744l-.02-.059a2.68,2.68,0,0,1,1.167-2.31,5.069,5.069,0,0,1,3.228-.972A4.73,4.73,0,0,1,246.4-9.8a3.333,3.333,0,0,1,1.177,2.744V-2.7a8.256,8.256,0,0,0,.112,1.4,7.008,7.008,0,0,0,.356,1.3ZM242.6-1.9a2.429,2.429,0,0,0,1.328-.371,2,2,0,0,0,.8-.859V-4.629h-1.6a1.9,1.9,0,0,0-1.372.449,1.476,1.476,0,0,0-.464,1.1,1.1,1.1,0,0,0,.347.854A1.371,1.371,0,0,0,242.6-1.9Zm11.533-.078a1.587,1.587,0,0,0,1.182-.444,1.614,1.614,0,0,0,.439-1.187h2.6l.02.059a3.307,3.307,0,0,1-1.191,2.681A4.455,4.455,0,0,1,254.131.205a4.5,4.5,0,0,1-3.623-1.5,5.7,5.7,0,0,1-1.279-3.833V-5.42A5.735,5.735,0,0,1,250.5-9.253a4.463,4.463,0,0,1,3.608-1.509,4.358,4.358,0,0,1,3.115,1.113,3.721,3.721,0,0,1,1.143,2.93l-.02.059h-2.6a2.109,2.109,0,0,0-.435-1.362,1.46,1.46,0,0,0-1.206-.542,1.627,1.627,0,0,0-1.567.884,4.847,4.847,0,0,0-.464,2.261v.293a4.829,4.829,0,0,0,.464,2.275A1.649,1.649,0,0,0,254.131-1.982ZM263.027,0h-2.852V-10.566h2.852Zm0-13.1h-2.852v-2.139h2.852Zm1.9,7.715a5.67,5.67,0,0,1,1.318-3.872,4.6,4.6,0,0,1,3.652-1.509,4.644,4.644,0,0,1,3.672,1.5A5.64,5.64,0,0,1,274.9-5.381v.205a5.649,5.649,0,0,1-1.323,3.882,4.625,4.625,0,0,1-3.657,1.5,4.637,4.637,0,0,1-3.667-1.5,5.649,5.649,0,0,1-1.323-3.882Zm2.842.205a4.6,4.6,0,0,0,.508,2.319,1.753,1.753,0,0,0,1.641.874,1.736,1.736,0,0,0,1.616-.879,4.566,4.566,0,0,0,.513-2.314v-.205a4.52,4.52,0,0,0-.518-2.295,1.751,1.751,0,0,0-1.631-.889,1.73,1.73,0,0,0-1.616.894,4.561,4.561,0,0,0-.513,2.29Zm2.705-9.9h3.174l.02.059-2.705,2.539h-2.432Zm8.789,4.512.127,1.514a3.865,3.865,0,0,1,1.3-1.26,3.371,3.371,0,0,1,1.729-.449,3.142,3.142,0,0,1,2.5,1.03,4.884,4.884,0,0,1,.9,3.257V0h-2.861V-6.465a2.529,2.529,0,0,0-.4-1.606,1.458,1.458,0,0,0-1.187-.474,2.49,2.49,0,0,0-1.118.239,2.183,2.183,0,0,0-.8.659V0h-2.852V-10.566Zm17.48,6.631.186.977h.059l.2-.977,1.738-6.631H301.9L298.311,0h-2.725l-3.594-10.566h2.979ZM307.6.205a4.754,4.754,0,0,1-3.691-1.45,5.315,5.315,0,0,1-1.328-3.735v-.391a5.785,5.785,0,0,1,1.289-3.887,4.382,4.382,0,0,1,3.545-1.5,4.1,4.1,0,0,1,3.267,1.3,5.152,5.152,0,0,1,1.138,3.511v1.475h-6.3l-.029.059a2.855,2.855,0,0,0,.659,1.758,2.207,2.207,0,0,0,1.753.674,5.865,5.865,0,0,0,1.626-.2,6.634,6.634,0,0,0,1.382-.6l.771,1.758a5.293,5.293,0,0,1-1.719.869A7.622,7.622,0,0,1,307.6.205Zm-.186-8.77a1.584,1.584,0,0,0-1.323.591,2.964,2.964,0,0,0-.562,1.567l.02.049h3.477v-.215a2.468,2.468,0,0,0-.381-1.46A1.409,1.409,0,0,0,307.412-8.564ZM313.057-5.2a6.843,6.843,0,0,1,1.084-4.033,3.516,3.516,0,0,1,3.047-1.533,3,3,0,0,1,1.563.4A3.507,3.507,0,0,1,319.9-9.219l.225-1.348h2.451V-.049A3.927,3.927,0,0,1,321.23,3.14a5.69,5.69,0,0,1-3.76,1.128,7.163,7.163,0,0,1-1.7-.22,7.891,7.891,0,0,1-1.66-.6l.479-2.129a6.544,6.544,0,0,0,1.353.474,6.7,6.7,0,0,0,1.509.161,2.552,2.552,0,0,0,1.724-.488,1.933,1.933,0,0,0,.552-1.523v-.957a3.19,3.19,0,0,1-1.1.908,3.253,3.253,0,0,1-1.455.313,3.586,3.586,0,0,1-3.027-1.426,6.069,6.069,0,0,1-1.084-3.77Zm2.852.205a4.341,4.341,0,0,0,.464,2.183,1.621,1.621,0,0,0,1.519.8A2.354,2.354,0,0,0,319-2.251a1.828,1.828,0,0,0,.728-.7v-4.58A1.949,1.949,0,0,0,319-8.281a2.133,2.133,0,0,0-1.089-.264,1.6,1.6,0,0,0-1.523.928,5.288,5.288,0,0,0-.479,2.422Zm13.438,5.2a4.754,4.754,0,0,1-3.691-1.45,5.315,5.315,0,0,1-1.328-3.735v-.391a5.785,5.785,0,0,1,1.289-3.887,4.382,4.382,0,0,1,3.545-1.5,4.1,4.1,0,0,1,3.267,1.3,5.152,5.152,0,0,1,1.138,3.511v1.475h-6.3l-.029.059a2.855,2.855,0,0,0,.659,1.758,2.207,2.207,0,0,0,1.753.674,5.865,5.865,0,0,0,1.626-.2,6.634,6.634,0,0,0,1.382-.6l.771,1.758a5.293,5.293,0,0,1-1.719.869A7.622,7.622,0,0,1,329.346.205Zm-.186-8.77a1.584,1.584,0,0,0-1.323.591,2.964,2.964,0,0,0-.562,1.567l.02.049h3.477v-.215a2.468,2.468,0,0,0-.381-1.46A1.409,1.409,0,0,0,329.16-8.564Zm9.482-4.59v2.588h1.787v2h-1.787v5.381a1.228,1.228,0,0,0,.259.879.909.909,0,0,0,.679.264,2.722,2.722,0,0,0,.391-.024,3.289,3.289,0,0,0,.381-.083l.234,2.061a5.773,5.773,0,0,1-.835.22,4.978,4.978,0,0,1-.884.073A3.039,3.039,0,0,1,336.6-.605a3.554,3.554,0,0,1-.8-2.568V-8.564h-1.543v-2H335.8v-2.588ZM348.418,0a6,6,0,0,1-.269-.762,5.3,5.3,0,0,1-.161-.82A3.908,3.908,0,0,1,346.826-.3a2.913,2.913,0,0,1-1.719.508,3.568,3.568,0,0,1-2.559-.854,3.061,3.061,0,0,1-.9-2.329,2.786,2.786,0,0,1,1.2-2.407,5.974,5.974,0,0,1,3.491-.854h1.6v-.84a1.644,1.644,0,0,0-.4-1.182,1.572,1.572,0,0,0-1.191-.42,1.549,1.549,0,0,0-1.069.337,1.176,1.176,0,0,0-.376.923h-2.744l-.02-.059a2.68,2.68,0,0,1,1.167-2.31,5.069,5.069,0,0,1,3.228-.972,4.73,4.73,0,0,1,3.081.957,3.333,3.333,0,0,1,1.177,2.744V-2.7a8.257,8.257,0,0,0,.112,1.4A7.008,7.008,0,0,0,351.26,0Zm-2.607-1.9a2.429,2.429,0,0,0,1.328-.371,2,2,0,0,0,.8-.859V-4.629h-1.6a1.9,1.9,0,0,0-1.372.449,1.476,1.476,0,0,0-.464,1.1,1.1,1.1,0,0,0,.347.854A1.371,1.371,0,0,0,345.811-1.9ZM355.928,0h-2.852V-15.234h2.852Z" transform="translate(0 43.501)" fill="#fff"/>
    </g>
    <g id="Grupo_894144" data-name="Grupo 894144" transform="translate(287.114 323.629)">
      <path id="Trazado_622658" data-name="Trazado 622658" d="M11.973-4.707l.02.059a4.451,4.451,0,0,1-1.387,3.564A5.654,5.654,0,0,1,6.67.205,5.451,5.451,0,0,1,2.539-1.44,5.9,5.9,0,0,1,.967-5.693V-8.516A6.011,6.011,0,0,1,2.5-12.769a5.227,5.227,0,0,1,4.023-1.655,6,6,0,0,1,4.063,1.27A4.371,4.371,0,0,1,12.012-9.58l-.02.059H9.219a2.8,2.8,0,0,0-.659-2.036,2.749,2.749,0,0,0-2.036-.669,2.3,2.3,0,0,0-2,1.03,4.556,4.556,0,0,0-.718,2.661v2.842a4.422,4.422,0,0,0,.757,2.676,2.46,2.46,0,0,0,2.1,1.035,2.5,2.5,0,0,0,1.909-.669,2.91,2.91,0,0,0,.63-2.056Zm1.406-.674A5.67,5.67,0,0,1,14.7-9.253a4.6,4.6,0,0,1,3.652-1.509,4.644,4.644,0,0,1,3.672,1.5A5.64,5.64,0,0,1,23.35-5.381v.205a5.649,5.649,0,0,1-1.323,3.882,4.625,4.625,0,0,1-3.657,1.5,4.637,4.637,0,0,1-3.667-1.5,5.649,5.649,0,0,1-1.323-3.882Zm2.842.205a4.6,4.6,0,0,0,.508,2.319,1.753,1.753,0,0,0,1.641.874,1.736,1.736,0,0,0,1.616-.879A4.566,4.566,0,0,0,20.5-5.176v-.205a4.52,4.52,0,0,0-.518-2.295,1.751,1.751,0,0,0-1.631-.889,1.73,1.73,0,0,0-1.616.894,4.561,4.561,0,0,0-.513,2.29Zm11.494-5.391.127,1.514a3.865,3.865,0,0,1,1.3-1.26,3.372,3.372,0,0,1,1.729-.449,3.142,3.142,0,0,1,2.5,1.03,4.884,4.884,0,0,1,.9,3.257V0H31.406V-6.465a2.529,2.529,0,0,0-.4-1.606,1.458,1.458,0,0,0-1.187-.474,2.49,2.49,0,0,0-1.118.239,2.183,2.183,0,0,0-.8.659V0H25.059V-10.566ZM35.957-5.2a6.866,6.866,0,0,1,1.079-4.033,3.5,3.5,0,0,1,3.042-1.533,2.959,2.959,0,0,1,1.426.342,3.43,3.43,0,0,1,1.113.977v-5.791h2.861V0H43.047L42.8-1.3A3.532,3.532,0,0,1,41.621-.181a3.124,3.124,0,0,1-1.562.386,3.573,3.573,0,0,1-3.022-1.426,6.088,6.088,0,0,1-1.079-3.77ZM38.8-4.99a4.3,4.3,0,0,0,.469,2.183,1.632,1.632,0,0,0,1.523.8,2.219,2.219,0,0,0,1.074-.249,1.987,1.987,0,0,0,.752-.728v-4.5a2.195,2.195,0,0,0-.747-.776,1.987,1.987,0,0,0-1.06-.278,1.609,1.609,0,0,0-1.528.928A5.243,5.243,0,0,0,38.8-5.2ZM50.684,0H47.832V-10.566h2.852Zm0-13.1H47.832v-2.139h2.852ZM57.441-1.982a1.587,1.587,0,0,0,1.182-.444,1.614,1.614,0,0,0,.439-1.187h2.6l.02.059A3.307,3.307,0,0,1,60.488-.874,4.455,4.455,0,0,1,57.441.205a4.5,4.5,0,0,1-3.623-1.5,5.7,5.7,0,0,1-1.279-3.833V-5.42a5.735,5.735,0,0,1,1.274-3.833,4.463,4.463,0,0,1,3.608-1.509,4.358,4.358,0,0,1,3.115,1.113,3.72,3.72,0,0,1,1.143,2.93l-.02.059h-2.6a2.109,2.109,0,0,0-.435-1.362,1.46,1.46,0,0,0-1.206-.542,1.627,1.627,0,0,0-1.567.884,4.847,4.847,0,0,0-.464,2.261v.293a4.829,4.829,0,0,0,.464,2.275A1.649,1.649,0,0,0,57.441-1.982ZM66.338,0H63.486V-10.566h2.852Zm0-13.1H63.486v-2.139h2.852Zm1.9,7.715a5.67,5.67,0,0,1,1.318-3.872,4.6,4.6,0,0,1,3.652-1.509,4.644,4.644,0,0,1,3.672,1.5,5.64,5.64,0,0,1,1.328,3.877v.205A5.649,5.649,0,0,1,76.89-1.294a4.625,4.625,0,0,1-3.657,1.5,4.637,4.637,0,0,1-3.667-1.5,5.649,5.649,0,0,1-1.323-3.882Zm2.842.205a4.6,4.6,0,0,0,.508,2.319,1.753,1.753,0,0,0,1.641.874,1.736,1.736,0,0,0,1.616-.879,4.566,4.566,0,0,0,.513-2.314v-.205a4.52,4.52,0,0,0-.518-2.295,1.751,1.751,0,0,0-1.631-.889,1.73,1.73,0,0,0-1.616.894,4.561,4.561,0,0,0-.513,2.29Zm11.494-5.391.127,1.514a3.865,3.865,0,0,1,1.3-1.26,3.372,3.372,0,0,1,1.729-.449,3.142,3.142,0,0,1,2.5,1.03,4.884,4.884,0,0,1,.9,3.257V0H86.27V-6.465a2.529,2.529,0,0,0-.4-1.606,1.458,1.458,0,0,0-1.187-.474,2.49,2.49,0,0,0-1.118.239,2.183,2.183,0,0,0-.8.659V0H79.922V-10.566ZM95.84.205a4.754,4.754,0,0,1-3.691-1.45A5.315,5.315,0,0,1,90.82-4.98v-.391a5.785,5.785,0,0,1,1.289-3.887,4.382,4.382,0,0,1,3.545-1.5,4.1,4.1,0,0,1,3.267,1.3,5.152,5.152,0,0,1,1.138,3.511v1.475h-6.3l-.029.059a2.855,2.855,0,0,0,.659,1.758,2.207,2.207,0,0,0,1.753.674,5.865,5.865,0,0,0,1.626-.2,6.634,6.634,0,0,0,1.382-.6l.771,1.758A5.293,5.293,0,0,1,98.2-.146,7.622,7.622,0,0,1,95.84.205Zm-.186-8.77a1.584,1.584,0,0,0-1.323.591,2.964,2.964,0,0,0-.562,1.567l.02.049h3.477v-.215a2.468,2.468,0,0,0-.381-1.46A1.409,1.409,0,0,0,95.654-8.564ZM107.432-2.93a.984.984,0,0,0-.454-.806,4.612,4.612,0,0,0-1.685-.591,6.719,6.719,0,0,1-2.817-1.123,2.453,2.453,0,0,1-.962-2.041A2.911,2.911,0,0,1,102.666-9.8a4.646,4.646,0,0,1,3.066-.957,5.014,5.014,0,0,1,3.208.957A2.8,2.8,0,0,1,110.1-7.422l-.02.059h-2.754a1.383,1.383,0,0,0-.41-1.035,1.623,1.623,0,0,0-1.182-.4,1.614,1.614,0,0,0-1.084.342,1.063,1.063,0,0,0-.4.84.948.948,0,0,0,.415.8,4.62,4.62,0,0,0,1.685.552,6.855,6.855,0,0,1,2.9,1.147,2.517,2.517,0,0,1,.952,2.085A2.789,2.789,0,0,1,108.975-.7a5.269,5.269,0,0,1-3.223.908,4.9,4.9,0,0,1-3.335-1.069A2.99,2.99,0,0,1,101.25-3.3l.02-.059h2.607a1.482,1.482,0,0,0,.557,1.23,2.3,2.3,0,0,0,1.377.381,1.958,1.958,0,0,0,1.206-.317A1.03,1.03,0,0,0,107.432-2.93Z" transform="translate(0 19)" fill="#fff"/>
    </g>
    <g id="Grupo_894145" data-name="Grupo 894145" transform="translate(189.01 509.787)">
      <path id="Trazado_622672" data-name="Trazado 622672" d="M8.721-3.066H4.111L3.154,0H.176L4.971-14.219h2.92L12.666,0H9.688ZM4.814-5.3H8.027l-1.572-5.01H6.4ZM16-10.566l.117,1.4a3.55,3.55,0,0,1,1.274-1.177,3.665,3.665,0,0,1,1.772-.415,3.228,3.228,0,0,1,1.738.449,2.771,2.771,0,0,1,1.094,1.357,3.662,3.662,0,0,1,1.27-1.328,3.445,3.445,0,0,1,1.836-.479,3.011,3.011,0,0,1,2.466,1.108,5.291,5.291,0,0,1,.9,3.384V0H25.615V-6.279a2.962,2.962,0,0,0-.391-1.768,1.387,1.387,0,0,0-1.162-.5,1.991,1.991,0,0,0-1.05.269,1.956,1.956,0,0,0-.708.747q0,.186.01.317t.01.269V0H19.482V-6.279a2.97,2.97,0,0,0-.391-1.753,1.38,1.38,0,0,0-1.172-.513,2.212,2.212,0,0,0-1.011.22,1.938,1.938,0,0,0-.718.62V0H13.35V-10.566ZM40.186-4.99a6.181,6.181,0,0,1-1.055,3.779A3.567,3.567,0,0,1,36.084.205a3.22,3.22,0,0,1-1.616-.391A3.34,3.34,0,0,1,33.3-1.328L33.066,0H30.654V-15.234H33.5v5.791a3.228,3.228,0,0,1,1.1-.977,3.071,3.071,0,0,1,1.47-.342,3.5,3.5,0,0,1,3.066,1.519A6.971,6.971,0,0,1,40.186-5.2ZM37.344-5.2a5.5,5.5,0,0,0-.454-2.446,1.593,1.593,0,0,0-1.548-.9,2.128,2.128,0,0,0-1.123.278,1.929,1.929,0,0,0-.723.8V-3a1.812,1.812,0,0,0,.728.732,2.342,2.342,0,0,0,1.138.254A1.621,1.621,0,0,0,36.9-2.788a4.522,4.522,0,0,0,.439-2.2Zm7.6,5.2H42.09V-10.566h2.852Zm0-13.1H42.09v-2.139h2.852ZM51.865.205a4.754,4.754,0,0,1-3.691-1.45A5.315,5.315,0,0,1,46.846-4.98v-.391a5.785,5.785,0,0,1,1.289-3.887,4.382,4.382,0,0,1,3.545-1.5,4.1,4.1,0,0,1,3.267,1.3,5.152,5.152,0,0,1,1.138,3.511v1.475h-6.3l-.029.059a2.855,2.855,0,0,0,.659,1.758,2.207,2.207,0,0,0,1.753.674,5.865,5.865,0,0,0,1.626-.2,6.634,6.634,0,0,0,1.382-.6l.771,1.758a5.293,5.293,0,0,1-1.719.869A7.622,7.622,0,0,1,51.865.205Zm-.186-8.77a1.584,1.584,0,0,0-1.323.591,2.964,2.964,0,0,0-.562,1.567l.02.049h3.477v-.215a2.468,2.468,0,0,0-.381-1.46A1.409,1.409,0,0,0,51.68-8.564Zm8.672-2,.127,1.514a3.865,3.865,0,0,1,1.3-1.26,3.372,3.372,0,0,1,1.729-.449,3.142,3.142,0,0,1,2.5,1.03,4.884,4.884,0,0,1,.9,3.257V0H64.043V-6.465a2.529,2.529,0,0,0-.4-1.606,1.458,1.458,0,0,0-1.187-.474,2.49,2.49,0,0,0-1.118.239,2.183,2.183,0,0,0-.8.659V0H57.7V-10.566Zm12.1-2.588v2.588h1.787v2H72.451v5.381a1.228,1.228,0,0,0,.259.879.909.909,0,0,0,.679.264,2.722,2.722,0,0,0,.391-.024,3.29,3.29,0,0,0,.381-.083l.234,2.061a5.773,5.773,0,0,1-.835.22,4.978,4.978,0,0,1-.884.073,3.039,3.039,0,0,1-2.271-.811,3.554,3.554,0,0,1-.8-2.568V-8.564H68.066v-2h1.543v-2.588ZM82.227,0a6,6,0,0,1-.269-.762,5.3,5.3,0,0,1-.161-.82A3.908,3.908,0,0,1,80.635-.3a2.913,2.913,0,0,1-1.719.508,3.568,3.568,0,0,1-2.559-.854,3.061,3.061,0,0,1-.9-2.329,2.786,2.786,0,0,1,1.2-2.407,5.974,5.974,0,0,1,3.491-.854h1.6v-.84a1.644,1.644,0,0,0-.4-1.182,1.572,1.572,0,0,0-1.191-.42,1.549,1.549,0,0,0-1.069.337,1.176,1.176,0,0,0-.376.923H75.967l-.02-.059a2.68,2.68,0,0,1,1.167-2.31,5.069,5.069,0,0,1,3.228-.972,4.73,4.73,0,0,1,3.081.957A3.333,3.333,0,0,1,84.6-7.061V-2.7a8.256,8.256,0,0,0,.112,1.4A7.008,7.008,0,0,0,85.068,0ZM79.619-1.9a2.429,2.429,0,0,0,1.328-.371,2,2,0,0,0,.8-.859V-4.629h-1.6a1.9,1.9,0,0,0-1.372.449,1.476,1.476,0,0,0-.464,1.1,1.1,1.1,0,0,0,.347.854A1.371,1.371,0,0,0,79.619-1.9ZM89.736,0H86.885V-15.234h2.852ZM96.66.205a4.754,4.754,0,0,1-3.691-1.45A5.315,5.315,0,0,1,91.641-4.98v-.391A5.785,5.785,0,0,1,92.93-9.258a4.382,4.382,0,0,1,3.545-1.5,4.1,4.1,0,0,1,3.267,1.3,5.152,5.152,0,0,1,1.138,3.511v1.475h-6.3l-.029.059a2.855,2.855,0,0,0,.659,1.758,2.207,2.207,0,0,0,1.753.674,5.865,5.865,0,0,0,1.626-.2,6.634,6.634,0,0,0,1.382-.6l.771,1.758a5.293,5.293,0,0,1-1.719.869A7.622,7.622,0,0,1,96.66.205Zm-.186-8.77a1.584,1.584,0,0,0-1.323.591,2.964,2.964,0,0,0-.562,1.567l.02.049h3.477v-.215a2.468,2.468,0,0,0-.381-1.46A1.409,1.409,0,0,0,96.475-8.564ZM108.252-2.93a.984.984,0,0,0-.454-.806,4.612,4.612,0,0,0-1.685-.591A6.719,6.719,0,0,1,103.3-5.449a2.453,2.453,0,0,1-.962-2.041A2.911,2.911,0,0,1,103.486-9.8a4.646,4.646,0,0,1,3.066-.957,5.014,5.014,0,0,1,3.208.957,2.8,2.8,0,0,1,1.157,2.383l-.02.059h-2.754a1.383,1.383,0,0,0-.41-1.035,1.623,1.623,0,0,0-1.182-.4,1.614,1.614,0,0,0-1.084.342,1.063,1.063,0,0,0-.4.84.948.948,0,0,0,.415.8,4.62,4.62,0,0,0,1.685.552,6.855,6.855,0,0,1,2.9,1.147,2.517,2.517,0,0,1,.952,2.085A2.789,2.789,0,0,1,109.795-.7a5.269,5.269,0,0,1-3.223.908,4.9,4.9,0,0,1-3.335-1.069A2.99,2.99,0,0,1,102.07-3.3l.02-.059H104.7a1.482,1.482,0,0,0,.557,1.23,2.3,2.3,0,0,0,1.377.381,1.958,1.958,0,0,0,1.206-.317A1.03,1.03,0,0,0,108.252-2.93Z" transform="translate(0 19)" fill="#fff"/>
    </g>
    <g id="Grupo_894146" data-name="Grupo 894146" transform="translate(153.542 682.147)">
      <path id="Trazado_622673" data-name="Trazado 622673" d="M8.721-3.066H4.111L3.154,0H.176L4.971-14.219h2.92L12.666,0H9.688ZM4.814-5.3H8.027l-1.572-5.01H6.4ZM13.4-5.2a6.843,6.843,0,0,1,1.084-4.033,3.516,3.516,0,0,1,3.047-1.533,3,3,0,0,1,1.563.4,3.507,3.507,0,0,1,1.152,1.143l.225-1.348H22.92V-.049A3.927,3.927,0,0,1,21.572,3.14a5.69,5.69,0,0,1-3.76,1.128,7.163,7.163,0,0,1-1.7-.22,7.891,7.891,0,0,1-1.66-.6l.479-2.129a6.544,6.544,0,0,0,1.353.474,6.7,6.7,0,0,0,1.509.161,2.552,2.552,0,0,0,1.724-.488,1.933,1.933,0,0,0,.552-1.523v-.957a3.19,3.19,0,0,1-1.1.908A3.253,3.253,0,0,1,17.51.205a3.586,3.586,0,0,1-3.027-1.426A6.069,6.069,0,0,1,13.4-4.99Zm2.852.205a4.341,4.341,0,0,0,.464,2.183,1.621,1.621,0,0,0,1.519.8,2.354,2.354,0,0,0,1.108-.239,1.828,1.828,0,0,0,.728-.7v-4.58a1.949,1.949,0,0,0-.728-.752,2.133,2.133,0,0,0-1.089-.264,1.6,1.6,0,0,0-1.523.928A5.288,5.288,0,0,0,16.25-5.2ZM30.664-8.115l-1.045-.029a1.9,1.9,0,0,0-1.045.264,1.671,1.671,0,0,0-.625.742V0H25.107V-10.566h2.646L27.881-9a3.333,3.333,0,0,1,.962-1.294,2.144,2.144,0,0,1,1.362-.464,2.131,2.131,0,0,1,.4.034q.181.034.366.083Zm.85,2.734a5.67,5.67,0,0,1,1.318-3.872,4.6,4.6,0,0,1,3.652-1.509,4.644,4.644,0,0,1,3.672,1.5,5.64,5.64,0,0,1,1.328,3.877v.205a5.649,5.649,0,0,1-1.323,3.882A4.625,4.625,0,0,1,36.5.205a4.637,4.637,0,0,1-3.667-1.5,5.649,5.649,0,0,1-1.323-3.882Zm2.842.205a4.6,4.6,0,0,0,.508,2.319,1.753,1.753,0,0,0,1.641.874,1.736,1.736,0,0,0,1.616-.879,4.566,4.566,0,0,0,.513-2.314v-.205a4.52,4.52,0,0,0-.518-2.295,1.751,1.751,0,0,0-1.631-.889,1.73,1.73,0,0,0-1.616.894,4.561,4.561,0,0,0-.513,2.29ZM49.473,0A6,6,0,0,1,49.2-.762a5.3,5.3,0,0,1-.161-.82A3.909,3.909,0,0,1,47.881-.3a2.913,2.913,0,0,1-1.719.508A3.568,3.568,0,0,1,43.6-.649a3.061,3.061,0,0,1-.9-2.329,2.786,2.786,0,0,1,1.2-2.407,5.974,5.974,0,0,1,3.491-.854h1.6v-.84a1.644,1.644,0,0,0-.4-1.182,1.572,1.572,0,0,0-1.191-.42,1.549,1.549,0,0,0-1.069.337,1.176,1.176,0,0,0-.376.923H43.213l-.02-.059A2.68,2.68,0,0,1,44.36-9.79a5.069,5.069,0,0,1,3.228-.972,4.73,4.73,0,0,1,3.081.957,3.333,3.333,0,0,1,1.177,2.744V-2.7a8.256,8.256,0,0,0,.112,1.4A7.008,7.008,0,0,0,52.314,0ZM46.865-1.9a2.429,2.429,0,0,0,1.328-.371,2,2,0,0,0,.8-.859V-4.629h-1.6a1.9,1.9,0,0,0-1.372.449,1.476,1.476,0,0,0-.464,1.1,1.1,1.1,0,0,0,.347.854A1.371,1.371,0,0,0,46.865-1.9Zm9.766-8.662.117,1.4a3.55,3.55,0,0,1,1.274-1.177,3.665,3.665,0,0,1,1.772-.415,3.228,3.228,0,0,1,1.738.449,2.771,2.771,0,0,1,1.094,1.357,3.662,3.662,0,0,1,1.27-1.328,3.445,3.445,0,0,1,1.836-.479A3.011,3.011,0,0,1,68.2-9.653a5.291,5.291,0,0,1,.9,3.384V0H66.25V-6.279a2.962,2.962,0,0,0-.391-1.768,1.387,1.387,0,0,0-1.162-.5,1.991,1.991,0,0,0-1.05.269,1.956,1.956,0,0,0-.708.747q0,.186.01.317t.01.269V0H60.117V-6.279a2.97,2.97,0,0,0-.391-1.753,1.38,1.38,0,0,0-1.172-.513,2.212,2.212,0,0,0-1.011.22,1.938,1.938,0,0,0-.718.62V0H53.984V-10.566ZM80.82-4.99a6.181,6.181,0,0,1-1.055,3.779A3.567,3.567,0,0,1,76.719.205,3.22,3.22,0,0,1,75.1-.186a3.34,3.34,0,0,1-1.167-1.143L73.7,0H71.289V-15.234h2.842v5.791a3.228,3.228,0,0,1,1.1-.977,3.071,3.071,0,0,1,1.47-.342,3.5,3.5,0,0,1,3.066,1.519A6.971,6.971,0,0,1,80.82-5.2ZM77.979-5.2a5.5,5.5,0,0,0-.454-2.446,1.593,1.593,0,0,0-1.548-.9,2.128,2.128,0,0,0-1.123.278,1.929,1.929,0,0,0-.723.8V-3a1.812,1.812,0,0,0,.728.732A2.342,2.342,0,0,0,76-2.012a1.621,1.621,0,0,0,1.543-.776,4.522,4.522,0,0,0,.439-2.2Zm7.6,5.2H82.725V-10.566h2.852Zm0-13.1H82.725v-2.139h2.852ZM92.5.205a4.754,4.754,0,0,1-3.691-1.45A5.315,5.315,0,0,1,87.48-4.98v-.391A5.785,5.785,0,0,1,88.77-9.258a4.382,4.382,0,0,1,3.545-1.5,4.1,4.1,0,0,1,3.267,1.3,5.152,5.152,0,0,1,1.138,3.511v1.475h-6.3l-.029.059a2.855,2.855,0,0,0,.659,1.758,2.207,2.207,0,0,0,1.753.674,5.865,5.865,0,0,0,1.626-.2,6.634,6.634,0,0,0,1.382-.6l.771,1.758a5.293,5.293,0,0,1-1.719.869A7.622,7.622,0,0,1,92.5.205Zm-.186-8.77a1.584,1.584,0,0,0-1.323.591,2.964,2.964,0,0,0-.562,1.567l.02.049h3.477v-.215a2.468,2.468,0,0,0-.381-1.46A1.409,1.409,0,0,0,92.314-8.564Zm8.672-2,.127,1.514a3.865,3.865,0,0,1,1.3-1.26,3.372,3.372,0,0,1,1.729-.449,3.142,3.142,0,0,1,2.5,1.03,4.884,4.884,0,0,1,.9,3.257V0h-2.861V-6.465a2.529,2.529,0,0,0-.4-1.606,1.458,1.458,0,0,0-1.187-.474,2.49,2.49,0,0,0-1.118.239,2.183,2.183,0,0,0-.8.659V0H98.33V-10.566Zm12.1-2.588v2.588h1.787v2h-1.787v5.381a1.228,1.228,0,0,0,.259.879.909.909,0,0,0,.679.264,2.722,2.722,0,0,0,.391-.024,3.29,3.29,0,0,0,.381-.083l.234,2.061a5.773,5.773,0,0,1-.835.22,4.978,4.978,0,0,1-.884.073,3.039,3.039,0,0,1-2.271-.811,3.554,3.554,0,0,1-.8-2.568V-8.564H108.7v-2h1.543v-2.588ZM122.861,0a6,6,0,0,1-.269-.762,5.3,5.3,0,0,1-.161-.82A3.908,3.908,0,0,1,121.27-.3a2.913,2.913,0,0,1-1.719.508,3.568,3.568,0,0,1-2.559-.854,3.061,3.061,0,0,1-.9-2.329,2.786,2.786,0,0,1,1.2-2.407,5.974,5.974,0,0,1,3.491-.854h1.6v-.84a1.644,1.644,0,0,0-.4-1.182,1.572,1.572,0,0,0-1.191-.42,1.549,1.549,0,0,0-1.069.337,1.176,1.176,0,0,0-.376.923H116.6l-.02-.059a2.68,2.68,0,0,1,1.167-2.31,5.069,5.069,0,0,1,3.228-.972,4.73,4.73,0,0,1,3.081.957,3.333,3.333,0,0,1,1.177,2.744V-2.7a8.256,8.256,0,0,0,.112,1.4A7.008,7.008,0,0,0,125.7,0Zm-2.607-1.9a2.429,2.429,0,0,0,1.328-.371,2,2,0,0,0,.8-.859V-4.629h-1.6a1.9,1.9,0,0,0-1.372.449,1.476,1.476,0,0,0-.464,1.1,1.1,1.1,0,0,0,.347.854A1.371,1.371,0,0,0,120.254-1.9ZM130.371,0H127.52V-15.234h2.852Zm6.924.205a4.754,4.754,0,0,1-3.691-1.45,5.315,5.315,0,0,1-1.328-3.735v-.391a5.785,5.785,0,0,1,1.289-3.887,4.382,4.382,0,0,1,3.545-1.5,4.1,4.1,0,0,1,3.267,1.3,5.152,5.152,0,0,1,1.138,3.511v1.475h-6.3l-.029.059a2.855,2.855,0,0,0,.659,1.758,2.207,2.207,0,0,0,1.753.674,5.865,5.865,0,0,0,1.626-.2,6.634,6.634,0,0,0,1.382-.6l.771,1.758a5.293,5.293,0,0,1-1.719.869A7.622,7.622,0,0,1,137.295.205Zm-.186-8.77a1.584,1.584,0,0,0-1.323.591,2.964,2.964,0,0,0-.562,1.567l.02.049h3.477v-.215a2.468,2.468,0,0,0-.381-1.46A1.409,1.409,0,0,0,137.109-8.564ZM148.887-2.93a.984.984,0,0,0-.454-.806,4.612,4.612,0,0,0-1.685-.591,6.719,6.719,0,0,1-2.817-1.123,2.453,2.453,0,0,1-.962-2.041A2.911,2.911,0,0,1,144.121-9.8a4.646,4.646,0,0,1,3.066-.957A5.014,5.014,0,0,1,150.4-9.8a2.8,2.8,0,0,1,1.157,2.383l-.02.059h-2.754a1.383,1.383,0,0,0-.41-1.035,1.623,1.623,0,0,0-1.182-.4,1.614,1.614,0,0,0-1.084.342,1.063,1.063,0,0,0-.4.84.948.948,0,0,0,.415.8,4.619,4.619,0,0,0,1.685.552,6.855,6.855,0,0,1,2.9,1.147,2.517,2.517,0,0,1,.952,2.085A2.789,2.789,0,0,1,150.43-.7a5.269,5.269,0,0,1-3.223.908,4.9,4.9,0,0,1-3.335-1.069A2.99,2.99,0,0,1,142.705-3.3l.02-.059h2.607a1.482,1.482,0,0,0,.557,1.23,2.3,2.3,0,0,0,1.377.381,1.958,1.958,0,0,0,1.206-.317A1.03,1.03,0,0,0,148.887-2.93Z" transform="translate(0 19)" fill="#fff"/>
    </g>
    <g id="Grupo_894147" data-name="Grupo 894147" transform="translate(366.56 682.147)">
      <path id="Trazado_622674" data-name="Trazado 622674" d="M4.355,0H1.5V-14.219H4.355ZM9.57-10.566,9.7-9.053a3.865,3.865,0,0,1,1.3-1.26,3.372,3.372,0,0,1,1.729-.449,3.142,3.142,0,0,1,2.5,1.03,4.884,4.884,0,0,1,.9,3.257V0H13.262V-6.465a2.529,2.529,0,0,0-.4-1.606,1.458,1.458,0,0,0-1.187-.474,2.49,2.49,0,0,0-1.118.239,2.183,2.183,0,0,0-.8.659V0H6.914V-10.566ZM18.994,0V-8.564H17.422v-2h1.572v-1.172a3.573,3.573,0,0,1,1.025-2.739,4.048,4.048,0,0,1,2.881-.962,5.21,5.21,0,0,1,.737.054q.376.054.825.151l-.244,2.119q-.234-.039-.454-.068a3.93,3.93,0,0,0-.513-.029,1.369,1.369,0,0,0-1.05.381,1.542,1.542,0,0,0-.356,1.094v1.172h2.031v2H21.846V0ZM30.781-8.115l-1.045-.029a1.9,1.9,0,0,0-1.045.264,1.671,1.671,0,0,0-.625.742V0H25.225V-10.566h2.646L28-9A3.333,3.333,0,0,1,28.96-10.3a2.144,2.144,0,0,1,1.362-.464,2.131,2.131,0,0,1,.4.034q.181.034.366.083ZM38.5,0a6,6,0,0,1-.269-.762,5.3,5.3,0,0,1-.161-.82A3.909,3.909,0,0,1,36.9-.3a2.913,2.913,0,0,1-1.719.508,3.568,3.568,0,0,1-2.559-.854,3.061,3.061,0,0,1-.9-2.329,2.786,2.786,0,0,1,1.2-2.407,5.974,5.974,0,0,1,3.491-.854h1.6v-.84a1.644,1.644,0,0,0-.4-1.182,1.572,1.572,0,0,0-1.191-.42,1.549,1.549,0,0,0-1.069.337,1.176,1.176,0,0,0-.376.923H32.236l-.02-.059a2.68,2.68,0,0,1,1.167-2.31,5.069,5.069,0,0,1,3.228-.972,4.73,4.73,0,0,1,3.081.957,3.333,3.333,0,0,1,1.177,2.744V-2.7a8.256,8.256,0,0,0,.112,1.4A7.008,7.008,0,0,0,41.338,0ZM35.889-1.9a2.429,2.429,0,0,0,1.328-.371,2,2,0,0,0,.8-.859V-4.629h-1.6a1.9,1.9,0,0,0-1.372.449,1.476,1.476,0,0,0-.464,1.1,1.1,1.1,0,0,0,.347.854A1.371,1.371,0,0,0,35.889-1.9ZM47.588.205A4.754,4.754,0,0,1,43.9-1.245,5.315,5.315,0,0,1,42.568-4.98v-.391a5.785,5.785,0,0,1,1.289-3.887,4.382,4.382,0,0,1,3.545-1.5,4.1,4.1,0,0,1,3.267,1.3,5.152,5.152,0,0,1,1.138,3.511v1.475h-6.3l-.029.059a2.855,2.855,0,0,0,.659,1.758,2.207,2.207,0,0,0,1.753.674,5.865,5.865,0,0,0,1.626-.2,6.634,6.634,0,0,0,1.382-.6l.771,1.758a5.293,5.293,0,0,1-1.719.869A7.622,7.622,0,0,1,47.588.205ZM47.4-8.564a1.584,1.584,0,0,0-1.323.591,2.964,2.964,0,0,0-.562,1.567l.02.049h3.477v-.215a2.468,2.468,0,0,0-.381-1.46A1.409,1.409,0,0,0,47.4-8.564ZM59.18-2.93a.984.984,0,0,0-.454-.806,4.612,4.612,0,0,0-1.685-.591,6.719,6.719,0,0,1-2.817-1.123,2.453,2.453,0,0,1-.962-2.041A2.911,2.911,0,0,1,54.414-9.8a4.646,4.646,0,0,1,3.066-.957,5.014,5.014,0,0,1,3.208.957,2.8,2.8,0,0,1,1.157,2.383l-.02.059H59.072a1.383,1.383,0,0,0-.41-1.035,1.623,1.623,0,0,0-1.182-.4,1.614,1.614,0,0,0-1.084.342,1.063,1.063,0,0,0-.4.84.948.948,0,0,0,.415.8A4.62,4.62,0,0,0,58.1-6.27a6.855,6.855,0,0,1,2.9,1.147,2.517,2.517,0,0,1,.952,2.085A2.789,2.789,0,0,1,60.723-.7,5.269,5.269,0,0,1,57.5.205,4.9,4.9,0,0,1,54.165-.864,2.99,2.99,0,0,1,53-3.3l.02-.059h2.607a1.482,1.482,0,0,0,.557,1.23,2.3,2.3,0,0,0,1.377.381,1.958,1.958,0,0,0,1.206-.317A1.03,1.03,0,0,0,59.18-2.93ZM67.2-13.154v2.588h1.787v2H67.2v5.381a1.228,1.228,0,0,0,.259.879.909.909,0,0,0,.679.264,2.722,2.722,0,0,0,.391-.024,3.29,3.29,0,0,0,.381-.083l.234,2.061a5.773,5.773,0,0,1-.835.22,4.978,4.978,0,0,1-.884.073,3.039,3.039,0,0,1-2.271-.811,3.554,3.554,0,0,1-.8-2.568V-8.564H62.813v-2h1.543v-2.588Zm9.1,5.039-1.045-.029a1.9,1.9,0,0,0-1.045.264,1.671,1.671,0,0,0-.625.742V0H70.742V-10.566h2.646L73.516-9a3.333,3.333,0,0,1,.962-1.294,2.144,2.144,0,0,1,1.362-.464,2.131,2.131,0,0,1,.4.034q.181.034.366.083Zm7.959,6.553a3.587,3.587,0,0,1-1.24,1.309A3.288,3.288,0,0,1,81.27.205,3.213,3.213,0,0,1,78.657-.928a5.434,5.434,0,0,1-.942-3.516v-6.123h2.842v6.143a3.411,3.411,0,0,0,.376,1.9,1.351,1.351,0,0,0,1.167.513,2.841,2.841,0,0,0,1.172-.22,1.975,1.975,0,0,0,.8-.649v-7.686h2.852V0H84.561Zm9.229-.42a1.587,1.587,0,0,0,1.182-.444,1.614,1.614,0,0,0,.439-1.187h2.6l.02.059A3.307,3.307,0,0,1,96.533-.874,4.455,4.455,0,0,1,93.486.205a4.5,4.5,0,0,1-3.623-1.5,5.7,5.7,0,0,1-1.279-3.833V-5.42a5.735,5.735,0,0,1,1.274-3.833,4.463,4.463,0,0,1,3.608-1.509,4.358,4.358,0,0,1,3.115,1.113,3.72,3.72,0,0,1,1.143,2.93l-.02.059h-2.6a2.109,2.109,0,0,0-.435-1.362,1.46,1.46,0,0,0-1.206-.542,1.627,1.627,0,0,0-1.567.884,4.847,4.847,0,0,0-.464,2.261v.293A4.829,4.829,0,0,0,91.9-2.852,1.649,1.649,0,0,0,93.486-1.982ZM102.8-13.154v2.588h1.787v2H102.8v5.381a1.228,1.228,0,0,0,.259.879.909.909,0,0,0,.679.264,2.722,2.722,0,0,0,.391-.024,3.29,3.29,0,0,0,.381-.083l.234,2.061a5.773,5.773,0,0,1-.835.22,4.978,4.978,0,0,1-.884.073,3.039,3.039,0,0,1-2.271-.811,3.554,3.554,0,0,1-.8-2.568V-8.564H98.418v-2h1.543v-2.588Zm10.02,11.592a3.587,3.587,0,0,1-1.24,1.309,3.288,3.288,0,0,1-1.748.459,3.213,3.213,0,0,1-2.612-1.133,5.434,5.434,0,0,1-.942-3.516v-6.123h2.842v6.143a3.411,3.411,0,0,0,.376,1.9,1.351,1.351,0,0,0,1.167.513,2.841,2.841,0,0,0,1.172-.22,1.975,1.975,0,0,0,.8-.649v-7.686h2.852V0h-2.363Zm10.371-6.553-1.045-.029a1.9,1.9,0,0,0-1.045.264,1.671,1.671,0,0,0-.625.742V0h-2.842V-10.566h2.646L120.41-9a3.333,3.333,0,0,1,.962-1.294,2.144,2.144,0,0,1,1.362-.464,2.131,2.131,0,0,1,.4.034q.181.034.366.083ZM130.908,0a6,6,0,0,1-.269-.762,5.3,5.3,0,0,1-.161-.82A3.909,3.909,0,0,1,129.316-.3,2.913,2.913,0,0,1,127.6.205a3.568,3.568,0,0,1-2.559-.854,3.061,3.061,0,0,1-.9-2.329,2.786,2.786,0,0,1,1.2-2.407,5.974,5.974,0,0,1,3.491-.854h1.6v-.84a1.644,1.644,0,0,0-.4-1.182,1.572,1.572,0,0,0-1.191-.42,1.549,1.549,0,0,0-1.069.337,1.176,1.176,0,0,0-.376.923h-2.744l-.02-.059A2.68,2.68,0,0,1,125.8-9.79a5.069,5.069,0,0,1,3.228-.972A4.73,4.73,0,0,1,132.1-9.8a3.333,3.333,0,0,1,1.177,2.744V-2.7a8.256,8.256,0,0,0,.112,1.4A7.008,7.008,0,0,0,133.75,0ZM128.3-1.9a2.429,2.429,0,0,0,1.328-.371,2,2,0,0,0,.8-.859V-4.629h-1.6a1.9,1.9,0,0,0-1.372.449,1.476,1.476,0,0,0-.464,1.1,1.1,1.1,0,0,0,.347.854A1.371,1.371,0,0,0,128.3-1.9Z" transform="translate(0 19)" fill="#fff"/>
    </g>
    <g id="Grupo_894148" data-name="Grupo 894148" transform="translate(162.489 765.764)">
      <path id="Trazado_622675" data-name="Trazado 622675" d="M8.721-3.066H4.111L3.154,0H.176L4.971-14.219h2.92L12.666,0H9.688ZM4.814-5.3H8.027l-1.572-5.01H6.4ZM13.4-5.2a6.843,6.843,0,0,1,1.084-4.033,3.516,3.516,0,0,1,3.047-1.533,3,3,0,0,1,1.563.4,3.507,3.507,0,0,1,1.152,1.143l.225-1.348H22.92V-.049A3.927,3.927,0,0,1,21.572,3.14a5.69,5.69,0,0,1-3.76,1.128,7.163,7.163,0,0,1-1.7-.22,7.891,7.891,0,0,1-1.66-.6l.479-2.129a6.544,6.544,0,0,0,1.353.474,6.7,6.7,0,0,0,1.509.161,2.552,2.552,0,0,0,1.724-.488,1.933,1.933,0,0,0,.552-1.523v-.957a3.19,3.19,0,0,1-1.1.908A3.253,3.253,0,0,1,17.51.205a3.586,3.586,0,0,1-3.027-1.426A6.069,6.069,0,0,1,13.4-4.99Zm2.852.205a4.341,4.341,0,0,0,.464,2.183,1.621,1.621,0,0,0,1.519.8,2.354,2.354,0,0,0,1.108-.239,1.828,1.828,0,0,0,.728-.7v-4.58a1.949,1.949,0,0,0-.728-.752,2.133,2.133,0,0,0-1.089-.264,1.6,1.6,0,0,0-1.523.928A5.288,5.288,0,0,0,16.25-5.2ZM30.664-8.115l-1.045-.029a1.9,1.9,0,0,0-1.045.264,1.671,1.671,0,0,0-.625.742V0H25.107V-10.566h2.646L27.881-9a3.333,3.333,0,0,1,.962-1.294,2.144,2.144,0,0,1,1.362-.464,2.131,2.131,0,0,1,.4.034q.181.034.366.083Zm.85,2.734a5.67,5.67,0,0,1,1.318-3.872,4.6,4.6,0,0,1,3.652-1.509,4.644,4.644,0,0,1,3.672,1.5,5.64,5.64,0,0,1,1.328,3.877v.205a5.649,5.649,0,0,1-1.323,3.882A4.625,4.625,0,0,1,36.5.205a4.637,4.637,0,0,1-3.667-1.5,5.649,5.649,0,0,1-1.323-3.882Zm2.842.205a4.6,4.6,0,0,0,.508,2.319,1.753,1.753,0,0,0,1.641.874,1.736,1.736,0,0,0,1.616-.879,4.566,4.566,0,0,0,.513-2.314v-.205a4.52,4.52,0,0,0-.518-2.295,1.751,1.751,0,0,0-1.631-.889,1.73,1.73,0,0,0-1.616.894,4.561,4.561,0,0,0-.513,2.29Zm13.3,3.193a1.587,1.587,0,0,0,1.182-.444,1.614,1.614,0,0,0,.439-1.187h2.6l.02.059A3.307,3.307,0,0,1,50.7-.874,4.455,4.455,0,0,1,47.656.205a4.5,4.5,0,0,1-3.623-1.5,5.7,5.7,0,0,1-1.279-3.833V-5.42a5.735,5.735,0,0,1,1.274-3.833,4.463,4.463,0,0,1,3.608-1.509,4.358,4.358,0,0,1,3.115,1.113,3.72,3.72,0,0,1,1.143,2.93l-.02.059h-2.6a2.109,2.109,0,0,0-.435-1.362,1.46,1.46,0,0,0-1.206-.542,1.627,1.627,0,0,0-1.567.884,4.847,4.847,0,0,0-.464,2.261v.293a4.829,4.829,0,0,0,.464,2.275A1.649,1.649,0,0,0,47.656-1.982ZM56.553,0H53.7V-15.234h2.852Zm5.342,0H59.043V-10.566h2.852Zm0-13.1H59.043v-2.139h2.852Zm4.99,2.529L67-9.17a3.55,3.55,0,0,1,1.274-1.177,3.665,3.665,0,0,1,1.772-.415,3.228,3.228,0,0,1,1.738.449,2.771,2.771,0,0,1,1.094,1.357,3.662,3.662,0,0,1,1.27-1.328,3.445,3.445,0,0,1,1.836-.479,3.011,3.011,0,0,1,2.466,1.108,5.291,5.291,0,0,1,.9,3.384V0H76.5V-6.279a2.962,2.962,0,0,0-.391-1.768,1.387,1.387,0,0,0-1.162-.5,1.991,1.991,0,0,0-1.05.269,1.956,1.956,0,0,0-.708.747q0,.186.01.317t.01.269V0H70.371V-6.279a2.97,2.97,0,0,0-.391-1.753,1.38,1.38,0,0,0-1.172-.513,2.212,2.212,0,0,0-1.011.22,1.938,1.938,0,0,0-.718.62V0H64.238V-10.566ZM87.773,0A6,6,0,0,1,87.5-.762a5.3,5.3,0,0,1-.161-.82A3.908,3.908,0,0,1,86.182-.3a2.913,2.913,0,0,1-1.719.508A3.568,3.568,0,0,1,81.9-.649a3.061,3.061,0,0,1-.9-2.329,2.786,2.786,0,0,1,1.2-2.407,5.974,5.974,0,0,1,3.491-.854h1.6v-.84a1.644,1.644,0,0,0-.4-1.182,1.572,1.572,0,0,0-1.191-.42,1.549,1.549,0,0,0-1.069.337,1.176,1.176,0,0,0-.376.923H81.514l-.02-.059a2.68,2.68,0,0,1,1.167-2.31,5.069,5.069,0,0,1,3.228-.972A4.73,4.73,0,0,1,88.97-9.8a3.333,3.333,0,0,1,1.177,2.744V-2.7a8.256,8.256,0,0,0,.112,1.4A7.008,7.008,0,0,0,90.615,0ZM85.166-1.9a2.429,2.429,0,0,0,1.328-.371,2,2,0,0,0,.8-.859V-4.629h-1.6a1.9,1.9,0,0,0-1.372.449,1.476,1.476,0,0,0-.464,1.1,1.1,1.1,0,0,0,.347.854A1.371,1.371,0,0,0,85.166-1.9Zm1.182-13.174h3.174l.02.059L86.836-12.48H84.4ZM95.7-13.154v2.588H97.49v2H95.7v5.381a1.228,1.228,0,0,0,.259.879.909.909,0,0,0,.679.264,2.722,2.722,0,0,0,.391-.024,3.29,3.29,0,0,0,.381-.083l.234,2.061a5.773,5.773,0,0,1-.835.22,4.978,4.978,0,0,1-.884.073,3.039,3.039,0,0,1-2.271-.811,3.554,3.554,0,0,1-.8-2.568V-8.564H91.318v-2h1.543v-2.588ZM102.246,0H99.395V-10.566h2.852Zm0-13.1H99.395v-2.139h2.852ZM109-1.982a1.587,1.587,0,0,0,1.182-.444,1.614,1.614,0,0,0,.439-1.187h2.6l.02.059a3.307,3.307,0,0,1-1.191,2.681A4.455,4.455,0,0,1,109,.205a4.5,4.5,0,0,1-3.623-1.5A5.7,5.7,0,0,1,104.1-5.127V-5.42a5.735,5.735,0,0,1,1.274-3.833,4.463,4.463,0,0,1,3.608-1.509A4.358,4.358,0,0,1,112.1-9.648a3.72,3.72,0,0,1,1.143,2.93l-.02.059h-2.6a2.109,2.109,0,0,0-.435-1.362,1.46,1.46,0,0,0-1.206-.542,1.627,1.627,0,0,0-1.567.884,4.847,4.847,0,0,0-.464,2.261v.293a4.829,4.829,0,0,0,.464,2.275A1.649,1.649,0,0,0,109-1.982ZM121.133,0a6,6,0,0,1-.269-.762,5.3,5.3,0,0,1-.161-.82A3.908,3.908,0,0,1,119.541-.3a2.913,2.913,0,0,1-1.719.508,3.568,3.568,0,0,1-2.559-.854,3.061,3.061,0,0,1-.9-2.329,2.786,2.786,0,0,1,1.2-2.407,5.974,5.974,0,0,1,3.491-.854h1.6v-.84a1.644,1.644,0,0,0-.4-1.182,1.572,1.572,0,0,0-1.191-.42,1.549,1.549,0,0,0-1.069.337,1.176,1.176,0,0,0-.376.923h-2.744l-.02-.059a2.68,2.68,0,0,1,1.167-2.31,5.069,5.069,0,0,1,3.228-.972,4.73,4.73,0,0,1,3.081.957,3.333,3.333,0,0,1,1.177,2.744V-2.7a8.256,8.256,0,0,0,.112,1.4,7.008,7.008,0,0,0,.356,1.3Zm-2.607-1.9a2.429,2.429,0,0,0,1.328-.371,2,2,0,0,0,.8-.859V-4.629h-1.6a1.9,1.9,0,0,0-1.372.449,1.476,1.476,0,0,0-.464,1.1,1.1,1.1,0,0,0,.347.854A1.371,1.371,0,0,0,118.525-1.9ZM131.357-2.93a.984.984,0,0,0-.454-.806,4.612,4.612,0,0,0-1.685-.591A6.719,6.719,0,0,1,126.4-5.449a2.453,2.453,0,0,1-.962-2.041A2.911,2.911,0,0,1,126.592-9.8a4.646,4.646,0,0,1,3.066-.957,5.014,5.014,0,0,1,3.208.957,2.8,2.8,0,0,1,1.157,2.383l-.02.059H131.25a1.383,1.383,0,0,0-.41-1.035,1.623,1.623,0,0,0-1.182-.4,1.614,1.614,0,0,0-1.084.342,1.063,1.063,0,0,0-.4.84.948.948,0,0,0,.415.8,4.619,4.619,0,0,0,1.685.552,6.855,6.855,0,0,1,2.9,1.147,2.517,2.517,0,0,1,.952,2.085A2.789,2.789,0,0,1,132.9-.7a5.269,5.269,0,0,1-3.223.908,4.9,4.9,0,0,1-3.335-1.069A2.99,2.99,0,0,1,125.176-3.3l.02-.059H127.8a1.482,1.482,0,0,0,.557,1.23,2.3,2.3,0,0,0,1.377.381,1.958,1.958,0,0,0,1.206-.317A1.03,1.03,0,0,0,131.357-2.93Z" transform="translate(0 19)" fill="#fff"/>
    </g>
    <g id="Grupo_894149" data-name="Grupo 894149" transform="translate(388.933 510.354)">
      <path id="Trazado_622671" data-name="Trazado 622671" d="M9.619-5.908H4.16V0H1.309V-14.219h9.307v2.2H4.16v3.916H9.619ZM15.273,0H12.422V-10.566h2.852Zm-.85-14.873H17.6l.02.059-2.705,2.539H12.48ZM23.418-2.93a.984.984,0,0,0-.454-.806,4.612,4.612,0,0,0-1.685-.591,6.719,6.719,0,0,1-2.817-1.123A2.453,2.453,0,0,1,17.5-7.49,2.911,2.911,0,0,1,18.652-9.8a4.646,4.646,0,0,1,3.066-.957,5.014,5.014,0,0,1,3.208.957,2.8,2.8,0,0,1,1.157,2.383l-.02.059H23.311A1.383,1.383,0,0,0,22.9-8.4a1.623,1.623,0,0,0-1.182-.4,1.614,1.614,0,0,0-1.084.342,1.063,1.063,0,0,0-.4.84.948.948,0,0,0,.415.8,4.62,4.62,0,0,0,1.685.552,6.855,6.855,0,0,1,2.9,1.147,2.517,2.517,0,0,1,.952,2.085A2.789,2.789,0,0,1,24.961-.7a5.269,5.269,0,0,1-3.223.908A4.9,4.9,0,0,1,18.4-.864,2.99,2.99,0,0,1,17.236-3.3l.02-.059h2.607a1.482,1.482,0,0,0,.557,1.23,2.3,2.3,0,0,0,1.377.381A1.958,1.958,0,0,0,23-2.065,1.03,1.03,0,0,0,23.418-2.93ZM31.016,0H28.164V-10.566h2.852Zm0-13.1H28.164v-2.139h2.852ZM37.773-1.982a1.587,1.587,0,0,0,1.182-.444,1.614,1.614,0,0,0,.439-1.187h2.6l.02.059A3.307,3.307,0,0,1,40.82-.874,4.455,4.455,0,0,1,37.773.205a4.5,4.5,0,0,1-3.623-1.5,5.7,5.7,0,0,1-1.279-3.833V-5.42a5.735,5.735,0,0,1,1.274-3.833,4.463,4.463,0,0,1,3.608-1.509,4.358,4.358,0,0,1,3.115,1.113,3.72,3.72,0,0,1,1.143,2.93l-.02.059h-2.6a2.109,2.109,0,0,0-.435-1.362,1.46,1.46,0,0,0-1.206-.542,1.627,1.627,0,0,0-1.567.884,4.847,4.847,0,0,0-.464,2.261v.293a4.829,4.829,0,0,0,.464,2.275A1.649,1.649,0,0,0,37.773-1.982ZM49.9,0a6,6,0,0,1-.269-.762,5.3,5.3,0,0,1-.161-.82A3.909,3.909,0,0,1,48.311-.3a2.913,2.913,0,0,1-1.719.508,3.568,3.568,0,0,1-2.559-.854,3.061,3.061,0,0,1-.9-2.329,2.786,2.786,0,0,1,1.2-2.407,5.974,5.974,0,0,1,3.491-.854h1.6v-.84a1.644,1.644,0,0,0-.4-1.182,1.572,1.572,0,0,0-1.191-.42,1.549,1.549,0,0,0-1.069.337,1.176,1.176,0,0,0-.376.923H43.643l-.02-.059A2.68,2.68,0,0,1,44.79-9.79a5.069,5.069,0,0,1,3.228-.972A4.73,4.73,0,0,1,51.1-9.8a3.333,3.333,0,0,1,1.177,2.744V-2.7a8.256,8.256,0,0,0,.112,1.4A7.008,7.008,0,0,0,52.744,0ZM47.295-1.9a2.429,2.429,0,0,0,1.328-.371,2,2,0,0,0,.8-.859V-4.629h-1.6a1.9,1.9,0,0,0-1.372.449,1.476,1.476,0,0,0-.464,1.1,1.1,1.1,0,0,0,.347.854A1.371,1.371,0,0,0,47.295-1.9ZM60.127-2.93a.984.984,0,0,0-.454-.806,4.612,4.612,0,0,0-1.685-.591,6.719,6.719,0,0,1-2.817-1.123,2.453,2.453,0,0,1-.962-2.041A2.911,2.911,0,0,1,55.361-9.8a4.646,4.646,0,0,1,3.066-.957,5.014,5.014,0,0,1,3.208.957,2.8,2.8,0,0,1,1.157,2.383l-.02.059H60.02a1.383,1.383,0,0,0-.41-1.035,1.623,1.623,0,0,0-1.182-.4,1.614,1.614,0,0,0-1.084.342,1.063,1.063,0,0,0-.4.84.948.948,0,0,0,.415.8,4.62,4.62,0,0,0,1.685.552,6.855,6.855,0,0,1,2.9,1.147,2.517,2.517,0,0,1,.952,2.085A2.789,2.789,0,0,1,61.67-.7a5.269,5.269,0,0,1-3.223.908A4.9,4.9,0,0,1,55.112-.864,2.99,2.99,0,0,1,53.945-3.3l.02-.059h2.607a1.482,1.482,0,0,0,.557,1.23,2.3,2.3,0,0,0,1.377.381,1.958,1.958,0,0,0,1.206-.317A1.03,1.03,0,0,0,60.127-2.93Z" transform="translate(0 19)" fill="#fff"/>
    </g>
    <g id="Grupo_894150" data-name="Grupo 894150" transform="translate(563.059 506.951)">
      <path id="Trazado_622670" data-name="Trazado 622670" d="M8.721-3.711a1.663,1.663,0,0,0-.571-1.318,5.74,5.74,0,0,0-2.007-.937A11.4,11.4,0,0,1,2.407-7.715a3.308,3.308,0,0,1-1.274-2.744,3.451,3.451,0,0,1,1.436-2.856A5.818,5.818,0,0,1,6.23-14.424a5.777,5.777,0,0,1,3.8,1.191,3.727,3.727,0,0,1,1.392,3.125l-.02.059H8.643A2.071,2.071,0,0,0,8-11.685a2.632,2.632,0,0,0-1.807-.571,2.387,2.387,0,0,0-1.631.508,1.654,1.654,0,0,0-.576,1.3,1.419,1.419,0,0,0,.625,1.187,8.361,8.361,0,0,0,2.158.981,9.286,9.286,0,0,1,3.574,1.733,3.551,3.551,0,0,1,1.23,2.817A3.391,3.391,0,0,1,10.146-.85,6.19,6.19,0,0,1,6.377.205,6.735,6.735,0,0,1,2.437-.937,3.769,3.769,0,0,1,.84-4.346L.859-4.4H3.623a2.237,2.237,0,0,0,.742,1.855,3.125,3.125,0,0,0,2.012.6A2.746,2.746,0,0,0,8.12-2.432,1.552,1.552,0,0,0,8.721-3.711ZM16.455,0H13.6V-10.566h2.852Zm0-13.1H13.6v-2.139h2.852ZM23.379.205a4.754,4.754,0,0,1-3.691-1.45A5.315,5.315,0,0,1,18.359-4.98v-.391a5.785,5.785,0,0,1,1.289-3.887,4.382,4.382,0,0,1,3.545-1.5,4.1,4.1,0,0,1,3.267,1.3A5.152,5.152,0,0,1,27.6-5.947v1.475H21.3l-.029.059a2.855,2.855,0,0,0,.659,1.758,2.207,2.207,0,0,0,1.753.674,5.865,5.865,0,0,0,1.626-.2,6.634,6.634,0,0,0,1.382-.6l.771,1.758a5.293,5.293,0,0,1-1.719.869A7.622,7.622,0,0,1,23.379.205Zm-.186-8.77a1.584,1.584,0,0,0-1.323.591,2.964,2.964,0,0,0-.562,1.567l.02.049H24.8v-.215a2.468,2.468,0,0,0-.381-1.46A1.409,1.409,0,0,0,23.193-8.564Zm8.711-2,.117,1.4A3.55,3.55,0,0,1,33.3-10.347a3.665,3.665,0,0,1,1.772-.415,3.228,3.228,0,0,1,1.738.449A2.771,2.771,0,0,1,37.9-8.955a3.662,3.662,0,0,1,1.27-1.328,3.445,3.445,0,0,1,1.836-.479,3.011,3.011,0,0,1,2.466,1.108,5.291,5.291,0,0,1,.9,3.384V0H41.523V-6.279a2.962,2.962,0,0,0-.391-1.768,1.387,1.387,0,0,0-1.162-.5,1.991,1.991,0,0,0-1.05.269,1.956,1.956,0,0,0-.708.747q0,.186.01.317t.01.269V0H35.391V-6.279A2.97,2.97,0,0,0,35-8.032a1.38,1.38,0,0,0-1.172-.513,2.212,2.212,0,0,0-1.011.22,1.938,1.938,0,0,0-.718.62V0H29.258V-10.566ZM56.094-4.99a6.181,6.181,0,0,1-1.055,3.779A3.567,3.567,0,0,1,51.992.205a3.22,3.22,0,0,1-1.616-.391,3.34,3.34,0,0,1-1.167-1.143L48.975,0H46.563V-15.234H49.4v5.791a3.228,3.228,0,0,1,1.1-.977,3.071,3.071,0,0,1,1.47-.342,3.5,3.5,0,0,1,3.066,1.519A6.971,6.971,0,0,1,56.094-5.2ZM53.252-5.2A5.5,5.5,0,0,0,52.8-7.642a1.593,1.593,0,0,0-1.548-.9,2.128,2.128,0,0,0-1.123.278,1.929,1.929,0,0,0-.723.8V-3a1.812,1.812,0,0,0,.728.732,2.342,2.342,0,0,0,1.138.254,1.621,1.621,0,0,0,1.543-.776,4.522,4.522,0,0,0,.439-2.2Zm10.156-2.92-1.045-.029a1.9,1.9,0,0,0-1.045.264,1.671,1.671,0,0,0-.625.742V0H57.852V-10.566H60.5L60.625-9a3.333,3.333,0,0,1,.962-1.294,2.144,2.144,0,0,1,1.362-.464,2.131,2.131,0,0,1,.4.034q.181.034.366.083ZM71.123,0a6,6,0,0,1-.269-.762,5.3,5.3,0,0,1-.161-.82A3.908,3.908,0,0,1,69.531-.3a2.913,2.913,0,0,1-1.719.508,3.568,3.568,0,0,1-2.559-.854,3.061,3.061,0,0,1-.9-2.329,2.786,2.786,0,0,1,1.2-2.407,5.974,5.974,0,0,1,3.491-.854h1.6v-.84a1.644,1.644,0,0,0-.4-1.182,1.572,1.572,0,0,0-1.191-.42,1.549,1.549,0,0,0-1.069.337,1.176,1.176,0,0,0-.376.923H64.863l-.02-.059a2.68,2.68,0,0,1,1.167-2.31,5.069,5.069,0,0,1,3.228-.972,4.73,4.73,0,0,1,3.081.957A3.333,3.333,0,0,1,73.5-7.061V-2.7a8.256,8.256,0,0,0,.112,1.4A7.008,7.008,0,0,0,73.965,0ZM68.516-1.9a2.429,2.429,0,0,0,1.328-.371,2,2,0,0,0,.8-.859V-4.629h-1.6a1.9,1.9,0,0,0-1.372.449,1.476,1.476,0,0,0-.464,1.1,1.1,1.1,0,0,0,.347.854A1.371,1.371,0,0,0,68.516-1.9Z" transform="translate(0 19)" fill="#fff"/>
    </g>
    <g id="Grupo_894151" data-name="Grupo 894151" transform="translate(697.818 506.951)">
      <path id="Trazado_622668" data-name="Trazado 622668" d="M9.434-6.25H4.16v4.063h6.27V0H1.309V-14.219h9.1v2.2H4.16v3.574H9.434Zm5.391-4.316.127,1.514a3.865,3.865,0,0,1,1.3-1.26,3.372,3.372,0,0,1,1.729-.449,3.142,3.142,0,0,1,2.5,1.03,4.884,4.884,0,0,1,.9,3.257V0H18.516V-6.465a2.529,2.529,0,0,0-.4-1.606,1.458,1.458,0,0,0-1.187-.474,2.49,2.49,0,0,0-1.118.239,2.183,2.183,0,0,0-.8.659V0H12.168V-10.566ZM29.063-8.115l-1.045-.029a1.9,1.9,0,0,0-1.045.264,1.671,1.671,0,0,0-.625.742V0H23.506V-10.566h2.646L26.279-9a3.333,3.333,0,0,1,.962-1.294,2.144,2.144,0,0,1,1.362-.464,2.131,2.131,0,0,1,.4.034q.181.034.366.083ZM36.777,0a6,6,0,0,1-.269-.762,5.3,5.3,0,0,1-.161-.82A3.909,3.909,0,0,1,35.186-.3a2.913,2.913,0,0,1-1.719.508,3.568,3.568,0,0,1-2.559-.854,3.061,3.061,0,0,1-.9-2.329,2.786,2.786,0,0,1,1.2-2.407A5.974,5.974,0,0,1,34.7-6.24h1.6v-.84a1.644,1.644,0,0,0-.4-1.182,1.572,1.572,0,0,0-1.191-.42,1.549,1.549,0,0,0-1.069.337,1.176,1.176,0,0,0-.376.923H30.518L30.5-7.48a2.68,2.68,0,0,1,1.167-2.31,5.069,5.069,0,0,1,3.228-.972,4.73,4.73,0,0,1,3.081.957A3.333,3.333,0,0,1,39.15-7.061V-2.7a8.256,8.256,0,0,0,.112,1.4A7.008,7.008,0,0,0,39.619,0ZM34.17-1.9A2.429,2.429,0,0,0,35.5-2.275a2,2,0,0,0,.8-.859V-4.629H34.7a1.9,1.9,0,0,0-1.372.449,1.476,1.476,0,0,0-.464,1.1,1.1,1.1,0,0,0,.347.854A1.371,1.371,0,0,0,34.17-1.9ZM44.287,0H41.436V-10.566h2.852Zm0-13.1H41.436v-2.139h2.852ZM49.814-2.187h5.234V0H46.27V-1.68L51.3-8.359H46.426v-2.207h8.457v1.631ZM63.076,0a6,6,0,0,1-.269-.762,5.3,5.3,0,0,1-.161-.82A3.909,3.909,0,0,1,61.484-.3a2.913,2.913,0,0,1-1.719.508,3.568,3.568,0,0,1-2.559-.854,3.061,3.061,0,0,1-.9-2.329,2.786,2.786,0,0,1,1.2-2.407A5.974,5.974,0,0,1,61-6.24h1.6v-.84a1.644,1.644,0,0,0-.4-1.182,1.572,1.572,0,0,0-1.191-.42,1.549,1.549,0,0,0-1.069.337,1.176,1.176,0,0,0-.376.923H56.816L56.8-7.48a2.68,2.68,0,0,1,1.167-2.31,5.069,5.069,0,0,1,3.228-.972,4.73,4.73,0,0,1,3.081.957,3.333,3.333,0,0,1,1.177,2.744V-2.7a8.256,8.256,0,0,0,.112,1.4A7.008,7.008,0,0,0,65.918,0ZM60.469-1.9A2.429,2.429,0,0,0,61.8-2.275a2,2,0,0,0,.8-.859V-4.629H61a1.9,1.9,0,0,0-1.372.449,1.476,1.476,0,0,0-.464,1.1,1.1,1.1,0,0,0,.347.854A1.371,1.371,0,0,0,60.469-1.9ZM67.148-5.2a6.866,6.866,0,0,1,1.079-4.033,3.5,3.5,0,0,1,3.042-1.533,2.959,2.959,0,0,1,1.426.342,3.43,3.43,0,0,1,1.113.977v-5.791H76.67V0H74.238l-.244-1.3A3.532,3.532,0,0,1,72.813-.181,3.124,3.124,0,0,1,71.25.205a3.573,3.573,0,0,1-3.022-1.426,6.088,6.088,0,0,1-1.079-3.77Zm2.842.205a4.3,4.3,0,0,0,.469,2.183,1.632,1.632,0,0,0,1.523.8,2.219,2.219,0,0,0,1.074-.249,1.987,1.987,0,0,0,.752-.728v-4.5a2.195,2.195,0,0,0-.747-.776A1.987,1.987,0,0,0,72-8.545a1.609,1.609,0,0,0-1.528.928A5.243,5.243,0,0,0,69.99-5.2Zm8.447-.391a5.67,5.67,0,0,1,1.318-3.872,4.6,4.6,0,0,1,3.652-1.509,4.644,4.644,0,0,1,3.672,1.5,5.64,5.64,0,0,1,1.328,3.877v.205a5.649,5.649,0,0,1-1.323,3.882,4.625,4.625,0,0,1-3.657,1.5,4.637,4.637,0,0,1-3.667-1.5,5.649,5.649,0,0,1-1.323-3.882Zm2.842.205a4.6,4.6,0,0,0,.508,2.319,1.753,1.753,0,0,0,1.641.874,1.736,1.736,0,0,0,1.616-.879,4.566,4.566,0,0,0,.513-2.314v-.205a4.52,4.52,0,0,0-.518-2.295,1.751,1.751,0,0,0-1.631-.889,1.73,1.73,0,0,0-1.616.894,4.561,4.561,0,0,0-.513,2.29Z" transform="translate(0 19)" fill="#fff"/>
    </g>
    <g id="Grupo_894152" data-name="Grupo 894152" transform="translate(863.879 507.404)">
      <path id="Trazado_622669" data-name="Trazado 622669" d="M4.16-5.684V0H1.309V-14.219H6.23a5.9,5.9,0,0,1,3.8,1.108,3.751,3.751,0,0,1,1.372,3.091,3.117,3.117,0,0,1-.581,1.89A4.047,4.047,0,0,1,9.131-6.846a3.06,3.06,0,0,1,1.812,1.24,3.932,3.932,0,0,1,.552,2.148v1.045a5.169,5.169,0,0,0,.161,1.245,1.712,1.712,0,0,0,.552.962V0H9.268a1.579,1.579,0,0,1-.5-1.035,9.094,9.094,0,0,1-.112-1.4V-3.437a2.26,2.26,0,0,0-.581-1.655,2.2,2.2,0,0,0-1.646-.591Zm0-2.2H6.182a2.674,2.674,0,0,0,1.787-.508,1.882,1.882,0,0,0,.586-1.5,2.069,2.069,0,0,0-.591-1.553,2.386,2.386,0,0,0-1.733-.576H4.16ZM16.836,0H13.984V-10.566h2.852Zm0-13.1H13.984v-2.139h2.852ZM23.76.205a4.754,4.754,0,0,1-3.691-1.45A5.315,5.315,0,0,1,18.74-4.98v-.391a5.785,5.785,0,0,1,1.289-3.887,4.382,4.382,0,0,1,3.545-1.5,4.1,4.1,0,0,1,3.267,1.3,5.152,5.152,0,0,1,1.138,3.511v1.475h-6.3l-.029.059a2.855,2.855,0,0,0,.659,1.758,2.207,2.207,0,0,0,1.753.674,5.865,5.865,0,0,0,1.626-.2,6.634,6.634,0,0,0,1.382-.6l.771,1.758a5.293,5.293,0,0,1-1.719.869A7.622,7.622,0,0,1,23.76.205Zm-.186-8.77a1.584,1.584,0,0,0-1.323.591,2.964,2.964,0,0,0-.562,1.567l.02.049h3.477v-.215a2.468,2.468,0,0,0-.381-1.46A1.409,1.409,0,0,0,23.574-8.564ZM29.219-5.2A6.843,6.843,0,0,1,30.3-9.229a3.516,3.516,0,0,1,3.047-1.533,3,3,0,0,1,1.563.4,3.507,3.507,0,0,1,1.152,1.143l.225-1.348H38.74V-.049A3.927,3.927,0,0,1,37.393,3.14a5.69,5.69,0,0,1-3.76,1.128,7.163,7.163,0,0,1-1.7-.22,7.891,7.891,0,0,1-1.66-.6l.479-2.129a6.544,6.544,0,0,0,1.353.474,6.7,6.7,0,0,0,1.509.161,2.552,2.552,0,0,0,1.724-.488,1.933,1.933,0,0,0,.552-1.523v-.957a3.19,3.19,0,0,1-1.1.908A3.253,3.253,0,0,1,33.33.205,3.586,3.586,0,0,1,30.3-1.221a6.069,6.069,0,0,1-1.084-3.77Zm2.852.205a4.341,4.341,0,0,0,.464,2.183,1.621,1.621,0,0,0,1.519.8,2.354,2.354,0,0,0,1.108-.239,1.828,1.828,0,0,0,.728-.7v-4.58a1.949,1.949,0,0,0-.728-.752,2.133,2.133,0,0,0-1.089-.264,1.6,1.6,0,0,0-1.523.928A5.288,5.288,0,0,0,32.07-5.2Zm8.418-.391a5.67,5.67,0,0,1,1.318-3.872,4.6,4.6,0,0,1,3.652-1.509,4.644,4.644,0,0,1,3.672,1.5,5.64,5.64,0,0,1,1.328,3.877v.205a5.649,5.649,0,0,1-1.323,3.882,4.625,4.625,0,0,1-3.657,1.5,4.637,4.637,0,0,1-3.667-1.5,5.649,5.649,0,0,1-1.323-3.882Zm2.842.205a4.6,4.6,0,0,0,.508,2.319,1.753,1.753,0,0,0,1.641.874,1.736,1.736,0,0,0,1.616-.879,4.566,4.566,0,0,0,.513-2.314v-.205a4.52,4.52,0,0,0-.518-2.295,1.751,1.751,0,0,0-1.631-.889,1.73,1.73,0,0,0-1.616.894,4.561,4.561,0,0,0-.513,2.29Z" transform="translate(0 19)" fill="#fff"/>
    </g>
    <g id="Grupo_894153" data-name="Grupo 894153" transform="translate(1017.012 496.007)">
      <g id="Grupo-2" data-name="Grupo">
        <path id="Trazado_622666" data-name="Trazado 622666" d="M9.434-6.25H4.16v4.063h6.27V0H1.309V-14.219h9.1v2.2H4.16v3.574H9.434Zm5.391-4.316.127,1.514a3.865,3.865,0,0,1,1.3-1.26,3.372,3.372,0,0,1,1.729-.449,3.142,3.142,0,0,1,2.5,1.03,4.884,4.884,0,0,1,.9,3.257V0H18.516V-6.465a2.529,2.529,0,0,0-.4-1.606,1.458,1.458,0,0,0-1.187-.474,2.49,2.49,0,0,0-1.118.239,2.183,2.183,0,0,0-.8.659V0H12.168V-10.566Zm16.309,0,.117,1.4a3.55,3.55,0,0,1,1.274-1.177,3.665,3.665,0,0,1,1.772-.415,3.228,3.228,0,0,1,1.738.449,2.771,2.771,0,0,1,1.094,1.357,3.662,3.662,0,0,1,1.27-1.328,3.445,3.445,0,0,1,1.836-.479A3.011,3.011,0,0,1,42.7-9.653a5.291,5.291,0,0,1,.9,3.384V0H40.752V-6.279a2.962,2.962,0,0,0-.391-1.768,1.387,1.387,0,0,0-1.162-.5,1.991,1.991,0,0,0-1.05.269,1.956,1.956,0,0,0-.708.747q0,.186.01.317t.01.269V0H34.619V-6.279a2.97,2.97,0,0,0-.391-1.753,1.38,1.38,0,0,0-1.172-.513,2.212,2.212,0,0,0-1.011.22,1.938,1.938,0,0,0-.718.62V0H28.486V-10.566ZM52.021,0a6,6,0,0,1-.269-.762,5.3,5.3,0,0,1-.161-.82A3.909,3.909,0,0,1,50.43-.3a2.913,2.913,0,0,1-1.719.508,3.568,3.568,0,0,1-2.559-.854,3.061,3.061,0,0,1-.9-2.329,2.786,2.786,0,0,1,1.2-2.407,5.974,5.974,0,0,1,3.491-.854h1.6v-.84a1.644,1.644,0,0,0-.4-1.182,1.572,1.572,0,0,0-1.191-.42,1.549,1.549,0,0,0-1.069.337,1.176,1.176,0,0,0-.376.923H45.762l-.02-.059a2.68,2.68,0,0,1,1.167-2.31,5.069,5.069,0,0,1,3.228-.972,4.73,4.73,0,0,1,3.081.957,3.333,3.333,0,0,1,1.177,2.744V-2.7a8.256,8.256,0,0,0,.112,1.4A7.008,7.008,0,0,0,54.863,0ZM49.414-1.9a2.429,2.429,0,0,0,1.328-.371,2,2,0,0,0,.8-.859V-4.629h-1.6a1.9,1.9,0,0,0-1.372.449,1.476,1.476,0,0,0-.464,1.1,1.1,1.1,0,0,0,.347.854A1.371,1.371,0,0,0,49.414-1.9Zm9.727-8.662.127,1.514a3.865,3.865,0,0,1,1.3-1.26,3.372,3.372,0,0,1,1.729-.449,3.142,3.142,0,0,1,2.5,1.03,4.884,4.884,0,0,1,.9,3.257V0H62.832V-6.465a2.529,2.529,0,0,0-.4-1.606,1.458,1.458,0,0,0-1.187-.474,2.49,2.49,0,0,0-1.118.239,2.183,2.183,0,0,0-.8.659V0H56.484V-10.566ZM72.4.205a4.754,4.754,0,0,1-3.691-1.45A5.315,5.315,0,0,1,67.383-4.98v-.391a5.785,5.785,0,0,1,1.289-3.887,4.382,4.382,0,0,1,3.545-1.5,4.1,4.1,0,0,1,3.267,1.3,5.152,5.152,0,0,1,1.138,3.511v1.475h-6.3l-.029.059a2.855,2.855,0,0,0,.659,1.758,2.207,2.207,0,0,0,1.753.674,5.865,5.865,0,0,0,1.626-.2,6.634,6.634,0,0,0,1.382-.6l.771,1.758a5.293,5.293,0,0,1-1.719.869A7.622,7.622,0,0,1,72.4.205Zm-.186-8.77a1.584,1.584,0,0,0-1.323.591,2.964,2.964,0,0,0-.562,1.567l.02.049h3.477v-.215a2.468,2.468,0,0,0-.381-1.46A1.409,1.409,0,0,0,72.217-8.564Zm9.141-2V.391a3.934,3.934,0,0,1-.986,2.866,3.658,3.658,0,0,1-2.744,1.011,5.955,5.955,0,0,1-.713-.039A5.912,5.912,0,0,1,76.23,4.1l.137-2.178a3.647,3.647,0,0,0,.449.088,3.7,3.7,0,0,0,.479.029,1.056,1.056,0,0,0,.889-.405A2.032,2.032,0,0,0,78.5.391V-10.566ZM81.3-13.115H78.438v-2.119H81.3Zm1.846,7.734a5.67,5.67,0,0,1,1.318-3.872,4.6,4.6,0,0,1,3.652-1.509,4.644,4.644,0,0,1,3.672,1.5,5.64,5.64,0,0,1,1.328,3.877v.205a5.649,5.649,0,0,1-1.323,3.882,4.625,4.625,0,0,1-3.657,1.5,4.637,4.637,0,0,1-3.667-1.5,5.649,5.649,0,0,1-1.323-3.882Zm2.842.205a4.6,4.6,0,0,0,.508,2.319,1.753,1.753,0,0,0,1.641.874,1.736,1.736,0,0,0,1.616-.879,4.566,4.566,0,0,0,.513-2.314v-.205a4.52,4.52,0,0,0-.518-2.295,1.751,1.751,0,0,0-1.631-.889,1.73,1.73,0,0,0-1.616.894,4.561,4.561,0,0,0-.513,2.29ZM99.414-5.2a6.866,6.866,0,0,1,1.079-4.033,3.5,3.5,0,0,1,3.042-1.533,2.959,2.959,0,0,1,1.426.342,3.43,3.43,0,0,1,1.113.977v-5.791h2.861V0H106.5l-.244-1.3a3.532,3.532,0,0,1-1.182,1.118,3.124,3.124,0,0,1-1.562.386,3.573,3.573,0,0,1-3.022-1.426,6.088,6.088,0,0,1-1.079-3.77Zm2.842.205a4.3,4.3,0,0,0,.469,2.183,1.632,1.632,0,0,0,1.523.8,2.219,2.219,0,0,0,1.074-.249,1.987,1.987,0,0,0,.752-.728v-4.5a2.195,2.195,0,0,0-.747-.776,1.987,1.987,0,0,0-1.06-.278,1.609,1.609,0,0,0-1.528.928,5.243,5.243,0,0,0-.483,2.422Zm13.467,5.2a4.754,4.754,0,0,1-3.691-1.45A5.315,5.315,0,0,1,110.7-4.98v-.391a5.785,5.785,0,0,1,1.289-3.887,4.382,4.382,0,0,1,3.545-1.5,4.1,4.1,0,0,1,3.267,1.3,5.152,5.152,0,0,1,1.138,3.511v1.475h-6.3l-.029.059a2.855,2.855,0,0,0,.659,1.758,2.207,2.207,0,0,0,1.753.674,5.865,5.865,0,0,0,1.626-.2,6.634,6.634,0,0,0,1.382-.6l.771,1.758a5.293,5.293,0,0,1-1.719.869A7.622,7.622,0,0,1,115.723.205Zm-.186-8.77a1.584,1.584,0,0,0-1.323.591,2.964,2.964,0,0,0-.562,1.567l.02.049h3.477v-.215a2.468,2.468,0,0,0-.381-1.46A1.409,1.409,0,0,0,115.537-8.564Z" transform="translate(0 19)" fill="#fff"/>
        <path id="Trazado_622667" data-name="Trazado 622667" d="M7.324,0a6,6,0,0,1-.269-.762,5.3,5.3,0,0,1-.161-.82A3.908,3.908,0,0,1,5.732-.3,2.913,2.913,0,0,1,4.014.205,3.568,3.568,0,0,1,1.455-.649a3.061,3.061,0,0,1-.9-2.329,2.786,2.786,0,0,1,1.2-2.407A5.974,5.974,0,0,1,5.244-6.24h1.6v-.84a1.644,1.644,0,0,0-.4-1.182,1.572,1.572,0,0,0-1.191-.42,1.549,1.549,0,0,0-1.069.337,1.176,1.176,0,0,0-.376.923H1.064l-.02-.059A2.68,2.68,0,0,1,2.212-9.79a5.069,5.069,0,0,1,3.228-.972A4.73,4.73,0,0,1,8.521-9.8,3.333,3.333,0,0,1,9.7-7.061V-2.7A8.256,8.256,0,0,0,9.81-1.3,7.008,7.008,0,0,0,10.166,0ZM4.717-1.9a2.429,2.429,0,0,0,1.328-.371,2,2,0,0,0,.8-.859V-4.629h-1.6a1.9,1.9,0,0,0-1.372.449,1.476,1.476,0,0,0-.464,1.1,1.1,1.1,0,0,0,.347.854A1.371,1.371,0,0,0,4.717-1.9Zm6.7-3.291A6.843,6.843,0,0,1,12.5-9.229a3.516,3.516,0,0,1,3.047-1.533,3,3,0,0,1,1.563.4,3.507,3.507,0,0,1,1.152,1.143l.225-1.348h2.451V-.049A3.927,3.927,0,0,1,19.59,3.14a5.69,5.69,0,0,1-3.76,1.128,7.163,7.163,0,0,1-1.7-.22,7.891,7.891,0,0,1-1.66-.6l.479-2.129a6.544,6.544,0,0,0,1.353.474,6.7,6.7,0,0,0,1.509.161,2.552,2.552,0,0,0,1.724-.488,1.933,1.933,0,0,0,.552-1.523v-.957a3.19,3.19,0,0,1-1.1.908,3.253,3.253,0,0,1-1.455.313A3.586,3.586,0,0,1,12.5-1.221a6.069,6.069,0,0,1-1.084-3.77Zm2.852.205a4.341,4.341,0,0,0,.464,2.183,1.621,1.621,0,0,0,1.519.8,2.354,2.354,0,0,0,1.108-.239,1.828,1.828,0,0,0,.728-.7v-4.58a1.949,1.949,0,0,0-.728-.752,2.133,2.133,0,0,0-1.089-.264,1.6,1.6,0,0,0-1.523.928A5.288,5.288,0,0,0,14.268-5.2ZM28.682-8.115l-1.045-.029a1.9,1.9,0,0,0-1.045.264,1.671,1.671,0,0,0-.625.742V0H23.125V-10.566h2.646L25.9-9A3.333,3.333,0,0,1,26.86-10.3a2.144,2.144,0,0,1,1.362-.464,2.131,2.131,0,0,1,.4.034q.181.034.366.083Zm.85,2.734A5.67,5.67,0,0,1,30.85-9.253,4.6,4.6,0,0,1,34.5-10.762a4.644,4.644,0,0,1,3.672,1.5A5.64,5.64,0,0,1,39.5-5.381v.205a5.649,5.649,0,0,1-1.323,3.882,4.625,4.625,0,0,1-3.657,1.5,4.637,4.637,0,0,1-3.667-1.5,5.649,5.649,0,0,1-1.323-3.882Zm2.842.205a4.6,4.6,0,0,0,.508,2.319,1.753,1.753,0,0,0,1.641.874,1.736,1.736,0,0,0,1.616-.879,4.566,4.566,0,0,0,.513-2.314v-.205a4.52,4.52,0,0,0-.518-2.295A1.751,1.751,0,0,0,34.5-8.564a1.73,1.73,0,0,0-1.616.894,4.561,4.561,0,0,0-.513,2.29ZM44.258,0H41.406V-10.566h2.852Zm0-13.1H41.406v-2.139h2.852Zm4.951,2.529.127,1.514a3.865,3.865,0,0,1,1.3-1.26,3.372,3.372,0,0,1,1.729-.449,3.142,3.142,0,0,1,2.5,1.03,4.884,4.884,0,0,1,.9,3.257V0H52.9V-6.465a2.529,2.529,0,0,0-.4-1.606,1.458,1.458,0,0,0-1.187-.474,2.49,2.49,0,0,0-1.118.239,2.183,2.183,0,0,0-.8.659V0H46.553V-10.566ZM63.6-2.93a.984.984,0,0,0-.454-.806,4.612,4.612,0,0,0-1.685-.591,6.719,6.719,0,0,1-2.817-1.123,2.453,2.453,0,0,1-.962-2.041A2.911,2.911,0,0,1,58.838-9.8a4.646,4.646,0,0,1,3.066-.957,5.014,5.014,0,0,1,3.208.957A2.8,2.8,0,0,1,66.27-7.422l-.02.059H63.5a1.383,1.383,0,0,0-.41-1.035A1.623,1.623,0,0,0,61.9-8.8a1.614,1.614,0,0,0-1.084.342,1.063,1.063,0,0,0-.4.84.948.948,0,0,0,.415.8,4.62,4.62,0,0,0,1.685.552,6.855,6.855,0,0,1,2.9,1.147,2.517,2.517,0,0,1,.952,2.085A2.789,2.789,0,0,1,65.146-.7a5.269,5.269,0,0,1-3.223.908A4.9,4.9,0,0,1,58.589-.864,2.99,2.99,0,0,1,57.422-3.3l.02-.059h2.607a1.482,1.482,0,0,0,.557,1.23,2.3,2.3,0,0,0,1.377.381,1.958,1.958,0,0,0,1.206-.317A1.03,1.03,0,0,0,63.6-2.93ZM74.678-1.562a3.587,3.587,0,0,1-1.24,1.309,3.288,3.288,0,0,1-1.748.459A3.213,3.213,0,0,1,69.077-.928a5.434,5.434,0,0,1-.942-3.516v-6.123h2.842v6.143a3.411,3.411,0,0,0,.376,1.9,1.351,1.351,0,0,0,1.167.513,2.841,2.841,0,0,0,1.172-.22,1.975,1.975,0,0,0,.8-.649v-7.686h2.852V0H74.98Zm7.461-9,.117,1.4a3.55,3.55,0,0,1,1.274-1.177,3.665,3.665,0,0,1,1.772-.415,3.228,3.228,0,0,1,1.738.449,2.771,2.771,0,0,1,1.094,1.357,3.662,3.662,0,0,1,1.27-1.328,3.445,3.445,0,0,1,1.836-.479,3.011,3.011,0,0,1,2.466,1.108,5.291,5.291,0,0,1,.9,3.384V0H91.758V-6.279a2.962,2.962,0,0,0-.391-1.768,1.387,1.387,0,0,0-1.162-.5,1.991,1.991,0,0,0-1.05.269,1.956,1.956,0,0,0-.708.747q0,.186.01.317t.01.269V0H85.625V-6.279a2.97,2.97,0,0,0-.391-1.753,1.38,1.38,0,0,0-1.172-.513,2.212,2.212,0,0,0-1.011.22,1.938,1.938,0,0,0-.718.62V0H79.492V-10.566ZM96.357-5.381a5.67,5.67,0,0,1,1.318-3.872,4.6,4.6,0,0,1,3.652-1.509A4.644,4.644,0,0,1,105-9.258a5.64,5.64,0,0,1,1.328,3.877v.205A5.649,5.649,0,0,1,105-1.294a4.625,4.625,0,0,1-3.657,1.5,4.637,4.637,0,0,1-3.667-1.5,5.649,5.649,0,0,1-1.323-3.882Zm2.842.205a4.6,4.6,0,0,0,.508,2.319,1.753,1.753,0,0,0,1.641.874,1.736,1.736,0,0,0,1.616-.879,4.566,4.566,0,0,0,.513-2.314v-.205a4.52,4.52,0,0,0-.518-2.295,1.751,1.751,0,0,0-1.631-.889,1.73,1.73,0,0,0-1.616.894,4.561,4.561,0,0,0-.513,2.29ZM113.8-2.93a.984.984,0,0,0-.454-.806,4.612,4.612,0,0,0-1.685-.591,6.719,6.719,0,0,1-2.817-1.123,2.453,2.453,0,0,1-.962-2.041A2.911,2.911,0,0,1,109.033-9.8a4.646,4.646,0,0,1,3.066-.957,5.014,5.014,0,0,1,3.208.957,2.8,2.8,0,0,1,1.157,2.383l-.02.059h-2.754a1.383,1.383,0,0,0-.41-1.035,1.623,1.623,0,0,0-1.182-.4,1.614,1.614,0,0,0-1.084.342,1.063,1.063,0,0,0-.4.84.948.948,0,0,0,.415.8,4.62,4.62,0,0,0,1.685.552,6.855,6.855,0,0,1,2.9,1.147,2.517,2.517,0,0,1,.952,2.085A2.789,2.789,0,0,1,115.342-.7a5.269,5.269,0,0,1-3.223.908,4.9,4.9,0,0,1-3.335-1.069A2.99,2.99,0,0,1,107.617-3.3l.02-.059h2.607a1.482,1.482,0,0,0,.557,1.23,2.3,2.3,0,0,0,1.377.381,1.958,1.958,0,0,0,1.206-.317A1.03,1.03,0,0,0,113.8-2.93Z" transform="translate(1.531 43.501)" fill="#fff"/>
      </g>
    </g>
    <g id="Grupo_894154" data-name="Grupo 894154" transform="translate(1196.825 481.374)">
      <g id="Grupo-3" data-name="Grupo">
        <path id="Trazado_622663" data-name="Trazado 622663" d="M9.434-6.25H4.16v4.063h6.27V0H1.309V-14.219h9.1v2.2H4.16v3.574H9.434Zm5.391-4.316.127,1.514a3.865,3.865,0,0,1,1.3-1.26,3.372,3.372,0,0,1,1.729-.449,3.142,3.142,0,0,1,2.5,1.03,4.884,4.884,0,0,1,.9,3.257V0H18.516V-6.465a2.529,2.529,0,0,0-.4-1.606,1.458,1.458,0,0,0-1.187-.474,2.49,2.49,0,0,0-1.118.239,2.183,2.183,0,0,0-.8.659V0H12.168V-10.566ZM34.2-2.93a.984.984,0,0,0-.454-.806,4.612,4.612,0,0,0-1.685-.591,6.719,6.719,0,0,1-2.817-1.123,2.453,2.453,0,0,1-.962-2.041A2.911,2.911,0,0,1,29.434-9.8a4.646,4.646,0,0,1,3.066-.957,5.014,5.014,0,0,1,3.208.957,2.8,2.8,0,0,1,1.157,2.383l-.02.059H34.092a1.383,1.383,0,0,0-.41-1.035A1.623,1.623,0,0,0,32.5-8.8a1.614,1.614,0,0,0-1.084.342,1.063,1.063,0,0,0-.4.84.948.948,0,0,0,.415.8,4.62,4.62,0,0,0,1.685.552,6.855,6.855,0,0,1,2.9,1.147,2.517,2.517,0,0,1,.952,2.085A2.789,2.789,0,0,1,35.742-.7,5.269,5.269,0,0,1,32.52.205,4.9,4.9,0,0,1,29.185-.864,2.99,2.99,0,0,1,28.018-3.3l.02-.059h2.607a1.482,1.482,0,0,0,.557,1.23,2.3,2.3,0,0,0,1.377.381,1.958,1.958,0,0,0,1.206-.317A1.03,1.03,0,0,0,34.2-2.93ZM45.029,0a6,6,0,0,1-.269-.762,5.3,5.3,0,0,1-.161-.82A3.909,3.909,0,0,1,43.438-.3a2.913,2.913,0,0,1-1.719.508A3.568,3.568,0,0,1,39.16-.649a3.061,3.061,0,0,1-.9-2.329,2.786,2.786,0,0,1,1.2-2.407,5.974,5.974,0,0,1,3.491-.854h1.6v-.84a1.644,1.644,0,0,0-.4-1.182,1.572,1.572,0,0,0-1.191-.42,1.549,1.549,0,0,0-1.069.337,1.176,1.176,0,0,0-.376.923H38.77l-.02-.059a2.68,2.68,0,0,1,1.167-2.31,5.069,5.069,0,0,1,3.228-.972,4.73,4.73,0,0,1,3.081.957A3.333,3.333,0,0,1,47.4-7.061V-2.7a8.256,8.256,0,0,0,.112,1.4A7.008,7.008,0,0,0,47.871,0ZM42.422-1.9a2.429,2.429,0,0,0,1.328-.371,2,2,0,0,0,.8-.859V-4.629h-1.6a1.9,1.9,0,0,0-1.372.449,1.476,1.476,0,0,0-.464,1.1,1.1,1.1,0,0,0,.347.854A1.371,1.371,0,0,0,42.422-1.9ZM52.539,0H49.688V-15.234h2.852Zm8.818-1.562a3.587,3.587,0,0,1-1.24,1.309,3.288,3.288,0,0,1-1.748.459A3.213,3.213,0,0,1,55.757-.928a5.434,5.434,0,0,1-.942-3.516v-6.123h2.842v6.143a3.411,3.411,0,0,0,.376,1.9,1.351,1.351,0,0,0,1.167.513,2.841,2.841,0,0,0,1.172-.22,1.975,1.975,0,0,0,.8-.649v-7.686h2.852V0H61.66ZM65.732-5.2a6.866,6.866,0,0,1,1.079-4.033,3.5,3.5,0,0,1,3.042-1.533,2.959,2.959,0,0,1,1.426.342,3.43,3.43,0,0,1,1.113.977v-5.791h2.861V0H72.822l-.244-1.3A3.532,3.532,0,0,1,71.4-.181a3.124,3.124,0,0,1-1.562.386,3.573,3.573,0,0,1-3.022-1.426,6.088,6.088,0,0,1-1.079-3.77Zm2.842.205a4.3,4.3,0,0,0,.469,2.183,1.632,1.632,0,0,0,1.523.8,2.219,2.219,0,0,0,1.074-.249,1.987,1.987,0,0,0,.752-.728v-4.5a2.195,2.195,0,0,0-.747-.776,1.987,1.987,0,0,0-1.06-.278,1.609,1.609,0,0,0-1.528.928A5.243,5.243,0,0,0,68.574-5.2Zm17.676.557.117.586h.059l2.021-6.719h3.066L87.227,1.582a5.593,5.593,0,0,1-1.221,1.909,3.131,3.131,0,0,1-2.314.776,3.579,3.579,0,0,1-.669-.059q-.308-.059-.747-.166l.332-2.08L82.881,2a2.014,2.014,0,0,0,.264.02,1.554,1.554,0,0,0,1.084-.347,2.287,2.287,0,0,0,.586-.864l.332-.82L81.4-10.566h3.066Z" transform="translate(6.477 19)" fill="#fff"/>
        <path id="Trazado_622664" data-name="Trazado 622664" d="M6.807-2.93a.984.984,0,0,0-.454-.806,4.612,4.612,0,0,0-1.685-.591A6.719,6.719,0,0,1,1.851-5.449,2.453,2.453,0,0,1,.889-7.49,2.911,2.911,0,0,1,2.041-9.8a4.646,4.646,0,0,1,3.066-.957A5.014,5.014,0,0,1,8.315-9.8,2.8,2.8,0,0,1,9.473-7.422l-.02.059H6.7A1.383,1.383,0,0,0,6.289-8.4a1.623,1.623,0,0,0-1.182-.4,1.614,1.614,0,0,0-1.084.342,1.063,1.063,0,0,0-.4.84.948.948,0,0,0,.415.8,4.62,4.62,0,0,0,1.685.552,6.855,6.855,0,0,1,2.9,1.147A2.517,2.517,0,0,1,9.57-3.037,2.789,2.789,0,0,1,8.35-.7,5.269,5.269,0,0,1,5.127.205,4.9,4.9,0,0,1,1.792-.864,2.99,2.99,0,0,1,.625-3.3l.02-.059H3.252a1.482,1.482,0,0,0,.557,1.23,2.3,2.3,0,0,0,1.377.381,1.958,1.958,0,0,0,1.206-.317A1.03,1.03,0,0,0,6.807-2.93ZM15.986.205a4.754,4.754,0,0,1-3.691-1.45A5.315,5.315,0,0,1,10.967-4.98v-.391a5.785,5.785,0,0,1,1.289-3.887,4.382,4.382,0,0,1,3.545-1.5,4.1,4.1,0,0,1,3.267,1.3,5.152,5.152,0,0,1,1.138,3.511v1.475h-6.3l-.029.059a2.855,2.855,0,0,0,.659,1.758,2.207,2.207,0,0,0,1.753.674,5.865,5.865,0,0,0,1.626-.2,6.634,6.634,0,0,0,1.382-.6l.771,1.758a5.293,5.293,0,0,1-1.719.869A7.622,7.622,0,0,1,15.986.205ZM15.8-8.564a1.584,1.584,0,0,0-1.323.591,2.964,2.964,0,0,0-.562,1.567l.02.049h3.477v-.215a2.468,2.468,0,0,0-.381-1.46A1.409,1.409,0,0,0,15.8-8.564ZM21.445-5.2a6.843,6.843,0,0,1,1.084-4.033,3.516,3.516,0,0,1,3.047-1.533,3,3,0,0,1,1.563.4,3.507,3.507,0,0,1,1.152,1.143l.225-1.348h2.451V-.049A3.927,3.927,0,0,1,29.619,3.14a5.69,5.69,0,0,1-3.76,1.128,7.163,7.163,0,0,1-1.7-.22,7.891,7.891,0,0,1-1.66-.6l.479-2.129a6.544,6.544,0,0,0,1.353.474,6.7,6.7,0,0,0,1.509.161,2.552,2.552,0,0,0,1.724-.488,1.933,1.933,0,0,0,.552-1.523v-.957a3.19,3.19,0,0,1-1.1.908,3.253,3.253,0,0,1-1.455.313,3.586,3.586,0,0,1-3.027-1.426,6.069,6.069,0,0,1-1.084-3.77ZM24.3-4.99a4.341,4.341,0,0,0,.464,2.183,1.621,1.621,0,0,0,1.519.8,2.354,2.354,0,0,0,1.108-.239,1.828,1.828,0,0,0,.728-.7v-4.58a1.949,1.949,0,0,0-.728-.752A2.133,2.133,0,0,0,26.3-8.545a1.6,1.6,0,0,0-1.523.928A5.288,5.288,0,0,0,24.3-5.2ZM39.629-1.562a3.587,3.587,0,0,1-1.24,1.309,3.288,3.288,0,0,1-1.748.459A3.213,3.213,0,0,1,34.028-.928a5.434,5.434,0,0,1-.942-3.516v-6.123h2.842v6.143a3.411,3.411,0,0,0,.376,1.9,1.351,1.351,0,0,0,1.167.513,2.841,2.841,0,0,0,1.172-.22,1.975,1.975,0,0,0,.8-.649v-7.686h2.852V0H39.932ZM50-8.115l-1.045-.029a1.9,1.9,0,0,0-1.045.264,1.671,1.671,0,0,0-.625.742V0H44.443V-10.566H47.09L47.217-9a3.333,3.333,0,0,1,.962-1.294,2.144,2.144,0,0,1,1.362-.464,2.131,2.131,0,0,1,.4.034q.181.034.366.083ZM54.482,0H51.631V-10.566h2.852Zm0-13.1H51.631v-2.139h2.852Zm1.9,7.9a6.866,6.866,0,0,1,1.079-4.033,3.5,3.5,0,0,1,3.042-1.533,2.959,2.959,0,0,1,1.426.342,3.43,3.43,0,0,1,1.113.977v-5.791h2.861V0H63.477l-.244-1.3A3.532,3.532,0,0,1,62.051-.181a3.124,3.124,0,0,1-1.562.386,3.573,3.573,0,0,1-3.022-1.426,6.088,6.088,0,0,1-1.079-3.77Zm2.842.205A4.3,4.3,0,0,0,59.7-2.808a1.632,1.632,0,0,0,1.523.8,2.219,2.219,0,0,0,1.074-.249,1.987,1.987,0,0,0,.752-.728v-4.5a2.195,2.195,0,0,0-.747-.776,1.987,1.987,0,0,0-1.06-.278,1.609,1.609,0,0,0-1.528.928A5.243,5.243,0,0,0,59.229-5.2ZM74.346,0a6,6,0,0,1-.269-.762,5.3,5.3,0,0,1-.161-.82A3.908,3.908,0,0,1,72.754-.3a2.913,2.913,0,0,1-1.719.508,3.568,3.568,0,0,1-2.559-.854,3.061,3.061,0,0,1-.9-2.329,2.786,2.786,0,0,1,1.2-2.407,5.974,5.974,0,0,1,3.491-.854h1.6v-.84a1.644,1.644,0,0,0-.4-1.182,1.572,1.572,0,0,0-1.191-.42,1.549,1.549,0,0,0-1.069.337,1.176,1.176,0,0,0-.376.923H68.086l-.02-.059a2.68,2.68,0,0,1,1.167-2.31,5.069,5.069,0,0,1,3.228-.972,4.73,4.73,0,0,1,3.081.957,3.333,3.333,0,0,1,1.177,2.744V-2.7a8.256,8.256,0,0,0,.112,1.4A7.008,7.008,0,0,0,77.188,0ZM71.738-1.9a2.429,2.429,0,0,0,1.328-.371,2,2,0,0,0,.8-.859V-4.629h-1.6a1.9,1.9,0,0,0-1.372.449,1.476,1.476,0,0,0-.464,1.1,1.1,1.1,0,0,0,.347.854A1.371,1.371,0,0,0,71.738-1.9ZM78.418-5.2A6.866,6.866,0,0,1,79.5-9.229a3.5,3.5,0,0,1,3.042-1.533,2.959,2.959,0,0,1,1.426.342,3.43,3.43,0,0,1,1.113.977v-5.791h2.861V0H85.508l-.244-1.3A3.532,3.532,0,0,1,84.082-.181,3.124,3.124,0,0,1,82.52.205,3.573,3.573,0,0,1,79.5-1.221a6.088,6.088,0,0,1-1.079-3.77Zm2.842.205a4.3,4.3,0,0,0,.469,2.183,1.632,1.632,0,0,0,1.523.8,2.219,2.219,0,0,0,1.074-.249,1.987,1.987,0,0,0,.752-.728v-4.5a2.195,2.195,0,0,0-.747-.776,1.987,1.987,0,0,0-1.06-.278,1.609,1.609,0,0,0-1.528.928A5.243,5.243,0,0,0,81.26-5.2Z" transform="translate(10.3 43.501)" fill="#fff"/>
        <path id="Trazado_622665" data-name="Trazado 622665" d="M.654-5.381A5.67,5.67,0,0,1,1.973-9.253a4.6,4.6,0,0,1,3.652-1.509A4.644,4.644,0,0,1,9.3-9.258a5.64,5.64,0,0,1,1.328,3.877v.205A5.649,5.649,0,0,1,9.3-1.294,4.625,4.625,0,0,1,5.645.205a4.637,4.637,0,0,1-3.667-1.5A5.649,5.649,0,0,1,.654-5.176ZM3.5-5.176A4.6,4.6,0,0,0,4-2.856a1.753,1.753,0,0,0,1.641.874,1.736,1.736,0,0,0,1.616-.879,4.566,4.566,0,0,0,.513-2.314v-.205a4.52,4.52,0,0,0-.518-2.295,1.751,1.751,0,0,0-1.631-.889,1.73,1.73,0,0,0-1.616.894A4.561,4.561,0,0,0,3.5-5.381ZM16.8-1.982a1.587,1.587,0,0,0,1.182-.444,1.614,1.614,0,0,0,.439-1.187h2.6l.02.059A3.307,3.307,0,0,1,19.844-.874,4.455,4.455,0,0,1,16.8.205a4.5,4.5,0,0,1-3.623-1.5,5.7,5.7,0,0,1-1.279-3.833V-5.42a5.735,5.735,0,0,1,1.274-3.833,4.463,4.463,0,0,1,3.608-1.509,4.358,4.358,0,0,1,3.115,1.113,3.72,3.72,0,0,1,1.143,2.93l-.02.059h-2.6a2.109,2.109,0,0,0-.435-1.362,1.46,1.46,0,0,0-1.206-.542,1.627,1.627,0,0,0-1.567.884,4.847,4.847,0,0,0-.464,2.261v.293a4.829,4.829,0,0,0,.464,2.275A1.649,1.649,0,0,0,16.8-1.982Zm12.373.42A3.587,3.587,0,0,1,27.93-.254a3.288,3.288,0,0,1-1.748.459A3.213,3.213,0,0,1,23.569-.928a5.434,5.434,0,0,1-.942-3.516v-6.123h2.842v6.143a3.411,3.411,0,0,0,.376,1.9,1.351,1.351,0,0,0,1.167.513,2.841,2.841,0,0,0,1.172-.22,1.975,1.975,0,0,0,.8-.649v-7.686h2.852V0H29.473ZM43.516-4.99a6.069,6.069,0,0,1-1.084,3.77A3.586,3.586,0,0,1,39.4.205,3.384,3.384,0,0,1,37.93-.1a3.029,3.029,0,0,1-1.1-.9V4.063H33.984V-10.566h2.568l.166,1.25a3.386,3.386,0,0,1,1.128-1.069,3.051,3.051,0,0,1,1.538-.376,3.516,3.516,0,0,1,3.047,1.533A6.843,6.843,0,0,1,43.516-5.2ZM40.664-5.2a5.112,5.112,0,0,0-.5-2.422,1.625,1.625,0,0,0-1.523-.928,2.153,2.153,0,0,0-1.1.264,1.881,1.881,0,0,0-.718.752V-2.9a1.748,1.748,0,0,0,.718.684,2.418,2.418,0,0,0,1.118.234,1.64,1.64,0,0,0,1.519-.811,4.279,4.279,0,0,0,.483-2.2ZM51.5,0a6,6,0,0,1-.269-.762,5.3,5.3,0,0,1-.161-.82A3.909,3.909,0,0,1,49.912-.3a2.913,2.913,0,0,1-1.719.508,3.568,3.568,0,0,1-2.559-.854,3.061,3.061,0,0,1-.9-2.329,2.786,2.786,0,0,1,1.2-2.407,5.974,5.974,0,0,1,3.491-.854h1.6v-.84a1.644,1.644,0,0,0-.4-1.182,1.572,1.572,0,0,0-1.191-.42,1.549,1.549,0,0,0-1.069.337,1.176,1.176,0,0,0-.376.923H45.244l-.02-.059a2.68,2.68,0,0,1,1.167-2.31,5.069,5.069,0,0,1,3.228-.972A4.73,4.73,0,0,1,52.7-9.8a3.333,3.333,0,0,1,1.177,2.744V-2.7a8.256,8.256,0,0,0,.112,1.4A7.008,7.008,0,0,0,54.346,0ZM48.9-1.9a2.429,2.429,0,0,0,1.328-.371,2,2,0,0,0,.8-.859V-4.629h-1.6a1.9,1.9,0,0,0-1.372.449,1.476,1.476,0,0,0-.464,1.1,1.1,1.1,0,0,0,.347.854A1.371,1.371,0,0,0,48.9-1.9ZM60.43-1.982a1.587,1.587,0,0,0,1.182-.444,1.614,1.614,0,0,0,.439-1.187h2.6l.02.059A3.307,3.307,0,0,1,63.477-.874,4.455,4.455,0,0,1,60.43.205a4.5,4.5,0,0,1-3.623-1.5,5.7,5.7,0,0,1-1.279-3.833V-5.42A5.735,5.735,0,0,1,56.8-9.253a4.463,4.463,0,0,1,3.608-1.509,4.358,4.358,0,0,1,3.115,1.113,3.72,3.72,0,0,1,1.143,2.93l-.02.059h-2.6a2.109,2.109,0,0,0-.435-1.362,1.46,1.46,0,0,0-1.206-.542,1.627,1.627,0,0,0-1.567.884,4.847,4.847,0,0,0-.464,2.261v.293a4.829,4.829,0,0,0,.464,2.275A1.649,1.649,0,0,0,60.43-1.982ZM69.326,0H66.475V-10.566h2.852Zm0-13.1H66.475v-2.139h2.852Zm1.9,7.715a5.67,5.67,0,0,1,1.318-3.872A4.6,4.6,0,0,1,76.2-10.762a4.644,4.644,0,0,1,3.672,1.5A5.64,5.64,0,0,1,81.2-5.381v.205a5.649,5.649,0,0,1-1.323,3.882,4.625,4.625,0,0,1-3.657,1.5,4.637,4.637,0,0,1-3.667-1.5A5.649,5.649,0,0,1,71.23-5.176Zm2.842.205a4.6,4.6,0,0,0,.508,2.319,1.753,1.753,0,0,0,1.641.874,1.736,1.736,0,0,0,1.616-.879,4.566,4.566,0,0,0,.513-2.314v-.205a4.52,4.52,0,0,0-.518-2.295A1.751,1.751,0,0,0,76.2-8.564a1.73,1.73,0,0,0-1.616.894,4.561,4.561,0,0,0-.513,2.29Zm11.494-5.391.127,1.514a3.865,3.865,0,0,1,1.3-1.26,3.372,3.372,0,0,1,1.729-.449,3.142,3.142,0,0,1,2.5,1.03,4.884,4.884,0,0,1,.9,3.257V0H89.258V-6.465a2.529,2.529,0,0,0-.4-1.606,1.458,1.458,0,0,0-1.187-.474,2.49,2.49,0,0,0-1.118.239,2.183,2.183,0,0,0-.8.659V0H82.91V-10.566ZM100.479,0a6,6,0,0,1-.269-.762,5.3,5.3,0,0,1-.161-.82A3.908,3.908,0,0,1,98.887-.3a2.913,2.913,0,0,1-1.719.508,3.568,3.568,0,0,1-2.559-.854,3.061,3.061,0,0,1-.9-2.329,2.786,2.786,0,0,1,1.2-2.407A5.974,5.974,0,0,1,98.4-6.24H100v-.84a1.644,1.644,0,0,0-.4-1.182,1.572,1.572,0,0,0-1.191-.42,1.549,1.549,0,0,0-1.069.337,1.176,1.176,0,0,0-.376.923H94.219L94.2-7.48a2.68,2.68,0,0,1,1.167-2.31,5.069,5.069,0,0,1,3.228-.972,4.73,4.73,0,0,1,3.081.957,3.333,3.333,0,0,1,1.177,2.744V-2.7a8.256,8.256,0,0,0,.112,1.4A7.008,7.008,0,0,0,103.32,0ZM97.871-1.9A2.429,2.429,0,0,0,99.2-2.275a2,2,0,0,0,.8-.859V-4.629H98.4a1.9,1.9,0,0,0-1.372.449,1.476,1.476,0,0,0-.464,1.1,1.1,1.1,0,0,0,.347.854A1.371,1.371,0,0,0,97.871-1.9ZM107.988,0h-2.852V-15.234h2.852Z" transform="translate(0 68.003)" fill="#fff"/>
      </g>
    </g>
    <g id="Grupo_894155" data-name="Grupo 894155" transform="translate(719.529 322.695)">
      <path id="Trazado_622659" data-name="Trazado 622659" d="M4.16-5.156V0H1.309V-14.219H6.748a5.6,5.6,0,0,1,3.857,1.25,4.191,4.191,0,0,1,1.406,3.291A4.161,4.161,0,0,1,10.605-6.4a5.629,5.629,0,0,1-3.857,1.24Zm0-2.2H6.748A2.372,2.372,0,0,0,8.555-8,2.31,2.31,0,0,0,9.17-9.658a2.417,2.417,0,0,0-.61-1.694,2.33,2.33,0,0,0-1.812-.669H4.16Zm15.234-.762L18.35-8.145a1.9,1.9,0,0,0-1.045.264,1.671,1.671,0,0,0-.625.742V0H13.838V-10.566h2.646L16.611-9a3.333,3.333,0,0,1,.962-1.294,2.144,2.144,0,0,1,1.362-.464,2.131,2.131,0,0,1,.4.034q.181.034.366.083Zm.85,2.734a5.67,5.67,0,0,1,1.318-3.872,4.6,4.6,0,0,1,3.652-1.509,4.644,4.644,0,0,1,3.672,1.5,5.64,5.64,0,0,1,1.328,3.877v.205a5.649,5.649,0,0,1-1.323,3.882,4.625,4.625,0,0,1-3.657,1.5,4.637,4.637,0,0,1-3.667-1.5,5.649,5.649,0,0,1-1.323-3.882Zm2.842.205a4.6,4.6,0,0,0,.508,2.319,1.753,1.753,0,0,0,1.641.874,1.736,1.736,0,0,0,1.616-.879,4.566,4.566,0,0,0,.513-2.314v-.205a4.52,4.52,0,0,0-.518-2.295,1.751,1.751,0,0,0-1.631-.889,1.73,1.73,0,0,0-1.616.894,4.561,4.561,0,0,0-.513,2.29Zm13.3,3.193a1.587,1.587,0,0,0,1.182-.444,1.614,1.614,0,0,0,.439-1.187h2.6l.02.059A3.307,3.307,0,0,1,39.434-.874,4.455,4.455,0,0,1,36.387.205a4.5,4.5,0,0,1-3.623-1.5,5.7,5.7,0,0,1-1.279-3.833V-5.42a5.735,5.735,0,0,1,1.274-3.833,4.463,4.463,0,0,1,3.608-1.509,4.358,4.358,0,0,1,3.115,1.113,3.72,3.72,0,0,1,1.143,2.93l-.02.059h-2.6a2.109,2.109,0,0,0-.435-1.362,1.46,1.46,0,0,0-1.206-.542,1.627,1.627,0,0,0-1.567.884,4.847,4.847,0,0,0-.464,2.261v.293A4.829,4.829,0,0,0,34.8-2.852,1.649,1.649,0,0,0,36.387-1.982ZM46.865.205a4.754,4.754,0,0,1-3.691-1.45A5.315,5.315,0,0,1,41.846-4.98v-.391a5.785,5.785,0,0,1,1.289-3.887,4.382,4.382,0,0,1,3.545-1.5,4.1,4.1,0,0,1,3.267,1.3,5.152,5.152,0,0,1,1.138,3.511v1.475h-6.3l-.029.059a2.855,2.855,0,0,0,.659,1.758,2.207,2.207,0,0,0,1.753.674,5.865,5.865,0,0,0,1.626-.2,6.634,6.634,0,0,0,1.382-.6l.771,1.758a5.293,5.293,0,0,1-1.719.869A7.622,7.622,0,0,1,46.865.205Zm-.186-8.77a1.584,1.584,0,0,0-1.323.591,2.964,2.964,0,0,0-.562,1.567l.02.049h3.477v-.215a2.468,2.468,0,0,0-.381-1.46A1.409,1.409,0,0,0,46.68-8.564ZM58.457-2.93A.984.984,0,0,0,58-3.735a4.612,4.612,0,0,0-1.685-.591A6.719,6.719,0,0,1,53.5-5.449a2.453,2.453,0,0,1-.962-2.041A2.911,2.911,0,0,1,53.691-9.8a4.646,4.646,0,0,1,3.066-.957,5.014,5.014,0,0,1,3.208.957,2.8,2.8,0,0,1,1.157,2.383l-.02.059H58.35a1.383,1.383,0,0,0-.41-1.035,1.623,1.623,0,0,0-1.182-.4,1.614,1.614,0,0,0-1.084.342,1.063,1.063,0,0,0-.4.84.948.948,0,0,0,.415.8,4.62,4.62,0,0,0,1.685.552,6.855,6.855,0,0,1,2.9,1.147,2.517,2.517,0,0,1,.952,2.085A2.789,2.789,0,0,1,60-.7a5.269,5.269,0,0,1-3.223.908A4.9,4.9,0,0,1,53.442-.864,2.99,2.99,0,0,1,52.275-3.3l.02-.059H54.9a1.482,1.482,0,0,0,.557,1.23,2.3,2.3,0,0,0,1.377.381,1.958,1.958,0,0,0,1.206-.317A1.03,1.03,0,0,0,58.457-2.93Zm4.16-2.451a5.67,5.67,0,0,1,1.318-3.872,4.6,4.6,0,0,1,3.652-1.509,4.644,4.644,0,0,1,3.672,1.5,5.64,5.64,0,0,1,1.328,3.877v.205a5.649,5.649,0,0,1-1.323,3.882,4.625,4.625,0,0,1-3.657,1.5,4.637,4.637,0,0,1-3.667-1.5,5.649,5.649,0,0,1-1.323-3.882Zm2.842.205a4.6,4.6,0,0,0,.508,2.319,1.753,1.753,0,0,0,1.641.874,1.736,1.736,0,0,0,1.616-.879,4.566,4.566,0,0,0,.513-2.314v-.205a4.52,4.52,0,0,0-.518-2.295,1.751,1.751,0,0,0-1.631-.889,1.73,1.73,0,0,0-1.616.894,4.561,4.561,0,0,0-.513,2.29Zm14.6,2.246a.984.984,0,0,0-.454-.806,4.612,4.612,0,0,0-1.685-.591A6.719,6.719,0,0,1,75.1-5.449a2.453,2.453,0,0,1-.962-2.041A2.911,2.911,0,0,1,75.293-9.8a4.646,4.646,0,0,1,3.066-.957,5.014,5.014,0,0,1,3.208.957,2.8,2.8,0,0,1,1.157,2.383l-.02.059H79.951a1.383,1.383,0,0,0-.41-1.035,1.623,1.623,0,0,0-1.182-.4,1.614,1.614,0,0,0-1.084.342,1.063,1.063,0,0,0-.4.84.948.948,0,0,0,.415.8,4.62,4.62,0,0,0,1.685.552,6.855,6.855,0,0,1,2.9,1.147,2.517,2.517,0,0,1,.952,2.085A2.789,2.789,0,0,1,81.6-.7a5.269,5.269,0,0,1-3.223.908A4.9,4.9,0,0,1,75.044-.864,2.99,2.99,0,0,1,73.877-3.3l.02-.059H76.5a1.482,1.482,0,0,0,.557,1.23,2.3,2.3,0,0,0,1.377.381,1.958,1.958,0,0,0,1.206-.317A1.03,1.03,0,0,0,80.059-2.93Z" transform="translate(0 19)" fill="#fff"/>
    </g>
    <g id="Grupo_894156" data-name="Grupo 894156" transform="translate(1100.04 323.162)">
      <path id="Trazado_622662" data-name="Trazado 622662" d="M12.8,0H9.951L4.219-9.59l-.059.01V0H1.309V-14.219H4.16l5.732,9.58.059-.01v-9.57H12.8Zm1.963-5.381a5.67,5.67,0,0,1,1.318-3.872,4.6,4.6,0,0,1,3.652-1.509,4.644,4.644,0,0,1,3.672,1.5,5.64,5.64,0,0,1,1.328,3.877v.205a5.649,5.649,0,0,1-1.323,3.882,4.625,4.625,0,0,1-3.657,1.5,4.637,4.637,0,0,1-3.667-1.5,5.649,5.649,0,0,1-1.323-3.882Zm2.842.205a4.6,4.6,0,0,0,.508,2.319,1.753,1.753,0,0,0,1.641.874,1.736,1.736,0,0,0,1.616-.879,4.566,4.566,0,0,0,.513-2.314v-.205a4.52,4.52,0,0,0-.518-2.295,1.751,1.751,0,0,0-1.631-.889,1.73,1.73,0,0,0-1.616.894,4.561,4.561,0,0,0-.513,2.29ZM32.051-8.115l-1.045-.029a1.9,1.9,0,0,0-1.045.264,1.671,1.671,0,0,0-.625.742V0H26.494V-10.566h2.646L29.268-9a3.333,3.333,0,0,1,.962-1.294,2.144,2.144,0,0,1,1.362-.464,2.131,2.131,0,0,1,.4.034q.181.034.366.083Zm4.131-2.451.117,1.4a3.55,3.55,0,0,1,1.274-1.177,3.665,3.665,0,0,1,1.772-.415,3.228,3.228,0,0,1,1.738.449,2.771,2.771,0,0,1,1.094,1.357,3.662,3.662,0,0,1,1.27-1.328,3.445,3.445,0,0,1,1.836-.479,3.011,3.011,0,0,1,2.466,1.108,5.291,5.291,0,0,1,.9,3.384V0H45.8V-6.279a2.962,2.962,0,0,0-.391-1.768,1.387,1.387,0,0,0-1.162-.5,1.991,1.991,0,0,0-1.05.269,1.956,1.956,0,0,0-.708.747q0,.186.01.317t.01.269V0H39.668V-6.279a2.97,2.97,0,0,0-.391-1.753,1.38,1.38,0,0,0-1.172-.513,2.212,2.212,0,0,0-1.011.22,1.938,1.938,0,0,0-.718.62V0H33.535V-10.566ZM57.07,0A6,6,0,0,1,56.8-.762a5.3,5.3,0,0,1-.161-.82A3.909,3.909,0,0,1,55.479-.3,2.913,2.913,0,0,1,53.76.205,3.568,3.568,0,0,1,51.2-.649a3.061,3.061,0,0,1-.9-2.329,2.786,2.786,0,0,1,1.2-2.407A5.974,5.974,0,0,1,54.99-6.24h1.6v-.84a1.644,1.644,0,0,0-.4-1.182A1.572,1.572,0,0,0,55-8.682a1.549,1.549,0,0,0-1.069.337,1.176,1.176,0,0,0-.376.923H50.811l-.02-.059a2.68,2.68,0,0,1,1.167-2.31,5.069,5.069,0,0,1,3.228-.972,4.73,4.73,0,0,1,3.081.957,3.333,3.333,0,0,1,1.177,2.744V-2.7a8.256,8.256,0,0,0,.112,1.4A7.008,7.008,0,0,0,59.912,0ZM54.463-1.9a2.429,2.429,0,0,0,1.328-.371,2,2,0,0,0,.8-.859V-4.629h-1.6a1.9,1.9,0,0,0-1.372.449,1.476,1.476,0,0,0-.464,1.1,1.1,1.1,0,0,0,.347.854A1.371,1.371,0,0,0,54.463-1.9ZM65-13.154v2.588h1.787v2H65v5.381a1.228,1.228,0,0,0,.259.879.909.909,0,0,0,.679.264,2.722,2.722,0,0,0,.391-.024,3.29,3.29,0,0,0,.381-.083l.234,2.061a5.773,5.773,0,0,1-.835.22,4.978,4.978,0,0,1-.884.073,3.039,3.039,0,0,1-2.271-.811,3.554,3.554,0,0,1-.8-2.568V-8.564H60.615v-2h1.543v-2.588ZM71.543,0H68.691V-10.566h2.852Zm0-13.1H68.691v-2.139h2.852Zm6.162,9.16.186.977h.059l.2-.977,1.738-6.631h2.979L79.268,0H76.543L72.949-10.566h2.979ZM87.1,0H84.248V-10.566H87.1Zm0-13.1H84.248v-2.139H87.1ZM89-5.2a6.866,6.866,0,0,1,1.079-4.033,3.5,3.5,0,0,1,3.042-1.533,2.959,2.959,0,0,1,1.426.342,3.43,3.43,0,0,1,1.113.977v-5.791h2.861V0H96.094L95.85-1.3A3.532,3.532,0,0,1,94.668-.181a3.124,3.124,0,0,1-1.562.386,3.573,3.573,0,0,1-3.022-1.426A6.088,6.088,0,0,1,89-4.99Zm2.842.205a4.3,4.3,0,0,0,.469,2.183,1.632,1.632,0,0,0,1.523.8,2.219,2.219,0,0,0,1.074-.249,1.987,1.987,0,0,0,.752-.728v-4.5a2.195,2.195,0,0,0-.747-.776,1.987,1.987,0,0,0-1.06-.278,1.609,1.609,0,0,0-1.528.928A5.243,5.243,0,0,0,91.846-5.2ZM106.963,0a6,6,0,0,1-.269-.762,5.3,5.3,0,0,1-.161-.82A3.908,3.908,0,0,1,105.371-.3a2.913,2.913,0,0,1-1.719.508,3.568,3.568,0,0,1-2.559-.854,3.061,3.061,0,0,1-.9-2.329,2.786,2.786,0,0,1,1.2-2.407,5.974,5.974,0,0,1,3.491-.854h1.6v-.84a1.644,1.644,0,0,0-.4-1.182,1.572,1.572,0,0,0-1.191-.42,1.549,1.549,0,0,0-1.069.337,1.176,1.176,0,0,0-.376.923H100.7l-.02-.059a2.68,2.68,0,0,1,1.167-2.31,5.069,5.069,0,0,1,3.228-.972,4.73,4.73,0,0,1,3.081.957,3.333,3.333,0,0,1,1.177,2.744V-2.7a8.256,8.256,0,0,0,.112,1.4A7.008,7.008,0,0,0,109.8,0Zm-2.607-1.9a2.429,2.429,0,0,0,1.328-.371,2,2,0,0,0,.8-.859V-4.629h-1.6a1.9,1.9,0,0,0-1.372.449,1.476,1.476,0,0,0-.464,1.1,1.1,1.1,0,0,0,.347.854A1.371,1.371,0,0,0,104.355-1.9Zm6.68-3.291a6.866,6.866,0,0,1,1.079-4.033,3.5,3.5,0,0,1,3.042-1.533,2.959,2.959,0,0,1,1.426.342,3.43,3.43,0,0,1,1.113.977v-5.791h2.861V0h-2.432l-.244-1.3A3.532,3.532,0,0,1,116.7-.181a3.124,3.124,0,0,1-1.562.386,3.573,3.573,0,0,1-3.022-1.426,6.088,6.088,0,0,1-1.079-3.77Zm2.842.205a4.3,4.3,0,0,0,.469,2.183,1.632,1.632,0,0,0,1.523.8,2.219,2.219,0,0,0,1.074-.249,1.987,1.987,0,0,0,.752-.728v-4.5a2.195,2.195,0,0,0-.747-.776,1.987,1.987,0,0,0-1.06-.278,1.609,1.609,0,0,0-1.528.928,5.243,5.243,0,0,0-.483,2.422Z" transform="translate(0 19)" fill="#fff"/>
    </g>
    <path id="Trazado_622657" data-name="Trazado 622657" d="M1132.065,302.119V242H314.93v60.119" transform="translate(30.08 14.775)" fill="none" stroke="#81b728" stroke-miterlimit="10" stroke-width="3"/>
  </g>
</svg>
