<svg xmlns="http://www.w3.org/2000/svg" width="539.809" height="488.216" viewBox="0 0 539.809 488.216">
  <g id="Grupo_894169" data-name="Grupo 894169" transform="translate(-867.684 -69.515)">
    <path id="Trazado_251609" data-name="Trazado 251609" d="M91.654,197.63h-45.4l-22.7,39.321,22.7,39.321h45.4l22.69-39.321Z" transform="translate(848.221 51.26)" fill="none" stroke="#28965a" stroke-miterlimit="10" stroke-width="0.97" opacity="0.3"/>
    <path id="Trazado_251610" data-name="Trazado 251610" d="M332.353,28.78H286.961L264.26,68.1l22.7,39.321h45.391l22.7-39.321Z" transform="translate(896.057 55.864)" fill="#169788" stroke="#2ceaa3" stroke-miterlimit="10" stroke-width="0.97" opacity="0.28"/>
    <path id="Trazado_251611" data-name="Trazado 251611" d="M476.673,264.12H431.281l-22.7,39.309,22.7,39.321h45.391l22.7-39.321Z" transform="translate(907.559 61.507)" fill="none" stroke="#2ceaa3" stroke-miterlimit="10" stroke-width="0.97"/>
    <path id="Trazado_251612" data-name="Trazado 251612" d="M469.058,163.9H446.253l-11.4,19.747,11.4,19.758h22.805l11.4-19.758Z" transform="translate(911.607 46.062)" fill="none" stroke="#28965a" stroke-miterlimit="10" stroke-width="0.97" opacity="0.3"/>
    <path id="Trazado_251613" data-name="Trazado 251613" d="M74.7,314.66H51.893l-11.4,19.758,11.4,19.747H74.7l11.4-19.747Z" transform="translate(850.831 69.295)" fill="none" stroke="#2ceaa3" stroke-miterlimit="10" stroke-width="0.97"/>
    <path id="Trazado_251614" data-name="Trazado 251614" d="M196.758,25.29H173.953l-11.4,19.747,11.4,19.758h22.805l11.4-19.758Z" transform="translate(918.854 44.71)" fill="#169788" stroke="#28965a" stroke-miterlimit="10" stroke-width="0.97" opacity="0.28"/>
    <path id="Trazado_251615" data-name="Trazado 251615" d="M333.728,441.01H310.923l-11.4,19.747,11.4,19.747h22.805l11.4-19.747Z" transform="translate(890.751 75.1)" fill="none" stroke="#2ceaa3" stroke-miterlimit="10" stroke-width="0.97" opacity="0.5"/>
    <path id="Trazado_251616" data-name="Trazado 251616" d="M255.752,414.21H222.04l-16.85,29.2,16.85,29.2h33.712l16.85-29.2Z" transform="translate(876.214 84.638)" fill="none" stroke="#28965a" stroke-miterlimit="10" stroke-width="0.97" opacity="0.3"/>
    <path id="Trazado_251617" data-name="Trazado 251617" d="M158.044,130.66Z" transform="translate(848.665 32.155)" fill="rgba(254,254,254,0.15)" stroke="#fefefe" stroke-miterlimit="10" stroke-width="0.89"/>
    <path id="Trazado_251618" data-name="Trazado 251618" d="M115.661,69.523l-.577-.993H113.93" transform="translate(862.148 31.363)" fill="none" stroke="#28965a" stroke-miterlimit="10" stroke-width="0.98"/>
    <path id="Trazado_251619" data-name="Trazado 251619" d="M53.211,68.53H52.057l-.577.993" transform="translate(852.524 31.363)" fill="none" stroke="#28965a" stroke-miterlimit="10" stroke-width="0.98"/>
    <path id="Trazado_251620" data-name="Trazado 251620" d="M21.077,122.18l-.577,1,.577.993" transform="translate(847.75 39.632)" fill="none" stroke="#28965a" stroke-miterlimit="10" stroke-width="0.98"/>
    <path id="Trazado_251621" data-name="Trazado 251621" d="M51.48,176.7l.577,1h1.154" transform="translate(852.524 48.033)" fill="none" stroke="#28965a" stroke-miterlimit="10" stroke-width="0.98"/>
    <path id="Trazado_251622" data-name="Trazado 251622" d="M113.93,177.7h1.154l.577-1" transform="translate(862.148 48.033)" fill="none" stroke="#28965a" stroke-miterlimit="10" stroke-width="0.98"/>
    <line id="Línea_477" data-name="Línea 477" y1="57.971" x2="33.469" transform="translate(978.952 164.801)" fill="none" stroke="#28965a" stroke-miterlimit="10" stroke-width="0.98" stroke-dasharray="1.97 1.97"/>
    <path id="Trazado_251623" data-name="Trazado 251623" d="M145.91,124.177l.577-.993-.577-1" transform="translate(867.077 39.632)" fill="none" stroke="#28965a" stroke-miterlimit="10" stroke-width="0.98"/>
    <path id="Trazado_251668" data-name="Trazado 251668" d="M408.738,72.3H169.906L50.49,279.129l119.416,206.84H408.738l119.416-206.84Z" transform="translate(852.012 31.872)" fill="#169788" opacity="0.5"/>
    <path id="Trazado_251669" data-name="Trazado 251669" d="M394.639,80.75H171.713L60.25,273.807,171.713,466.874H394.639L506.1,273.807Z" transform="translate(858.85 37.09)" fill="#addbd5"/>
    <path id="Trazado_251769" data-name="Trazado 251769" d="M376.626,80.75H165.709L60.25,263.407,165.709,446.074H376.626L482.085,263.407Z" transform="translate(870.565 47.829)" fill="#dbefec"/>
    <path id="Trazado_251752" data-name="Trazado 251752" d="M410.088,78.1a1.489,1.489,0,1,0-1.477,1.477,1.489,1.489,0,0,0,1.477-1.477Z" transform="translate(907.332 32.606)" fill="none" stroke="#6bffb8" stroke-miterlimit="10" stroke-width="0.16"/>
    <circle id="Elipse_5995" data-name="Elipse 5995" cx="1.512" cy="1.512" r="1.512" transform="translate(1312.919 101.901)" fill="none" stroke="#6bffb8" stroke-miterlimit="10" stroke-width="0.16"/>
    <path id="Trazado_251753" data-name="Trazado 251753" d="M405.229,68.47a1.085,1.085,0,1,0-1.079.973,1.085,1.085,0,0,0,1.079-.973Z" transform="translate(906.709 31.17)" fill="none" stroke="#6bffb8" stroke-miterlimit="10" stroke-width="0.16"/>
    <path id="Trazado_251754" data-name="Trazado 251754" d="M406.435,75.878a2.678,2.678,0,1,0-2.678,2.678A2.678,2.678,0,0,0,406.435,75.878Z" transform="translate(906.402 32.083)" fill="none" stroke="#6bffb8" stroke-miterlimit="10" stroke-width="0.16"/>
    <path id="Trazado_251765" data-name="Trazado 251765" d="M428.664,68.847A1.477,1.477,0,1,1,427.2,67.37a1.477,1.477,0,0,1,1.466,1.477Z" transform="translate(910.198 31.185)" fill="none" stroke="#6bffb8" stroke-miterlimit="10" stroke-width="0.16"/>
    <path id="Trazado_251766" data-name="Trazado 251766" d="M427.4,75.2a1.512,1.512,0,1,1-1.512-1.512A1.512,1.512,0,0,1,427.4,75.2Z" transform="translate(909.993 32.158)" fill="none" stroke="#6bffb8" stroke-miterlimit="10" stroke-width="0.16"/>
    <path id="Trazado_251767" data-name="Trazado 251767" d="M423.809,78.41a1.085,1.085,0,1,1-.5-1.032,1.085,1.085,0,0,1,.5,1.032Z" transform="translate(909.572 32.701)" fill="none" stroke="#6bffb8" stroke-miterlimit="10" stroke-width="0.16"/>
    <path id="Trazado_251768" data-name="Trazado 251768" d="M425.025,71.353a2.678,2.678,0,1,1-2.666-2.643A2.678,2.678,0,0,1,425.025,71.353Z" transform="translate(909.268 31.391)" fill="none" stroke="#6bffb8" stroke-miterlimit="10" stroke-width="0.16"/>
    <path id="Trazado_273486" data-name="Trazado 273486" d="M301.62,437.87H177.31s7.39-64.69,29.47-101.64h73.75S307.51,362.89,301.62,437.87Z" transform="translate(888.333 55)" fill="#38474f"/>
    <path id="Trazado_273487" data-name="Trazado 273487" d="M271.75,341.38c-9.42.65-18.81,1.23-28.26,1.37s-18.85,0-28.27-.46a.655.655,0,0,0,0,1.31q14.11,1,28.27,1h3.8v.11c.42,5.4.9,10.79,1.36,16.19.29,3.36.15,10.95,5.57,9.81a1.13,1.13,0,0,0,.84-1.09c-.56-8.35-.8-16.72-.77-25.09,5.83-.1,11.67-.29,17.47-.69C273.32,343.72,273.33,341.27,271.75,341.38Zm-19,27c-1.4-.61-1.48-3.51-1.58-4.67-.19-2.06-.37-4.13-.55-6.19-.39-4.29-.76-8.58-1.18-12.86a.42.42,0,0,0,0-.12h3.17q-.4,11.94.14,23.88Z" transform="translate(888.333 55)" fill="#263238"/>
    <path id="Trazado_273488" data-name="Trazado 273488" d="M262.45,437.28c-.45-4.55-1-19.34-1.61-23.87a211.082,211.082,0,0,0-5.25-26.91c-1.49-5.4-2.84-6.49-3.23.62-.38,6.95-.45,13.92-.54,20.87-.08,6.55.06,23.33.09,29.88h10.6Z" transform="translate(888.333 55)" fill="#263238"/>
    <path id="Trazado_273489" data-name="Trazado 273489" d="M304.56,412.5s-18.16,8.93-26.29,5.06c-13.17-6.26-12.32-17.47-16.36-81.33l17.21-41.65c-2.32,21.26,7.32,35.43,15.39,57.28.27.71.55,1.45.82,2.19.54,1.54,1.08,3.11,1.6,4.74l.47,1.45C301.62,373.76,304.82,390.29,304.56,412.5Z" transform="translate(888.333 55)" fill="#fff"/>
    <path id="Trazado_273490" data-name="Trazado 273490" d="M238.86,336.23c4.1,38.29.36,72.88-9.1,79.49-11.14,7.78-51.39-3.13-51.39-3.13,13.09-79.78,38.06-103.3,38.06-103.3Z" transform="translate(888.333 55)" fill="#fff"/>
    <path id="Trazado_273491" data-name="Trazado 273491" d="M260.25,152.56a68.42,68.42,0,0,0,15.39,41.91c4.44,5.41,9.91,10.48,11.49,17.29,1.41,6.05-.6,12.51-4.14,17.61s-8.45,9.08-13.43,12.79l-14.4,1.76L244.31,155Z" transform="translate(888.333 55)" fill="#263238"/>
    <path id="Trazado_273492" data-name="Trazado 273492" d="M237.69,127.75c-68.71,1.75-26.81,65.67-47,83.88-14.24,12.86-9.79,30.69-9.79,30.69,11-17.11,64.29,7,61.69-30.83L218.48,178Z" transform="translate(888.333 55)" fill="#263238"/>
    <path id="Trazado_273493" data-name="Trazado 273493" d="M268.23,201.22c35.64.09,93.81,1.42,93.81,1.42l2.26,47.67c-50.12,10.22-82.11,14-82.11,14Z" transform="translate(888.333 55)" fill="#fff"/>
    <path id="Trazado_273494" data-name="Trazado 273494" d="M278.82,204c.73-4.08-26.39-2.59-26.39-2.59l-23-1.63s-47.2,15.71-48.74,22.7c-1.24,5.6-.16,62.22,24.35,113.78h76.83c-10.5-56.52,11.32-52.78,12.22-71.9C295.05,245,273.86,231.6,278.82,204Z" transform="translate(888.333 55)" fill="#fff"/>
    <path id="Trazado_273495" data-name="Trazado 273495" d="M277.5,233.61c-4.5-9.66-10-18.82-15.05-28.23-.22-.41-.83,0-.63.36,4.57,9.65,8.63,19.58,13.72,29C276.24,236,278.1,234.91,277.5,233.61Z" transform="translate(888.333 55)" fill="#dbdbdb"/>
    <path id="Trazado_273497" data-name="Trazado 273497" d="M230,312c-1-5.79-2.26-11.55-3.65-17.27a280.112,280.112,0,0,0-10.42-33.48c-2.1-5.53-4.33-11-6.79-16.41,4.69-.57,9.36-1.26,14-1.82a1.07,1.07,0,0,0,.27-2.09,75.413,75.413,0,0,1-8.2-4.2c-2.3-1.27-4.54-2.63-6.74-4.07a97.891,97.891,0,0,0,7.4-23c.15-.77-1-1.09-1.18-.31a108.85,108.85,0,0,1-9,23.17,1.33,1.33,0,0,0,.48,1.74,74.506,74.506,0,0,0,7.89,4.89,48.121,48.121,0,0,0,4.6,2.13c-3.9.31-7.8.6-11.69,1a1.45,1.45,0,0,0-1.24,2.12,282.14,282.14,0,0,1,21,65.92c1.18,6.44,1.86,13,3.2,19.37a1.12,1.12,0,0,0,2.2-.28A113.337,113.337,0,0,0,230,312Z" transform="translate(888.333 55)" fill="#dbdbdb"/>
    <path id="Trazado_273498" data-name="Trazado 273498" d="M295.11,259.85c-.68-6.72-3.46-13.11-7-18.82-2-3.3-4.21-6.5-6.25-9.8A89.222,89.222,0,0,1,276.57,221c-.09-.19-.37,0-.32.14,1.84,6.48,5.61,12.36,8.75,18.27,3.24,6.07,6.43,12.37,7.47,19.25a25.39,25.39,0,0,1-.4,10.05,31,31,0,0,1-4,8.5c-1.72,2.78-3.66,5.43-5.22,8.31a46.158,46.158,0,0,0-3.72,9.06c-2,7-2.58,14.7-.58,21.73a.69.69,0,0,0,1.34-.22,60.418,60.418,0,0,1,1.39-20,47,47,0,0,1,3.64-9.51c1.51-2.91,3.32-5.63,5.06-8.4a37.662,37.662,0,0,0,4.22-8.59A24.359,24.359,0,0,0,295.11,259.85Z" transform="translate(888.333 55)" fill="#dbdbdb"/>
    <path id="Trazado_273499" data-name="Trazado 273499" d="M261.9,336.23h-23c-2.06-27.23-10-58.46-11.89-79.32-1.9-20.66-1.22-48.66-1.22-48.66l30.09-3.64s2.61,15.46,11,45.47C272.53,270.2,258.49,279.92,261.9,336.23Z" transform="translate(888.333 55)" fill="#96d1ab"/>
    <path id="Trazado_273500" data-name="Trazado 273500" d="M266.17,275c-.16.66-.29,1.34-.43,2-9,2.3-18.05,4.41-27.17,6.09-2.48.47-5,.9-7.45,1.28-.14-.85-.29-1.68-.43-2.51A356.638,356.638,0,0,0,266.17,275Z" transform="translate(888.333 55)" fill="#b5dfc4"/>
    <path id="Trazado_273501" data-name="Trazado 273501" d="M257.1,173.79l-.54,12-.62,13.79-.15,7.21a15.08,15.08,0,0,1-14.47,14.76h0a15.08,15.08,0,0,1-15.62-13.71l-3.87-42.56Z" transform="translate(888.333 55)" fill="#f2905d"/>
    <path id="Trazado_273502" data-name="Trazado 273502" d="M256.81,183.24l-.87,16.32c-16.08,1.66-23.76-8.09-27.28-18C235.37,179.76,256.81,183.24,256.81,183.24Z" transform="translate(888.333 55)" fill="#824645"/>
    <path id="Trazado_273503" data-name="Trazado 273503" d="M269.17,149c-.24-23.76-24.33-31.21-41.31-18-12.45,3-26.89,21.63-11.76,43Z" transform="translate(888.333 55)" fill="#263238"/>
    <path id="Trazado_273504" data-name="Trazado 273504" d="M260.32,133.45a18.36,18.36,0,0,0-11.15-4.22c-10.71-.7-23.39,5.33-28.94,12.86-8.1,11-6.26,24.66.89,35.1A38.3,38.3,0,0,0,233.88,189c8.9,5.05,20.58,6.56,29.07.86,6.13-4.1,9.66-11.41,10.44-18.76C274.7,158.69,270,141.9,260.32,133.45Z" transform="translate(888.333 55)" fill="#f2905d"/>
    <path id="Trazado_273505" data-name="Trazado 273505" d="M233.21,132.38c12-1.69,26.71,2.35,35.65,13C262.12,121.91,241.79,125.3,233.21,132.38Z" transform="translate(888.333 55)" fill="#263238"/>
    <path id="Trazado_273506" data-name="Trazado 273506" d="M237.2,129.89c6.05,19.4-7.86,41.25-16.29,45.22C195.69,163.92,212.54,135.7,237.2,129.89Z" transform="translate(888.333 55)" fill="#263238"/>
    <path id="Trazado_273507" data-name="Trazado 273507" d="M265.24,155.66c.6,1.45.25,3-.79,3.5s-2.36-.28-3-1.73-.25-3,.79-3.49S264.64,154.22,265.24,155.66Z" transform="translate(888.333 55)" fill="#263238"/>
    <path id="Trazado_273508" data-name="Trazado 273508" d="M249.19,161.72c.6,1.45.25,3-.79,3.5s-2.36-.28-3-1.73-.25-3,.79-3.49S248.59,160.28,249.19,161.72Z" transform="translate(888.333 55)" fill="#263238"/>
    <path id="Trazado_273509" data-name="Trazado 273509" d="M260.38,163.52c-2.24-3.27-4.64-6.39-7.08-9.51-.23-.3-.73,0-.51.33,1.77,2.69,3.56,5.34,5.45,7.95.92,1.27,2.1,2.58,2.49,4.13a3.9,3.9,0,0,1-1.1,3.42.39.39,0,0,0,.31.65A2.59,2.59,0,0,0,262,168a7.31,7.31,0,0,0-1.62-4.48Z" transform="translate(888.333 55)" fill="#263238"/>
    <path id="Trazado_273510" data-name="Trazado 273510" d="M215.73,169.67c-3.46-.51-7.4.74-9.13,3.78-1.44,2.54-1.07,5.74-.1,8.49a17.49,17.49,0,0,0,6.67,8.86A12.73,12.73,0,0,0,224,192.43a10,10,0,0,0,6.83-8.21C231.49,177,222,170.58,215.73,169.67Z" transform="translate(888.333 55)" fill="#f2905d"/>
    <path id="Trazado_273511" data-name="Trazado 273511" d="M222.79,181.41c-3.29-2.5-6.86-2.52-10.73-1.69-.57.12-.49,1.1.12,1,3.15-.27,6.72,1.69,8.88,3.43a1.64,1.64,0,0,0,1.26.2,1.72,1.72,0,0,0,1-.73,1.69,1.69,0,0,0-.53-2.21Z" transform="translate(888.333 55)" fill="#824645"/>
    <path id="Trazado_273512" data-name="Trazado 273512" d="M265.59,140.64c-1.45-2.18-8.34.24-8.78,2.84C256.23,146.86,268.07,144.41,265.59,140.64Z" transform="translate(888.333 55)" fill="#263238"/>
    <path id="Trazado_273513" data-name="Trazado 273513" d="M241.21,150.23c-1.92-2.39-9.59,1.12-9.83,4.19C231,159.76,243.57,153.16,241.21,150.23Z" transform="translate(888.333 55)" fill="#263238"/>
    <path id="Trazado_273514" data-name="Trazado 273514" d="M258.37,173.67a13.411,13.411,0,0,1-3.66.94,7.74,7.74,0,0,1-4.15-.71c-.39-.25-.72.29-.45.64a5.34,5.34,0,0,0,4.66,2,4.86,4.86,0,0,0,4-2.33.39.39,0,0,0-.4-.54Z" transform="translate(888.333 55)" fill="#263238"/>
    <path id="Trazado_273515" data-name="Trazado 273515" d="M314.06,134.7l-18.76-1.78a3.35,3.35,0,0,1-3-3.51h0a3.36,3.36,0,0,1,2.55-3.07l17-4.13Z" transform="translate(888.333 55)" fill="#f2905d"/>
    <path id="Trazado_273516" data-name="Trazado 273516" d="M352.75,142.64a164.5,164.5,0,0,1,16.62,23.05l-18.91,14.25-10.91-30Z" transform="translate(888.333 55)" fill="#f2905d"/>
    <path id="Trazado_273517" data-name="Trazado 273517" d="M313.39,135.84c17.12,13.41,29,21.93,39.36,6.8l-18.84-21.55Z" transform="translate(888.333 55)" fill="#f2905d"/>
    <path id="Trazado_273518" data-name="Trazado 273518" d="M281,173.73a2,2,0,0,1-.9-2.67,2.93,2.93,0,0,0-.11-3h0a1.58,1.58,0,0,1,.44-2.2,1.58,1.58,0,0,0,.28-2.39l-.08-.09a1.61,1.61,0,0,1-.39-1.38l2.89-14.27,2.69-13.13,6.88,1.38-4.12,20.18-1.46,7.22a1.62,1.62,0,0,1-.89,1.13l-.13.06a1.59,1.59,0,0,0-.61,2.34,1.59,1.59,0,0,1-.47,2.16h0a3,3,0,0,0-1.24,2.73,2.249,2.249,0,0,1,0,.51,2,2,0,0,1-2.78,1.42Z" transform="translate(888.333 55)" fill="#727997"/>
    <path id="Trazado_273519" data-name="Trazado 273519" d="M287.37,156.43,286,163.19a.5.5,0,0,1-.28.35l-.13.06a2.61,2.61,0,0,0-1.41,1.62,2.8,2.8,0,0,0,.33,2.3.5.5,0,0,1-.17.68,4.07,4.07,0,0,0-1.71,3.71.86.86,0,0,1,0,.22.83.83,0,0,1-.44.59.9.9,0,0,1-.77,0,.79.79,0,0,1-.34-.29,1,1,0,0,1-.14-.44.88.88,0,0,1,.1-.43,4,4,0,0,0-.17-4.09.5.5,0,0,1-.07-.38.49.49,0,0,1,.21-.3,2.67,2.67,0,0,0,.74-3.7,2.994,2.994,0,0,0-.25-.32l-.09-.11a.09.09,0,0,1,0-.06.46.46,0,0,1-.08-.36l2.32-11.48c.49.77,1,1.5,1.41,2.17l.59.87.68,1,1.09,1.62" transform="translate(888.333 55)" fill="#96d1ab"/>
    <rect id="Rectángulo_44678" data-name="Rectángulo 44678" width="18.71" height="9.09" rx="1.43" transform="matrix(0.98, 0.197, -0.197, 0.98, 1169.148, 184.162)" fill="#96d1ab"/>
    <rect id="Rectángulo_44679" data-name="Rectángulo 44679" width="14.72" height="3.58" rx="0.93" transform="matrix(0.98, 0.197, -0.197, 0.98, 1171.41, 182.98)" fill="#96d1ab"/>
    <rect id="Rectángulo_44680" data-name="Rectángulo 44680" width="9.47" height="3.58" rx="0.93" transform="translate(1176.023 184.88) rotate(11.535)" fill="#b5dfc4"/>
    <rect id="Rectángulo_44681" data-name="Rectángulo 44681" width="18.71" height="5.56" rx="1.44" transform="translate(1168.602 184.997) rotate(11.535)" fill="#b5dfc4"/>
    <path id="Trazado_273520" data-name="Trazado 273520" d="M281.77,137.5a.76.76,0,0,1-.26,0,.73.73,0,0,1-.57-.85l1.08-5.4a.73.73,0,0,1,1.43.29l-1.08,5.39a.75.75,0,0,1-.6.57Z" transform="translate(888.333 55)" fill="#96d1ab"/>
    <path id="Trazado_273521" data-name="Trazado 273521" d="M284.07,138a.76.76,0,0,1-.26,0,.73.73,0,0,1-.57-.85l1.08-5.4a.73.73,0,0,1,1.43.29l-1.09,5.39a.72.72,0,0,1-.59.57Z" transform="translate(888.333 55)" fill="#96d1ab"/>
    <path id="Trazado_273522" data-name="Trazado 273522" d="M286.36,138.42a.7.7,0,0,1-.25,0,.72.72,0,0,1-.57-.85l1.08-5.4a.73.73,0,0,1,.86-.56.72.72,0,0,1,.56.85l-1.08,5.4a.74.74,0,0,1-.6.56Z" transform="translate(888.333 55)" fill="#96d1ab"/>
    <path id="Trazado_273523" data-name="Trazado 273523" d="M288.66,138.88a.77.77,0,0,1-.26,0,.71.71,0,0,1-.56-.85l1.08-5.39a.724.724,0,0,1,1.42.28l-1.08,5.4a.74.74,0,0,1-.6.56Z" transform="translate(888.333 55)" fill="#96d1ab"/>
    <path id="Trazado_273524" data-name="Trazado 273524" d="M291,139.34h-.26a.74.74,0,0,1-.57-.86l1.09-5.39a.724.724,0,0,1,1.42.28l-1.08,5.4a.72.72,0,0,1-.6.57Z" transform="translate(888.333 55)" fill="#96d1ab"/>
    <path id="Trazado_273525" data-name="Trazado 273525" d="M293.26,139.8a.57.57,0,0,1-.26,0,.73.73,0,0,1-.57-.86l1.08-5.39a.74.74,0,0,1,.86-.57.73.73,0,0,1,.57.85l-1.08,5.4A.74.74,0,0,1,293.26,139.8Z" transform="translate(888.333 55)" fill="#96d1ab"/>
    <path id="Trazado_273526" data-name="Trazado 273526" d="M295.56,140.26a.57.57,0,0,1-.26,0,.72.72,0,0,1-.57-.86l1.08-5.39a.73.73,0,0,1,.86-.57.74.74,0,0,1,.57.86l-1.09,5.39a.7.7,0,0,1-.59.57Z" transform="translate(888.333 55)" fill="#96d1ab"/>
    <path id="Trazado_273527" data-name="Trazado 273527" d="M295.92,130l-.11.53-10.37-2.08.11-.54a2,2,0,0,1,1.37-1.5l1-.3a2,2,0,0,0,1.37-1.51h0a2,2,0,0,0-.42-1.66,4.64,4.64,0,0,1,5.09-7.25,3.469,3.469,0,0,1,.45.17,4.63,4.63,0,0,1,.38,8.29,2,2,0,0,0-1,1.35h0a2,2,0,0,0,.68,1.92l.78.65A2,2,0,0,1,295.92,130Z" transform="translate(888.333 55)" fill="#727997"/>
    <path id="Trazado_273528" data-name="Trazado 273528" d="M295.92,130l-.11.53-8.4-1.68.11-.54a2,2,0,0,1,1.37-1.51l1-.29a2,2,0,0,0,1.37-1.51h0a2,2,0,0,0-.42-1.65,3.72,3.72,0,1,1,3.95.81,2,2,0,0,0-1,1.35h0a2,2,0,0,0,.68,1.92l.78.65A2,2,0,0,1,295.92,130Z" transform="translate(888.333 55)" fill="#b0c0d2"/>
    <path id="Trazado_273529" data-name="Trazado 273529" d="M289.84,124.1l10.07-11.4a4.45,4.45,0,0,1,3.65-1.5l22.57,4.41a11.13,11.13,0,0,1,6.48,3.89l19.44,23.85c-3.71-1.31-9.15,5.41-18.77,2.38C322.72,143.31,310.73,125,310.73,125l-7.44-4-9.8,7.23a2.78,2.78,0,0,1-3.62-.28,2.85,2.85,0,0,1-.03-3.85Z" transform="translate(888.333 55)" fill="#f2905d"/>
    <path id="Trazado_273530" data-name="Trazado 273530" d="M308.65,123c-4.21,6.68-2.27,11.94,2.37,12.24,2.65,3.75,5.54,4.37,9.13,2.84-3.58,4.09.26,7.56,2.86,7.68s11.38-4.71,11.38-4.71L322.8,119.56Z" transform="translate(888.333 55)" fill="#f2905d"/>
    <path id="Trazado_273531" data-name="Trazado 273531" d="M309.76,121.48a6.23,6.23,0,0,1,1.71-2.23,10.449,10.449,0,0,1,2.54-1.54,19.9,19.9,0,0,1,5.53-1.64c.34,0,.43.53.09.6a14,14,0,0,0-5.14,2c-.74.49-1.44,1-2.15,1.56a24.9,24.9,0,0,1-2.3,1.54.21.21,0,0,1-.28-.29Z" transform="translate(888.333 55)" fill="#824645"/>
    <path id="Trazado_273532" data-name="Trazado 273532" d="M310.94,132.37a9.863,9.863,0,0,0,.38-1,8.2,8.2,0,0,1,.46-.82,12.76,12.76,0,0,1,1.18-1.48,12.341,12.341,0,0,1,3.06-2.56,13.41,13.41,0,0,1,7.57-1.69.3.3,0,0,1,0,.59,13.68,13.68,0,0,0-6.95,2.15,15.929,15.929,0,0,0-2.88,2.16,14.73,14.73,0,0,0-1.16,1.33c-.19.24-.39.48-.57.73s-.51.49-.62.77S310.74,132.66,310.94,132.37Z" transform="translate(888.333 55)" fill="#824645"/>
    <path id="Trazado_273533" data-name="Trazado 273533" d="M319.4,136.09a2.771,2.771,0,0,1,.61-.71,9.857,9.857,0,0,1,.8-.65,7.391,7.391,0,0,1,1.73-.87,27.71,27.71,0,0,1,3.76-1.07.31.31,0,0,1,.17.59A19.321,19.321,0,0,0,323,135a14.06,14.06,0,0,1-1.72.9,5.55,5.55,0,0,1-1.67.59.27.27,0,0,1-.21-.4Z" transform="translate(888.333 55)" fill="#824645"/>
    <path id="Trazado_273534" data-name="Trazado 273534" d="M330.68,143a3.39,3.39,0,0,1,3.75.07c1.41.85,2.24,2.38,3.66,3.23a6.88,6.88,0,0,0,3.88,1,6.321,6.321,0,0,0,1.92-.4c.67-.25,1.36-.85,2.1-.75a.79.79,0,0,1,.61,1.08c-.26.71-1.17,1-1.83,1.17a8.619,8.619,0,0,1-2,.34,9.78,9.78,0,0,1-4.08-.62,9.17,9.17,0,0,1-3.45-2.56c-.9-1-2.51-2.79-4-1.87C330.73,143.89,330.23,143.27,330.68,143Z" transform="translate(888.333 55)" fill="#824645"/>
    <path id="Trazado_273535" data-name="Trazado 273535" d="M360,149.91c-.3-.32-21.45,27.75-21.45,27.75l25.72,72.65c39.07-8,35.29-25.14,26.38-46.7C384.2,187.93,360,149.91,360,149.91Z" transform="translate(888.333 55)" fill="#fff"/>
    <path id="Trazado_273536" data-name="Trazado 273536" d="M273.28,212.69h10v53.18a2.58,2.58,0,0,1-2.58,2.58h-4.83a2.58,2.58,0,0,1-2.58-2.58V212.69Z" transform="translate(935.503 9.39) rotate(10.23)" fill="#727997"/>
    <path id="Trazado_273537" data-name="Trazado 273537" d="M273.62,266.36h0a3.46,3.46,0,0,0,4-2.78l7.7-42.58-7.88,3.59-6.61,37.79a3.45,3.45,0,0,0,2.79,3.98Z" transform="translate(888.333 55)" fill="#96d1ab"/>
    <rect id="Rectángulo_44682" data-name="Rectángulo 44682" width="16.67" height="5.79" rx="1.5" transform="translate(1163.341 266.672) rotate(10.24)" fill="#727997"/>
    <path id="Trazado_273538" data-name="Trazado 273538" d="M274.21,253.43l-9-23-24.36,24.9S251.7,273,274.21,253.43Z" transform="translate(888.333 55)" fill="#ac635b"/>
    <path id="Trazado_273539" data-name="Trazado 273539" d="M288.34,230.5h-9.15l-1.63-7.3,11.36,2.05a2.65,2.65,0,0,1,2.14,3.08h0a2.65,2.65,0,0,1-2.72,2.17Z" transform="translate(888.333 55)" fill="#ac635b"/>
    <path id="Trazado_273540" data-name="Trazado 273540" d="M280.09,230.12l-11.6,10.31-3.33-10.04,12.4-7.19Z" transform="translate(888.333 55)" fill="#ac635b"/>
    <path id="Trazado_273541" data-name="Trazado 273541" d="M277.44,239.87l-8.45,5.78-3.59-5.82,9.11-6.33Z" transform="translate(888.333 55)" fill="#ac635b"/>
    <path id="Trazado_273542" data-name="Trazado 273542" d="M274.37,240.45l10-.84a2.88,2.88,0,0,0,2.63-2.68h0a2.88,2.88,0,0,0-2.77-3.06l-9.73-.37Z" transform="translate(888.333 55)" fill="#ac635b"/>
    <path id="Trazado_273543" data-name="Trazado 273543" d="M274.38,233.19a22.821,22.821,0,0,0-8.93,3.5.793.793,0,1,0,1,1.23,30.221,30.221,0,0,1,8.1-3.83C275.06,233.94,275,233.08,274.38,233.19Z" transform="translate(888.333 55)" fill="#824645"/>
    <path id="Trazado_273544" data-name="Trazado 273544" d="M270.69,247.73l11.29.14a3.23,3.23,0,0,0,3.23-2.71h0a3.22,3.22,0,0,0-2.76-3.72l-12.82-1.33Z" transform="translate(888.333 55)" fill="#ac635b"/>
    <path id="Trazado_273545" data-name="Trazado 273545" d="M269.73,253.75h10.9a3.13,3.13,0,0,0,3.1-2.66h0a3.12,3.12,0,0,0-2.7-3.56l-10.5-1.3Z" transform="translate(888.333 55)" fill="#ac635b"/>
    <path id="Trazado_273546" data-name="Trazado 273546" d="M240.8,255.29l-20.02,22.36,16.76,25.14,18.62-42.19Z" transform="translate(888.333 55)" fill="#ac635b"/>
    <path id="Trazado_273547" data-name="Trazado 273547" d="M230.74,265.66l21.06,32S220,339.27,202.92,345.3c-19.95,7.07-25.61-32.72-25.61-32.72Z" transform="translate(888.333 55)" fill="#fff"/>
    <path id="Trazado_273548" data-name="Trazado 273548" d="M179.18,322.07c-9.36-47.46-6.73-93.68-4-98.11,1.23-2,10-6,14.44-8.32l18.81,95.23Z" transform="translate(888.333 55)" fill="#fff"/>
    <path id="Trazado_273549" data-name="Trazado 273549" d="M226.25,269.12c-3.35,2.84-6.75,5.57-10.2,8.28-1.7,1.33-3.36,2.71-5,4.1-1.32,1.12-2.77,2.21-4,3.41a114.85,114.85,0,0,0-6.6-21A102.12,102.12,0,0,0,188.16,243c-2.81-3.68-5.91-7.09-9.07-10.47-.39-.43-1,.19-.62.62a142.541,142.541,0,0,1,13,20.08,181,181,0,0,1,10.05,21.55,105.925,105.925,0,0,1,4,12,21,21,0,0,0-3.81,1.94,26.831,26.831,0,0,0-4.23,3.12,29.421,29.421,0,0,0-6.12,8.15.52.52,0,0,0,.9.52,30.43,30.43,0,0,1,6.66-7.07,35.758,35.758,0,0,1,3.83-2.65l.78-.42c-.69,1.16-1.3,2.36-1.89,3.52a73.767,73.767,0,0,0-3.58,8.15,65.388,65.388,0,0,0-2.54,8.43,69.878,69.878,0,0,0-1.19,8.88.4.4,0,0,0,.79.1,86.39,86.39,0,0,1,2.2-8.51,84,84,0,0,1,2.87-8.26,75.308,75.308,0,0,1,3.74-7.73,70.18,70.18,0,0,0,4.08-7.21,59.33,59.33,0,0,0,4.61-4.07c1.64-1.49,3.27-3,4.85-4.53,3.16-3.11,6.34-6.16,9.63-9.14C227.71,269.45,226.84,268.61,226.25,269.12Z" transform="translate(888.333 55)" fill="#dbdbdb"/>
    <path id="Trazado_273550" data-name="Trazado 273550" d="M367.84,233.12c-2.06-2.31-4.32-4.41-6.31-6.78A86.88,86.88,0,0,1,356,219a79,79,0,0,1-8.47-16.51.362.362,0,0,0-.71.14.58.58,0,0,0-1,.18,30.919,30.919,0,0,0,.67,13.63,37,37,0,0,0,2.44,6.43c1,2,2.18,4.47,3.94,5.85a1.11,1.11,0,0,0,1.74-1.33,21.563,21.563,0,0,0-1.71-2.67c-.57-.89-1.11-1.81-1.61-2.74a33.127,33.127,0,0,1-2.56-6.12A41,41,0,0,1,347,203.13a75.179,75.179,0,0,0,7.22,16.92,70,70,0,0,0,5.28,7.74A45.628,45.628,0,0,0,366,235a1.315,1.315,0,0,0,1.84-1.88Z" transform="translate(888.333 55)" fill="#dbdbdb"/>
    <path id="Trazado_273551" data-name="Trazado 273551" d="M234.36,358.87c-11.35-1.31-22.76-2.59-34-4.84a.43.43,0,0,0-.18.84,317.791,317.791,0,0,0,32.65,6.33c0,1.45.07,2.9.09,4.34-5.83-.71-11.61-1.74-17.43-2.56s-11.75-1.58-17.62-2.36c.23-1.38.43-2.76.55-4.16a.884.884,0,0,0-1.73-.36c-.47,1.73-.82,3.46-1.14,5.22a1.09,1.09,0,0,0,.84,1.29c6.21.86,12.42,1.77,18.63,2.59s12.49,1.39,18.68,2.38a1,1,0,0,0,1.16-1c.1-2.18.32-4.37.46-6.55a1.25,1.25,0,0,0-.96-1.16Z" transform="translate(888.333 55)" fill="#dbdbdb"/>
    <path id="Trazado_273552" data-name="Trazado 273552" d="M235.25,316.44c-3.23,2.61-5.89,6-8.61,9.14-2.87,3.29-5.84,6.48-8.87,9.61-5,5.14-12.34,13.36-20.38,10-.59-.25-1.08.73-.49,1a13.41,13.41,0,0,0,11.27,0c4-1.73,7.14-4.9,10.2-7.91,3.35-3.31,6.57-6.74,9.7-10.26,3-3.36,6.15-6.89,8.09-11C236.42,316.5,235.65,316.12,235.25,316.44Z" transform="translate(888.333 55)" fill="#dbdbdb"/>
    <path id="Trazado_273553" data-name="Trazado 273553" d="M297.4,360.24c-7.44.81-14.85,1.9-22.25,3a1.25,1.25,0,0,1-1.26-.89c-.42-2.15-.77-4.3-1.24-6.45a1,1,0,0,1,.87-1.23c6.24-.64,12.44-1.69,18.67-2.5l2.32-.29c.27.71.55,1.45.82,2.19-1,.13-2,.27-3,.38-5.83.68-11.7,1.16-17.51,2,.39,1.39.8,2.79,1.2,4.18,7-.95,13.94-1.45,20.93-1.8Z" transform="translate(888.333 55)" fill="#dbdbdb"/>
    <path id="Trazado_273569" data-name="Trazado 273569" d="M232.24,113.26l-3.47-12.85A26,26,0,0,0,232,89.88h0a25.948,25.948,0,1,0-51.714-4.33h0a26,26,0,0,0,23.69,28h0a25.84,25.84,0,0,0,15.57-3.65Z" transform="translate(842.333 122.038)" fill="#fff" stroke="#b5dfc4" stroke-miterlimit="10" stroke-width="1"/>
    <path id="Trazado_273570" data-name="Trazado 273570" d="M203.63,95.76a11.82,11.82,0,1,1,8.83-20h0a11.82,11.82,0,0,1-8.83,20Zm.51-21.92A10.11,10.11,0,1,0,211.22,77h0a10.05,10.05,0,0,0-7.08-3.16Z" transform="translate(842.333 122.038)" fill="#dbdbdb"/>
    <rect id="Rectángulo_44683" data-name="Rectángulo 44683" width="1.71" height="12.14" transform="translate(1053.189 214.503) rotate(-43.66)" fill="#dbdbdb"/>
    <line id="Línea_757" data-name="Línea 757" x2="53.49" y2="63.65" transform="translate(1231.343 413.85)" fill="none" stroke="#29398a" stroke-miterlimit="10" stroke-width="1" stroke-dasharray="4 2"/>
    <path id="Trazado_273580" data-name="Trazado 273580" d="M323.42,348.47a4.39,4.39,0,1,1,1.86,5.92,4.39,4.39,0,0,1-1.86-5.92Z" transform="translate(888.333 55)" fill="#bce0c1"/>
    <path id="Trazado_273581" data-name="Trazado 273581" d="M334.65,328.65a2.63,2.63,0,1,0,1.543-1.3,2.63,2.63,0,0,0-1.543,1.3Z" transform="translate(888.333 55)" fill="#bce0c1"/>
    <path id="Trazado_273582" data-name="Trazado 273582" d="M310.17,328.8a6.18,6.18,0,1,0,3.625-3.044A6.19,6.19,0,0,0,310.17,328.8Z" transform="translate(888.333 55)" fill="#96d1ab"/>
    <path id="Trazado_273583" data-name="Trazado 273583" d="M346.17,342.11a2.13,2.13,0,1,1-.645-1.508,2.14,2.14,0,0,1,.645,1.508Z" transform="translate(888.333 55)" fill="#96d1ab"/>
    <path id="Trazado_273584" data-name="Trazado 273584" d="M326.13,319.32a1.65,1.65,0,1,0-1.65,1.65A1.65,1.65,0,0,0,326.13,319.32Z" transform="translate(888.333 55)" fill="#96d1ab"/>
    <path id="Trazado_273585" data-name="Trazado 273585" d="M329.67,336.87a1.65,1.65,0,1,0-1.65,1.65A1.65,1.65,0,0,0,329.67,336.87Z" transform="translate(888.333 55)" fill="#bce0c1"/>
    <path id="Trazado_273586" data-name="Trazado 273586" d="M348.77,329.87a1.65,1.65,0,1,0-.487,1.17A1.66,1.66,0,0,0,348.77,329.87Z" transform="translate(888.333 55)" fill="#bce0c1"/>
    <path id="Trazado_273587" data-name="Trazado 273587" d="M315.65,348.48a.84.84,0,1,0-.84.84.85.85,0,0,0,.84-.84Z" transform="translate(888.333 55)" fill="#96d1ab"/>
    <circle id="Elipse_6223" data-name="Elipse 6223" cx="26.6" cy="26.6" r="26.6" transform="translate(1189.753 365.27)" fill="none" stroke="#38474f" stroke-miterlimit="10" stroke-width="1" stroke-dasharray="3.98 1.99"/>
    <path id="Trazado_273588" data-name="Trazado 273588" d="M355.19,264.79c3.05,11,10.09,16.48,21.2,16.48,0,0,.19-8.21-5.23-14.45Z" transform="translate(888.333 55)" fill="#96d1ab"/>
    <line id="Línea_758" data-name="Línea 758" x1="16.33" y1="15.51" transform="translate(1248.394 320.76)" fill="none" stroke="#38474f" stroke-miterlimit="10" stroke-width="1"/>
    <path id="Trazado_273589" data-name="Trazado 273589" d="M352.93,269.56a12.57,12.57,0,0,1,2.3-4.81l16,2C367.25,269.47,360.86,271.28,352.93,269.56Z" transform="translate(888.333 55)" fill="#bce0c1"/>
    <line id="Línea_759" data-name="Línea 759" y1="21.93" transform="translate(1264.723 335.96)" fill="none" stroke="#38474f" stroke-miterlimit="10" stroke-width="1"/>
    <path id="Trazado_273590" data-name="Trazado 273590" d="M376.39,298.83a7.17,7.17,0,0,0,3.47,4.6,39.1,39.1,0,0,0,4.91,1.73c1.62.64,3.21,1.88,3.4,3.61" transform="translate(888.333 55)" fill="none" stroke="#38474f" stroke-miterlimit="10" stroke-width="1"/>
    <path id="Trazado_273591" data-name="Trazado 273591" d="M376.33,302.78a3.65,3.65,0,0,1-.45,3.54c-.41.55-1,1-1.38,1.52a1.83,1.83,0,0,0-.32,1.91" transform="translate(888.333 55)" fill="none" stroke="#38474f" stroke-miterlimit="10" stroke-width="1"/>
    <path id="Trazado_273592" data-name="Trazado 273592" d="M376.44,302.85a5.42,5.42,0,0,1-3.09,1.25,15.341,15.341,0,0,0-3.31.61,3.23,3.23,0,0,0-2.18,2.38" transform="translate(888.333 55)" fill="none" stroke="#38474f" stroke-miterlimit="10" stroke-width="1"/>
    <path id="Trazado_273593" data-name="Trazado 273593" d="M381.4,303.92l.24,1.3a6.241,6.241,0,0,0,.61,2,2.2,2.2,0,0,0,1.67,1.2" transform="translate(888.333 55)" fill="none" stroke="#38474f" stroke-miterlimit="10" stroke-width="1"/>
    <path id="Trazado_273594" data-name="Trazado 273594" d="M376.39,297.37a3.92,3.92,0,0,1-3,2.67,31.612,31.612,0,0,1-4.24.47,12.88,12.88,0,0,0-5.42,1.95c-1,.64-1.91,1.42-2.93,2a5.46,5.46,0,0,1-3.38.89" transform="translate(888.333 55)" fill="none" stroke="#38474f" stroke-miterlimit="10" stroke-width="1"/>
    <path id="Trazado_273595" data-name="Trazado 273595" d="M369.78,308.64a3.33,3.33,0,0,0,1.58-2.24,13.778,13.778,0,0,1,.26-2" transform="translate(888.333 55)" fill="none" stroke="#38474f" stroke-miterlimit="10" stroke-width="1"/>
    <path id="Trazado_273596" data-name="Trazado 273596" d="M366.15,301.31c-.62.21-.75,1.06-.55,1.69a8,8,0,0,1,.61,1.87,3.23,3.23,0,0,1-.81,1.92,4.689,4.689,0,0,0-1,1.84,1.4,1.4,0,0,0,.95,1.66" transform="translate(888.333 55)" fill="none" stroke="#38474f" stroke-miterlimit="10" stroke-width="1"/>
    <path id="Trazado_273597" data-name="Trazado 273597" d="M392.82,303.23a4.38,4.38,0,0,1-3.93.12,24.892,24.892,0,0,1-3.52-2.06,6.51,6.51,0,0,0-3.85-1.15c-.82.08-1.6.41-2.42.53a2.62,2.62,0,0,1-2.38-.8" transform="translate(888.333 55)" fill="none" stroke="#38474f" stroke-miterlimit="10" stroke-width="1"/>
    <path id="Trazado_273598" data-name="Trazado 273598" d="M367.33,298.2a2.11,2.11,0,0,1,2.17,0c.67.36,1.23.9,1.88,1.29a2.58,2.58,0,0,0,2.27.45" transform="translate(888.333 55)" fill="none" stroke="#38474f" stroke-miterlimit="10" stroke-width="1"/>
    <path id="Trazado_273599" data-name="Trazado 273599" d="M389.42,299.46a3.37,3.37,0,0,0-3.17-.5c-1.07.39-1.84,1.43-3,1.37" transform="translate(888.333 55)" fill="none" stroke="#38474f" stroke-miterlimit="10" stroke-width="1"/>
    <path id="Trazado_273600" data-name="Trazado 273600" d="M352.93,269.56a12.57,12.57,0,0,1,2.3-4.81l16,2C367.25,269.47,360.86,271.28,352.93,269.56Z" transform="translate(888.333 55)" fill="#b5dfc4"/>
    <line id="Línea_760" data-name="Línea 760" y1="5.69" x2="10.24" transform="translate(1240.553 319.54)" fill="none" stroke="#38474f" stroke-miterlimit="10" stroke-width="1"/>
    <path id="Trazado_273601" data-name="Trazado 273601" d="M352.93,269.56a12.57,12.57,0,0,1,2.3-4.81l16,2C367.25,269.47,360.86,271.28,352.93,269.56Z" transform="translate(888.333 55)" fill="#b5dfc4"/>
    <path id="Trazado_273602" data-name="Trazado 273602" d="M376.39,281.27c4.19-15.86,12.85-17.83,27.14-13.54C395.73,288.35,376.39,281.27,376.39,281.27Z" transform="translate(888.333 55)" fill="#96d1ab"/>
    <line id="Línea_761" data-name="Línea 761" x1="27.14" y2="13.54" transform="translate(1264.723 322.73)" fill="none" stroke="#38474f" stroke-miterlimit="10" stroke-width="1"/>
    <path id="Trazado_273603" data-name="Trazado 273603" d="M376.39,281.27c4.19-15.86,12.85-17.83,27.14-13.54C395.73,288.35,376.39,281.27,376.39,281.27Z" transform="translate(888.333 55)" fill="none"/>
    <path id="Trazado_273604" data-name="Trazado 273604" d="M361.48,291.39a3.4,3.4,0,0,0,6.8,0c0-1.88-3.4-6.63-3.4-6.63S361.48,289.51,361.48,291.39Z" transform="translate(888.333 55)" fill="#dbdbdb"/>
    <path id="Trazado_273605" data-name="Trazado 273605" d="M378.88,260.27a2.81,2.81,0,0,0,5.61,0c0-1.55-2.8-5.47-2.8-5.47S378.88,258.72,378.88,260.27Z" transform="translate(888.333 55)" fill="#dbdbdb"/>
    <path id="Trazado_273606" data-name="Trazado 273606" d="M385.86,292a2.31,2.31,0,0,0,4.62,0c0-1.27-2.31-4.5-2.31-4.5S385.86,290.73,385.86,292Z" transform="translate(888.333 55)" fill="#dbdbdb"/>
    <line id="Línea_762" data-name="Línea 762" x1="22.46" y2="33.71" transform="translate(1218.803 331.67)" fill="none" stroke="#29398a" stroke-miterlimit="10" stroke-width="1" stroke-dasharray="4 2"/>
    <circle id="Elipse_6224" data-name="Elipse 6224" cx="10.04" cy="10.04" r="10.04" transform="translate(1237.673 313.94)" fill="none" stroke="#38474f" stroke-miterlimit="10" stroke-width="1" stroke-dasharray="4 2"/>
    <path id="Trazado_273610" data-name="Trazado 273610" d="M194.35,410H183.4v4.17h10.95a1.94,1.94,0,0,0,1.74-2.09h0a1.94,1.94,0,0,0-1.74-2.08Z" transform="translate(888.333 55)" fill="#38474f"/>
    <path id="Trazado_273611" data-name="Trazado 273611" d="M185.31,433.57h10.78v4.16H185.31a1.91,1.91,0,0,1-1.91-1.91v-.35A1.91,1.91,0,0,1,185.31,433.57Z" transform="translate(1267.833 926.29) rotate(180)" fill="#38474f"/>
    <path id="Trazado_273633" data-name="Trazado 273633" d="M119.6,236.77l-1.88,13.5-.9,6.55c-.14,1-.28,2-.41,3-.6,0-1.18-.06-1.73-.11-1.4-.13-2.8-.24-4.21-.31-3-.16-6-.24-9-.32q-8.92-.24-17.84.15c-1.58.07-1.25,2.38.26,2.39q8.73.06,17.44.78c2.86.24,5.71.59,8.55,1l4.18.54c.58.07,1.2.2,1.83.31-2.59,2.88-5.2,5.75-7.8,8.62-3.18,3.51-6.46,6.95-9.28,10.75-.67.91.49,2.35,1.42,1.52,3.56-3.19,6.72-6.78,9.95-10.29,2.75-3,5.49-6,8.25-9a1.93,1.93,0,0,0,1-.26l.33.31c.84.81,1.69,1.6,2.54,2.41,1.74,1.64,3.51,3.28,5.23,4.94,3.42,3.29,6.71,6.7,10.21,9.9.81.74,2.12-.47,1.4-1.32-3-3.63-6.32-7.05-9.46-10.59-1.55-1.75-3.07-3.52-4.59-5.28-.77-.88-1.53-1.76-2.31-2.63a15.26,15.26,0,0,0-2.06-2.19c.07-1.18.07-2.37.15-3.49.14-2.27.29-4.55.44-6.82l.87-13.66C122.18,235.59,119.82,235.14,119.6,236.77Z" transform="translate(888.333 55)" fill="#dbdbdb"/>
    <circle id="Elipse_6225" data-name="Elipse 6225" cx="7.6" cy="7.6" r="7.6" transform="translate(958.331 315.912) rotate(-49.96)" fill="#96d1ab"/>
    <path id="Trazado_273634" data-name="Trazado 273634" d="M144.27,277.17a7.6,7.6,0,1,1-4.96-3.046,7.6,7.6,0,0,1,4.96,3.046Z" transform="translate(888.333 55)" fill="#96d1ab"/>
    <path id="Trazado_273635" data-name="Trazado 273635" d="M127.47,229.18a7.6,7.6,0,1,1-4.96-3.046,7.6,7.6,0,0,1,4.96,3.046Z" transform="translate(888.333 55)" fill="#38474f"/>
    <path id="Trazado_273636" data-name="Trazado 273636" d="M104.54,279.9a7.59,7.59,0,1,1-4.952-3.051,7.6,7.6,0,0,1,4.952,3.051Z" transform="translate(888.333 55)" fill="#38474f"/>
    <path id="Trazado_273637" data-name="Trazado 273637" d="M127.92,254.63a11.17,11.17,0,1,1-7.3-4.5A11.19,11.19,0,0,1,127.92,254.63Z" transform="translate(888.333 55)" fill="#b5dfc4"/>
    <path id="Trazado_273638" data-name="Trazado 273638" d="M267.53,109.64c-3.84,0-3.84,6,0,6S271.37,109.64,267.53,109.64Z" transform="translate(888.333 55)" fill="#fff"/>
    <path id="Trazado_273639" data-name="Trazado 273639" d="M315.14,179.56c-3.84,0-3.84,6,0,6S319,179.56,315.14,179.56Z" transform="translate(888.333 55)" fill="#fff"/>
    <path id="Trazado_273640" data-name="Trazado 273640" d="M309.68,285.69c-3.83,0-3.84,6,0,6S313.52,285.69,309.68,285.69Z" transform="translate(888.333 55)" fill="#fff"/>
    <path id="Trazado_273641" data-name="Trazado 273641" d="M153.46,240.56c-3.83,0-3.83,6,0,6S157.3,240.56,153.46,240.56Z" transform="translate(888.333 55)" fill="#fff"/>
    <path id="Trazado_273644" data-name="Trazado 273644" d="M60.44,331.88a18.781,18.781,0,0,1,4.43-1.18,30.146,30.146,0,0,1,4.44-.32,28.794,28.794,0,0,1,4.43.32,18.309,18.309,0,0,1,4.43,1.18,19.28,19.28,0,0,1-4.43,1.18,30.107,30.107,0,0,1-4.43.32,31.592,31.592,0,0,1-4.44-.33,18.748,18.748,0,0,1-4.43-1.17Z" transform="translate(888.333 55)" fill="#96d1ab"/>
    <path id="Trazado_273645" data-name="Trazado 273645" d="M69.31,323a18.75,18.75,0,0,1,1.17,4.43,31.59,31.59,0,0,1,.33,4.44,30.11,30.11,0,0,1-.32,4.43,19.28,19.28,0,0,1-1.18,4.43,18.31,18.31,0,0,1-1.18-4.43,28.8,28.8,0,0,1-.32-4.43,30.14,30.14,0,0,1,.32-4.44A18.78,18.78,0,0,1,69.31,323Z" transform="translate(888.333 55)" fill="#96d1ab"/>
  </g>
</svg>
