<svg xmlns="http://www.w3.org/2000/svg" width="130.242" height="112.792" viewBox="0 0 130.242 112.792">
  <g id="Grupo_894171" data-name="Grupo 894171" transform="translate(-1257.96 -85.478)">
    <path id="Trazado_251739" data-name="Trazado 251739" d="M455.854,56.04H390.739l-32.569,56.4,32.569,56.39h65.115l32.558-56.39Z" transform="translate(899.79 29.438)" fill="#f4522b" opacity="0.4"/>
    <path id="Trazado_251740" data-name="Trazado 251740" d="M452.928,59.52h-60.5L362.18,111.905l30.249,52.385h60.5l30.238-52.385Z" transform="translate(900.407 29.975)" fill="none" stroke="#6bffb8" stroke-miterlimit="10" stroke-width="0.98" stroke-dasharray="2"/>
    <path id="Trazado_251741" data-name="Trazado 251741" d="M425.793,151.38h0a7.594,7.594,0,0,1-7.583-7.594V82.86h15.165v60.926A7.594,7.594,0,0,1,425.793,151.38Z" transform="translate(909.043 33.572)" fill="#2ceaa3"/>
    <path id="Trazado_251742" data-name="Trazado 251742" d="M423.53,96.182c0,.762,1.685,1.373,3.751,1.373S431,96.886,431,96.182s-1.673-1.362-3.751-1.362S423.53,95.374,423.53,96.182Z" transform="translate(909.862 35.415)" fill="#20b07a"/>
    <path id="Trazado_251743" data-name="Trazado 251743" d="M422.374,94.62a7.271,7.271,0,0,0-2.8.554v46.453a6.059,6.059,0,0,0,6.059,6.059h0a6.059,6.059,0,0,0,6.059-6.059V96.213a4.328,4.328,0,0,1-2.77,1.027C426.1,97.217,426.275,94.562,422.374,94.62Z" transform="translate(909.252 35.384)" fill="#fff"/>
    <path id="Trazado_251744" data-name="Trazado 251744" d="M417.91,81.3a.9.9,0,0,0,0,1.8h.485v60.926a7.594,7.594,0,0,0,4.132,6.752V81.3Z" transform="translate(908.858 33.332)" fill="#fff"/>
    <path id="Trazado_251745" data-name="Trazado 251745" d="M434.048,81.3H417.89a.9.9,0,0,0-.9.9h0a.9.9,0,0,0,.9.9h16.158a.9.9,0,0,0,.9-.9h0A.9.9,0,0,0,434.048,81.3Z" transform="translate(908.854 33.331)" fill="#2ceaa3"/>
    <rect id="Rect치ngulo_43875" data-name="Rect치ngulo 43875" width="15.165" height="1.131" transform="translate(1327.253 116.432)" fill="#2a6041" opacity="0.2"/>
    <path id="Trazado_251746" data-name="Trazado 251746" d="M429.488,109.955A1.489,1.489,0,1,0,428,111.4a1.489,1.489,0,0,0,1.489-1.443Z" transform="translate(910.321 37.512)" fill="#28965a"/>
    <circle id="Elipse_5993" data-name="Elipse 5993" cx="1.512" cy="1.512" r="1.512" transform="translate(1335.296 138.66)" fill="#28965a"/>
    <path id="Trazado_251747" data-name="Trazado 251747" d="M424.62,100.3a1.085,1.085,0,1,0-1.073,1.085,1.085,1.085,0,0,0,1.073-1.085Z" transform="translate(909.695 36.094)" fill="#28965a"/>
    <path id="Trazado_251748" data-name="Trazado 251748" d="M425.835,107.726a2.677,2.677,0,1,0-.78,1.9,2.678,2.678,0,0,0,.78-1.9Z" transform="translate(909.392 36.993)" fill="#28965a"/>
    <circle id="Elipse_5994" data-name="Elipse 5994" cx="1.477" cy="1.477" r="1.477" transform="translate(1329.872 161.478)" fill="#28965a"/>
    <path id="Trazado_251749" data-name="Trazado 251749" d="M421.76,117.052a1.512,1.512,0,1,1,1.512,1.512A1.512,1.512,0,0,1,421.76,117.052Z" transform="translate(909.589 38.608)" fill="#28965a"/>
    <path id="Trazado_251750" data-name="Trazado 251750" d="M425.23,113.715a1.085,1.085,0,1,1,1.085,1.085,1.085,1.085,0,0,1-1.085-1.085Z" transform="translate(910.124 38.16)" fill="#28965a"/>
    <path id="Trazado_251751" data-name="Trazado 251751" d="M424.44,121.151a2.678,2.678,0,1,1,.788,1.9A2.689,2.689,0,0,1,424.44,121.151Z" transform="translate(910.002 39.057)" fill="#28965a"/>
    <path id="Trazado_251752" data-name="Trazado 251752" d="M410.088,78.1a1.489,1.489,0,1,0-1.477,1.477,1.489,1.489,0,0,0,1.477-1.477Z" transform="translate(907.332 32.607)" fill="none" stroke="#6bffb8" stroke-miterlimit="10" stroke-width="0.16"/>
    <circle id="Elipse_5995" data-name="Elipse 5995" cx="1.512" cy="1.512" r="1.512" transform="translate(1312.919 101.901)" fill="none" stroke="#6bffb8" stroke-miterlimit="10" stroke-width="0.16"/>
    <path id="Trazado_251753" data-name="Trazado 251753" d="M405.229,68.47a1.085,1.085,0,1,0-1.079.973,1.085,1.085,0,0,0,1.079-.973Z" transform="translate(906.709 31.17)" fill="none" stroke="#6bffb8" stroke-miterlimit="10" stroke-width="0.16"/>
    <path id="Trazado_251754" data-name="Trazado 251754" d="M406.435,75.878a2.678,2.678,0,1,0-2.678,2.678A2.678,2.678,0,0,0,406.435,75.878Z" transform="translate(906.402 32.083)" fill="none" stroke="#6bffb8" stroke-miterlimit="10" stroke-width="0.16"/>
    <path id="Trazado_251755" data-name="Trazado 251755" d="M406.4,151.38h0a7.594,7.594,0,0,1-7.582-7.594V82.86h15.211v60.926a7.594,7.594,0,0,1-7.629,7.594Z" transform="translate(906.055 33.572)" fill="#2ceaa3"/>
    <ellipse id="Elipse_5996" data-name="Elipse 5996" cx="3.751" cy="1.373" rx="3.751" ry="1.373" transform="translate(1311.003 130.166)" fill="#2a6041"/>
    <path id="Trazado_251756" data-name="Trazado 251756" d="M402.944,94.62a7.225,7.225,0,0,0-2.8.554v46.453a6.059,6.059,0,0,0,6.059,6.059h0a6.059,6.059,0,0,0,6.048-6.059V96.213a4.3,4.3,0,0,1-2.77,1.027C406.707,97.217,406.9,94.562,402.944,94.62Z" transform="translate(906.258 35.384)" fill="#28965a"/>
    <path id="Trazado_251757" data-name="Trazado 251757" d="M414.658,81.3H398.5a.9.9,0,0,0-.9.9h0a.9.9,0,0,0,.9.9h16.158a.9.9,0,0,0,.9-.9h0A.9.9,0,0,0,414.658,81.3Z" transform="translate(905.866 33.331)" fill="#2ceaa3"/>
    <rect id="Rect치ngulo_43876" data-name="Rect치ngulo 43876" width="15.165" height="1.131" transform="translate(1304.874 116.432)" fill="#2a6041" opacity="0.2"/>
    <circle id="Elipse_5997" data-name="Elipse 5997" cx="1.477" cy="1.477" r="1.477" transform="translate(1314.465 145.989)" fill="#28965a"/>
    <circle id="Elipse_5998" data-name="Elipse 5998" cx="1.512" cy="1.512" r="1.512" transform="translate(1312.918 138.66)" fill="#28965a"/>
    <path id="Trazado_251758" data-name="Trazado 251758" d="M405.23,100.3a1.085,1.085,0,1,0-1.085,1.085A1.085,1.085,0,0,0,405.23,100.3Z" transform="translate(906.708 36.094)" fill="#28965a"/>
    <path id="Trazado_251759" data-name="Trazado 251759" d="M406.435,107.726a2.678,2.678,0,1,0-.78,1.9,2.678,2.678,0,0,0,.78-1.9Z" transform="translate(906.402 36.993)" fill="#28965a"/>
    <path id="Trazado_251760" data-name="Trazado 251760" d="M401.081,123.386a1.489,1.489,0,1,1,1.483,1.358A1.489,1.489,0,0,1,401.081,123.386Z" transform="translate(906.401 39.568)" fill="#28965a"/>
    <path id="Trazado_251761" data-name="Trazado 251761" d="M402.37,117.052a1.5,1.5,0,1,1,.439,1.072,1.512,1.512,0,0,1-.439-1.072Z" transform="translate(906.602 38.608)" fill="#28965a"/>
    <path id="Trazado_251762" data-name="Trazado 251762" d="M405.841,113.7a1.085,1.085,0,1,1,.5,1.032,1.085,1.085,0,0,1-.5-1.032Z" transform="translate(907.135 38.175)" fill="#28965a"/>
    <path id="Trazado_251763" data-name="Trazado 251763" d="M405.05,121.148a2.678,2.678,0,1,1,2.678,2.678,2.678,2.678,0,0,1-2.678-2.678Z" transform="translate(907.015 39.061)" fill="#28965a"/>
    <path id="Trazado_251764" data-name="Trazado 251764" d="M398.52,81.3a.9.9,0,0,0,0,1.8H399v60.926a7.583,7.583,0,0,0,4.12,6.752V81.3Z" transform="translate(905.869 33.332)" fill="#fff"/>
    <path id="Trazado_251765" data-name="Trazado 251765" d="M428.664,68.847A1.477,1.477,0,1,1,427.2,67.37a1.477,1.477,0,0,1,1.466,1.477Z" transform="translate(910.198 31.185)" fill="none" stroke="#6bffb8" stroke-miterlimit="10" stroke-width="0.16"/>
    <path id="Trazado_251766" data-name="Trazado 251766" d="M427.4,75.2a1.512,1.512,0,1,1-1.512-1.512A1.512,1.512,0,0,1,427.4,75.2Z" transform="translate(909.993 32.158)" fill="none" stroke="#6bffb8" stroke-miterlimit="10" stroke-width="0.16"/>
    <path id="Trazado_251767" data-name="Trazado 251767" d="M423.809,78.41a1.085,1.085,0,1,1-.5-1.032,1.085,1.085,0,0,1,.5,1.032Z" transform="translate(909.572 32.701)" fill="none" stroke="#6bffb8" stroke-miterlimit="10" stroke-width="0.16"/>
    <path id="Trazado_251768" data-name="Trazado 251768" d="M425.025,71.353a2.678,2.678,0,1,1-2.666-2.643A2.678,2.678,0,0,1,425.025,71.353Z" transform="translate(909.268 31.392)" fill="none" stroke="#6bffb8" stroke-miterlimit="10" stroke-width="0.16"/>
  </g>
</svg>
