<svg xmlns="http://www.w3.org/2000/svg" width="161.738" height="140.07" viewBox="0 0 161.738 140.07">
  <g id="Grupo_894172" data-name="Grupo 894172" transform="translate(-1227.318 -423.706)">
    <path id="Trazado_251664" data-name="Trazado 251664" d="M447.492,355.53H375.187L339.04,418.141l36.147,62.622h72.305l36.158-62.622Z" transform="translate(896.842 75.594)" fill="none" stroke="#28965a" stroke-miterlimit="10" stroke-width="0.97"/>
    <path id="Trazado_251665" data-name="Trazado 251665" d="M452.523,349.57H372.277L332.16,419.059l40.117,69.5h80.246l40.129-69.5Z" transform="translate(895.781 74.676)" fill="none" stroke="#28965a" stroke-miterlimit="10" stroke-width="1.08" stroke-dasharray="2"/>
    <path id="Trazado_273571" data-name="Trazado 273571" d="M428.169,420.9v14.593H408.836v-4.748c0-1.394-1.4-2.518-3.136-2.518H386.411c-1.742,0-3.128,1.133-3.128,2.527v4.783H363.95v-14.55Z" transform="translate(915.116 120.181)" fill="#38474f"/>
    <path id="Trazado_273572" data-name="Trazado 273572" d="M364.891,424.267a30.137,30.137,0,0,1,5.82-.2l6.1-.052h42.725a20.351,20.351,0,0,1,6.621.7.444.444,0,0,1,0,.871,18.059,18.059,0,0,1-5.689.706c-2.039,0-4.086,0-6.1.043H402.293c-7.989,0-15.978.087-23.968.044l-6.691-.044H368.3a17.17,17.17,0,0,1-3.415-.174.976.976,0,0,1,.009-1.891Z" transform="translate(915.09 119.784)" fill="#263238"/>
    <path id="Trazado_273573" data-name="Trazado 273573" d="M408.515,392.809v-6.5a17.426,17.426,0,0,0-.383-3.563l-3.894-18.3a5.82,5.82,0,0,0-5.7-4.6H391.4v-9.54h16.728a7.144,7.144,0,0,1,6.6,4.356l11.152,26.468a17.808,17.808,0,0,1,1.394,6.892v22.513H408.524l-43.414.052v-4.008a3.023,3.023,0,0,1,3.023-3.032l29.692-.044a10.7,10.7,0,0,0,10.69-10.7Z" transform="translate(914.967 129.271)" fill="none" stroke="#dbdbdb" stroke-miterlimit="10" stroke-width="1"/>
    <path id="Trazado_273574" data-name="Trazado 273574" d="M360.462,416.126l69.411-.1a3.659,3.659,0,0,1,3.659,3.642h0a3.659,3.659,0,0,1-3.651,3.659l-69.411.1a3.65,3.65,0,0,1-3.65-3.651h0a3.642,3.642,0,0,1,3.642-3.651Z" transform="translate(916.034 120.808)" fill="#38474f"/>
    <rect id="Rectángulo_44684" data-name="Rectángulo 44684" width="7.336" height="12.502" transform="translate(1319.151 455.787) rotate(-151.59)" fill="#f6f6f6"/>
    <rect id="Rectángulo_44685" data-name="Rectángulo 44685" width="10.525" height="68.305" transform="translate(1292.007 509.326) rotate(-151.59)" fill="#38474f"/>
    <rect id="Rectángulo_44686" data-name="Rectángulo 44686" width="19.463" height="54.191" transform="translate(1298.698 506.334) rotate(-151.59)" fill="#fff" stroke="#dbdbdb" stroke-miterlimit="10" stroke-width="1"/>
    <path id="Trazado_273575" data-name="Trazado 273575" d="M373.6,366.4h0a2,2,0,0,0,2.718-.81l1.438-2.657a2,2,0,0,0-.81-2.718h0a2.013,2.013,0,0,0-2.718.81l-1.438,2.657a2.013,2.013,0,0,0,.81,2.718Z" transform="translate(914.008 128.025)" fill="#f7f7f7"/>
    <path id="Trazado_273576" data-name="Trazado 273576" d="M378.739,353.224h0a2.013,2.013,0,0,0,2.718-.81l14.977-27.671a2,2,0,0,0-.81-2.718h0a2.013,2.013,0,0,0-2.718.81l-14.942,27.671A2.021,2.021,0,0,0,378.739,353.224Z" transform="translate(913.343 132.943)" fill="#f7f7f7"/>
    <rect id="Rectángulo_44687" data-name="Rectángulo 44687" width="5.611" height="9.627" transform="translate(1305.63 532.799) rotate(179.92)" fill="#dbdbdb"/>
    <circle id="Elipse_6222" data-name="Elipse 6222" cx="8.373" cy="8.373" r="8.373" transform="translate(1302.771 485.293) rotate(-80.21)" fill="#96d1ab"/>
    <path id="Trazado_273577" data-name="Trazado 273577" d="M396.37,348.306a5.14,5.14,0,1,0,1.5-3.655,5.158,5.158,0,0,0-1.5,3.655Z" transform="translate(910.941 130.193)" fill="none" stroke="#263238" stroke-miterlimit="10" stroke-width="1"/>
    <path id="Trazado_273578" data-name="Trazado 273578" d="M400.762,392.69c-5.044,3.311-14,4.286-23.062,2.945C382.84,401.394,397.041,400.984,400.762,392.69Z" transform="translate(913.346 123.813)" fill="#a4ff00"/>
    <path id="Trazado_273579" data-name="Trazado 273579" d="M376.305,403.4h25.414a2.2,2.2,0,0,0,2.2-2.2h0a2.187,2.187,0,0,0-2.2-2.2H376.3a2.187,2.187,0,0,0-2.187,2.2h0a2.187,2.187,0,0,0,2.2,2.2Z" transform="translate(913.808 123.001)" fill="#ebebeb"/>
  </g>
</svg>
