<svg xmlns="http://www.w3.org/2000/svg" xmlns:xlink="http://www.w3.org/1999/xlink" width="181" height="182" viewBox="0 0 181 182">
  <defs>
    <clipPath id="clip-path">
      <ellipse id="Elipse_156" data-name="Elipse 156" cx="90.5" cy="91" rx="90.5" ry="91" transform="translate(0.271 0.12)" fill="#fff" stroke="#707070" stroke-width="1"/>
    </clipPath>
  </defs>
  <g id="Grupo_894172" data-name="Grupo 894172" transform="translate(-404 -3670)">
    <g id="Enmascarar_grupo_16" data-name="Enmascarar grupo 16" transform="translate(403.729 3669.88)" clip-path="url(#clip-path)">
      <rect id="_95da3c9cb84d7a8c336853e8faf60a4e" data-name="95da3c9cb84d7a8c336853e8faf60a4e" width="195" height="216.886" transform="translate(-13.729 -17.152)" fill="#f3f9ff"/>
    </g>
    <g id="Grupo_874759" data-name="Grupo 874759" transform="translate(186.007 12256.6)">
      <path id="Trazado_285790" data-name="Trazado 285790" d="M52.813,88.85H37.45l5.155,20.784a4.043,4.043,0,0,0,3.911,3.056H59.125a4.043,4.043,0,0,0,3.911-3.056L68.191,88.85Z" transform="translate(208.641 -8604.4)" fill="#5f625e"/>
      <path id="Trazado_285791" data-name="Trazado 285791" d="M72.342,64.24H42.787s-11.364,19.8-7.424,19.8H64.881a3.881,3.881,0,0,0,3.874-3.344Z" transform="translate(209.409 -8597.915)" fill="#d2d3d4"/>
      <path id="Trazado_285792" data-name="Trazado 285792" d="M69.075,69.05H47.584L40.956,82.019a1.1,1.1,0,0,0,.987,1.613H65.584a1.1,1.1,0,0,0,1.09-.921Z" transform="translate(207.749 -8599.183)" fill="#664a3b"/>
      <path id="Trazado_285793" data-name="Trazado 285793" d="M95.31,88.85H79.94L85.1,109.634A4.029,4.029,0,0,0,89,112.69h12.616a4.043,4.043,0,0,0,3.911-3.056l5.155-20.784Z" transform="translate(197.444 -8604.4)" fill="#5f625e"/>
      <path id="Trazado_285794" data-name="Trazado 285794" d="M112.073,64.24H82.783L79.211,81.916c-.228,1.1,1.112,2.121,2.29,2.121h28.347a2.209,2.209,0,0,0,2.209-2.114Z" transform="translate(197.643 -8597.915)" fill="#d2d3d4"/>
      <path id="Trazado_285795" data-name="Trazado 285795" d="M110.724,69.05H88.084l-4.9,13.22a1.024,1.024,0,0,0,1.009,1.362h25.46a1.053,1.053,0,0,0,1.075-1.024Z" transform="translate(196.606 -8599.183)" fill="#664a3b"/>
      <rect id="Rectángulo_44750" data-name="Rectángulo 44750" width="4.625" height="17.867" transform="translate(259.244 -8538.138)" fill="#87be00"/>
      <path id="Trazado_285796" data-name="Trazado 285796" d="M41.831,47.191c.935,2.835,3.9,4.47,6.739,5.391a29.533,29.533,0,0,0,7.151,1.377A16.475,16.475,0,0,0,44.268,38C42.567,40.791,40.8,44.076,41.831,47.191Z" transform="translate(207.567 -8591)" fill="#87be00"/>
      <path id="Trazado_285797" data-name="Trazado 285797" d="M49.14,45.47a49.131,49.131,0,0,0,9.081,9.5,3.778,3.778,0,0,1-3.542-.273,8.3,8.3,0,0,1-2.548-2.659,22.4,22.4,0,0,1-2.99-6.569Z" transform="translate(205.56 -8592.969)" fill="#add250"/>
      <path id="Trazado_285798" data-name="Trazado 285798" d="M69.722,48.526c-.943,2.835-3.9,4.47-6.739,5.391a29.548,29.548,0,0,1-7.144,1.37A16.46,16.46,0,0,1,67.284,39.32C68.985,42.126,70.753,45.411,69.722,48.526Z" transform="translate(203.795 -8591.348)" fill="#87be00"/>
      <path id="Trazado_285799" data-name="Trazado 285799" d="M65.938,45.47a49.168,49.168,0,0,1-9.088,9.5A3.793,3.793,0,0,0,60.4,54.7a8.455,8.455,0,0,0,2.548-2.659A22.787,22.787,0,0,0,65.938,45.47Z" transform="translate(203.528 -8592.969)" fill="#add250"/>
      <rect id="Rectángulo_44751" data-name="Rectángulo 44751" width="4.625" height="17.867" transform="translate(292.091 -8538.138)" fill="#87be00"/>
      <path id="Trazado_285800" data-name="Trazado 285800" d="M86.441,47.191c.943,2.835,3.9,4.47,6.739,5.391a29.548,29.548,0,0,0,7.144,1.377A16.46,16.46,0,0,0,88.878,38C87.177,40.791,85.409,44.076,86.441,47.191Z" transform="translate(195.811 -8591)" fill="#87be00"/>
      <path id="Trazado_285801" data-name="Trazado 285801" d="M93.74,45.47a49.167,49.167,0,0,0,9.088,9.5,3.793,3.793,0,0,1-3.55-.3A8.455,8.455,0,0,1,96.73,52.01,22.786,22.786,0,0,1,93.74,45.47Z" transform="translate(193.807 -8592.969)" fill="#add250"/>
      <path id="Trazado_285802" data-name="Trazado 285802" d="M114.332,48.526c-.943,2.835-3.9,4.47-6.739,5.391a29.548,29.548,0,0,1-7.144,1.377A16.46,16.46,0,0,1,111.9,39.32C113.6,42.126,115.355,45.411,114.332,48.526Z" transform="translate(192.04 -8591.348)" fill="#87be00"/>
      <path id="Trazado_285803" data-name="Trazado 285803" d="M110.541,45.47a49.13,49.13,0,0,1-9.081,9.5,3.778,3.778,0,0,0,3.543-.3,8.3,8.3,0,0,0,2.548-2.659A22.4,22.4,0,0,0,110.541,45.47Z" transform="translate(191.773 -8592.969)" fill="#add250"/>
      <path id="Trazado_285804" data-name="Trazado 285804" d="M183.86,88.85h15.363l-5.155,20.784a4.043,4.043,0,0,1-3.911,3.056h-12.6a4.029,4.029,0,0,1-3.911-3.056L168.49,88.85Z" transform="translate(174.109 -8604.4)" fill="#5f625e"/>
      <path id="Trazado_285805" data-name="Trazado 285805" d="M161.8,64.24h29.555s11.371,19.8,7.416,19.8H169.261a3.9,3.9,0,0,1-3.852-3.344Z" transform="translate(175.872 -8597.915)" fill="#d2d3d4"/>
      <path id="Trazado_285806" data-name="Trazado 285806" d="M168.49,69.05h21.476l6.628,12.969a1.1,1.1,0,0,1-.987,1.613H171.981a1.112,1.112,0,0,1-1.09-.921Z" transform="translate(174.109 -8599.183)" fill="#664a3b"/>
      <path id="Trazado_285807" data-name="Trazado 285807" d="M141.37,88.85h15.363l-5.155,20.784a4.043,4.043,0,0,1-3.911,3.056h-12.6a4.029,4.029,0,0,1-3.911-3.056L126,88.85Z" transform="translate(185.306 -8604.4)" fill="#5f625e"/>
      <path id="Trazado_285808" data-name="Trazado 285808" d="M123.84,64.24h29.29L156.7,81.916c.228,1.1-1.119,2.121-2.29,2.121H126.057a2.209,2.209,0,0,1-2.209-2.114Z" transform="translate(185.875 -8597.915)" fill="#d2d3d4"/>
      <path id="Trazado_285809" data-name="Trazado 285809" d="M127.08,69.05h22.632l4.912,13.257a1.031,1.031,0,0,1-1.009,1.362H128.148a1.046,1.046,0,0,1-1.068-1.024Z" transform="translate(185.022 -8599.183)" fill="#664a3b"/>
      <rect id="Rectángulo_44752" data-name="Rectángulo 44752" width="4.632" height="17.867" transform="translate(355.554 -8538.138)" fill="#87be00"/>
      <path id="Trazado_285810" data-name="Trazado 285810" d="M200.762,47.191c-.935,2.835-3.9,4.47-6.739,5.391a29.548,29.548,0,0,1-7.144,1.377A16.46,16.46,0,0,1,198.324,38C200.025,40.791,201.793,44.076,200.762,47.191Z" transform="translate(169.264 -8591)" fill="#87be00"/>
      <path id="Trazado_285811" data-name="Trazado 285811" d="M195.288,45.47a49.168,49.168,0,0,1-9.088,9.5,3.793,3.793,0,0,0,3.535-.273,8.374,8.374,0,0,0,2.548-2.659A22.588,22.588,0,0,0,195.288,45.47Z" transform="translate(169.442 -8592.969)" fill="#add250"/>
      <path id="Trazado_285812" data-name="Trazado 285812" d="M172.889,48.526c.935,2.835,3.9,4.47,6.739,5.391a29.46,29.46,0,0,0,7.144,1.377A16.475,16.475,0,0,0,175.32,39.32C173.626,42.126,171.851,45.411,172.889,48.526Z" transform="translate(173.031 -8591.348)" fill="#87be00"/>
      <path id="Trazado_285813" data-name="Trazado 285813" d="M178.49,45.47a48.956,48.956,0,0,0,9.088,9.5,3.793,3.793,0,0,1-3.557-.273,8.3,8.3,0,0,1-2.548-2.659A22.589,22.589,0,0,1,178.49,45.47Z" transform="translate(171.474 -8592.969)" fill="#add250"/>
      <rect id="Rectángulo_44753" data-name="Rectángulo 44753" width="4.625" height="17.867" transform="translate(322.7 -8538.138)" fill="#87be00"/>
      <path id="Trazado_285814" data-name="Trazado 285814" d="M156.152,47.191c-.935,2.835-3.9,4.47-6.739,5.391a29.459,29.459,0,0,1-7.144,1.377A16.46,16.46,0,0,1,153.714,38C155.415,40.791,157.183,44.076,156.152,47.191Z" transform="translate(181.02 -8591)" fill="#87be00"/>
      <path id="Trazado_285815" data-name="Trazado 285815" d="M150.678,45.47a48.954,48.954,0,0,1-9.088,9.5,3.793,3.793,0,0,0,3.55-.3,8.455,8.455,0,0,0,2.548-2.659A22.788,22.788,0,0,0,150.678,45.47Z" transform="translate(181.198 -8592.969)" fill="#add250"/>
      <path id="Trazado_285816" data-name="Trazado 285816" d="M128.273,48.526c.935,2.835,3.9,4.47,6.739,5.391a29.548,29.548,0,0,0,7.144,1.377A16.46,16.46,0,0,0,130.71,39.32C129.009,42.126,127.256,45.411,128.273,48.526Z" transform="translate(184.786 -8591.348)" fill="#87be00"/>
      <path id="Trazado_285817" data-name="Trazado 285817" d="M133.88,45.47a48.954,48.954,0,0,0,9.088,9.5,3.793,3.793,0,0,1-3.55-.273,8.3,8.3,0,0,1-2.548-2.659,22.588,22.588,0,0,1-2.99-6.569Z" transform="translate(183.23 -8592.969)" fill="#add250"/>
      <path id="Trazado_285818" data-name="Trazado 285818" d="M45.147,124.18H28.12L33.828,147.2a4.463,4.463,0,0,0,4.331,3.388H52.151a4.471,4.471,0,0,0,4.338-3.388L62.2,124.18Z" transform="translate(211.099 -8613.709)" fill="#5f625e"/>
      <path id="Trazado_285819" data-name="Trazado 285819" d="M66.779,96.91H34.035s-12.6,21.932-8.234,21.932H58.515a4.3,4.3,0,0,0,4.264-3.682Z" transform="translate(211.953 -8606.523)" fill="#d2d3d4"/>
      <path id="Trazado_285820" data-name="Trazado 285820" d="M63.149,102.24h-23.8l-7.4,14.369a1.23,1.23,0,0,0,1.09,1.79H59.275a1.23,1.23,0,0,0,1.215-1.016Z" transform="translate(210.125 -8607.928)" fill="#664a3b"/>
      <path id="Trazado_285821" data-name="Trazado 285821" d="M92.227,124.18H75.2L80.945,147.2a4.463,4.463,0,0,0,4.331,3.388H99.268A4.463,4.463,0,0,0,103.6,147.2l5.708-23.022Z" transform="translate(198.693 -8613.709)" fill="#5f625e"/>
      <path id="Trazado_285822" data-name="Trazado 285822" d="M110.8,96.91H78.344l-3.955,19.583c-.258,1.215,1.23,2.349,2.534,2.349h31.411A2.408,2.408,0,0,0,110.8,116.5Z" transform="translate(198.914 -8606.523)" fill="#d2d3d4"/>
      <path id="Trazado_285823" data-name="Trazado 285823" d="M109.307,102.24H84.222l-5.435,14.649a1.134,1.134,0,0,0,1.119,1.51h28.207a1.164,1.164,0,0,0,1.193-1.134Z" transform="translate(197.765 -8607.928)" fill="#664a3b"/>
      <rect id="Rectángulo_44754" data-name="Rectángulo 44754" width="5.126" height="19.797" transform="translate(253.787 -8514.557)" fill="#87be00"/>
      <path id="Trazado_285824" data-name="Trazado 285824" d="M32.978,78.021c1.038,3.145,4.316,4.957,7.461,5.973a32.965,32.965,0,0,0,7.932,1.532A18.243,18.243,0,0,0,35.688,67.85C33.788,70.906,31.829,74.589,32.978,78.021Z" transform="translate(209.909 -8598.865)" fill="#87be00"/>
      <path id="Trazado_285825" data-name="Trazado 285825" d="M41.07,76.11A54.109,54.109,0,0,0,51.138,86.634,4.183,4.183,0,0,1,47.2,86.34a9.427,9.427,0,0,1-2.828-2.946A25.04,25.04,0,0,1,41.07,76.11Z" transform="translate(207.687 -8601.042)" fill="#add250"/>
      <path id="Trazado_285826" data-name="Trazado 285826" d="M63.874,79.508c-1.038,3.137-4.316,4.949-7.468,5.973a33.312,33.312,0,0,1-7.917,1.525A18.243,18.243,0,0,1,61.171,69.33C63.057,72.416,65.016,76.054,63.874,79.508Z" transform="translate(205.732 -8599.257)" fill="#87be00"/>
      <path id="Trazado_285827" data-name="Trazado 285827" d="M59.678,76.11A54.331,54.331,0,0,1,49.61,86.634a4.183,4.183,0,0,0,3.97-.295A9.324,9.324,0,0,0,56.4,83.394a24.863,24.863,0,0,0,3.277-7.284Z" transform="translate(205.436 -8601.042)" fill="#add250"/>
      <rect id="Rectángulo_44755" data-name="Rectángulo 44755" width="5.133" height="19.797" transform="translate(290.191 -8514.557)" fill="#87be00"/>
      <path id="Trazado_285828" data-name="Trazado 285828" d="M82.4,78.021c1.046,3.145,4.316,4.957,7.468,5.973a32.965,32.965,0,0,0,7.917,1.532A18.25,18.25,0,0,0,85.1,67.85C83.219,70.906,81.283,74.589,82.4,78.021Z" transform="translate(196.882 -8598.865)" fill="#87be00"/>
      <path id="Trazado_285829" data-name="Trazado 285829" d="M90.49,76.11a54.147,54.147,0,0,0,10.075,10.524,4.183,4.183,0,0,1-3.933-.295,9.427,9.427,0,0,1-2.821-2.946A25.04,25.04,0,0,1,90.49,76.11Z" transform="translate(194.664 -8601.042)" fill="#add250"/>
      <path id="Trazado_285830" data-name="Trazado 285830" d="M113.3,79.508c-1.031,3.137-4.316,4.949-7.461,5.973a33.311,33.311,0,0,1-7.917,1.525A18.243,18.243,0,0,1,110.6,69.33C112.487,72.416,114.446,76.054,113.3,79.508Z" transform="translate(192.707 -8599.257)" fill="#87be00"/>
      <path id="Trazado_285831" data-name="Trazado 285831" d="M109.1,76.11A54.331,54.331,0,0,1,99,86.634a4.183,4.183,0,0,0,3.933-.324,9.324,9.324,0,0,0,2.821-2.946A25.04,25.04,0,0,0,109.1,76.11Z" transform="translate(192.421 -8601.042)" fill="#add250"/>
      <path id="Trazado_285832" data-name="Trazado 285832" d="M190.361,124.18h17.027L201.68,147.2a4.478,4.478,0,0,1-4.338,3.388H183.408a4.463,4.463,0,0,1-4.331-3.388L173.37,124.18Z" transform="translate(172.823 -8613.709)" fill="#5f625e"/>
      <path id="Trazado_285833" data-name="Trazado 285833" d="M165.91,96.91h32.744s12.594,21.932,8.227,21.932H174.166a4.308,4.308,0,0,1-4.264-3.682Z" transform="translate(174.789 -8606.523)" fill="#d2d3d4"/>
      <path id="Trazado_285834" data-name="Trazado 285834" d="M173.32,102.24h23.8l7.365,14.369a1.23,1.23,0,0,1-1.09,1.79h-26.2a1.223,1.223,0,0,1-1.208-1.016Z" transform="translate(172.837 -8607.928)" fill="#664a3b"/>
      <path id="Trazado_285835" data-name="Trazado 285835" d="M143.257,124.18h17.027L154.569,147.2a4.463,4.463,0,0,1-4.331,3.388H136.246a4.463,4.463,0,0,1-4.331-3.388L126.2,124.18Z" transform="translate(185.254 -8613.709)" fill="#5f625e"/>
      <path id="Trazado_285836" data-name="Trazado 285836" d="M123.84,96.91h32.449l3.962,19.583c.25,1.215-1.237,2.349-2.541,2.349H126.3a2.4,2.4,0,0,1-2.46-2.342Z" transform="translate(185.875 -8606.523)" fill="#d2d3d4"/>
      <path id="Trazado_285837" data-name="Trazado 285837" d="M127.419,102.24h25.04l5.443,14.649a1.142,1.142,0,0,1-1.119,1.51H128.576a1.164,1.164,0,0,1-1.186-1.134Z" transform="translate(184.94 -8607.928)" fill="#664a3b"/>
      <rect id="Rectángulo_44756" data-name="Rectángulo 44756" width="5.126" height="19.797" transform="translate(360.511 -8514.557)" fill="#87be00"/>
      <path id="Trazado_285838" data-name="Trazado 285838" d="M209.074,78.021c-1.038,3.145-4.316,4.957-7.468,5.973a32.966,32.966,0,0,1-7.917,1.532A18.25,18.25,0,0,1,206.371,67.85C208.257,70.906,210.216,74.589,209.074,78.021Z" transform="translate(167.47 -8598.865)" fill="#87be00"/>
      <path id="Trazado_285839" data-name="Trazado 285839" d="M203.008,76.11A54.332,54.332,0,0,1,192.94,86.634a4.169,4.169,0,0,0,3.925-.324,9.346,9.346,0,0,0,2.828-2.946A25.04,25.04,0,0,0,203.008,76.11Z" transform="translate(167.666 -8601.042)" fill="#add250"/>
      <path id="Trazado_285840" data-name="Trazado 285840" d="M178.179,79.5c1.038,3.137,4.316,4.949,7.461,5.973A33.3,33.3,0,0,0,193.564,87,18.257,18.257,0,0,0,180.9,69.3C178.989,72.408,177.037,76.046,178.179,79.5Z" transform="translate(171.646 -8599.248)" fill="#87be00"/>
      <path id="Trazado_285841" data-name="Trazado 285841" d="M184.39,76.11a54.332,54.332,0,0,0,10.068,10.524,4.168,4.168,0,0,1-3.925-.324,9.346,9.346,0,0,1-2.828-2.946A25.04,25.04,0,0,1,184.39,76.11Z" transform="translate(169.919 -8601.042)" fill="#add250"/>
      <rect id="Rectángulo_44757" data-name="Rectángulo 44757" width="5.126" height="19.797" transform="translate(324.106 -8514.557)" fill="#87be00"/>
      <path id="Trazado_285842" data-name="Trazado 285842" d="M159.644,78.021c-1.038,3.145-4.316,4.957-7.468,5.973a32.965,32.965,0,0,1-7.917,1.532A18.25,18.25,0,0,1,156.941,67.85C158.8,70.906,160.786,74.589,159.644,78.021Z" transform="translate(180.495 -8598.865)" fill="#87be00"/>
      <path id="Trazado_285843" data-name="Trazado 285843" d="M153.578,76.11A54.331,54.331,0,0,1,143.51,86.634a4.183,4.183,0,0,0,3.933-.324,9.324,9.324,0,0,0,2.821-2.946A24.863,24.863,0,0,0,153.578,76.11Z" transform="translate(180.692 -8601.042)" fill="#add250"/>
      <path id="Trazado_285844" data-name="Trazado 285844" d="M128.749,79.508c1.038,3.137,4.316,4.949,7.468,5.973a33.311,33.311,0,0,0,7.917,1.525A18.25,18.25,0,0,0,131.452,69.33C129.582,72.416,127.608,76.054,128.749,79.508Z" transform="translate(184.671 -8599.257)" fill="#87be00"/>
      <path id="Trazado_285845" data-name="Trazado 285845" d="M135,76.11a54.147,54.147,0,0,0,10.046,10.524,4.183,4.183,0,0,1-3.933-.295,9.427,9.427,0,0,1-2.828-2.946A25.253,25.253,0,0,1,135,76.11Z" transform="translate(182.935 -8601.042)" fill="#add250"/>
      <path id="Trazado_285846" data-name="Trazado 285846" d="M41.006,161.54H23.08l6.01,24.238a4.691,4.691,0,0,0,4.559,3.572h14.73a4.691,4.691,0,0,0,4.559-3.572l6.01-24.238Z" transform="translate(212.427 -8623.555)" fill="#5f625e"/>
      <path id="Trazado_285847" data-name="Trazado 285847" d="M63.772,132.84H29.3s-13.257,23.089-8.661,23.089H55.081a4.537,4.537,0,0,0,4.485-3.9Z" transform="translate(213.325 -8615.992)" fill="#d2d3d4"/>
      <path id="Trazado_285848" data-name="Trazado 285848" d="M59.959,138.45H34.919l-7.77,15.135a1.289,1.289,0,0,0,1.149,1.878h27.6a1.289,1.289,0,0,0,1.3-1.075Z" transform="translate(211.393 -8617.471)" fill="#664a3b"/>
      <path id="Trazado_285849" data-name="Trazado 285849" d="M90.581,161.54H72.64l6.01,24.238a4.691,4.691,0,0,0,4.566,3.572h14.73a4.691,4.691,0,0,0,4.559-3.572l6.01-24.238Z" transform="translate(199.367 -8623.555)" fill="#5f625e"/>
      <path id="Trazado_285850" data-name="Trazado 285850" d="M110.113,132.84H75.948l-4.168,20.622c-.265,1.281,1.3,2.475,2.673,2.475h33.068a2.533,2.533,0,0,0,2.592-2.467Z" transform="translate(199.602 -8615.992)" fill="#d2d3d4"/>
      <path id="Trazado_285851" data-name="Trazado 285851" d="M108.542,138.45h-26.4l-5.722,15.422a1.193,1.193,0,0,0,1.178,1.583H107.29a1.223,1.223,0,0,0,1.252-1.186Z" transform="translate(198.39 -8617.471)" fill="#664a3b"/>
      <rect id="Rectángulo_44758" data-name="Rectángulo 44758" width="5.398" height="20.835" transform="translate(250.841 -8488.359)" fill="#87be00"/>
      <path id="Trazado_285852" data-name="Trazado 285852" d="M28.193,112.948c1.1,3.307,4.544,5.214,7.858,6.29a35,35,0,0,0,8.337,1.606A19.207,19.207,0,0,0,31.036,102.21C29.054,105.48,26.992,109.31,28.193,112.948Z" transform="translate(211.174 -8607.921)" fill="#87be00"/>
      <path id="Trazado_285853" data-name="Trazado 285853" d="M36.71,111a57.225,57.225,0,0,0,10.6,11.047,4.419,4.419,0,0,1-4.139-.346,9.891,9.891,0,0,1-2.946-3.1A26.514,26.514,0,0,1,36.71,111Z" transform="translate(208.836 -8610.236)" fill="#add250"/>
      <path id="Trazado_285854" data-name="Trazado 285854" d="M60.714,114.508c-1.09,3.307-4.544,5.214-7.858,6.29a34.5,34.5,0,0,1-8.337,1.606A19.215,19.215,0,0,1,57.871,103.77C59.86,107.047,61.915,110.877,60.714,114.508Z" transform="translate(206.779 -8608.331)" fill="#87be00"/>
      <path id="Trazado_285855" data-name="Trazado 285855" d="M56.305,111A57.446,57.446,0,0,1,45.7,122.047a4.419,4.419,0,0,0,4.139-.346,9.81,9.81,0,0,0,2.946-3.1,26.514,26.514,0,0,0,3.52-7.6Z" transform="translate(206.467 -8610.236)" fill="#add250"/>
      <rect id="Rectángulo_44759" data-name="Rectángulo 44759" width="5.398" height="20.835" transform="translate(289.168 -8488.359)" fill="#87be00"/>
      <path id="Trazado_285856" data-name="Trazado 285856" d="M80.223,112.948c1.09,3.307,4.544,5.214,7.858,6.29a35.006,35.006,0,0,0,8.337,1.606A19.207,19.207,0,0,0,83.066,102.21C81.084,105.48,79.022,109.31,80.223,112.948Z" transform="translate(197.463 -8607.921)" fill="#87be00"/>
      <path id="Trazado_285857" data-name="Trazado 285857" d="M88.74,111a57.225,57.225,0,0,0,10.6,11.047A4.419,4.419,0,0,1,95.2,121.7a9.891,9.891,0,0,1-2.946-3.1A26.513,26.513,0,0,1,88.74,111Z" transform="translate(195.125 -8610.236)" fill="#add250"/>
      <path id="Trazado_285858" data-name="Trazado 285858" d="M112.744,114.508c-1.09,3.307-4.544,5.214-7.858,6.29a34.5,34.5,0,0,1-8.337,1.606A19.215,19.215,0,0,1,109.9,103.77C111.89,107.047,113.945,110.877,112.744,114.508Z" transform="translate(193.068 -8608.331)" fill="#87be00"/>
      <path id="Trazado_285859" data-name="Trazado 285859" d="M108.335,111A57.261,57.261,0,0,1,97.73,122.047a4.419,4.419,0,0,0,4.139-.346,9.81,9.81,0,0,0,2.946-3.1A26.514,26.514,0,0,0,108.335,111Z" transform="translate(192.756 -8610.236)" fill="#add250"/>
      <path id="Trazado_285860" data-name="Trazado 285860" d="M193.838,161.54h17.926l-6.01,24.238a4.706,4.706,0,0,1-4.566,3.572h-14.73a4.7,4.7,0,0,1-4.559-3.572l-6.01-24.238Z" transform="translate(172.159 -8623.555)" fill="#5f625e"/>
      <path id="Trazado_285861" data-name="Trazado 285861" d="M168.12,132.84h34.467s13.257,23.089,8.661,23.089H176.818a4.537,4.537,0,0,1-4.493-3.9Z" transform="translate(174.207 -8615.992)" fill="#d2d3d4"/>
      <path id="Trazado_285862" data-name="Trazado 285862" d="M175.92,138.45h25.04l7.777,15.135a1.3,1.3,0,0,1-1.149,1.878h-27.6a1.3,1.3,0,0,1-1.274-1.068Z" transform="translate(172.151 -8617.471)" fill="#664a3b"/>
      <path id="Trazado_285863" data-name="Trazado 285863" d="M144.268,161.54h17.9l-6.01,24.238a4.706,4.706,0,0,1-4.566,3.572h-14.73a4.7,4.7,0,0,1-4.559-3.572l-6.01-24.238Z" transform="translate(185.23 -8623.555)" fill="#5f625e"/>
      <path id="Trazado_285864" data-name="Trazado 285864" d="M123.84,132.84H158l4.168,20.622c.273,1.281-1.3,2.475-2.666,2.475H126.432a2.526,2.526,0,0,1-2.592-2.467Z" transform="translate(185.875 -8615.992)" fill="#d2d3d4"/>
      <path id="Trazado_285865" data-name="Trazado 285865" d="M127.62,138.45h26.4l5.73,15.422a1.2,1.2,0,0,1-1.178,1.583h-29.7a1.215,1.215,0,0,1-1.245-1.186Z" transform="translate(184.879 -8617.471)" fill="#664a3b"/>
      <rect id="Rectángulo_44760" data-name="Rectángulo 44760" width="5.398" height="20.835" transform="translate(363.184 -8488.359)" fill="#87be00"/>
      <path id="Trazado_285866" data-name="Trazado 285866" d="M213.557,112.948c-1.09,3.307-4.544,5.214-7.858,6.29a34.872,34.872,0,0,1-8.33,1.606,19.207,19.207,0,0,1,13.345-18.633C212.7,105.48,214.772,109.31,213.557,112.948Z" transform="translate(166.5 -8607.921)" fill="#87be00"/>
      <path id="Trazado_285867" data-name="Trazado 285867" d="M207.205,111A57.261,57.261,0,0,1,196.6,122.047a4.419,4.419,0,0,0,4.139-.346,9.81,9.81,0,0,0,2.946-3.1,26.514,26.514,0,0,0,3.52-7.6Z" transform="translate(166.702 -8610.236)" fill="#add250"/>
      <path id="Trazado_285868" data-name="Trazado 285868" d="M181.033,114.508c1.1,3.307,4.544,5.214,7.858,6.29a34.614,34.614,0,0,0,8.337,1.606,19.215,19.215,0,0,0-13.367-18.633C181.894,107.047,179.832,110.877,181.033,114.508Z" transform="translate(170.898 -8608.331)" fill="#87be00"/>
      <path id="Trazado_285869" data-name="Trazado 285869" d="M187.58,111a57.225,57.225,0,0,0,10.62,11.047,4.419,4.419,0,0,1-4.139-.346,9.891,9.891,0,0,1-2.946-3.1A26.514,26.514,0,0,1,187.58,111Z" transform="translate(169.079 -8610.236)" fill="#add250"/>
      <rect id="Rectángulo_44761" data-name="Rectángulo 44761" width="5.398" height="20.835" transform="translate(324.865 -8488.359)" fill="#87be00"/>
      <path id="Trazado_285870" data-name="Trazado 285870" d="M161.527,112.948c-1.09,3.307-4.544,5.214-7.858,6.29a34.872,34.872,0,0,1-8.33,1.606,19.208,19.208,0,0,1,13.345-18.633C160.672,105.48,162.764,109.31,161.527,112.948Z" transform="translate(180.211 -8607.921)" fill="#87be00"/>
      <path id="Trazado_285871" data-name="Trazado 285871" d="M155.145,111a57.261,57.261,0,0,1-10.605,11.047,4.419,4.419,0,0,0,4.139-.346,9.81,9.81,0,0,0,2.946-3.1,26.513,26.513,0,0,0,3.52-7.6Z" transform="translate(180.421 -8610.236)" fill="#add250"/>
      <path id="Trazado_285872" data-name="Trazado 285872" d="M129,114.508c1.1,3.307,4.544,5.214,7.858,6.29A34.614,34.614,0,0,0,145.2,122.4a19.215,19.215,0,0,0-13.345-18.633C129.864,107.047,127.8,110.877,129,114.508Z" transform="translate(184.609 -8608.331)" fill="#87be00"/>
      <path id="Trazado_285873" data-name="Trazado 285873" d="M135.55,111a57.226,57.226,0,0,0,10.6,11.047,4.419,4.419,0,0,1-4.139-.346,9.89,9.89,0,0,1-2.946-3.1A26.514,26.514,0,0,1,135.55,111Z" transform="translate(182.79 -8610.236)" fill="#add250"/>
    </g>
  </g>
</svg>
