<svg xmlns="http://www.w3.org/2000/svg" xmlns:xlink="http://www.w3.org/1999/xlink" width="513.914" height="400.155" viewBox="0 0 513.914 400.155">
  <defs>
    <linearGradient id="linear-gradient" x1="0.5" x2="0.5" y2="1" gradientUnits="objectBoundingBox">
      <stop offset="0" stop-color="#81b722"/>
      <stop offset="1" stop-color="#169788"/>
    </linearGradient>
  </defs>
  <g id="Grupo_894173" data-name="Grupo 894173" transform="translate(-906.709 -1368.51)">
    <g id="contenedor-01" transform="translate(886.775 1299.437)">
      <path id="Trazado_250993" data-name="Trazado 250993" d="M87.4,197.63H44.832L23.55,234.492l21.282,36.862H87.4l21.271-36.862Z" transform="translate(0.25 14.123)" fill="none" stroke="#28965a" stroke-miterlimit="10" stroke-width="0.97" opacity="0.3"/>
      <path id="Trazado_250995" data-name="Trazado 250995" d="M472.415,264.12H429.862L408.58,300.971l21.282,36.862h42.553L493.7,300.971Z" transform="translate(39.047 -31.826)" fill="none" stroke="#addbd5" stroke-miterlimit="10" stroke-width="0.97"/>
      <path id="Trazado_250996" data-name="Trazado 250996" d="M466.919,163.9H445.54l-10.69,18.512,10.69,18.523h21.379l10.69-18.523Z" transform="translate(33.956 11.359)" fill="none" stroke="#28965a" stroke-miterlimit="10" stroke-width="0.97" opacity="0.3"/>
      <path id="Trazado_250997" data-name="Trazado 250997" d="M72.559,314.66H51.18L40.49,333.183,51.18,351.7H72.559l10.69-18.512Z" transform="translate(1.638 23.714)" fill="none" stroke="#addbd5" stroke-miterlimit="10" stroke-width="0.97"/>
      <g id="OBJECTS" transform="translate(20.5 66.913)">
        <path id="Trazado_251001" data-name="Trazado 251001" d="M118.979,73.67H57.286L26.44,127.1l30.846,53.427h61.693L149.815,127.1Z" transform="translate(-20.013 -62.948)" fill="none" stroke="#169788" stroke-miterlimit="10" stroke-width="0.89" opacity="0.53"/>
        <path id="Trazado_251002" data-name="Trazado 251002" d="M115.553,69.46l-.541-.93H113.93" transform="translate(-12.843 -63.369)" fill="none" stroke="#28965a" stroke-miterlimit="10" stroke-width="0.98" opacity="0.53"/>
        <line id="Línea_427" data-name="Línea 427" x1="62.764" transform="translate(36.202 5.161)" fill="none" stroke="#28965a" stroke-miterlimit="10" stroke-width="0.98" stroke-dasharray="1.97 1.97"/>
        <path id="Trazado_251003" data-name="Trazado 251003" d="M53.1,68.53H52.021l-.541.93" transform="translate(-17.961 -63.369)" fill="none" stroke="#28965a" stroke-miterlimit="10" stroke-width="0.98"/>
        <line id="Línea_428" data-name="Línea 428" x1="31.377" y2="54.346" transform="translate(1.071 7.942)" fill="none" stroke="#28965a" stroke-miterlimit="10" stroke-width="0.98" stroke-dasharray="1.97 1.97"/>
        <path id="Trazado_251004" data-name="Trazado 251004" d="M21.041,122.18l-.541.941.541.93" transform="translate(-20.5 -58.972)" fill="none" stroke="#28965a" stroke-miterlimit="10" stroke-width="0.98"/>
        <line id="Línea_429" data-name="Línea 429" x2="31.387" y2="54.346" transform="translate(1.601 66.929)" fill="none" stroke="#28965a" stroke-miterlimit="10" stroke-width="0.98" stroke-dasharray="1.97 1.97"/>
        <path id="Trazado_251005" data-name="Trazado 251005" d="M51.48,176.7l.541.941H53.1" transform="translate(-17.961 -54.505)" fill="none" stroke="#28965a" stroke-miterlimit="10" stroke-width="0.98"/>
        <line id="Línea_430" data-name="Línea 430" x2="62.764" transform="translate(37.262 123.137)" fill="none" stroke="#28965a" stroke-miterlimit="10" stroke-width="0.98" stroke-dasharray="1.97 1.97"/>
        <path id="Trazado_251006" data-name="Trazado 251006" d="M113.93,177.641h1.082l.541-.941" transform="translate(-12.843 -54.505)" fill="none" stroke="#28965a" stroke-miterlimit="10" stroke-width="0.98"/>
        <line id="Línea_431" data-name="Línea 431" y1="54.346" x2="31.377" transform="translate(103.781 66.01)" fill="none" stroke="#28965a" stroke-miterlimit="10" stroke-width="0.98" stroke-dasharray="1.97 1.97"/>
        <path id="Trazado_251007" data-name="Trazado 251007" d="M145.91,124.052l.541-.93-.541-.941" transform="translate(-10.223 -58.972)" fill="none" stroke="#28965a" stroke-miterlimit="10" stroke-width="0.98"/>
        <line id="Línea_432" data-name="Línea 432" x1="31.377" y1="54.357" transform="translate(103.25 7.011)" fill="none" stroke="#28965a" stroke-miterlimit="10" stroke-width="0.98" stroke-dasharray="1.97 1.97"/>
        <g id="Grupo_131626" data-name="Grupo 131626" opacity="0.37">
          <path id="Trazado_251008" data-name="Trazado 251008" d="M68.11,88.11v17.419A16.37,16.37,0,0,0,84.48,121.9h0a16.381,16.381,0,0,1,16.381,16.381v23.013" transform="translate(-16.599 -61.765)" fill="none" stroke="#2a6041" stroke-linecap="round" stroke-miterlimit="10" stroke-width="1.54"/>
          <path id="Trazado_251009" data-name="Trazado 251009" d="M100.261,88.24a1.72,1.72,0,1,1-1.72-1.72A1.72,1.72,0,0,1,100.261,88.24Z" transform="translate(-14.246 -61.896)" fill="#28965a"/>
          <path id="Trazado_251010" data-name="Trazado 251010" d="M100.261,92.3a1.72,1.72,0,1,1-1.72-1.72,1.72,1.72,0,0,1,1.72,1.72Z" transform="translate(-14.246 -61.563)" fill="#28965a"/>
          <path id="Trazado_251011" data-name="Trazado 251011" d="M100.261,96.37a1.72,1.72,0,1,1-1.72-1.72A1.72,1.72,0,0,1,100.261,96.37Z" transform="translate(-14.246 -61.229)" fill="#28965a"/>
          <path id="Trazado_251012" data-name="Trazado 251012" d="M100.261,100.44a1.72,1.72,0,1,1-1.72-1.72A1.72,1.72,0,0,1,100.261,100.44Z" transform="translate(-14.246 -60.896)" fill="#28965a"/>
          <path id="Trazado_251013" data-name="Trazado 251013" d="M100.261,104.51a1.72,1.72,0,1,1-1.72-1.72A1.72,1.72,0,0,1,100.261,104.51Z" transform="translate(-14.246 -60.563)" fill="#28965a"/>
          <path id="Trazado_251014" data-name="Trazado 251014" d="M99.731,108.58a1.72,1.72,0,1,1-1.72-1.72,1.72,1.72,0,0,1,1.72,1.72Z" transform="translate(-14.289 -60.229)" fill="#28965a"/>
          <path id="Trazado_251015" data-name="Trazado 251015" d="M98.141,112.06a1.72,1.72,0,1,1-1.72-1.72,1.72,1.72,0,0,1,1.72,1.72Z" transform="translate(-14.419 -59.943)" fill="#28965a"/>
          <path id="Trazado_251016" data-name="Trazado 251016" d="M95.741,115.13a1.72,1.72,0,1,1-1.72-1.72,1.72,1.72,0,0,1,1.72,1.72Z" transform="translate(-14.616 -59.691)" fill="#28965a"/>
          <path id="Trazado_251017" data-name="Trazado 251017" d="M92.821,117.41a1.72,1.72,0,1,1-1.688-1.72,1.72,1.72,0,0,1,1.688,1.72Z" transform="translate(-14.855 -59.505)" fill="#28965a"/>
          <path id="Trazado_251018" data-name="Trazado 251018" d="M89.381,118.84a1.72,1.72,0,1,1-1.72-1.72A1.72,1.72,0,0,1,89.381,118.84Z" transform="translate(-15.137 -59.388)" fill="#28965a"/>
          <path id="Trazado_251019" data-name="Trazado 251019" d="M66.54,150.39a1.72,1.72,0,1,1,1.72,1.72A1.72,1.72,0,0,1,66.54,150.39Z" transform="translate(-16.727 -56.802)" fill="#28965a"/>
          <path id="Trazado_251020" data-name="Trazado 251020" d="M66.54,146.32a1.72,1.72,0,1,1,1.72,1.72A1.72,1.72,0,0,1,66.54,146.32Z" transform="translate(-16.727 -57.136)" fill="#28965a"/>
          <path id="Trazado_251021" data-name="Trazado 251021" d="M66.54,142.25a1.72,1.72,0,1,1,1.72,1.72A1.72,1.72,0,0,1,66.54,142.25Z" transform="translate(-16.727 -57.469)" fill="#28965a"/>
          <path id="Trazado_251022" data-name="Trazado 251022" d="M66.54,138.18a1.72,1.72,0,1,1,1.72,1.72A1.72,1.72,0,0,1,66.54,138.18Z" transform="translate(-16.727 -57.803)" fill="#28965a"/>
          <path id="Trazado_251023" data-name="Trazado 251023" d="M66.54,134.129a1.72,1.72,0,1,1,.5,1.223A1.72,1.72,0,0,1,66.54,134.129Z" transform="translate(-16.727 -58.134)" fill="#28965a"/>
          <circle id="Elipse_5814" data-name="Elipse 5814" cx="1.72" cy="1.72" r="1.72" transform="translate(50.354 69.861)" fill="#28965a"/>
          <path id="Trazado_251024" data-name="Trazado 251024" d="M68.63,126.573a1.72,1.72,0,1,1,1.72,1.688,1.72,1.72,0,0,1-1.72-1.688Z" transform="translate(-16.556 -58.757)" fill="#28965a"/>
          <path id="Trazado_251025" data-name="Trazado 251025" d="M71,123.479a1.72,1.72,0,1,1,.5,1.223A1.72,1.72,0,0,1,71,123.479Z" transform="translate(-16.361 -59.007)" fill="#28965a"/>
          <path id="Trazado_251026" data-name="Trazado 251026" d="M74,121.22a1.72,1.72,0,1,1,1.72,1.72A1.72,1.72,0,0,1,74,121.22Z" transform="translate(-16.115 -59.192)" fill="#28965a"/>
          <path id="Trazado_251027" data-name="Trazado 251027" d="M77.39,119.78A1.72,1.72,0,1,1,77.9,121,1.72,1.72,0,0,1,77.39,119.78Z" transform="translate(-15.838 -59.311)" fill="#28965a"/>
          <path id="Trazado_251028" data-name="Trazado 251028" d="M85.351,119.35a1.72,1.72,0,1,1-1.72-1.72A1.72,1.72,0,0,1,85.351,119.35Z" transform="translate(-15.468 -59.346)" fill="#28965a"/>
          <path id="Trazado_251029" data-name="Trazado 251029" d="M97.6,89.972H70.8a.476.476,0,0,1-.487-.476h0a.487.487,0,0,1,.487-.476H97.6a.476.476,0,0,1,.476.476h0A.476.476,0,0,1,97.6,89.972Z" transform="translate(-16.418 -61.69)" fill="#2ceaa3"/>
          <path id="Trazado_251030" data-name="Trazado 251030" d="M97.6,93.072H70.8a.476.476,0,0,1-.487-.476h0a.487.487,0,0,1,.487-.476H97.6a.476.476,0,0,1,.476.476h0A.476.476,0,0,1,97.6,93.072Z" transform="translate(-16.418 -61.437)" fill="#2ceaa3"/>
          <path id="Trazado_251031" data-name="Trazado 251031" d="M97.6,96.152H70.8a.476.476,0,0,1-.487-.476h0A.487.487,0,0,1,70.8,95.2H97.6a.476.476,0,0,1,.476.476h0A.476.476,0,0,1,97.6,96.152Z" transform="translate(-16.418 -61.184)" fill="#2ceaa3"/>
          <path id="Trazado_251032" data-name="Trazado 251032" d="M97.6,99.242H70.8a.476.476,0,0,1-.487-.476h0a.487.487,0,0,1,.487-.476H97.6a.476.476,0,0,1,.476.476h0A.476.476,0,0,1,97.6,99.242Z" transform="translate(-16.418 -60.931)" fill="#2ceaa3"/>
          <path id="Trazado_251033" data-name="Trazado 251033" d="M97.6,102.332H70.8a.476.476,0,0,1-.487-.476h0a.487.487,0,0,1,.487-.476H97.6a.476.476,0,0,1,.476.476h0A.476.476,0,0,1,97.6,102.332Z" transform="translate(-16.418 -60.678)" fill="#2ceaa3"/>
          <path id="Trazado_251034" data-name="Trazado 251034" d="M97.6,105.433H70.8a.487.487,0,0,1-.487-.487h0a.487.487,0,0,1,.487-.476H97.6a.476.476,0,0,1,.476.476h0a.487.487,0,0,1-.476.487Z" transform="translate(-16.418 -60.424)" fill="#2ceaa3"/>
          <path id="Trazado_251035" data-name="Trazado 251035" d="M97.6,108.523H70.8a.487.487,0,0,1-.487-.487h0a.487.487,0,0,1,.487-.476H97.6a.476.476,0,0,1,.509.476h0a.487.487,0,0,1-.509.487Z" transform="translate(-16.418 -60.171)" fill="#2ceaa3"/>
          <path id="Trazado_251036" data-name="Trazado 251036" d="M94.649,111.613H73.367a.487.487,0,0,1-.487-.487h0a.487.487,0,0,1,.487-.476H94.649a.487.487,0,0,1,.487.476h0A.487.487,0,0,1,94.649,111.613Z" transform="translate(-16.207 -59.918)" fill="#2ceaa3"/>
          <path id="Trazado_251037" data-name="Trazado 251037" d="M91.6,114.7H75.937a.487.487,0,0,1-.487-.487h0a.487.487,0,0,1,.487-.476H91.6a.487.487,0,0,1,.487.476h0A.487.487,0,0,1,91.6,114.7Z" transform="translate(-15.997 -59.665)" fill="#2ceaa3"/>
          <path id="Trazado_251038" data-name="Trazado 251038" d="M70.8,149.41H97.6a.476.476,0,0,1,.476.476h0a.487.487,0,0,1-.476.487H70.8a.487.487,0,0,1-.487-.487h0A.487.487,0,0,1,70.8,149.41Z" transform="translate(-16.418 -56.741)" fill="#2ceaa3"/>
          <path id="Trazado_251039" data-name="Trazado 251039" d="M70.8,152.57H97.6a.476.476,0,0,1,.509.465h0a.487.487,0,0,1-.476.487H70.8a.487.487,0,0,1-.487-.487h0a.487.487,0,0,1,.487-.465Z" transform="translate(-16.418 -56.482)" fill="#2ceaa3"/>
          <path id="Trazado_251040" data-name="Trazado 251040" d="M70.8,146.32H97.6a.476.476,0,0,1,.476.476h0a.487.487,0,0,1-.476.487H70.8a.487.487,0,0,1-.487-.487h0A.487.487,0,0,1,70.8,146.32Z" transform="translate(-16.418 -56.995)" fill="#2ceaa3"/>
          <path id="Trazado_251041" data-name="Trazado 251041" d="M70.8,143.23H97.6a.476.476,0,0,1,.476.476h0a.487.487,0,0,1-.476.487H70.8a.487.487,0,0,1-.487-.487h0A.487.487,0,0,1,70.8,143.23Z" transform="translate(-16.418 -57.248)" fill="#2ceaa3"/>
          <path id="Trazado_251042" data-name="Trazado 251042" d="M70.8,140.14H97.6a.476.476,0,0,1,.476.476h0a.487.487,0,0,1-.476.487H70.8a.487.487,0,0,1-.487-.487h0a.487.487,0,0,1,.487-.476Z" transform="translate(-16.418 -57.501)" fill="#2ceaa3"/>
          <path id="Trazado_251043" data-name="Trazado 251043" d="M70.8,137.05H97.6a.476.476,0,0,1,.476.476h0a.487.487,0,0,1-.476.487H70.8a.487.487,0,0,1-.487-.487h0A.487.487,0,0,1,70.8,137.05Z" transform="translate(-16.418 -57.754)" fill="#2ceaa3"/>
          <path id="Trazado_251044" data-name="Trazado 251044" d="M70.8,134H97.6a.476.476,0,0,1,.476.476h0a.487.487,0,0,1-.476.487H70.8a.487.487,0,0,1-.487-.487h0A.487.487,0,0,1,70.8,134Z" transform="translate(-16.418 -58.004)" fill="#2ceaa3"/>
          <path id="Trazado_251045" data-name="Trazado 251045" d="M70.8,130.87H97.6a.476.476,0,0,1,.476.476h0a.487.487,0,0,1-.476.487H70.8a.487.487,0,0,1-.487-.487h0a.487.487,0,0,1,.487-.476Z" transform="translate(-16.418 -58.261)" fill="#2ceaa3"/>
          <path id="Trazado_251046" data-name="Trazado 251046" d="M73.367,127.78H94.649a.487.487,0,0,1,.487.476h0a.487.487,0,0,1-.487.487H73.367a.487.487,0,0,1-.487-.487h0A.487.487,0,0,1,73.367,127.78Z" transform="translate(-16.207 -58.514)" fill="#2ceaa3"/>
          <path id="Trazado_251047" data-name="Trazado 251047" d="M75.937,124.69H91.6a.487.487,0,0,1,.487.476h0a.487.487,0,0,1-.487.487H75.937a.487.487,0,0,1-.487-.487h0A.487.487,0,0,1,75.937,124.69Z" transform="translate(-15.997 -58.768)" fill="#2ceaa3"/>
        </g>
        <path id="Trazado_251048" data-name="Trazado 251048" d="M440.711,355.53H372.927l-33.887,58.7,33.887,58.707h67.784l33.9-58.707Z" transform="translate(30.673 -87.472)" fill="none" stroke="#169788" stroke-miterlimit="10" stroke-width="0.97"/>
        <path id="Trazado_251049" data-name="Trazado 251049" d="M445,349.57H369.769L332.16,414.714l37.609,65.155H445l37.619-65.155Z" transform="translate(30.109 -87.96)" fill="none" stroke="#28965a" stroke-miterlimit="10" stroke-width="1.08" stroke-dasharray="2"/>
        <path id="Trazado_251050" data-name="Trazado 251050" d="M420.36,369.69l-1.223,4.252a14.435,14.435,0,0,0-3.181,1.3l-3.927-2.164-3.505,3.462,2.164,3.873a13.383,13.383,0,0,0-1.32,3.138l-4.328,1.212v4.9l4.328,1.212a13.384,13.384,0,0,0,1.32,3.138l-2.164,3.873,3.505,3.462,3.927-2.164a13.924,13.924,0,0,0,3.181,1.3l1.223,4.263h4.966l1.223-4.263a13.926,13.926,0,0,0,3.181-1.3l3.927,2.164,3.506-3.462L435,394.012a13.859,13.859,0,0,0,1.32-3.138l4.328-1.212v-4.9l-4.328-1.212a13.86,13.86,0,0,0-1.32-3.138l2.164-3.873-3.506-3.462-3.927,2.164a14.436,14.436,0,0,0-3.181-1.3l-1.223-4.252Zm2.478,8.363a9.175,9.175,0,1,1-9.283,9.175,9.175,9.175,0,0,1,9.283-9.175Z" transform="translate(36.081 -86.311)" fill="#f4522b" opacity="0.15"/>
        <g id="Grupo_131572" data-name="Grupo 131572" transform="translate(411.541 316.67)" opacity="0.15">
          <path id="Trazado_251051" data-name="Trazado 251051" d="M401.665,400.46l-1.926,6.676a22.886,22.886,0,0,0-4.988,2.034l-6.145-3.376L383.1,411.2l3.43,6.07a20.772,20.772,0,0,0-2.056,4.923L377.7,424.09v7.693l6.773,1.893a20.557,20.557,0,0,0,2.056,4.923l-3.43,6.081,5.507,5.41,6.145-3.387a21.855,21.855,0,0,0,4.988,2.034l1.926,6.676h7.79l1.915-6.676a21.468,21.468,0,0,0,4.988-2.034l6.156,3.387,5.5-5.41-3.462-6.059A21.032,21.032,0,0,0,426.6,433.7l6.773-1.893v-7.693l-6.773-1.893a21.227,21.227,0,0,0-2.056-4.945l3.419-6.07-5.5-5.41-6.156,3.376a22.451,22.451,0,0,0-4.988-2.034l-1.915-6.676Zm3.9,13.124a14.379,14.379,0,1,1-14.552,14.379A14.379,14.379,0,0,1,405.56,413.584Z" transform="translate(-377.7 -400.46)" fill="#fdb32b"/>
        </g>
        <path id="Trazado_251052" data-name="Trazado 251052" d="M386.338,72.3h-223.9L50.49,266.2,162.439,460.1h223.9L498.287,266.2Z" transform="translate(-18.042 -63.06)" fill="#169788" opacity="0.3"/>
        <path id="Trazado_251053" data-name="Trazado 251053" d="M380.258,80.75H166.919L60.25,265.5,166.919,450.268H380.258L486.928,265.5Z" transform="translate(-17.243 -62.368)" fill="#81b722"/>
        <path id="Trazado_251054" data-name="Trazado 251054" d="M376.085,85.04H169.995L66.95,263.518,169.995,442h206.09L479.14,263.518Z" transform="translate(-16.693 -62.016)" fill="#f3f9ff"/>
        <path id="Trazado_251056" data-name="Trazado 251056" d="M135.934,365.77H92.591L70.92,403.3l21.671,37.533h43.343L157.606,403.3Z" transform="translate(-16.368 -39.01)" fill="none" stroke="#6bffb8" stroke-miterlimit="10" stroke-width="0.98" stroke-dasharray="2"/>
        <path id="Trazado_251058" data-name="Trazado 251058" d="M421.112,66.21H381.037L361.01,100.919l20.027,34.7h40.075l20.038-34.7Z" transform="translate(7.405 -63.559)" fill="none" stroke="#6bffb8" stroke-miterlimit="10" stroke-width="0.98" stroke-dasharray="2"/>
        <path id="Trazado_251055" data-name="Trazado 251055" d="M131.363,372.11H95.951l-17.7,30.673,17.7,30.673h35.412l17.712-30.673Z" transform="translate(16.139 -45.351)" opacity="0.4" fill="url(#linear-gradient)"/>
        <path id="Trazado_251057" data-name="Trazado 251057" d="M422.881,63.76H379.744L358.17,101.12l21.574,37.36h43.137l21.574-37.36Z" transform="translate(4.099 -44.377)" opacity="0.2" fill="url(#linear-gradient)"/>
        <g id="Virus_Desinfection-rafiki" data-name="Virus Desinfection-rafiki" transform="translate(1.601 -14.375)">
          <g id="freepik--background-complete--inject-25">
            <rect id="Rectángulo_44764" data-name="Rectángulo 44764" width="500" height="0.25" transform="translate(0 382.4)" fill="#ebebeb"/>
            <rect id="Rectángulo_44765" data-name="Rectángulo 44765" width="33.12" height="0.25" transform="translate(416.78 398.49)" fill="#ebebeb"/>
            <rect id="Rectángulo_44766" data-name="Rectángulo 44766" width="8.69" height="0.25" transform="translate(322.53 401.21)" fill="#ebebeb"/>
            <rect id="Rectángulo_44767" data-name="Rectángulo 44767" width="19.19" height="0.25" transform="translate(396.59 389.21)" fill="#ebebeb"/>
            <rect id="Rectángulo_44768" data-name="Rectángulo 44768" width="43.19" height="0.25" transform="translate(52.46 390.89)" fill="#ebebeb"/>
            <rect id="Rectángulo_44769" data-name="Rectángulo 44769" width="6.33" height="0.25" transform="translate(104.56 390.89)" fill="#ebebeb"/>
            <rect id="Rectángulo_44770" data-name="Rectángulo 44770" width="93.68" height="0.25" transform="translate(131.47 395.11)" fill="#ebebeb"/>
            <path id="Trazado_285874" data-name="Trazado 285874" d="M237,337.8H43.91a5.71,5.71,0,0,1-5.7-5.71V60.66A5.71,5.71,0,0,1,43.91,55H237a5.71,5.71,0,0,1,5.71,5.71V332.09A5.71,5.71,0,0,1,237,337.8ZM43.91,55.2a5.46,5.46,0,0,0-5.45,5.46V332.09a5.46,5.46,0,0,0,5.45,5.46H237a5.47,5.47,0,0,0,5.46-5.46V60.66A5.47,5.47,0,0,0,237,55.2Z" fill="#ebebeb"/>
            <path id="Trazado_285875" data-name="Trazado 285875" d="M453.31,337.8H260.21a5.72,5.72,0,0,1-5.71-5.71V60.66A5.72,5.72,0,0,1,260.21,55h193.1A5.71,5.71,0,0,1,459,60.66V332.09A5.71,5.71,0,0,1,453.31,337.8ZM260.21,55.2a5.47,5.47,0,0,0-5.46,5.46V332.09a5.47,5.47,0,0,0,5.46,5.46h193.1a5.47,5.47,0,0,0,5.46-5.46V60.66a5.47,5.47,0,0,0-5.46-5.46Z" fill="#ebebeb"/>
            <path id="Trazado_285876" data-name="Trazado 285876" d="M426.34,257.61v-5.67a7.84,7.84,0,0,1,7.84-7.83H408.06v21.33h26.12A7.84,7.84,0,0,1,426.34,257.61Z" fill="#e0e0e0"/>
          </g>
          <g id="freepik--Character--inject-25" transform="translate(76.777 -48.713)">
            <path id="Trazado_285884" data-name="Trazado 285884" d="M156.8,106.31H145.23c-2.69,0-5.034,2.83-5.12,6.481s2.16,6.924,4.915,6.924a4.169,4.169,0,0,0,3.079-1.491,3.727,3.727,0,0,1,2.668-1.372h.421a3.37,3.37,0,0,1,2.463,1.307,4.018,4.018,0,0,0,4.267,1.383c1.826-.551,3.295-2.582,3.683-5.077C162.276,110.134,159.867,106.31,156.8,106.31Z" transform="translate(4.077 1.12)" fill="#6b80b1"/>
            <path id="Trazado_285885" data-name="Trazado 285885" d="M154.213,106.84H143.627c-2.452,0-4.6,2.592-4.677,5.952s1.966,6.33,4.494,6.33a3.813,3.813,0,0,0,2.819-1.361,3.37,3.37,0,0,1,2.43-1.264h.389a3.079,3.079,0,0,1,2.258,1.2,3.673,3.673,0,0,0,3.91,1.264,5.563,5.563,0,0,0,3.359-4.645C159.225,110.34,157.022,106.84,154.213,106.84Z" transform="translate(3.984 1.163)" fill="#fff" opacity="0.8"/>
            <path id="Trazado_285886" data-name="Trazado 285886" d="M129.094,152.011l-1.566,1.934-1.62,2.063c-1.08,1.383-2.16,2.765-3.241,4.18-2.16,2.808-4.116,5.671-6.006,8.544q-1.426,2.16-2.7,4.321c-.864,1.447-1.674,2.895-2.409,4.321a42.722,42.722,0,0,0-3.359,8.425c-.076.27,0,.065,0,.054a.13.13,0,0,0,0-.086s-.054,0-.054.086a2.971,2.971,0,0,0,.14.94,13.945,13.945,0,0,0,1.566,3.381,55.34,55.34,0,0,0,5.93,7.788,214.512,214.512,0,0,0,15.231,15.123l.108.108a4.58,4.58,0,0,1-5.142,7.475,108.935,108.935,0,0,1-19.746-12.714,59.94,59.94,0,0,1-8.944-8.9,30.624,30.624,0,0,1-3.921-6.341,18.914,18.914,0,0,1-1.372-4.429,16.344,16.344,0,0,1-.27-2.711c0-.486,0-.972,0-1.48a7.7,7.7,0,0,1,.173-1.329,52.248,52.248,0,0,1,3.748-12.725,86.886,86.886,0,0,1,5.574-10.964c2.031-3.478,4.256-6.762,6.568-9.959,1.177-1.6,2.355-3.176,3.608-4.71.616-.767,1.242-1.534,1.89-2.29s1.264-1.469,2.052-2.344A9.182,9.182,0,0,1,129.3,151.655Z" transform="translate(0.197 3.573)" fill="#6b80b1"/>
            <path id="Trazado_285887" data-name="Trazado 285887" d="M129.094,152.011l-1.566,1.934-1.62,2.063c-1.08,1.383-2.16,2.765-3.241,4.18-2.16,2.808-4.116,5.671-6.006,8.544q-1.426,2.16-2.7,4.321c-.864,1.447-1.674,2.895-2.409,4.321a42.722,42.722,0,0,0-3.359,8.425c-.076.27,0,.065,0,.054a.13.13,0,0,0,0-.086s-.054,0-.054.086a2.971,2.971,0,0,0,.14.94,13.945,13.945,0,0,0,1.566,3.381,55.34,55.34,0,0,0,5.93,7.788,214.512,214.512,0,0,0,15.231,15.123l.108.108a4.58,4.58,0,0,1-5.142,7.475,108.935,108.935,0,0,1-19.746-12.714,59.94,59.94,0,0,1-8.944-8.9,30.624,30.624,0,0,1-3.921-6.341,18.914,18.914,0,0,1-1.372-4.429,16.344,16.344,0,0,1-.27-2.711c0-.486,0-.972,0-1.48a7.7,7.7,0,0,1,.173-1.329,52.248,52.248,0,0,1,3.748-12.725,86.886,86.886,0,0,1,5.574-10.964c2.031-3.478,4.256-6.762,6.568-9.959,1.177-1.6,2.355-3.176,3.608-4.71.616-.767,1.242-1.534,1.89-2.29s1.264-1.469,2.052-2.344A9.182,9.182,0,0,1,129.3,151.655Z" transform="translate(0.197 3.573)" fill="#fff" opacity="0.6"/>
            <path id="Trazado_285888" data-name="Trazado 285888" d="M133.44,211.023c-1.8-1.512-8.933-7.226-12.887-11.493-4.321.5-10.219,5.325-12.444,7.907,5.574,4.321,14.042,9.722,17.985,9.484S137.059,214.08,133.44,211.023Z" transform="translate(1.512 8.595)" fill="#263238"/>
            <path id="Trazado_285889" data-name="Trazado 285889" d="M129.359,209.243l4.936,1.771a9.376,9.376,0,0,1,4.515,3.467l3.068,4.44a2.236,2.236,0,0,1-.918,3.305l-4.926,2.214a2.16,2.16,0,0,1-2.279-.324l-4.321-3.392s-4.072-2.884-5.66-6.481a2.42,2.42,0,0,1,.81-2.895l2.452-1.836a2.441,2.441,0,0,1,2.322-.27Z" transform="translate(2.753 9.36)" fill="#263238"/>
            <path id="Trazado_285890" data-name="Trazado 285890" d="M152.4,111.86c0,.756.367,1.372.864,1.383s.907-.594.929-1.35-.378-1.372-.875-1.383S152.411,111.1,152.4,111.86Z" transform="translate(5.063 1.457)" fill="#263238"/>
            <path id="Trazado_285891" data-name="Trazado 285891" d="M151.7,113a26.864,26.864,0,0,0,3.467,6.481c-1.361,1.221-3.619.6-3.619.6Z" transform="translate(4.995 1.657)" fill="#a02724"/>
            <path id="Trazado_285892" data-name="Trazado 285892" d="M149.967,107.952a.443.443,0,0,0,.324-.076,3.5,3.5,0,0,1,3.176-.508.443.443,0,0,0,.335-.821,4.429,4.429,0,0,0-4.007.594.454.454,0,0,0-.119.627.5.5,0,0,0,.292.184Z" transform="translate(4.838 1.12)" fill="#263238"/>
            <path id="Trazado_285893" data-name="Trazado 285893" d="M132.541,114.43c.486,6.967-.065,21.031-5.4,24.974,0,0,1.307,5.682,13.934,7.27,13.891,1.739,7.507-6.06,7.507-6.06-7.356-2.765-6.481-8.371-4.472-13.481Z" transform="translate(3.038 1.771)" fill="#b55b52"/>
            <path id="Trazado_285894" data-name="Trazado 285894" d="M165.658,403.25H155.429a.907.907,0,0,0-.8.842l-1.847,10.964c-.194,1.145.464,2.225,1.35,2.16,3.683-.086,9.02-.367,13.654-.367,5.4,0,4.8.389,11.158.389,3.845,0,4.915-5.12,3.305-5.585-7.334-2.16-8-2.344-14.334-7.486a3.662,3.662,0,0,0-2.258-.918Z" transform="translate(5.091 24.931)" fill="#263238"/>
            <path id="Trazado_285895" data-name="Trazado 285895" d="M120.615,135.894a150.145,150.145,0,0,1,42.127,1.08,10.91,10.91,0,0,1,8.706,8.879c4.159,24-.151,57.822-3.91,81.122l-53.869-1.231c-.324-7.021,2.754-43.38-2.3-77.438a10.9,10.9,0,0,1,9.246-12.411Z" transform="translate(1.763 3.413)" fill="#6b80b1"/>
            <path id="Trazado_285896" data-name="Trazado 285896" d="M120.615,135.894a150.145,150.145,0,0,1,42.127,1.08,10.91,10.91,0,0,1,8.706,8.879c4.159,24-.151,57.822-3.91,81.122l-53.869-1.231c-.324-7.021,2.754-43.38-2.3-77.438a10.9,10.9,0,0,1,9.246-12.411Z" transform="translate(1.763 3.413)" fill="#fff" opacity="0.5"/>
            <path id="Trazado_285897" data-name="Trazado 285897" d="M167.752,141.825l6.071,10.607c2.02,3.478,4.072,6.892,6.157,10.154a87.216,87.216,0,0,0,6.568,8.955,34.306,34.306,0,0,0,7.324,6.535l-3.511-1.026c2.355.292,4.71.648,7.064,1s4.71.778,7.064,1.177c4.7.886,9.4,1.847,14.042,3.165h0a4.656,4.656,0,0,1-.518,9.074c-4.818.789-9.614,1.21-14.4,1.545-2.4.14-4.8.3-7.183.378s-4.785.173-7.172.194a6.168,6.168,0,0,1-2.852-.681l-.67-.356a47.1,47.1,0,0,1-12.012-9.041,83,83,0,0,1-8.814-10.694c-2.592-3.64-4.882-7.334-7.1-11.018s-4.245-7.41-6.2-11.158a9.181,9.181,0,1,1,16.107-8.815Z" transform="translate(4.909 3.585)" fill="#6b80b1"/>
            <path id="Trazado_285898" data-name="Trazado 285898" d="M167.752,141.825l6.071,10.607c2.02,3.478,4.072,6.892,6.157,10.154a87.216,87.216,0,0,0,6.568,8.955,34.306,34.306,0,0,0,7.324,6.535l-3.511-1.026c2.355.292,4.71.648,7.064,1s4.71.778,7.064,1.177c4.7.886,9.4,1.847,14.042,3.165h0a4.656,4.656,0,0,1-.518,9.074c-4.818.789-9.614,1.21-14.4,1.545-2.4.14-4.8.3-7.183.378s-4.785.173-7.172.194a6.168,6.168,0,0,1-2.852-.681l-.67-.356a47.1,47.1,0,0,1-12.012-9.041,83,83,0,0,1-8.814-10.694c-2.592-3.64-4.882-7.334-7.1-11.018s-4.245-7.41-6.2-11.158a9.181,9.181,0,1,1,16.107-8.815Z" transform="translate(4.909 3.585)" fill="#fff" opacity="0.7"/>
            <path id="Trazado_285899" data-name="Trazado 285899" d="M157.994,127.1c-.205,4.115-4.04,7.561-6.632,7.378s-4.515-3.565-4.321-7.669,2.474-7.345,5.055-7.216S158.2,122.982,157.994,127.1Z" transform="translate(4.632 2.185)" fill="#6b80b1"/>
            <path id="Trazado_285900" data-name="Trazado 285900" d="M129.111,110.777c.378,9.29.13,14.745,4.71,19.605,6.9,7.3,18.439,3.295,20.848-5.919,2.16-8.285,1.177-22.079-7.821-25.924a12.681,12.681,0,0,0-17.737,12.239Z" transform="translate(3.194 0.412)" fill="#b55b52"/>
            <path id="Trazado_285901" data-name="Trazado 285901" d="M147.253,220.257s-4.2,56.17-9.668,84.254c-3.716,19.141-6.935,69.856-15.479,90.736-1.555,3.8-4.321,7.248-8.35,7.248L93.6,401.664c-4.072-1-3.737-4.321-3.521-8.533.864-16.538,10.532-70.741,15.641-92.9,1.458-25.514,3.662-61.29,9.722-81.154Z" transform="translate(0.057 10.163)" fill="#6b80b1"/>
            <g id="Grupo_874762" data-name="Grupo 874762" transform="translate(90.021 229.243)" opacity="0.5">
              <path id="Trazado_285902" data-name="Trazado 285902" d="M147.253,220.257s-4.2,56.17-9.668,84.254c-3.716,19.141-6.935,69.856-15.479,90.736-1.555,3.8-4.321,7.248-8.35,7.248L93.6,401.664c-4.072-1-3.737-4.321-3.521-8.533.864-16.538,10.532-70.741,15.641-92.9,1.458-25.514,3.662-61.29,9.722-81.154Z" transform="translate(-89.965 -219.08)" fill="#fff"/>
            </g>
            <path id="Trazado_285903" data-name="Trazado 285903" d="M136.07,249.8c-9.722,6.924-9.268,33.777-1.221,50.131,2.592-14.172,4.872-34.35,6.481-51.136a7.032,7.032,0,0,0-5.26,1Z" transform="translate(3.17 12.534)" fill="#6b80b1" opacity="0.2"/>
            <path id="Trazado_285904" data-name="Trazado 285904" d="M166.39,221.065s9.192,53.761,10.586,82.31c1.21,24.844,3.057,75.937,2.279,91.816a7.626,7.626,0,0,1-7.626,7.248h-14.4a7.626,7.626,0,0,1-7.626-7.562c-.14-16.483-4.04-69.5-8.641-91.7-6.589-31.5-14.2-55.208-13.762-82.991Z" transform="translate(3.041 10.252)" fill="#6b80b1"/>
            <g id="Grupo_874763" data-name="Grupo 874763" transform="translate(130.224 230.442)" opacity="0.5">
              <path id="Trazado_285905" data-name="Trazado 285905" d="M166.39,221.065s9.192,53.761,10.586,82.31c1.21,24.844,3.057,75.937,2.279,91.816a7.626,7.626,0,0,1-7.626,7.248h-14.4a7.626,7.626,0,0,1-7.626-7.562c-.14-16.483-4.04-69.5-8.641-91.7-6.589-31.5-14.2-55.208-13.762-82.991Z" transform="translate(-127.183 -220.19)" fill="#fff"/>
            </g>
            <path id="Trazado_285906" data-name="Trazado 285906" d="M152.7,385.18s14.28-1.761,19.8.4c-1.08,3.478-3.467,23.03-.443,25.741l-17.639-1.566C155.8,401.243,152.7,385.18,152.7,385.18Z" transform="translate(5.087 23.427)" fill="#263238"/>
            <path id="Trazado_285907" data-name="Trazado 285907" d="M102.158,403.25H91.928a.907.907,0,0,0-.789.81l-1.847,10.964c-.194,1.145.464,2.225,1.35,2.16,3.683-.086,9.02-.367,13.654-.367,5.4,0,4.8.389,11.158.389,3.845,0,4.915-5.12,3.305-5.585-7.334-2.16-8-2.344-14.334-7.486a3.662,3.662,0,0,0-2.268-.886Z" transform="translate(0 24.931)" fill="#263238"/>
            <path id="Trazado_285908" data-name="Trazado 285908" d="M93.712,385.18s14.6-1.761,19.713.4c-1.739,3.478-7.81,23.03-5.293,25.741L90.85,406.309C92.395,395.366,93.712,385.18,93.712,385.18Z" transform="translate(0.128 23.427)" fill="#263238"/>
            <path id="Trazado_285909" data-name="Trazado 285909" d="M159.932,140.581c-4.094-1.663-3.532-9.344-2.387-13.3s-4.321,1.231-7.95-7c-2.16-4.936-1.523-9.311.529-12.3,1.393-2.042,5.768-1.08,4.731-6.665s-7.745-10.024-17.7-8.76c-15.2,1.923-14.82,16.516-11.644,24.963,5.617,14.907-.929,18.363-8.307,22.608C124.6,144.9,141.709,147.192,159.932,140.581Z" transform="translate(2.241 0)" fill="#6b80b1"/>
            <path id="Trazado_285910" data-name="Trazado 285910" d="M159.932,140.581c-4.094-1.663-3.532-9.344-2.387-13.3s-4.321,1.231-7.95-7c-2.16-4.936-1.523-9.311.529-12.3,1.393-2.042,5.768-1.08,4.731-6.665s-7.745-10.024-17.7-8.76c-15.2,1.923-14.82,16.516-11.644,24.963,5.617,14.907-.929,18.363-8.307,22.608C124.6,144.9,141.709,147.192,159.932,140.581Z" transform="translate(2.241 0)" fill="#fff" opacity="0.5"/>
            <path id="Trazado_285911" data-name="Trazado 285911" d="M168.284,218.367a13.6,13.6,0,0,1,.486,5.833.572.572,0,0,1-.529.518c-3.964.367-32.406,2.657-55.619-2.625a.626.626,0,0,1-.454-.443,9.722,9.722,0,0,1,.81-6.568.583.583,0,0,1,.648-.3c3.241.681,24.034,4.807,54.074,3.241a.594.594,0,0,1,.583.346Z" transform="translate(1.817 9.817)" fill="#263238"/>
            <path id="Trazado_285912" data-name="Trazado 285912" d="M160.834,109.79H122.812c-.627,1.534.81,3.824.81,3.824h37.99S162.1,111.1,160.834,109.79Z" transform="translate(2.678 1.399)" fill="#263238"/>
            <path id="Trazado_285913" data-name="Trazado 285913" d="M142.3,150.149a1.5,1.5,0,0,1-.432-.065,1.609,1.609,0,0,1-1.08-1.988c1.771-6.341,9.992-13.427,18.363-13.427a1.62,1.62,0,1,1,0,3.241c-6.838,0-13.8,5.941-15.231,11.05a1.62,1.62,0,0,1-1.62,1.188Z" transform="translate(4.127 3.394)" fill="#263238"/>
            <path id="Trazado_285914" data-name="Trazado 285914" d="M165.578,221.465h-.3c-13.837-2.592-25.4-14.583-26.875-27.89a1.631,1.631,0,1,1,3.241-.367c1.307,11.763,11.958,22.77,24.25,25.071a1.627,1.627,0,1,1-.292,3.241Z" transform="translate(3.94 7.972)" fill="#263238"/>
            <path id="Trazado_285915" data-name="Trazado 285915" d="M108.928,156.631a1.609,1.609,0,0,1-1.577-1.264c-1.415-6.481,2.517-16.548,9.895-20.524a1.621,1.621,0,0,1,1.523,2.862c-6.038,3.241-9.4,11.731-8.253,16.916a1.62,1.62,0,0,1-1.231,1.934A1.989,1.989,0,0,1,108.928,156.631Z" transform="translate(1.428 3.393)" fill="#263238"/>
            <rect id="Rectángulo_44783" data-name="Rectángulo 44783" width="51.125" height="108.494" rx="12" transform="translate(98.064 140.343)" fill="#6b80b1"/>
            <rect id="Rectángulo_44784" data-name="Rectángulo 44784" width="41.263" height="86.512" rx="9.63" transform="translate(97.102 152.539)" opacity="0.1"/>
            <rect id="Rectángulo_44785" data-name="Rectángulo 44785" width="41.263" height="87.56" rx="9.68" transform="translate(93.743 150.81)" fill="#6b80b1"/>
            <path id="Trazado_285916" data-name="Trazado 285916" d="M127.913,194.622l-10.867-25.741c-1.534-3.608-5.336-3.608-6.859,0L99.31,194.622c-1.523,3.6.378,8.112,3.424,8.112h21.755C127.535,202.712,129.436,198.219,127.913,194.622Zm-2.16,3.727a1.523,1.523,0,0,1-1.3,1.026H102.734a1.523,1.523,0,0,1-1.3-1.026,2.679,2.679,0,0,1,0-2.052l10.877-25.741a1.437,1.437,0,0,1,1.3-1.026,1.458,1.458,0,0,1,1.307,1.026L125.785,196.3a2.625,2.625,0,0,1,0,2.1Z" transform="translate(0.763 5.921)" fill="#fff"/>
            <path id="Trazado_285917" data-name="Trazado 285917" d="M114.736,170.306a1.458,1.458,0,0,0-1.307-1.026,1.437,1.437,0,0,0-1.3,1.026l-10.877,25.741a2.679,2.679,0,0,0,0,2.052,1.523,1.523,0,0,0,1.3,1.026h21.755a1.523,1.523,0,0,0,1.3-1.026,2.625,2.625,0,0,0,0-2.052Z" transform="translate(0.946 6.17)" fill="#fff" opacity="0.6"/>
            <path id="Trazado_285918" data-name="Trazado 285918" d="M179.427,277.512a13.524,13.524,0,0,1-7.626-2.42c-6.9-4.688-10.219-14.885-9.074-27.966.6-6.892-.789-12.228-4.126-15.868-3.651-3.986-9.635-6.006-17.791-6.006a1.08,1.08,0,1,1,0-2.16c8.793,0,15.306,2.258,19.443,6.708,3.759,4.1,5.336,10,4.677,17.51-1.08,12.282,1.9,21.755,8.145,26a11.126,11.126,0,0,0,11.515.8c5.855-2.927,9.614-10.445,10.057-20.091l.173-4.116c.929-21.6,1.545-35.905,16.948-50.25a1.081,1.081,0,0,1,1.48,1.577c-14.766,13.751-15.36,27.685-16.268,48.77l-.173,4.1c-.475,10.445-4.677,18.644-11.245,21.939A13.589,13.589,0,0,1,179.427,277.512Z" transform="translate(4.047 8.581)" fill="#263238"/>
            <path id="Trazado_285919" data-name="Trazado 285919" d="M179.427,277.512a13.524,13.524,0,0,1-7.626-2.42c-6.9-4.688-10.219-14.885-9.074-27.966.6-6.892-.789-12.228-4.126-15.868-3.651-3.986-9.635-6.006-17.791-6.006a1.08,1.08,0,1,1,0-2.16c8.793,0,15.306,2.258,19.443,6.708,3.759,4.1,5.336,10,4.677,17.51-1.08,12.282,1.9,21.755,8.145,26a11.126,11.126,0,0,0,11.515.8c5.855-2.927,9.614-10.445,10.057-20.091l.173-4.116c.929-21.6,1.545-35.905,16.948-50.25a1.081,1.081,0,0,1,1.48,1.577c-14.766,13.751-15.36,27.685-16.268,48.77l-.173,4.1c-.475,10.445-4.677,18.644-11.245,21.939A13.589,13.589,0,0,1,179.427,277.512Z" transform="translate(4.047 8.581)" fill="#fff" opacity="0.2"/>
            <path id="Trazado_285920" data-name="Trazado 285920" d="M215.524,178.61h7.129a7.929,7.929,0,0,1,5.4,2.02l3.975,3.651c1.08.94.756,2.841-.562,3.964l-5.131,4.321a2.614,2.614,0,0,1-2.582.583l-5.163-2.02s-6.665-2.16-7.972-6.632Z" transform="translate(9.731 6.918)" fill="#263238"/>
            <path id="Trazado_285921" data-name="Trazado 285921" d="M220.678,178.828a100.51,100.51,0,0,1-16.041-2.938c-3.4,2.69-6.038,12-6.568,15.371,7,.724,15.414-.572,18.655-2.852S225.431,179.012,220.678,178.828Z" transform="translate(8.725 6.7)" fill="#263238"/>
            <rect id="Rectángulo_44786" data-name="Rectángulo 44786" width="5.369" height="56.159" transform="translate(255.729 168.768) rotate(47.03)" fill="#263238"/>
            <path id="Trazado_285922" data-name="Trazado 285922" d="M280.839,134.34l-6.157,3.629L244.21,166.357l1.88,2.02,30.364-28.29L281.908,139Z" transform="translate(12.425 3.368)" fill="#263238"/>
            <path id="Trazado_285923" data-name="Trazado 285923" d="M280.839,134.34l-6.157,3.629L244.21,166.357l1.88,2.02,30.364-28.29L281.908,139Z" transform="translate(12.425 3.368)" fill="#fff" opacity="0.2"/>
          </g>
        </g>
      </g>
    </g>
  </g>
</svg>
