<svg xmlns="http://www.w3.org/2000/svg" xmlns:xlink="http://www.w3.org/1999/xlink" width="181" height="182.534" viewBox="0 0 181 182.534">
  <defs>
    <clipPath id="clip-path">
      <ellipse id="Elipse_6209" data-name="Elipse 6209" cx="90.5" cy="91" rx="90.5" ry="91" transform="translate(0.271 0.12)" fill="#fff" stroke="#707070" stroke-width="1"/>
    </clipPath>
    <linearGradient id="linear-gradient" x1="0.5" x2="0.5" y2="1" gradientUnits="objectBoundingBox">
      <stop offset="0" stop-color="#81b722"/>
      <stop offset="1" stop-color="#169788"/>
    </linearGradient>
  </defs>
  <g id="Grupo_894173" data-name="Grupo 894173" transform="translate(-1017 -3670)">
    <g id="Grupo_874761" data-name="Grupo 874761">
      <g id="Enmascarar_grupo_130554" data-name="Enmascarar grupo 130554" transform="translate(1016.729 3669.88)" clip-path="url(#clip-path)">
        <rect id="_95da3c9cb84d7a8c336853e8faf60a4e" data-name="95da3c9cb84d7a8c336853e8faf60a4e" width="315" height="236.25" transform="translate(-13.729 -36.516)" fill="#f3f9ff"/>
      </g>
      <g id="sembrado-01" transform="translate(928.31 3469.607)">
        <path id="Trazado_285776" data-name="Trazado 285776" d="M144.206,330.573c18.4-11.7,17.264,11.519,32.013,0,12.543-9.787,27.276-17.308,43.09-19.034,17.231-1.88,34.616,3.219,50.07,11.1,22.717,11.539,29.471-9.118,48.427,7.933-4,36.3-46.689,66.9-79.592,68.666-47.736,2.886-79.734-32.476-89.208-48.368C147.511,348.363,144.206,330.573,144.206,330.573Z" transform="translate(-52.116 -16.479)" fill="#887266"/>
        <path id="Trazado_285777" data-name="Trazado 285777" d="M223.172,257.262a21.373,21.373,0,0,1-8.358,10.922c-6.614,4.106-15.051,3.015-22.767,2.025s-16.367-1.5-22.5,3.375c1.5-9.843,3.228-20.248,9.7-27.818,6.322-7.379,16.119-10.776,25.669-12.554s19.4-2.25,28.617-5.332c-3.926,3.521-5.816,8.774-6.94,13.948S225.017,252.312,223.172,257.262Z" transform="translate(6.378 0)" fill="url(#linear-gradient)"/>
        <path id="Trazado_285778" data-name="Trazado 285778" d="M192.609,258.18a121.487,121.487,0,0,0-20.8,11.541c10.922-14.871,34.05-15.951,45.568-30.371-1.564,5.141-5.624,9.2-10.124,12.036S197.536,256.054,192.609,258.18Z" transform="translate(6.66 1.432)" fill="#add250"/>
        <path id="Trazado_285779" data-name="Trazado 285779" d="M189.095,246.23,176.17,264.419C182.514,260.313,186.4,253.305,189.095,246.23Z" transform="translate(7.205 2.291)" fill="#add250"/>
        <path id="Trazado_285780" data-name="Trazado 285780" d="M199.646,240.72a49.618,49.618,0,0,1-9.786,15.3c1.642-1.192,2.013.146,3.487-1.237C194.2,253.982,199.646,248.369,199.646,240.72Z" transform="translate(8.914 1.603)" fill="#add250"/>
        <path id="Trazado_285781" data-name="Trazado 285781" d="M193.1,253.508a1.012,1.012,0,0,0-.8.382c-.3.562.54,1.024,1.125,1.125a38.5,38.5,0,0,0,10.034.394,13.037,13.037,0,0,0,8.7-4.5Z" transform="translate(9.211 2.876)" fill="#add250"/>
        <path id="Trazado_285782" data-name="Trazado 285782" d="M207.164,259.125A89.28,89.28,0,0,1,182.81,258c-.068,1.631,1.7,2.677,3.273,3.138C192.957,263.129,200.291,261.127,207.164,259.125Z" transform="translate(8.034 3.761)" fill="#add250"/>
        <path id="Trazado_285783" data-name="Trazado 285783" d="M174.106,247.129c-4.848-9.179-14.623-15.073-24.747-17.222s-20.731-.99-30.889,1.125c4.871,1.53,8.358,5.939,10.281,10.675s2.542,9.854,3.577,14.848,2.587,10.124,5.973,13.9c4.781,5.422,12.554,7.4,19.764,6.85s14.038-3.285,20.743-6C178.425,263.068,177.976,254.474,174.106,247.129Z" transform="translate(0 0.11)" fill="url(#linear-gradient)"/>
        <path id="Trazado_285784" data-name="Trazado 285784" d="M151.562,251.638c-4.432-5.512-8.1-12.452-14.792-14.758,6.389,5.759,10.383,13.633,15.557,20.383s12.79,12.9,21.372,12.374C165.679,264.462,157.558,259.107,151.562,251.638Z" transform="translate(2.285 1.124)" fill="#add250"/>
        <path id="Trazado_285785" data-name="Trazado 285785" d="M156.517,242.79a52.937,52.937,0,0,0-.371,11.249,17.627,17.627,0,0,0,4.275,10.2,51.858,51.858,0,0,0-1.125-7.649Z" transform="translate(4.687 1.862)" fill="#add250"/>
        <path id="Trazado_285786" data-name="Trazado 285786" d="M147.7,252.639c.45.979,2.115.439,2.43-.6s-2.013-14.241-3.87-15.433Q146.991,244.63,147.7,252.639Z" transform="translate(3.47 1.09)" fill="#add250"/>
        <path id="Trazado_285787" data-name="Trazado 285787" d="M150.212,252.965a1.867,1.867,0,0,0,1.462-.709,1.316,1.316,0,0,0-.562-1.631,2.61,2.61,0,0,0-1.834-.45c-5.219.877-7.874-.191-12.959-.945a19.2,19.2,0,0,0,13.892,3.735Z" transform="translate(2.229 2.666)" fill="#add250"/>
        <path id="Trazado_285788" data-name="Trazado 285788" d="M140.86,258a26.232,26.232,0,0,0,19.606,2.655l-.607-1.867Z" transform="translate(2.796 3.761)" fill="#add250"/>
        <path id="Trazado_285789" data-name="Trazado 285789" d="M177.045,323.35c3.465-1.181,4.128-5.714,4.2-9.381.169-9.055.337-18.144-.855-27.121s-3.78-17.9-8.74-25.478a10,10,0,0,0-2.8,7.627,39.742,39.742,0,0,0,1.5,8.223,77.83,77.83,0,0,1-1.9,42.419C170.813,321.933,173.918,324.419,177.045,323.35Z" transform="translate(6.24 4.182)" fill="#87be00"/>
      </g>
    </g>
  </g>
</svg>
