<svg xmlns="http://www.w3.org/2000/svg" width="509.909" height="444.119" viewBox="0 0 509.909 444.119">
  <g id="Grupo_894172" data-name="Grupo 894172" transform="translate(-825 -1628)">
    <g id="Grupo_874313" data-name="Grupo 874313" transform="translate(4)">
      <path id="Trazado_274001" data-name="Trazado 274001" d="M442.682,80.75H187.727L60.25,301.543,187.727,522.35H442.682L570.159,301.543,514.016,204.3Z" transform="translate(760.75 1547.25)" fill="#dbefec"/>
      <g id="Ozone_layer_depletion-bro" data-name="Ozone layer depletion-bro" transform="translate(831.502 1591.22)">
        <g id="freepik--Stars--inject-78">
          <path id="Trazado_273964" data-name="Trazado 273964" d="M387.32,439.2h0a.49.49,0,0,1-.44-.28l-3.58-7.32-8.05-1.21a.5.5,0,0,1-.4-.34.49.49,0,0,1,.13-.51l5.85-5.66-1.34-8a.5.5,0,0,1,.73-.52l7.19,3.82,7.22-3.76a.5.5,0,0,1,.73.53l-1.41,8,5.8,5.71a.5.5,0,0,1-.28.85l-8.06,1.13-3.64,7.29A.5.5,0,0,1,387.32,439.2Zm-10.92-9.65,7.31,1.1a.51.51,0,0,1,.38.27l3.24,6.65,3.3-6.62a.49.49,0,0,1,.38-.27l7.32-1-5.27-5.18a.5.5,0,0,1-.14-.45l1.28-7.28-6.56,3.41a.49.49,0,0,1-.47,0l-6.52-3.47,1.21,7.29a.5.5,0,0,1-.14.45Z" transform="translate(-7)" fill="#263238"/>
          <path id="Trazado_273965" data-name="Trazado 273965" d="M353.52,74.89a.47.47,0,0,1-.45-.28l-3.57-7.32-8.05-1.2a.512.512,0,0,1-.28-.86L347,59.57l-1.34-8a.5.5,0,0,1,.2-.48.49.49,0,0,1,.53,0l7.19,3.82,7.22-3.76a.51.51,0,0,1,.53,0,.5.5,0,0,1,.19.49l-1.41,8,5.89,5.7a.51.51,0,0,1,.12.51.48.48,0,0,1-.4.34l-8.07,1.14L354,74.61A.51.51,0,0,1,353.52,74.89ZM342.6,65.25l7.31,1.09a.51.51,0,0,1,.37.28l3.25,6.64,3.3-6.61a.47.47,0,0,1,.37-.27l7.32-1-5.27-5.18a.51.51,0,0,1-.14-.44l1.28-7.28-6.55,3.41a.52.52,0,0,1-.47,0l-6.53-3.47,1.22,7.29a.49.49,0,0,1-.15.44Z" fill="#263238"/>
          <path id="Trazado_273966" data-name="Trazado 273966" d="M202.78,480.8h0a.51.51,0,0,1-.45-.28l-2.42-5-5.47-.81a.48.48,0,0,1-.4-.35.5.5,0,0,1,.12-.51l4-3.84-.91-5.46a.5.5,0,0,1,.73-.52l4.88,2.6,4.91-2.56a.51.51,0,0,1,.53,0,.5.5,0,0,1,.19.49l-1,5.45,4,3.88a.5.5,0,0,1,.12.51.51.51,0,0,1-.4.34l-5.48.77-2.47,4.95A.5.5,0,0,1,202.78,480.8Zm-7.19-6.91,4.73.71a.47.47,0,0,1,.37.27l2.1,4.3,2.13-4.28a.5.5,0,0,1,.38-.27L210,474l-3.4-3.35a.49.49,0,0,1-.15-.44l.83-4.71-4.24,2.2a.47.47,0,0,1-.46,0l-4.23-2.24.79,4.71a.53.53,0,0,1-.14.45Z" transform="translate(0 -5)" fill="#263238"/>
          <path id="Trazado_273967" data-name="Trazado 273967" d="M91.57,329.93a.541.541,0,0,1-.22-.05.5.5,0,0,1-.28-.45L91,323.9l-4.59-3.08a.5.5,0,0,1,.12-.89l5.24-1.77,1.51-5.32a.48.48,0,0,1,.39-.35.5.5,0,0,1,.49.19l3.3,4.43,5.53-.2a.5.5,0,0,1,.43.79l-3.2,4.51,1.9,5.19a.5.5,0,0,1-.1.52.49.49,0,0,1-.51.13l-5.28-1.64-4.35,3.41a.51.51,0,0,1-.31.11Zm-3.76-9.38,4,2.67a.5.5,0,0,1,.22.41l.06,4.78,3.76-3a.52.52,0,0,1,.45-.09l4.57,1.43-1.65-4.49a.5.5,0,0,1,.06-.46L102,318l-4.78.17a.52.52,0,0,1-.42-.2L94,314.09l-1.3,4.6a.5.5,0,0,1-.32.33Z" fill="#263238"/>
          <path id="Trazado_273969" data-name="Trazado 273969" d="M113.93,161.37a.59.59,0,0,1-.22-.05.5.5,0,0,1-.28-.45l-.06-5.53-4.6-3.08a.47.47,0,0,1-.21-.48.49.49,0,0,1,.33-.41l5.24-1.77,1.51-5.32a.51.51,0,0,1,.89-.16l3.3,4.44,5.53-.21a.46.46,0,0,1,.45.26.51.51,0,0,1,0,.53l-3.2,4.51,1.91,5.19a.52.52,0,0,1-.11.52.49.49,0,0,1-.51.13l-5.28-1.64-4.35,3.41a.51.51,0,0,1-.34.11ZM110.17,152l4,2.66a.48.48,0,0,1,.22.41l.06,4.78,3.76-2.95a.48.48,0,0,1,.46-.09l4.56,1.43-1.65-4.49a.5.5,0,0,1,.07-.46l2.76-3.9-4.78.17a.48.48,0,0,1-.42-.2l-2.85-3.83-1.31,4.6a.46.46,0,0,1-.32.33Z" fill="#263238"/>
          <path id="Trazado_273970" data-name="Trazado 273970" d="M93.84,437.08a.541.541,0,0,1-.22-.05.51.51,0,0,1-.28-.45l-.07-5.53L88.68,428a.5.5,0,0,1,.12-.89l5.2-1.8L95.55,420a.51.51,0,0,1,.39-.36.49.49,0,0,1,.49.2l3.31,4.43,5.52-.2a.5.5,0,0,1,.43.79l-3.2,4.51,1.9,5.19a.5.5,0,0,1-.1.52.49.49,0,0,1-.51.13l-5.28-1.65L94.15,437a.51.51,0,0,1-.31.08Zm-3.76-9.38,4,2.67a.5.5,0,0,1,.22.41l.06,4.78,3.76-3a.48.48,0,0,1,.45-.08l4.57,1.42-1.65-4.48a.52.52,0,0,1,.06-.47l2.77-3.9-4.78.18a.5.5,0,0,1-.42-.2l-2.86-3.83-1.3,4.6a.52.52,0,0,1-.32.33Z" transform="translate(7)" fill="#263238"/>
          <path id="Trazado_273971" data-name="Trazado 273971" d="M29.88,241.79a.54.54,0,0,1-.22,0,.5.5,0,0,1-.28-.45l-.07-5.53-4.59-3.08a.5.5,0,0,1,.12-.89L30.08,230l1.51-5.32a.5.5,0,0,1,.88-.16l3.3,4.43,5.53-.2a.49.49,0,0,1,.46.26.51.51,0,0,1,0,.53l-3.2,4.51,1.9,5.19a.5.5,0,0,1-.62.65l-5.28-1.65-4.35,3.42A.5.5,0,0,1,29.88,241.79Zm-3.76-9.38,4,2.67a.5.5,0,0,1,.22.41l.05,4.78,3.76-3a.48.48,0,0,1,.46-.09l4.56,1.42-1.64-4.48a.5.5,0,0,1,.06-.46l2.77-3.9-4.78.17a.48.48,0,0,1-.42-.2L32.27,226l-1.3,4.6a.5.5,0,0,1-.32.33Z" fill="#263238"/>
          <path id="Trazado_273972" data-name="Trazado 273972" d="M445.42,330.06a.54.54,0,0,1-.22-.05.49.49,0,0,1-.28-.44v-3.44L442,324.22a.5.5,0,0,1-.21-.48.49.49,0,0,1,.33-.41l3.26-1.1.94-3.31a.48.48,0,0,1,.39-.35.52.52,0,0,1,.49.19l2,2.76,3.43-.13a.5.5,0,0,1,.43.79l-2,2.8,1.18,3.23a.48.48,0,0,1-.1.51.51.51,0,0,1-.51.14l-3.28-1L445.72,330a.48.48,0,0,1-.3.06Zm-2-6.11,2.23,1.5a.48.48,0,0,1,.22.41v2.68l2.12-1.66a.49.49,0,0,1,.45-.08l2.57.8-.93-2.52a.53.53,0,0,1,.06-.46l1.56-2.19-2.69.1a.56.56,0,0,1-.42-.2l-1.6-2.16-.73,2.58a.52.52,0,0,1-.32.34Z" transform="translate(-8)" fill="#263238"/>
          <path id="Trazado_273973" data-name="Trazado 273973" d="M301.54,474.13a.541.541,0,0,1-.22-.05.5.5,0,0,1-.28-.45V470.2l-2.85-1.91a.51.51,0,0,1-.22-.49.49.49,0,0,1,.33-.4l3.26-1.1.94-3.31a.48.48,0,0,1,.39-.35.5.5,0,0,1,.49.19l2.05,2.76,3.43-.13a.5.5,0,0,1,.43.79l-2,2.8,1.18,3.22a.5.5,0,0,1-.1.52.49.49,0,0,1-.51.13l-3.28-1-2.7,2.12a.51.51,0,0,1-.34.09Zm-2-6.11,2.23,1.5a.47.47,0,0,1,.22.4v2.69l2.11-1.66a.49.49,0,0,1,.45-.08l2.57.8-.93-2.52a.5.5,0,0,1,.07-.46l1.55-2.19-2.69.1a.52.52,0,0,1-.41-.21l-1.61-2.15-.73,2.58a.52.52,0,0,1-.32.34Z" transform="translate(0 -13)" fill="#263238"/>
          <path id="Trazado_273975" data-name="Trazado 273975" d="M79.31,172.2a.54.54,0,0,1-.21,0,.53.53,0,0,1-.29-.45v-3.43l-2.85-1.92a.49.49,0,0,1,.12-.88l3.25-1.1.94-3.31a.5.5,0,0,1,.39-.35.49.49,0,0,1,.49.19l2.06,2.75,3.43-.12a.48.48,0,0,1,.46.26.51.51,0,0,1,0,.53l-2,2.8,1.18,3.22a.5.5,0,0,1-.11.52.49.49,0,0,1-.51.13l-3.28-1-2.7,2.12a.51.51,0,0,1-.37.04Zm-2-6.11,2.23,1.49a.5.5,0,0,1,.22.41v2.69L81.91,169a.5.5,0,0,1,.46-.08l2.56.8-.93-2.5a.52.52,0,0,1,.06-.47l1.55-2.19-2.68.1a.5.5,0,0,1-.42-.2l-1.6-2.15-.74,2.58a.48.48,0,0,1-.32.34Z" fill="#263238"/>
          <path id="Trazado_273977" data-name="Trazado 273977" d="M311,60.31a.42.42,0,0,1-.22-.05.49.49,0,0,1-.28-.44V56.38l-2.86-1.91a.47.47,0,0,1-.21-.48.49.49,0,0,1,.33-.41l3.26-1.1.94-3.3a.49.49,0,0,1,.88-.16l2.05,2.75,3.43-.13a.5.5,0,0,1,.46.27.49.49,0,0,1,0,.52l-2,2.8,1.18,3.23a.5.5,0,0,1-.1.52.52.52,0,0,1-.52.13l-3.27-1-2.71,2.12A.47.47,0,0,1,311,60.31Zm-2-6.1,2.23,1.49a.49.49,0,0,1,.22.41v2.68l2.11-1.65a.51.51,0,0,1,.46-.09l2.57.8-.93-2.52a.51.51,0,0,1,.06-.46l1.55-2.19-2.68.1a.5.5,0,0,1-.42-.2l-1.6-2.15-.7,2.57a.54.54,0,0,1-.32.34Z" fill="#263238"/>
          <path id="Trazado_273978" data-name="Trazado 273978" d="M371,220.59a.44.44,0,0,1-.22-.05.49.49,0,0,1-.28-.44v-3.43l-2.85-1.92a.48.48,0,0,1-.22-.48.49.49,0,0,1,.33-.41l3.26-1.1.94-3.3a.49.49,0,0,1,.88-.16l2,2.75,3.43-.13a.5.5,0,0,1,.46.27.49.49,0,0,1,0,.52l-2,2.8,1.19,3.23a.52.52,0,0,1-.11.52.51.51,0,0,1-.51.13l-3.28-1-2.7,2.12a.5.5,0,0,1-.32.08Zm-2-6.1,2.23,1.49a.49.49,0,0,1,.22.41v2.69l2.11-1.66a.51.51,0,0,1,.46-.09l2.56.8-.93-2.52a.51.51,0,0,1,.07-.46L377.3,213l-2.69.1a.5.5,0,0,1-.42-.2l-1.6-2.15-.73,2.58a.54.54,0,0,1-.32.34Z" fill="#263238"/>
          <path id="Trazado_273979" data-name="Trazado 273979" d="M317.25,122.18a.54.54,0,0,1-.22-.05.51.51,0,0,1-.28-.45v-3.43l-2.86-1.92a.506.506,0,0,1,.12-.89l3.26-1.1.93-3.3a.51.51,0,0,1,.4-.35.5.5,0,0,1,.49.19l2.05,2.75,3.43-.12a.47.47,0,0,1,.46.26.49.49,0,0,1,0,.52l-2,2.81,1.18,3.22a.5.5,0,0,1-.62.65l-3.27-1-2.71,2.12a.48.48,0,0,1-.36.09Zm-2-6.11,2.23,1.49a.49.49,0,0,1,.22.41v2.69l2.11-1.66a.51.51,0,0,1,.46-.09l2.57.8-.93-2.52a.51.51,0,0,1,.06-.46l1.55-2.19-2.68.1a.48.48,0,0,1-.42-.2l-1.6-2.15-.73,2.58a.54.54,0,0,1-.32.34Z" fill="#263238"/>
          <path id="Trazado_273980" data-name="Trazado 273980" d="M102.89,97.43a.38.38,0,0,1-.21-.05.48.48,0,0,1-.29-.44V93.5L99.5,91.59a.5.5,0,0,1,.12-.89l3.25-1.1.94-3.3a.49.49,0,0,1,.88-.16l2,2.75,3.44-.13a.5.5,0,0,1,.42.79l-2,2.8,1.18,3.23a.52.52,0,0,1-.11.52.53.53,0,0,1-.51.13l-3.28-1-2.7,2.13A.5.5,0,0,1,102.89,97.43Zm-2-6.11,2.23,1.5a.5.5,0,0,1,.22.41v2.68l2.11-1.65a.48.48,0,0,1,.46-.09l2.56.8-.92-2.52a.48.48,0,0,1,.06-.46l1.55-2.19-2.68.1a.49.49,0,0,1-.42-.2l-1.6-2.15-.74,2.58a.46.46,0,0,1-.32.33Z" fill="#263238"/>
          <path id="Trazado_273981" data-name="Trazado 273981" d="M427,193.53a.44.44,0,0,1-.22-.05.49.49,0,0,1-.28-.44V189.6l-2.85-1.91a.5.5,0,0,1,.12-.89l3.25-1.1.94-3.3a.49.49,0,0,1,.88-.16l2.05,2.75,3.44-.13a.49.49,0,0,1,.45.26.51.51,0,0,1,0,.53l-2,2.8,1.18,3.23a.52.52,0,0,1-.11.52.53.53,0,0,1-.51.13l-3.28-1-2.7,2.12A.5.5,0,0,1,427,193.53Zm-2-6.11,2.23,1.5a.52.52,0,0,1,.22.41v2.68l2.11-1.65a.48.48,0,0,1,.46-.09l2.56.8-.92-2.52a.48.48,0,0,1,.06-.46l1.55-2.19-2.68.1a.49.49,0,0,1-.42-.2l-1.6-2.15-.74,2.58a.46.46,0,0,1-.32.33Z" fill="#263238"/>
        </g>
        <g id="freepik--ozone-layer--inject-78" opacity="0.53">
          <path id="Trazado_273982" data-name="Trazado 273982" d="M369.57,237.47A143.06,143.06,0,0,0,268.86,172.8l-6.31,3.09,1.7,2.34,2.11,5.89-.11,6.16-2.14-2.06-.22-3.38-2.19-3.57-5.11-.42-4.34,7.4-15.71,6.52-13-2.7-23.65-2.26-6.57-1.53-3.51,2,3.31,6.53-4.17,2.75-5.4,7.71L184,201l2.25-4.11-.18-4.54-9.86-1.14c-1.55.91-3.1,1.85-4.63,2.83a143.35,143.35,0,1,0,198,43.46Z" fill="#263238" opacity="0.3"/>
        </g>
        <g id="freepik--Earth--inject-78">
          <circle id="Elipse_6230" data-name="Elipse 6230" cx="117.55" cy="117.55" r="117.55" transform="translate(83.199 314.658) rotate(-45)" fill="#1e88bd"/>
          <path id="Trazado_273983" data-name="Trazado 273983" d="M266.3,209a5.79,5.79,0,0,0-1.22-5.08c-2-2.64-3.46-2.64-5.89-3.05a58.63,58.63,0,0,0-7.32-1c-3.25-.21-6.09-.21-8.73-.21s-4.06.21-5.48-.2-1.22-1.22-3.46-1.22h-1.12a118.76,118.76,0,0,0-16.63,3.59A117.54,117.54,0,0,0,134,292.47a196.1,196.1,0,0,0,4.64,19.64c1,3.65,1.94,6.34,2.29,6.57,1.07.72-1.16-8.69-1.77-11.74s-1.42-5.89-.61-4.87,4.88,10.15,5.08,14-1.63,5.08.81,7.93,8.53,9.14,9.55,8.32.61-3.65,2-2,1.42,4.47,4.06,5.08,3.66.61,4.67,1.83,3.05,5.08,5.08,6.09a8.75,8.75,0,0,0,5.28,1.22c1.83-.2,2.64-1.42,3.66-.41s.2,3.05,1,4.68,2.84,2.43,2.84,3.86-5.49,7.71-2.24,14.62,12.4,13.61,12.4,13.61l9.54,4.27,4.27,7.71,1.42,6.71s5.08,13.61,9.34,17.47,10,8.73,13.21,9.95,6.29,1.42,3.86-.41a57.181,57.181,0,0,1-4.47-3.86c-1.01-.86-.61-2.23-1.83-3s-2.44-.21-1.83-1.83,1-1.42,2-2.44a8.51,8.51,0,0,0,1.63-2.64s-1-2.64-.82-3.66,1.22.82,2.64-1.21a40.85,40.85,0,0,0,2.85-5.08l1-2.24,1-3.45,4.27-1,4.26-1.82,2.84-3.66,1-3.86v-7.11l.81-1.42s6.1-2.84,6.71-6.7-.41-5.69-.41-5.69l-4.27-1.22L245,362.8l-4.88-1-3.65-1.22-3.86-1.42-1.83-1.63v-3l-2.64-3.25-2-1L222.83,349l-3.05-.41-2.64-1.22-3.25-3.25L210,341.68l-4.87-1.63-1.83.21-3.46.2L195.81,339a6.64,6.64,0,0,0-2-1.43,9.06,9.06,0,0,0-1.83-.2l-2.23,3s.2-3.25-1.63-2.85-5.48,2.85-5.48,2.85l-.41,3.05s-2.84-2.65-3.65-2.65-1.83,2.44-4.27,1.22a6.27,6.27,0,0,1-3.45-4.26c-.21-1,.4-4.27,0-5.69s-2.64-1.42-2.64-1.42a10.549,10.549,0,0,1-2-.2c-.82-.21-2.24-.61-2.24-.61s1.42-6.91.21-8.53-2.65-1.43-3-.21a6.86,6.86,0,0,1-2.44,3.46c-1.22.81-2.23,1.82-3.45,1.21a11.25,11.25,0,0,1-4.88-9.14c0-5.07,3.25-11,3.25-11s3.66-3,6.3-2.84,2.84.81,3.86-.2,3.25-.81,4.06-.41,3.05,1.63,3.25,3.05.41,4.87,1.83,6.3,2.23-2,2.23-2-2-3.86-2-5.68-.2-2.64.21-3.25,9.95-5.49,10.76-8.13a15.91,15.91,0,0,0,.81-5.69c0-1.82,5.69-4.46,7.11-5.07s.21-3.66,3.25-5.69,12.8-5.28,10.36-4.27-2.84,2.85,1.63,1,10.56-2,6.09-3.86-9.34-1.42-9.14-2.84,2.84-4.27,6.7-4.68c3.65-.38,5.66-2,5.53-.68a1.7,1.7,0,0,1,0,.28c-.41,1.83-2.85,4.26-1.42,4.87s9.14,1.83,9.54,0-4.87-2-3.86-5.08,2.85-4.46,1.83-5.89-4.26-2.43-4.26-2.43-4.68-4.27-4.88-5.08-1.22-4.47-1.83-5.28-1.22,1.22-3.86.81-1.82-2.64-2.64-3.86-4.06-3.25-6.9-2.23-3.05,1.62-4.27,4.06.61,3.45-.41,5.08-3.65,2.84-4.26,4.47.2,3.25-1,4.87-4.67,2.23-4.67-.61.61-4.06-.81-4.67-3.25-.41-5.08-2.44-1.62-6.09-1.62-6.09,6.29-5.28,8.12-6.1,4.47.61,5.89.41,3.45-.81,3.25-2.64-1.42-2.84,1.22-4.67a15.27,15.27,0,0,0,4.67-6.3c.41-1,3.46-3.65,6.1-.61a6.68,6.68,0,0,1,1.82,5.89s-6.5.41-5.89,2.24,4.47,1.62,4.88,3.25-.81,3.25,3.25,3,5.89-.81,4.87-2.84-2-5.08-.81-4.47,2.24,2.64,4.88,1,1.21-5.28-.61-6.71a11.5,11.5,0,0,1-4.27-5.48c-.81-2.44-2-3-4.26-3.25s-5.29-.61-7.32.41-2.84,1.21-3.25,2a4.49,4.49,0,0,1-1.83,2c-.6.2-2.84,1-2.84,1l-2.84-1.62a3.93,3.93,0,0,1-2.44,1.22c-1.63.2-1.83-2.64-1.83-2.64L197,211.48s3.86-.21,5.28.4,5.49,1,7.31.21,1.63-.21,3-1.43a35.437,35.437,0,0,1,4.27-2.84s1.83-1.42,3.86-2.84a14.62,14.62,0,0,1,6.7-2.44c2.64-.41,3.86,0,1.83.61s-4.27,1.62-5.28,2.84-3.05,2-.82,2.44,4.68,0,7.11,2,3.25,2,1.83,4.88-3.25,6.7-1.83,8.12.82-.41.61,4.06.21,6.3,1.83,9.35,4.47,2.43,5.48,3.45a3.42,3.42,0,0,0,3.86.81c1.43-.61,3.25-5.69,3.25-5.69l5.29-6.5,7.92-3.25s4.67-1.62,7.72-3,4.87-2.44,3.25-5.69A80.185,80.185,0,0,1,266.3,209Z" fill="#81b722"/>
          <path id="Trazado_273984" data-name="Trazado 273984" d="M362.27,281.66A117,117,0,0,0,325.44,225a38.716,38.716,0,0,1-5.32-1.71c-5.07-2-10.56-3.46-9.75,1s2.24,6.91.61,8.53a6.23,6.23,0,0,0,.82,8.74c3.25,2.84,5.89,5.08,6.5,3.25s3-.61,4.06,1.42-.21,4.67,1.83,4.06,5.07-2.64,2-6.09-5.08-5.89-4.88-8.53,2-6.71,2.44-2.85,1.83,5.69,4.06,8.53,4.67,4.68,3.86,7.52a5.86,5.86,0,0,1-4.87,4.27,29.531,29.531,0,0,1-5.29-1c-1.82-.41-2.64,0-3.24.81a17.289,17.289,0,0,0-2.24,5.08c-.41,1.83-1.22,4.47-3.86,5.08s-6.7,1.22-4.47,3.05,5.28-.41,5.69,4.46-1.62,5.69-5.69,5.29-5.48,1-4.67,4.87,1.83,6.5,3.25,7.31,5.69.82,3.66,3.86-5.89,4.27-6.91,7.11-2.64,6.1-3.86,7.11-7.51,10.16-7.72,16.25,1.83,16.66,7.72,22.34,9.55,10.57,14.22,8.13,8.73-4.06,10.36-1.63,2,2.44,3.05,3,1.21,3.45.4,6.7,1,7.72,1.42,10.77-7.92,7.72-9.75,13-2.43,9.95-4.06,13-5.89,6.09-3.86,7.72,8.53-.81,12.19-3.66,10.77-11.58,12.39-13.2,6.7-5.69,10.36-11a82.788,82.788,0,0,0,6.7-12.39,87.289,87.289,0,0,0,8.72-14.53,117,117,0,0,0,.96-69.01Z" fill="#81b722"/>
          <path id="Trazado_273985" data-name="Trazado 273985" d="M303.87,259.62c.82,1.21,3.66,2,5.89,1.21s4.47-2,3.86-3.65-3.45-2.24-3.45-2.24-4.27-1.62-5.28-4.87-3.25-7.72-5.49-5.28,1.43,4.67,1.43,5.48-3.25-.4-4.07,2-.2,4.88,1.43,5.08,3.45.41,4.06-1.22-.2-3.65,1-2.84,2.64.61,2,2.23S303.06,258.4,303.87,259.62Z" fill="#fff"/>
          <path id="Trazado_273986" data-name="Trazado 273986" d="M249.28,433.77a119.22,119.22,0,1,1,33.58-4.84,119.22,119.22,0,0,1-33.58,4.84Zm.11-235.18a116.06,116.06,0,1,0,111.44,83.49,116.06,116.06,0,0,0-111.44-83.49Z" fill="#263238"/>
        </g>
        <g id="freepik--Arrows--inject-78">
          <path id="Trazado_273987" data-name="Trazado 273987" d="M173.24,127.48l-4.99-.4-5.45,67.54-33.55-9.55,2.19-7.66-20.31,5.11,14.57,15.03,2.19-7.67,39.4,11.22Z" fill="#ffc100"/>
          <path id="Trazado_273988" data-name="Trazado 273988" d="M167.74,201.74,128.23,190.5l-2.28,8-15.78-16.28,22-5.53-2.28,8L162.35,194l5.44-67.43,6,.49Zm-40.2-12.47,39.3,11.18,5.86-72.51-4-.32-5.46,67.65-34.61-9.85,2.08-7.32-18.63,4.69,13.37,13.79Z" fill="#263238"/>
          <path id="Trazado_273989" data-name="Trazado 273989" d="M162.25,121.15l-4.93-.88-17.07,95.19-21.4-4.73,1.73-7.79-19.97,6.31,15.44,14.14,1.73-7.78,26.47,5.85Z" fill="#ffc100"/>
          <path id="Trazado_273990" data-name="Trazado 273990" d="M116.36,224.35,99.63,209l21.62-6.83-1.8,8.14,20.4,4.51,17.07-95.17,5.91,1.06L144.65,222.06l-26.49-5.85Zm-14.78-14.88,14.17,13,1.64-7.43,26.46,5.85,17.82-99.31-3.94-.7-17.08,95.21-22.39-4.95,1.64-7.43Z" fill="#263238"/>
          <path id="Trazado_273991" data-name="Trazado 273991" d="M243.29,204.94l-40.04-84.86-4.52,2.13,40.04,84.86-7.21,3.4,17.21,11.94,1.73-20.87Z" fill="#ffc100"/>
          <path id="Trazado_273992" data-name="Trazado 273992" d="M249.2,223.31l-18.64-12.92,7.54-3.56-40-84.85,5.43-2.56,40,84.85,7.54-3.55Zm-16.64-12.75,15.78,10.94,1.59-19.14-6.88,3.24-40-84.85-3.62,1.7,40.05,84.86Z" fill="#263238"/>
          <path id="Trazado_273993" data-name="Trazado 273993" d="M212.56,216.87l-19.21-91.85-4.89,1.02,19.2,91.85-7.8,1.63,13.96,15.61,6.54-19.9Z" fill="#ffc100"/>
          <path id="Trazado_273994" data-name="Trazado 273994" d="M214,236.1l-15.11-16.89,8.16-1.71-19.2-91.84,5.87-1.23,19.2,91.84,8.16-1.7Zm-13.21-16.27,12.8,14.32,6-18.25-7.44,1.56L193,125.61l-3.92.82,19.2,91.84Z" fill="#263238"/>
          <path id="Trazado_273995" data-name="Trazado 273995" d="M290.85,135.61,272,144.73l6.59,4.48-11.23,16.53-51.79-58.52-3.74,3.31,56.05,63.34,14.85-21.85,6.59,4.48Z" fill="#ffc100"/>
          <path id="Trazado_273996" data-name="Trazado 273996" d="M267.93,174.68l-56.81-64.19,4.5-4,.33.38,51.36,58,10.59-15.58L271,144.6l20.41-9.86-1.65,22.61-6.9-4.69Zm-55.39-64.11,55.29,62.49,14.76-21.74,6.29,4.28,1.41-19.16L273,144.8l6.29,4.27-11.88,17.48-51.88-58.63Z" fill="#263238"/>
        </g>
        <g id="freepik--Sun--inject-78">
          <path id="Trazado_273997" data-name="Trazado 273997" d="M223.89,86.36l3.92-2.83-4.22-2.36,3.57-3.26-4.46-1.85,3.16-3.66-4.65-1.32,2.71-3.99-4.77-.77,2.23-4.29-4.83-.2,1.72-4.52-4.82.35,1.18-4.68-4.75.91.64-4.8-4.61,1.46.07-4.83-4.41,1.97-.48-4.81-4.16,2.48-1.04-4.72-3.83,2.94-1.59-4.56-3.46,3.37-2.11-4.35-3.05,3.75-2.6-4.07-2.6,4.07-3.05-3.75-2.11,4.35-3.46-3.37-1.59,4.56-3.84-2.94-1.04,4.72-4.15-2.48-.49,4.81-4.41-1.97.08,4.83-4.61-1.45.63,4.79-4.74-.91,1.18,4.69-4.82-.36,1.71,4.52-4.82.2,2.22,4.29-4.77.77,2.71,4-4.64,1.32,3.16,3.65-4.46,1.85,3.56,3.26-4.21,2.36,3.91,2.83-3.91,2.83,4.21,2.36-3.56,3.26,4.46,1.85-3.16,3.66,4.65,1.32-2.72,3.99,4.77.77-2.22,4.29,4.82.2-1.71,4.52,4.82-.35-1.18,4.68,4.74-.91-.63,4.8,4.61-1.46-.07,4.84,4.41-1.98.48,4.81,4.15-2.48,1.05,4.72,3.83-2.94,1.59,4.56,3.46-3.37,2.11,4.35,3.05-3.75,2.6,4.07,2.6-4.07,3.05,3.75,2.11-4.35,3.46,3.37,1.59-4.56,3.83,2.94,1.05-4.72,4.15,2.48.48-4.81,4.41,1.97-.07-4.83,4.61,1.45-.63-4.79,4.74.91-1.18-4.68,4.82.35-1.72-4.52,4.83-.2-2.23-4.29,4.78-.77-2.72-4,4.65-1.32-3.16-3.65,4.46-1.85-3.57-3.26,4.22-2.36Z" fill="#ffc100"/>
          <path id="Trazado_273998" data-name="Trazado 273998" d="M179.25,135.93l-2.65-4.15-3.11,3.82-2.15-4.43-3.53,3.44L166.19,130l-3.9,3-1.07-4.81L157,130.67l-.49-4.9-4.5,2,.08-4.92-4.7,1.48.65-4.88-4.84.92,1.2-4.77-4.91.36,1.75-4.6-4.92-.21,2.27-4.38-4.86-.78,2.76-4.07-4.73-1.35L135,96.86,130.42,95l3.63-3.32-4.29-2.41,4-2.88-4-2.88,4.29-2.41-3.63-3.32L135,75.86l-3.23-3.72,4.74-1.34-2.76-4.08,4.86-.78-2.27-4.37,4.92-.21-1.75-4.6,4.91.36-1.2-4.78,4.83.93-.64-4.88,4.7,1.47L152,44.94l4.5,2,.49-4.9,4.23,2.52,1.07-4.81,3.9,3,1.62-4.65,3.53,3.44,2.15-4.43,3.11,3.82,2.65-4.15,2.65,4.15,3.1-3.82,2.15,4.43,3.53-3.44,1.62,4.65,3.91-3,1.06,4.81,4.23-2.52L202,47l4.49-2-.07,4.92,4.69-1.48-.64,4.88,4.84-.92-1.21,4.77,4.91-.36-1.74,4.61,4.92.21L219.92,66l4.86.78L222,70.79l4.74,1.35-3.22,3.72,4.55,1.89-3.64,3.32,4.3,2.41-4,2.88,4,2.88-4.3,2.41L228.08,95l-4.55,1.89,3.22,3.72L222,101.93l2.77,4.07-4.86.78,2.27,4.37-4.92.21L219,116l-4.92-.37,1.21,4.78-4.84-.93.65,4.88-4.7-1.47.08,4.92-4.5-2-.49,4.9-4.24-2.52L196.21,133l-3.91-3-1.62,4.65-3.53-3.44L185,135.6l-3.1-3.82Zm-2.55-5.85,2.55,4,2.55-4,3,3.68,2.07-4.27,3.4,3.31,1.55-4.48,3.76,2.89,1-4.63,4.07,2.43.48-4.72,4.32,1.94-.07-4.74,4.52,1.42-.62-4.7,4.66.89-1.16-4.59,4.72.34-1.68-4.43,4.74-.2L218.39,106l4.68-.75-2.66-3.92,4.56-1.29-3.1-3.58,4.37-1.82-3.49-3.2,4.13-2.32L223,86.36l3.84-2.77-4.13-2.32,3.49-3.2-4.37-1.82,3.1-3.58-4.56-1.29,2.66-3.92-4.68-.76,2.18-4.2-4.73-.2,1.68-4.44-4.73.35L214,53.62l-4.65.89.62-4.7-4.52,1.42.07-4.74-4.33,1.94-.47-4.72-4.07,2.43-1-4.63-3.76,2.89-1.55-4.48-3.4,3.31L184.79,39l-3,3.67-2.55-4-2.55,4-3-3.67-2.07,4.26-3.4-3.31-1.56,4.48-3.76-2.89-1,4.63-4.07-2.43-.48,4.72L153,46.49l.08,4.74-4.52-1.42.62,4.7-4.66-.89,1.16,4.6L141,57.87l1.69,4.43-4.74.2,2.19,4.21-4.68.75,2.66,3.92-4.56,1.29,3.1,3.59-4.38,1.81,3.5,3.2-4.14,2.32,3.85,2.77-3.85,2.77,4.14,2.32-3.5,3.2,4.38,1.82-3.1,3.58,4.56,1.29-2.66,3.93,4.68.75-2.19,4.2,4.74.2L141,114.86l4.72-.35-1.16,4.59,4.66-.89-.62,4.7,4.52-1.42-.07,4.74,4.32-1.94.48,4.72,4.07-2.43,1,4.63,3.75-2.89,1.56,4.48,3.4-3.31,2.07,4.27Z" fill="#263238"/>
          <path id="Trazado_273999" data-name="Trazado 273999" d="M218.19,86.36l3.41-2.47-3.67-2.05,3.11-2.85-3.89-1.61,2.75-3.19-4.05-1.15,2.36-3.49-4.16-.67L216,65.14l-4.22-.18,1.5-3.94-4.2.31,1.03-4.09-4.14.8.55-4.18-4.02,1.26.06-4.21-3.84,1.72-.43-4.19-3.62,2.16-.91-4.12-3.34,2.57-1.39-3.98-3.02,2.94-1.84-3.79-2.66,3.27-2.26-3.56-2.27,3.56-2.66-3.27-1.84,3.79-3.02-2.94-1.38,3.98-3.35-2.57-.91,4.12-3.62-2.16-.42,4.19-3.85-1.72.07,4.22-4.03-1.27.56,4.18-4.14-.79,1.03,4.08-4.2-.31,1.49,3.94-4.21.18,1.94,3.74-4.16.67,2.37,3.49-4.06,1.15,2.76,3.19-3.89,1.61,3.11,2.85-3.68,2.05,3.42,2.47-3.42,2.47,3.68,2.06-3.11,2.84,3.89,1.61-2.76,3.19,4.06,1.15-2.37,3.49,4.16.67-1.94,3.74,4.21.18-1.49,3.94,4.2-.31-1.03,4.09,4.14-.8-.55,4.18L156,117.6l-.07,4.21,3.85-1.72.42,4.19,3.62-2.16.91,4.12,3.35-2.57,1.38,3.98,3.02-2.94,1.84,3.79,2.66-3.27,2.27,3.56,2.26-3.56,2.66,3.27,1.84-3.79,3.02,2.94,1.39-3.98,3.34,2.57.92-4.12,3.62,2.16.42-4.19,3.85,1.72-.07-4.22,4.02,1.27-.55-4.18,4.14.79-1.03-4.08,4.2.31-1.49-3.94,4.21-.18-1.95-3.74,4.16-.67-2.36-3.49,4.05-1.15-2.75-3.19,3.89-1.61-3.11-2.84,3.67-2.06Z" fill="#fff"/>
          <circle id="Elipse_6231" data-name="Elipse 6231" cx="37.4" cy="37.4" r="37.4" transform="translate(141.85 48.96)" fill="#ffc100"/>
          <path id="Trazado_274000" data-name="Trazado 274000" d="M179.25,124.26a37.9,37.9,0,1,1,37.9-37.9,37.9,37.9,0,0,1-37.9,37.9Zm0-74.8a36.9,36.9,0,1,0,36.9,36.9,36.9,36.9,0,0,0-36.9-36.9Z" fill="#263238"/>
          <circle id="Elipse_6232" data-name="Elipse 6232" cx="31.59" cy="31.59" r="31.59" transform="translate(147.66 54.77)" fill="#fff" opacity="0.8"/>
          <circle id="Elipse_6233" data-name="Elipse 6233" cx="20.42" cy="20.42" r="20.42" transform="translate(158.83 65.94)" fill="#fff"/>
        </g>
      </g>
    </g>
  </g>
</svg>
