<svg xmlns="http://www.w3.org/2000/svg" xmlns:xlink="http://www.w3.org/1999/xlink" width="484.311" height="497.275" viewBox="0 0 484.311 497.275">
  <defs>
    <linearGradient id="linear-gradient" x1="0.5" x2="0.5" y2="1" gradientUnits="objectBoundingBox">
      <stop offset="0" stop-color="#81b722"/>
      <stop offset="1" stop-color="#169788"/>
    </linearGradient>
  </defs>
  <g id="Grupo_894178" data-name="Grupo 894178" transform="translate(-870 -5430.515)">
    <g id="Grupo_874202" data-name="Grupo 874202" transform="translate(0 4346.23)">
      <g id="Grupo_894176" data-name="Grupo 894176">
        <g id="contenedor-01" transform="translate(822.961 1046.704)">
          <path id="Trazado_250994" data-name="Trazado 250994" d="M332.722,28.78H287.085L264.26,68.314l22.824,39.534h45.637l22.825-39.534Z" transform="translate(16.89 9.286)" fill="none" stroke="#addbd5" stroke-miterlimit="10" stroke-width="0.97"/>
          <path id="Trazado_250995" data-name="Trazado 250995" d="M477.042,264.12H431.4L408.58,303.642,431.4,343.176h45.637l22.825-39.534Z" transform="translate(30.924 36.824)" fill="none" stroke="#addbd5" stroke-miterlimit="10" stroke-width="0.97"/>
          <path id="Trazado_250996" data-name="Trazado 250996" d="M469.243,163.9H446.314L434.85,183.754l11.464,19.866h22.929l11.465-19.866Z" transform="translate(33.977 21.303)" fill="none" stroke="#28965a" stroke-miterlimit="10" stroke-width="0.97" opacity="0.3"/>
          <path id="Trazado_250997" data-name="Trazado 250997" d="M74.883,314.66H51.954L40.49,334.526,51.954,354.38H74.883l11.464-19.854Z" transform="translate(19.158 45.481)" fill="none" stroke="#addbd5" stroke-miterlimit="10" stroke-width="0.97"/>
          <path id="Trazado_250998" data-name="Trazado 250998" d="M196.943,25.29H174.015L162.55,45.144,174.015,65.01h22.929l11.465-19.866Z" transform="translate(-41.249 77.365)" fill="none" stroke="#28965a" stroke-miterlimit="10" stroke-width="0.97" opacity="0.3"/>
          <path id="Trazado_250999" data-name="Trazado 250999" d="M333.913,441.01H310.984L299.52,460.864l11.465,19.854h22.929l11.464-19.854Z" transform="translate(123.358 -33.997)" fill="none" stroke="#2ceaa3" stroke-miterlimit="10" stroke-width="0.97" opacity="0.5"/>
          <path id="Trazado_251000" data-name="Trazado 251000" d="M256.026,414.21H222.131L205.19,443.567l16.941,29.357h33.895l16.941-29.357Z" transform="translate(21.359 61.446)" fill="none" stroke="#28965a" stroke-miterlimit="10" stroke-width="0.97" opacity="0.3"/>
          <g id="OBJECTS" transform="translate(47.039 71.846)">
            <path id="Trazado_251006" data-name="Trazado 251006" d="M113.93,177.709h1.16l.58-1.009" transform="translate(-40.316 -48.49)" fill="none" stroke="#28965a" stroke-miterlimit="10" stroke-width="0.98"/>
            <line id="Línea_431" data-name="Línea 431" y1="58.286" x2="33.651" transform="translate(76.503 67.951)" fill="none" stroke="#28965a" stroke-miterlimit="10" stroke-width="0.98" stroke-dasharray="1.97 1.97"/>
            <path id="Trazado_251007" data-name="Trazado 251007" d="M145.91,124.187l.58-1-.58-1.01" transform="translate(-35.187 -57.234)" fill="none" stroke="#28965a" stroke-miterlimit="10" stroke-width="0.98"/>
            <path id="Trazado_251052" data-name="Trazado 251052" d="M410.681,72.3H170.554L50.49,280.25,170.554,488.212H410.681L530.745,280.25Z" transform="translate(-50.49 -65.233)" fill="#169788" opacity="0.3"/>
            <path id="Trazado_251053" data-name="Trazado 251053" d="M403.453,80.75h-228.8L60.25,278.9l114.4,198.157h228.8L517.855,278.9Z" transform="translate(-48.925 -63.878)" fill="#81b722"/>
            <path id="Trazado_251054" data-name="Trazado 251054" d="M398.492,85.04H177.464L66.95,276.455,177.464,467.87H398.492L509.017,276.455Z" transform="translate(-47.85 -63.19)" fill="#f3f9ff"/>
            <path id="Trazado_251056" data-name="Trazado 251056" d="M140.647,365.77H94.162L70.92,406.023l23.242,40.253h46.485l23.242-40.253Z" transform="translate(-47.214 -18.169)" fill="none" stroke="#6bffb8" stroke-miterlimit="10" stroke-width="0.98" stroke-dasharray="2"/>
            <path id="Trazado_251058" data-name="Trazado 251058" d="M425.469,66.21h-42.98L361.01,103.435l21.478,37.213h42.98l21.49-37.213Z" transform="translate(-0.691 -66.21)" fill="none" stroke="#6bffb8" stroke-miterlimit="10" stroke-width="0.98" stroke-dasharray="2"/>
            <path id="Trazado_251055" data-name="Trazado 251055" d="M135.213,372.11H97.234l-18.984,32.9,18.984,32.9h37.979l19-32.9Z" transform="translate(-11.818 -39.227)" opacity="0.6" fill="url(#linear-gradient)"/>
            <path id="Trazado_251057" data-name="Trazado 251057" d="M427.572,63.76H381.308L358.17,103.828,381.308,143.9h46.264l23.138-40.068Z" transform="translate(-4.442 -56.693)" opacity="0.7" fill="url(#linear-gradient)"/>
          </g>
        </g>
      </g>
    </g>
    <g id="Building_safety-pana" data-name="Building safety-pana" transform="translate(454.175 5431.716)">
      <g id="freepik--Shield--inject-4" transform="translate(523.425 126.506)">
        <path id="Trazado_286421" data-name="Trazado 286421" d="M142.011,77.157,112.835,67.37l-28.9,9.654C80.252,78.646,77,79.635,77,82.836V98.81a57.481,57.481,0,0,0,9.514,31.809,58.094,58.094,0,0,0,26.55,21.926c11.8-3.584,20.65-13.135,26.012-21.307a57.393,57.393,0,0,0,9.521-31.8V85.063C148.649,80.49,146.053,78.256,142.011,77.157Z" transform="translate(-72.14 -61.935)" fill="#ff725e"/>
        <path id="Trazado_286422" data-name="Trazado 286422" d="M114.682,147.9l-.118-.052a50.549,50.549,0,0,1-31.374-46.7V87.355c0-2.7,2.382-3.688,5.163-4.89l1.033-.45L114.46,73.63l25.274,8.481c4.034,1.1,6,3.452,6,7.183v12.4a50.04,50.04,0,0,1-8.275,27.642c-3.592,5.443-11.313,15.089-22.649,18.534ZM114.46,74.4l-24.773,8.29-1.033.45c-2.655,1.084-4.727,2-4.727,4.211v13.791a49.8,49.8,0,0,0,30.835,45.969c11.063-3.407,18.593-12.855,22.125-18.194A49.317,49.317,0,0,0,145,101.685v-12.4c0-3.4-1.741-5.458-5.458-6.475h0Z" transform="translate(-73.765 -63.578)" fill="#fff"/>
        <path id="Trazado_286423" data-name="Trazado 286423" d="M144.095,71.2a12.464,12.464,0,0,1,1.977.6,10.451,10.451,0,0,1,2.213,1.165,7.537,7.537,0,0,1,2.323,2.508,9.02,9.02,0,0,1,1.092,4.16V84.8c0,3.688.037,7.936,0,12.656a64.62,64.62,0,0,1-8.894,32.015,72.047,72.047,0,0,1-12.538,15.82,48.858,48.858,0,0,1-18.784,11.335h-.125a75.6,75.6,0,0,1-7.582-3.688,68.59,68.59,0,0,1-7.25-4.772,64.967,64.967,0,0,1-12.67-12.656,66.059,66.059,0,0,1-9.322-16.9,65.343,65.343,0,0,1-3.938-18.047c-.229-3.009-.162-5.981-.177-8.894s0-5.789,0-8.614V78.836a14.352,14.352,0,0,1,.088-2.095,4.145,4.145,0,0,1,.878-1.925,9.735,9.735,0,0,1,3.341-2.338c1.217-.568,2.441-1.062,3.636-1.586h0L111.062,60h.044l24.249,8.194,6.475,2.213,1.667.583c.376.125.561.207.561.207s-.192-.052-.568-.177l-1.682-.546-6.5-2.139-24.286-8.113h.081L78.486,71.2h0c-1.2.531-2.419,1.025-3.621,1.593a9.248,9.248,0,0,0-3.223,2.213,3.687,3.687,0,0,0-.8,1.792,12.315,12.315,0,0,0-.074,2.036V91.646c0,2.95-.052,5.9.177,8.85a64.576,64.576,0,0,0,3.916,17.966,65.638,65.638,0,0,0,9.285,16.786A64.583,64.583,0,0,0,96.739,147.83a68.963,68.963,0,0,0,7.205,4.75,78.043,78.043,0,0,0,7.537,3.688h-.074a48.186,48.186,0,0,0,18.652-11.24A71.907,71.907,0,0,0,142.6,129.3a65.085,65.085,0,0,0,6.866-16.557,66.051,66.051,0,0,0,2.065-15.3c0-4.705,0-8.946.044-12.648V79.632a8.732,8.732,0,0,0-1.077-4.071,7.582,7.582,0,0,0-2.264-2.493,10.717,10.717,0,0,0-2.176-1.187,14.087,14.087,0,0,0-1.46-.524Z" transform="translate(-70.411 -60)" fill="#ff725e"/>
        <path id="Trazado_286424" data-name="Trazado 286424" d="M118.426,131.788,101.95,118l4.809-5.745,11.048,9.241,16.918-18.01,5.465,5.126Z" transform="translate(-78.69 -71.416)" fill="#fff"/>
      </g>
      <g id="freepik--speech-bubble--inject-4" transform="translate(725.965 131.666)">
        <path id="Trazado_286425" data-name="Trazado 286425" d="M578.05,142.83l6.823-11.7a43,43,0,1,1,7.486,13.47h0Z" transform="translate(-578.05 -74.21)" fill="#fff"/>
        <path id="Trazado_286426" data-name="Trazado 286426" d="M578.05,142.827l.975.1,2.758.331,10.653,1.3-.117.156h0l-.361-.77.546.653a43.041,43.041,0,0,0,17.018,12.466,42.464,42.464,0,0,0,6.326,2,47.3,47.3,0,0,0,7.028.975,42.594,42.594,0,0,0,30.215-9.942,43.081,43.081,0,0,0,11.17-14.445,42.339,42.339,0,0,0,4.055-18.938,41.913,41.913,0,0,0-5.127-19.6l-1.365-2.291c-.478-.741-.975-1.443-1.491-2.164a42.335,42.335,0,0,0-3.226-4.025c-.546-.673-1.218-1.228-1.823-1.842a18.83,18.83,0,0,0-1.881-1.754l-2-1.589c-.331-.263-.653-.546-.975-.78l-1.062-.692a43.374,43.374,0,0,0-18.383-6.988,42.858,42.858,0,0,0-43.042,22.174c-.292.546-.565,1.092-.848,1.628l-.419.8-.331.828-1.286,3.275a56.439,56.439,0,0,0-1.638,6.452A42.731,42.731,0,0,0,585,131.1h0c-2.242,3.762-3.957,6.647-5.136,8.606l-1.335,2.232-.468.77.419-.751,1.277-2.222,5.058-8.772v.088a42.778,42.778,0,0,1-1.725-20.985,58.308,58.308,0,0,1,1.628-6.511l1.287-3.3.331-.838.419-.809.848-1.647a43.276,43.276,0,0,1,43.451-22.418,43.928,43.928,0,0,1,18.519,6.979l1.082.7a8,8,0,0,1,.975.789l2.018,1.608c.692.526,1.267,1.189,1.9,1.774a18.448,18.448,0,0,1,1.842,1.862,40.76,40.76,0,0,1,3.285,4.113c.507.731,1.023,1.443,1.511,2.183l1.306,2.329a43.024,43.024,0,0,1-40.654,63.53,47.878,47.878,0,0,1-7.086-1.023,41.679,41.679,0,0,1-6.374-2.037,42.885,42.885,0,0,1-17.057-12.671l.185-.117h0l.078.175h-.195L581.666,143.3l-2.719-.38Z" transform="translate(-578.05 -74.208)" fill="#263238"/>
        <rect id="Rectángulo_44891" data-name="Rectángulo 44891" width="31.219" height="31.219" transform="translate(29.075 29.925)" fill="#e0e0e0"/>
        <path id="Trazado_286427" data-name="Trazado 286427" d="M639.1,136.183a1.294,1.294,0,0,1,0-.166v-2.125c0-1.511,0-3.655-.058-6.374,0-5.478-.068-13.246-.107-22.564l.214.224h-31.19c-.058.058.478-.478.253-.244h0v31.2l-.214-.224,22.564.117h6.462l-6.326.058-22.7.107h-.224V104.983h0l.253-.263h31.414v.214c0,9.376-.088,17.193-.117,22.71,0,2.69,0,4.825-.058,6.316v1.647A3.988,3.988,0,0,1,639.1,136.183Z" transform="translate(-578.802 -74.98)" fill="#263238"/>
        <path id="Trazado_286428" data-name="Trazado 286428" d="M628.512,131.8,609.74,116.1l5.478-6.55L627.8,120.077,647.08,99.57l6.218,5.838Z" transform="translate(-578.852 -74.85)" fill="#455a64"/>
      </g>
      <g id="freepik--Character--inject-4" transform="translate(509.657 166.765)">
        <path id="Trazado_286429" data-name="Trazado 286429" d="M473.412,250.8l-17.472-11.675a11.66,11.66,0,0,0-13.548,8.644c-5.775-1.21-11.9,2.839-13.887,8.393s-.251,12.029,3.584,16.52,9.484,7.146,15.274,8.3c8.326,1.652,18.062-.17,23.055-7.043C475.116,267.491,474.378,258.722,473.412,250.8Z" transform="translate(-325.8 -131.372)" fill="#263238"/>
        <path id="Trazado_286430" data-name="Trazado 286430" d="M570.633,218.011a15.967,15.967,0,0,0-9.116-14.072c2-6.977,4.2-14.3,2.655-21.388-3.488-16.019-17.921-18.216-25.179-18.113l-23.851,15.237c-6.387,7.235,1.63,46.957,4.506,56.169a28.807,28.807,0,0,0,20.164,18.983c6.638,1.659,14.293.6,19.382-4.012s6.7-13.113,2.574-18.6a15.974,15.974,0,0,0,8.865-14.2Z" transform="translate(-348.127 -111.836)" fill="#263238"/>
        <path id="Trazado_286431" data-name="Trazado 286431" d="M425.16,308.513l2.213,97.786,130.34.509S548.036,269.543,545.256,268.2c-2.1-1-27.856-9.447-27.856-9.447l-11.454-3.334-47.333,9.086-17.169,3.754Z" transform="translate(-325.139 -135.718)" fill="#455a64"/>
        <path id="Trazado_286432" data-name="Trazado 286432" d="M423.816,296.456c0-.258,12.449-24.736,12.449-24.736-12.2,1.283-23.091,5.59-30.171,14.876-3.3,4.322-4.772,10.871-6.416,15.539-1.106,3.164-8.408,45.725-8.408,45.725l28.918,11.83Z" transform="translate(-316.243 -139.997)" fill="#455a64"/>
        <path id="Trazado_286433" data-name="Trazado 286433" d="M477.927,331.412,450.639,268.48c-9.942,2.213-21.115,4.735-28.239,9.322l3.769,46.257-.553,86.178,52.216.273,3.216-61.324Z" transform="translate(-324.414 -139.146)" fill="#ff725e"/>
        <path id="Trazado_286434" data-name="Trazado 286434" d="M567.208,344.277l-5.62-77.726L529.92,256.41l-32.34,71.3v79.629l79.924-.265Z" transform="translate(-344.148 -135.978)" fill="#ff725e"/>
        <path id="Trazado_286435" data-name="Trazado 286435" d="M567.163,344.208s.074.376.2,1.106.31,1.829.553,3.245c.479,2.862,1.18,7.073,2.087,12.493,1.792,10.849,4.388,26.55,7.589,45.932v.162h-.1l-79.924.31h-.184v-79.88h0c11.653-25.665,22.619-49.819,32.362-71.295l.066-.133.14.044,31.632,10.17h.1v.1c1.7,23.807,3.075,43.24,4.034,56.722.472,6.741.841,11.992,1.084,15.561.125,1.777.214,3.142.273,4.064s.081,1.387.081,1.387-.052-.465-.125-1.379-.177-2.286-.31-4.064c-.273-3.57-.664-8.813-1.165-15.547-1-13.489-2.419-32.915-4.174-56.722l.1.133L529.808,256.5l.207-.089c-9.735,21.476-20.65,45.637-32.318,71.31V407.3l-.184-.184,79.924-.221-.14.162c-3.149-19.4-5.7-35.1-7.471-45.961-.87-5.421-1.549-9.632-2.013-12.493-.221-1.423-.391-2.515-.509-3.252S567.163,344.208,567.163,344.208Z" transform="translate(-344.096 -135.91)" fill="#263238"/>
        <rect id="Rectángulo_44892" data-name="Rectángulo 44892" width="112.219" height="14.669" transform="translate(102.226 206.256)" fill="#fff"/>
        <path id="Trazado_286436" data-name="Trazado 286436" d="M585.11,271.67s7.294-.089,17.862,18.9c11.867,21.321,19.448,48.381,19.448,48.381L593.208,354.9Z" transform="translate(-367.124 -139.984)" fill="#455a64"/>
        <path id="Trazado_286437" data-name="Trazado 286437" d="M436.9,273.473l3.179,137.236,12.493.066L448.243,270.25S438.862,272.455,436.9,273.473Z" transform="translate(-328.221 -139.611)" fill="#fff"/>
        <path id="Trazado_286438" data-name="Trazado 286438" d="M555.588,261.38,551.76,408.446H568.1l.767-142.641Z" transform="translate(-358.37 -137.283)" fill="#fff"/>
        <g id="Grupo_874795" data-name="Grupo 874795" transform="translate(163.705 154.055)" opacity="0.3">
          <path id="Trazado_286439" data-name="Trazado 286439" d="M511.51,311.315a18.851,18.851,0,0,0,9.02,14.153c2.382,1.409,5.1,2.294,7.183,4.115s3.252,4.2,4.425,6.586c8.85,17.737,17.7,35.518,24.552,54.133,1.527,4.16,2.95,8.408,5.421,12.11s6.062,6.851,10.421,7.692,9.4-1.165,11.136-5.244L528.554,302Z" transform="translate(-511.51 -302)"/>
        </g>
        <path id="Trazado_286440" data-name="Trazado 286440" d="M477.764,330.744v5.7c0,3.688,0,9.152.044,16.092,0,13.9.044,33.807.074,57.865v.162h-.162l-52.3-.28h-.184v-.192c.1-15.488.2-32.177.3-49.413.081-12.781.162-25.252.243-37.229h0c-1.3-16.225-2.53-31.58-3.688-45.725v-.147l.089-.059a61.288,61.288,0,0,1,14.381-6.033c4.794-1.46,9.507-2.515,14.013-3.525h.125l.044.118L470.471,313.8c2.331,5.435,4.152,9.669,5.384,12.538l1.394,3.275c.317.737.465,1.121.465,1.121s-.177-.376-.509-1.114l-1.342-3.26L470.4,313.826l-19.839-45.674.17.089c-4.491,1.01-9.175,2.109-13.968,3.54a59.2,59.2,0,0,0-14.3,6.018l.081-.162c1.143,14.153,2.39,29.5,3.688,45.725h0c-.074,11.985-.155,24.448-.236,37.229-.111,17.258-.221,33.925-.317,49.413l-.184-.184,52.3.332-.162.155c0-24.057.052-43.963.074-57.865,0-6.933,0-12.375.044-16.085v-4.226C477.742,331.164,477.764,330.744,477.764,330.744Z" transform="translate(-324.333 -139.01)" fill="#263238"/>
        <path id="Trazado_286441" data-name="Trazado 286441" d="M435.675,155.4a9.33,9.33,0,0,1,7.309-14.293l14.75,2.154-4.292,24.92c-.406,2.382-.892,4.912-2.544,6.674a8.5,8.5,0,0,1-6.261,2.331,12.774,12.774,0,0,1-8.961-21.786Z" transform="translate(-326.922 -105.713)" fill="#263238"/>
        <path id="Trazado_286442" data-name="Trazado 286442" d="M483.7,243.939c12.316,0,25.636-13,25.879-25.319l1.313-67.5c1.025-19.913-9.706-37.082-29.626-37.554l-1.844.066A35.622,35.622,0,0,0,445.071,147.6c-.789,17.25-.111,32.834.324,42.038.9,19.1,18.74,22.125,18.74,22.125s-1.534,16.815,1.092,21.771c5.9,11.107,10.561,10.155,18.475,10.325Z" transform="translate(-330.27 -98.484)" fill="#ffbf9d"/>
        <path id="Trazado_286443" data-name="Trazado 286443" d="M470.779,243.876s12.073.295,24.625-8.216c0,0-5.7,14.47-24.825,13.408Z" transform="translate(-337.061 -130.531)" fill="#ff9a6c"/>
        <path id="Trazado_286444" data-name="Trazado 286444" d="M457.08,179.568a2.736,2.736,0,0,0,2.729,2.662,2.618,2.618,0,0,0,2.729-2.559,2.736,2.736,0,0,0-2.729-2.662,2.611,2.611,0,0,0-2.729,2.559Z" transform="translate(-333.518 -115.135)" fill="#263238"/>
        <path id="Trazado_286445" data-name="Trazado 286445" d="M451.6,168.65c.347.339,2.36-1.261,5.3-1.357s5.163,1.305,5.45.929c.148-.162-.221-.789-1.18-1.475a7.507,7.507,0,0,0-4.373-1.18,7.183,7.183,0,0,0-4.2,1.519C451.713,167.839,451.425,168.5,451.6,168.65Z" transform="translate(-332.067 -112.131)" fill="#263238"/>
        <path id="Trazado_286446" data-name="Trazado 286446" d="M493.33,179.566a2.729,2.729,0,0,0,2.721,2.662,2.611,2.611,0,0,0,2.729-2.559,2.729,2.729,0,0,0-2.744-2.67,2.611,2.611,0,0,0-2.707,2.567Z" transform="translate(-343.033 -115.133)" fill="#263238"/>
        <path id="Trazado_286447" data-name="Trazado 286447" d="M490.653,168.9c.354.339,2.367-1.261,5.3-1.357s5.163,1.305,5.45.929c.147-.162-.214-.8-1.18-1.475a7.471,7.471,0,0,0-4.373-1.18,7.205,7.205,0,0,0-4.211,1.519C490.771,168.1,490.484,168.753,490.653,168.9Z" transform="translate(-342.318 -112.196)" fill="#263238"/>
        <path id="Trazado_286448" data-name="Trazado 286448" d="M474.757,192.377c0-.162-1.829-.413-4.8-.693-.737-.052-1.475-.177-1.608-.679a4.317,4.317,0,0,1,.42-2.213q.966-2.758,2.021-5.789c2.8-8.231,4.794-14.994,4.462-15.1s-2.869,6.475-5.664,14.713c-.671,2.028-1.32,3.968-1.925,5.819a4.146,4.146,0,0,0-.288,2.95,1.873,1.873,0,0,0,1.268,1.055,4.889,4.889,0,0,0,1.283.133C472.905,192.6,474.749,192.547,474.757,192.377Z" transform="translate(-336.171 -112.744)" fill="#263238"/>
        <path id="Trazado_286449" data-name="Trazado 286449" d="M480.576,212.692a3.629,3.629,0,0,0,2.552,1.033,3.857,3.857,0,0,0,2.67-1.158,5.242,5.242,0,0,0,1.268-4.668,1.821,1.821,0,0,0-.295-.774,1.474,1.474,0,0,0-.089-.435,3.414,3.414,0,0,0-1.9-1.925,4.381,4.381,0,0,0-2.78-.133,4.248,4.248,0,0,0-2.854,3.474A5.362,5.362,0,0,0,480.576,212.692Z" transform="translate(-339.291 -122.343)" fill="#ff9a6c"/>
        <path id="Trazado_286450" data-name="Trazado 286450" d="M486.688,204.639c-.457-.133-1.195,2.95-4.373,4.543s-6.4.457-6.527.885c-.089.184.59.774,1.984,1.143a7.98,7.98,0,0,0,5.406-.561,6.91,6.91,0,0,0,3.466-3.857C487.071,205.524,486.9,204.675,486.688,204.639Z" transform="translate(-338.426 -122.387)" fill="#263238"/>
        <path id="Trazado_286451" data-name="Trazado 286451" d="M489.643,155.4c.317.789,3.23.31,6.7.6s6.276,1.143,6.7.406c.2-.347-.317-1.084-1.475-1.814a11.66,11.66,0,0,0-10.207-.738C490.115,154.384,489.5,155.033,489.643,155.4Z" transform="translate(-342.06 -108.839)" fill="#263238"/>
        <path id="Trazado_286452" data-name="Trazado 286452" d="M452.64,153.853c.538.649,2.537-.118,4.971-.229s4.506.288,4.956-.428c.2-.339-.147-1-1.069-1.6a7.22,7.22,0,0,0-8,.524C452.662,152.864,452.4,153.565,452.64,153.853Z" transform="translate(-332.33 -108.212)" fill="#263238"/>
        <path id="Trazado_286453" data-name="Trazado 286453" d="M533.475,182.952c.317-.148,12.995-4.337,13.032,8.739s-13.106,10.421-13.128,10.045S533.475,182.952,533.475,182.952Z" transform="translate(-353.545 -116.498)" fill="#ffbf9d"/>
        <path id="Trazado_286454" data-name="Trazado 286454" d="M538.776,198.31c.052-.044.229.155.612.332a2.279,2.279,0,0,0,1.7,0c1.379-.509,2.537-2.707,2.6-5.067a7.6,7.6,0,0,0-.649-3.26,2.64,2.64,0,0,0-1.718-1.741,1.151,1.151,0,0,0-1.342.627c-.177.369-.089.627-.162.649s-.28-.221-.177-.738a1.43,1.43,0,0,1,.516-.819,1.7,1.7,0,0,1,1.254-.339,3.208,3.208,0,0,1,2.39,2.021,7.678,7.678,0,0,1,.8,3.643c-.074,2.64-1.416,5.1-3.3,5.657a2.434,2.434,0,0,1-2.087-.339C538.8,198.59,538.732,198.31,538.776,198.31Z" transform="translate(-354.959 -118.006)" fill="#ff9a6c"/>
        <path id="Trazado_286455" data-name="Trazado 286455" d="M510.689,140.084a9.918,9.918,0,0,1,5.959-2.36,30.5,30.5,0,0,1,16.594,2.692,14.559,14.559,0,0,1,6.741,5.649c1.453,2.6,1.475,6.166-.575,8.326a9.167,9.167,0,0,1-7.338,16.668h0a5.952,5.952,0,0,1-9.005,4.506,9.507,9.507,0,0,1-2.353-2.124c-2.5-3.208-2.751-9.293-2.065-13.275a8.7,8.7,0,0,1-6.7-3.555,16.741,16.741,0,0,1-2.95-7.2C508.351,146.139,508.373,142.4,510.689,140.084Z" transform="translate(-347.05 -104.768)" fill="#263238"/>
        <path id="Trazado_286456" data-name="Trazado 286456" d="M491.451,93.812c.892.184,22.339,6.549,26.705,23.136s2.441,21.461,2.441,21.461a10.709,10.709,0,0,1,2.146,2.1c.833,1.128-.833,6.151-3.636,5.384-20.65-10.827-45.726-13.452-73.862-14.448l-21.462-1.7c-6.055.3-8.061-1.438-5.428-2.78,2.021-1.025,19.544-6.741,19.544-6.741l3.518-2.213,9.683-11.712s-.981-1.785,1.283-3.061S473.846,90.161,491.451,93.812Z" transform="translate(-323.055 -93.114)" fill="#ff725e"/>
        <g id="Grupo_874796" data-name="Grupo 874796" transform="translate(139.345 5.197)" opacity="0.3">
          <path id="Trazado_286457" data-name="Trazado 286457" d="M526.8,106.547s-23.217-5.354-34.058-1l1.261-.531L483.783,108.7c-1.726.627-3.739,1.224-5.3.266,0,0,5.62-4.425,15.657-7.08S519.839,98.847,526.8,106.547Z" transform="translate(-478.48 -100.161)"/>
        </g>
        <path id="Trazado_286458" data-name="Trazado 286458" d="M523.079,106.575a16.626,16.626,0,0,0-2.006-1.475,29.278,29.278,0,0,0-6.129-3.112,35.1,35.1,0,0,0-9.956-2.109,29.346,29.346,0,0,0-12.339,1.534,53.151,53.151,0,0,0-5.9,2.685c-1.844.981-3.687,1.829-5.317,2.817a32.3,32.3,0,0,1-4.75,2.581,10.148,10.148,0,0,1-4.595.612c-5.775-.3-9.234-1.726-8.953-2.08a.9.9,0,0,0,.435.487,7.3,7.3,0,0,0,1.733.738,30.917,30.917,0,0,0,6.77,1.136,10.325,10.325,0,0,0,4.72-.59,31.553,31.553,0,0,0,4.809-2.574c1.637-.966,3.466-1.814,5.31-2.788a52.967,52.967,0,0,1,5.848-2.662,29.073,29.073,0,0,1,12.191-1.578,35,35,0,0,1,9.89,2.013,30.88,30.88,0,0,1,6.136,2.987c.686.428,1.2.789,1.549,1.04A3.274,3.274,0,0,0,523.079,106.575Z" transform="translate(-335.103 -94.859)" fill="#263238"/>
        <g id="Grupo_874797" data-name="Grupo 874797" transform="translate(162.829 19.393)" opacity="0.3">
          <path id="Trazado_286459" data-name="Trazado 286459" d="M544.187,130.76c-4.2-.31-7.323-1.615-11.439-2.8-4.425-1.269-8.747-2.331-13.061-3.806-3.282-1.121-7.176-2.213-9.2-4.742a4.882,4.882,0,0,0,1.187,4.646c1.195,1.313,5.244,3.046,6.925,3.629,9.588,3.3,16.225,5.531,26.277,6.9a29.42,29.42,0,0,0-.693-3.828" transform="translate(-510.322 -119.41)"/>
        </g>
        <path id="Trazado_286460" data-name="Trazado 286460" d="M542.041,121.155c2.589,1.335,4.174,2.213,4.1,4.5-.059,1.9-.6,4.182-2.478,4.388a4.7,4.7,0,0,1-1.711-.243L513.3,122.026a4.366,4.366,0,0,1-2.589-1.409c-.87-1.276-.059-3.149,1.276-3.931a8.308,8.308,0,0,1,4.506-.693,96.9,96.9,0,0,1,25.547,5.163" transform="translate(-347.501 -99.114)" fill="#ff725e"/>
        <path id="Trazado_286461" data-name="Trazado 286461" d="M511.059,120.62a2.684,2.684,0,0,1-.738-1.313,3.688,3.688,0,0,1,1.438-3.584,9,9,0,0,1,5.9-.907c2.257.273,4.875.6,7.537,1.04a77.853,77.853,0,0,1,13.393,3.3c1.667.583,2.95,1.143,3.894,1.527l1.047.457a1.475,1.475,0,0,0,.369.14,1.629,1.629,0,0,0-.339-.2l-1.018-.524c-.892-.428-2.213-1.025-3.865-1.645a71.038,71.038,0,0,0-13.423-3.415c-2.677-.443-5.229-.738-7.567-1.018a9.161,9.161,0,0,0-6.107,1.033,3.769,3.769,0,0,0-1.423,3.82,2.514,2.514,0,0,0,.524,1.025C510.941,120.553,511.051,120.634,511.059,120.62Z" transform="translate(-347.428 -98.697)" fill="#263238"/>
        <path id="Trazado_286462" data-name="Trazado 286462" d="M457.822,115.97l18.3.833-1.881,5.045L454.4,120.115Z" transform="translate(-332.814 -99.114)" fill="#fff"/>
        <path id="Trazado_286463" data-name="Trazado 286463" d="M482.206,137.858c0-.1-8.046-1.8-18.017-3.806s-18.076-3.54-18.1-3.444,8.046,1.8,18.025,3.806S482.161,137.954,482.206,137.858Z" transform="translate(-330.633 -102.955)" fill="#263238"/>
        <path id="Trazado_286464" data-name="Trazado 286464" d="M463.61,262.038l5.163-9.322,19.891,25.444,27.723-34.22,4.056,10.436L498.937,292l-9.123-12.368-2.168.317-7.523,13.076Z" transform="translate(-335.232 -132.705)" fill="#e0e0e0"/>
        <path id="Trazado_286465" data-name="Trazado 286465" d="M515.948,293.387a6.644,6.644,0,0,1-.59.944c-.4.6-.974,1.475-1.659,2.552a74.1,74.1,0,0,0-4.816,8.916l-.148.317-.192-.3-.568-.9c-2.345-3.533-4.735-6.556-6.343-8.85-.819-1.128-1.475-2.058-1.873-2.714a6.288,6.288,0,0,1-.62-1.047,8.116,8.116,0,0,1,.737.959l1.969,2.648c1.667,2.213,4.093,5.222,6.446,8.784.2.31.4.612.575.9h-.332a62.783,62.783,0,0,1,4.941-8.894c.737-1.077,1.328-1.925,1.763-2.493A6.453,6.453,0,0,1,515.948,293.387Z" transform="translate(-344.558 -145.402)" fill="#263238"/>
        <path id="Trazado_286466" data-name="Trazado 286466" d="M550.963,163.47a2.456,2.456,0,0,1,.524.56,8.849,8.849,0,0,1,1.084,1.8,10.2,10.2,0,0,1-3.157,12.538,8.908,8.908,0,0,1-1.807,1.062,2.433,2.433,0,0,1-.737.251,20.167,20.167,0,0,0,2.367-1.527,10.325,10.325,0,0,0,3.075-12.184,19.9,19.9,0,0,0-1.35-2.5Z" transform="translate(-357.087 -111.582)" fill="#455a64"/>
        <path id="Trazado_286467" data-name="Trazado 286467" d="M487.727,286.657a.613.613,0,0,1-.1.266l-.332.738c-.3.656-.737,1.608-1.372,2.8a91.719,91.719,0,0,1-5.576,9.352l-.148.3-.14-.258-4.58-8.474c-3.216-6-6.121-11.439-8.245-15.429-1.025-1.947-1.859-3.547-2.463-4.691l-.649-1.291a2.815,2.815,0,0,1-.207-.457,2.393,2.393,0,0,1,.273.42l.737,1.254,2.567,4.639,8.282,15.34c1.608,3.009,3.149,5.9,4.55,8.489h-.3a104.837,104.837,0,0,0,5.679-9.256l1.475-2.744.383-.738A1.108,1.108,0,0,1,487.727,286.657Z" transform="translate(-335.313 -139.417)" fill="#263238"/>
        <path id="Trazado_286468" data-name="Trazado 286468" d="M375.175,351.46l-10.613,30.415-15.9-18.5L327.51,376.513l26.912,36c7.287,10.384,19.308,13.644,25.879,12.073,13.393-3.193,20.525-20.532,20.525-20.532l-.081-16.609L397.89,362.81Z" transform="translate(-299.507 -160.928)" fill="#455a64"/>
        <path id="Trazado_286469" data-name="Trazado 286469" d="M392.68,309.1s40.865,44.4,49.251,52.533c4,3.879,12.449,9.086,12.449,9.086l-12.67,1.475Z" transform="translate(-316.613 -149.809)" fill="#e0e0e0"/>
        <g id="Grupo_874798" data-name="Grupo 874798" transform="translate(63.765 225.505)" opacity="0.3">
          <path id="Trazado_286470" data-name="Trazado 286470" d="M376,398.969s16.756,3.9,28.188,4.528,41.3.435,41.3.435l-5.9-5.052Z" transform="translate(-376 -398.88)"/>
        </g>
        <path id="Trazado_286471" data-name="Trazado 286471" d="M362.8,300.7,289.54,298.91l63.735,73.839,67.622,1.844Z" transform="translate(-289.54 -147.134)" fill="#263238"/>
        <path id="Trazado_286472" data-name="Trazado 286472" d="M336.894,337.32a3.4,3.4,0,0,0-3.688-3.415c-1.077.081-2.485.214-4.219.45-4.469.6-17.567,7.574-17.833,10.229-.391,3.894,1.623,5.325,1.623,5.325s-2.485,3.525-1.431,6.343c.9,2.412,4.831,3.12,4.831,3.12s-2.78,3.466.288,5.767c1.069.8,3.208,2.323,3.688,2.847a9.49,9.49,0,0,0,.885,2.05,7.906,7.906,0,0,0,5.819,3.09l.737.044a5.76,5.76,0,0,0,3.983-1.291c5.067-4.152,19.389-16.151,19.581-19.352,0,0,2.729-2.279,1.541-4.528s-5.325-1.114-5.325-1.114a3.429,3.429,0,0,0,.929-3.975c-1.047-2.367-8.459-1.91-11.8-1.357-2.67.435-10.119,1.9-10.119,1.9s9.853-3.747,10.384-5.465A2.908,2.908,0,0,0,336.894,337.32Z" transform="translate(-295.196 -156.317)" fill="#ffbf9d"/>
        <path id="Trazado_286473" data-name="Trazado 286473" d="M355.74,359.16a7.43,7.43,0,0,1-.988.642c-.642.391-1.593.937-2.788,1.571-2.375,1.283-5.745,2.906-9.543,4.514s-7.294,2.95-9.838,3.828c-1.268.45-2.3.8-3.024,1.033a5.949,5.949,0,0,1-1.128.324,7.558,7.558,0,0,1,1.084-.457l2.95-1.15c2.522-.966,6-2.308,9.787-3.916s7.161-3.186,9.588-4.425c1.2-.6,2.168-1.114,2.839-1.475a6.773,6.773,0,0,1,1.062-.487Z" transform="translate(-299.748 -162.949)" fill="#ff9a6c"/>
        <path id="Trazado_286474" data-name="Trazado 286474" d="M351.537,351.37a6.847,6.847,0,0,1-1.084.266c-.693.162-1.711.383-2.95.737-2.478.627-5.856,1.689-9.543,2.987-1.844.649-3.621,1.232-5.163,1.844s-2.95,1.232-4.13,1.77-2.08,1.018-2.714,1.342a6.776,6.776,0,0,1-1,.494,1.193,1.193,0,0,1,.229-.177c.155-.1.391-.258.7-.443.62-.369,1.527-.878,2.677-1.475s2.537-1.217,4.115-1.851,3.348-1.224,5.163-1.881a92.822,92.822,0,0,1,9.588-2.884c1.254-.295,2.279-.479,2.987-.6A6.023,6.023,0,0,1,351.537,351.37Z" transform="translate(-298.835 -160.904)" fill="#ff9a6c"/>
        <path id="Trazado_286475" data-name="Trazado 286475" d="M327.889,346.86a8.113,8.113,0,0,1-1.571.907c-1,.509-2.412,1.151-3.96,1.851s-2.95,1.379-3.938,1.888a10.827,10.827,0,0,1-1.63.789,7.265,7.265,0,0,1,1.475-1.018,41.618,41.618,0,0,1,3.909-1.991c1.556-.737,2.95-1.313,4-1.755a9.324,9.324,0,0,1,1.718-.671Z" transform="translate(-296.693 -159.721)" fill="#ff9a6c"/>
        <path id="Trazado_286476" data-name="Trazado 286476" d="M351.829,367.28a4.933,4.933,0,0,1-.664.8c-.45.5-1.121,1.2-1.977,2.036-1.7,1.689-4.211,3.85-6.9,6.306-.671.612-1.305,1.246-1.969,1.807a23.725,23.725,0,0,1-2,1.512,13.577,13.577,0,0,1-3.82,1.814,8.555,8.555,0,0,1-2.825.354,5.077,5.077,0,0,1-.737-.081q-.266-.044-.266-.066a7.548,7.548,0,0,1,1.04,0,9.16,9.16,0,0,0,2.751-.457,14.116,14.116,0,0,0,3.688-1.851,24.157,24.157,0,0,0,1.947-1.475c.649-.553,1.276-1.187,1.954-1.807,2.7-2.463,5.229-4.587,6.977-6.217.878-.811,1.571-1.475,2.05-1.947A5.994,5.994,0,0,1,351.829,367.28Z" transform="translate(-300.336 -165.081)" fill="#ff9a6c"/>
        <path id="Trazado_286477" data-name="Trazado 286477" d="M348.664,297.733l-32.163-.406a.738.738,0,0,0-.6,1.276l7.006,8.2,31.713.959a.738.738,0,0,0,.634-1.217l-6-8.489A.738.738,0,0,0,348.664,297.733Z" transform="translate(-296.397 -146.717)" fill="#e0e0e0"/>
        <path id="Trazado_286478" data-name="Trazado 286478" d="M322.641,307.027l-7.11-8.319a1.121,1.121,0,0,1,.87-1.859l32.155.406a1.129,1.129,0,0,1,.907.472l6,8.489a1.128,1.128,0,0,1-.922,1.777Zm25.938-9.064h0l-32.155-.406a.42.42,0,0,0-.324.693l6.9,8.076,31.58.959a.391.391,0,0,0,.361-.229.406.406,0,0,0,0-.435l-6-8.481A.435.435,0,0,0,348.579,297.964Z" transform="translate(-296.29 -146.593)" fill="#263238"/>
        <path id="Trazado_286479" data-name="Trazado 286479" d="M391.968,413.328a33.847,33.847,0,0,0,.052-4.167,18.829,18.829,0,0,0-10.886-15.731,31.607,31.607,0,0,0-3.924-1.423,1.268,1.268,0,0,1,.295,0c.184.037.465.066.819.162a17.211,17.211,0,0,1,2.95.981,18.438,18.438,0,0,1,11.063,15.96,16.48,16.48,0,0,1-.1,3.083,8.065,8.065,0,0,1-.14.826A1.172,1.172,0,0,1,391.968,413.328Z" transform="translate(-312.552 -171.569)" fill="#263238"/>
        <path id="Trazado_286480" data-name="Trazado 286480" d="M545.06,334.683s16.048,39.744,23.327,54.081c7.545,14.861,18.747,39.759,41.212,26.742,18.371-10.65,1.726-66.575,1.726-66.575L594.79,356.4,570.334,317.27Z" transform="translate(-356.612 -151.953)" fill="#455a64"/>
        <path id="Trazado_286481" data-name="Trazado 286481" d="M545.427,253.607a2.095,2.095,0,0,0-2.891-1.239c-1.7.8-4.211,2.729-4.8,7.124-.922,6.807.347,11.616-1.246,13.393s-21.609,3.2-23.158,6.121-.612,5.362-.679,6.8a2.109,2.109,0,0,1-.6,1.372,4.466,4.466,0,0,0-.974,5.553,2.161,2.161,0,0,1,.081,2.065,4.367,4.367,0,0,0,1.01,5.332,2.139,2.139,0,0,1,.465.679c.6,1.4,2.95,6.379,6.276,7.375a24.915,24.915,0,0,0,7.685.833,2.08,2.08,0,0,1,1.431.509c1.689,1.475,7.294,5.052,8.953,7.22,0,0,20.65-14.44,21.956-15.119,0,0-9.307-14.2-9.779-20.717-.494-6.947-4.868-15.038-3.688-21.55A12,12,0,0,0,545.427,253.607Z" transform="translate(-347.531 -134.864)" fill="#ffbf9d"/>
        <path id="Trazado_286482" data-name="Trazado 286482" d="M545.06,334.593s0-.037.111-.1l.347-.265,1.379-.981,5.2-3.643,18.135-12.574.147-.1.1.155c2.662,4.093,5.546,8.592,8.518,13.275l17.405,27.922c2.213,3.547,4.042,6.424,5.31,8.43l1.475,2.3.369.6a1.007,1.007,0,0,1,.111.214,2.042,2.042,0,0,1-.14-.192l-.4-.583c-.361-.531-.863-1.291-1.475-2.257-1.291-1.962-3.149-4.816-5.413-8.363-4.543-7.08-10.657-16.963-17.5-27.834-2.95-4.713-5.849-9.219-8.5-13.319l.251.052-18.209,12.464-5.258,3.555-1.409.937-.369.236Z" transform="translate(-356.612 -151.864)" fill="#263238"/>
        <path id="Trazado_286483" data-name="Trazado 286483" d="M633.6,393.89a3.511,3.511,0,0,1-.4-.664c-.273-.516-.6-1.128-.973-1.851a32.853,32.853,0,0,0-3.688-5.782,14.868,14.868,0,0,0-5.384-4.123,19.1,19.1,0,0,0-2.714-.826,2.39,2.39,0,0,1,.774.037,9.492,9.492,0,0,1,2.043.538,14.094,14.094,0,0,1,5.568,4.123,28.237,28.237,0,0,1,3.688,5.9c.384.8.671,1.475.863,1.91a2.766,2.766,0,0,1,.221.738Z" transform="translate(-376.398 -168.585)" fill="#263238"/>
      </g>
    </g>
  </g>
</svg>
