<svg xmlns="http://www.w3.org/2000/svg" xmlns:xlink="http://www.w3.org/1999/xlink" width="484.311" height="497.275" viewBox="0 0 484.311 497.275">
  <defs>
    <linearGradient id="linear-gradient" x1="0.5" x2="0.5" y2="1" gradientUnits="objectBoundingBox">
      <stop offset="0" stop-color="#81b722"/>
      <stop offset="1" stop-color="#169788"/>
    </linearGradient>
  </defs>
  <g id="Grupo_894179" data-name="Grupo 894179" transform="translate(-870 -5944.516)">
    <g id="Grupo_874203" data-name="Grupo 874203" transform="translate(0 4860.461)">
      <g id="Grupo_894177" data-name="Grupo 894177">
        <g id="contenedor-01" transform="translate(822.961 1046.474)">
          <path id="Trazado_250994" data-name="Trazado 250994" d="M332.722,28.78H287.085L264.26,68.314l22.824,39.534h45.637l22.825-39.534Z" transform="translate(16.89 9.286)" fill="none" stroke="#addbd5" stroke-miterlimit="10" stroke-width="0.97"/>
          <path id="Trazado_250995" data-name="Trazado 250995" d="M477.042,264.12H431.4L408.58,303.642,431.4,343.176h45.637l22.825-39.534Z" transform="translate(30.924 36.824)" fill="none" stroke="#addbd5" stroke-miterlimit="10" stroke-width="0.97"/>
          <path id="Trazado_250996" data-name="Trazado 250996" d="M469.243,163.9H446.314L434.85,183.754l11.464,19.866h22.929l11.465-19.866Z" transform="translate(33.977 21.303)" fill="none" stroke="#28965a" stroke-miterlimit="10" stroke-width="0.97" opacity="0.3"/>
          <path id="Trazado_250997" data-name="Trazado 250997" d="M74.883,314.66H51.954L40.49,334.526,51.954,354.38H74.883l11.464-19.854Z" transform="translate(19.158 45.481)" fill="none" stroke="#addbd5" stroke-miterlimit="10" stroke-width="0.97"/>
          <path id="Trazado_250998" data-name="Trazado 250998" d="M196.943,25.29H174.015L162.55,45.144,174.015,65.01h22.929l11.465-19.866Z" transform="translate(-41.249 77.365)" fill="none" stroke="#28965a" stroke-miterlimit="10" stroke-width="0.97" opacity="0.3"/>
          <path id="Trazado_250999" data-name="Trazado 250999" d="M333.913,441.01H310.984L299.52,460.864l11.465,19.854h22.929l11.464-19.854Z" transform="translate(123.358 -33.997)" fill="none" stroke="#2ceaa3" stroke-miterlimit="10" stroke-width="0.97" opacity="0.5"/>
          <path id="Trazado_251000" data-name="Trazado 251000" d="M256.026,414.21H222.131L205.19,443.567l16.941,29.357h33.895l16.941-29.357Z" transform="translate(21.359 61.446)" fill="none" stroke="#28965a" stroke-miterlimit="10" stroke-width="0.97" opacity="0.3"/>
          <g id="OBJECTS" transform="translate(47.039 71.846)">
            <path id="Trazado_251006" data-name="Trazado 251006" d="M113.93,177.709h1.16l.58-1.009" transform="translate(-40.316 -48.49)" fill="none" stroke="#28965a" stroke-miterlimit="10" stroke-width="0.98"/>
            <line id="Línea_431" data-name="Línea 431" y1="58.286" x2="33.651" transform="translate(76.503 67.951)" fill="none" stroke="#28965a" stroke-miterlimit="10" stroke-width="0.98" stroke-dasharray="1.97 1.97"/>
            <path id="Trazado_251007" data-name="Trazado 251007" d="M145.91,124.187l.58-1-.58-1.01" transform="translate(-35.187 -57.234)" fill="none" stroke="#28965a" stroke-miterlimit="10" stroke-width="0.98"/>
            <path id="Trazado_251052" data-name="Trazado 251052" d="M410.681,72.3H170.554L50.49,280.25,170.554,488.212H410.681L530.745,280.25Z" transform="translate(-50.49 -65.233)" fill="#169788" opacity="0.3"/>
            <path id="Trazado_251053" data-name="Trazado 251053" d="M403.453,80.75h-228.8L60.25,278.9l114.4,198.157h228.8L517.855,278.9Z" transform="translate(-48.925 -63.878)" fill="#81b722"/>
            <path id="Trazado_251054" data-name="Trazado 251054" d="M398.492,85.04H177.464L66.95,276.455,177.464,467.87H398.492L509.017,276.455Z" transform="translate(-47.85 -63.19)" fill="#f3f9ff"/>
            <path id="Trazado_251056" data-name="Trazado 251056" d="M140.647,365.77H94.162L70.92,406.023l23.242,40.253h46.485l23.242-40.253Z" transform="translate(-47.214 -18.169)" fill="none" stroke="#6bffb8" stroke-miterlimit="10" stroke-width="0.98" stroke-dasharray="2"/>
            <path id="Trazado_251058" data-name="Trazado 251058" d="M425.469,66.21h-42.98L361.01,103.435l21.478,37.213h42.98l21.49-37.213Z" transform="translate(-0.691 -66.21)" fill="none" stroke="#6bffb8" stroke-miterlimit="10" stroke-width="0.98" stroke-dasharray="2"/>
            <path id="Trazado_251055" data-name="Trazado 251055" d="M135.213,372.11H97.234l-18.984,32.9,18.984,32.9h37.979l19-32.9Z" transform="translate(-11.818 -39.227)" opacity="0.6" fill="url(#linear-gradient)"/>
            <path id="Trazado_251057" data-name="Trazado 251057" d="M427.572,63.76H381.308L358.17,103.828,381.308,143.9h46.264l23.138-40.068Z" transform="translate(-4.442 -56.693)" opacity="0.7" fill="url(#linear-gradient)"/>
          </g>
        </g>
      </g>
    </g>
    <g id="freepik--Character--inject-156" transform="translate(827.334 6026.096)">
      <path id="Trazado_286520" data-name="Trazado 286520" d="M644.34,144.685a105.389,105.389,0,0,0,10.687-14.537,36.615,36.615,0,0,0,5.264-17.08c0-.914-.369-7.246-1.249-7.5-.625-.182-1.056,5.411-1.567,5.815-4.906,3.839-8.092,9.534-9.926,15.485a81.677,81.677,0,0,0-3.208,17.819" transform="translate(-225.046 -18.148)" fill="#263238"/>
      <path id="Trazado_286521" data-name="Trazado 286521" d="M555.832,165.873c1.533-3.975,9.085-23.849,9.046-23.849s-13.009-6.769-8.518-20.556c2.158-6.661,7.717-20.011,12.884-32.037a27,27,0,0,1,33.44-14.906l1.323.449c14,5.678,17.035,20.709,10.976,34.547L587.16,173.971l-24.383-7.535Z" transform="translate(-186.615 -4.119)" fill="#ffbf9d"/>
      <path id="Trazado_286522" data-name="Trazado 286522" d="M571.057,194.5a35.214,35.214,0,0,0,19.653.75s-7.734,8.739-21.01,2.879Z" transform="translate(-192.789 -56.583)" fill="#ff9a6c"/>
      <path id="Trazado_286523" data-name="Trazado 286523" d="M579.642,124.282a2.073,2.073,0,0,0,1.221,2.618,1.982,1.982,0,0,0,2.618-1.085,2.067,2.067,0,0,0-1.221-2.618,1.976,1.976,0,0,0-2.618,1.085Z" transform="translate(-197.036 -25.699)" fill="#263238"/>
      <path id="Trazado_286524" data-name="Trazado 286524" d="M581.5,112.846c.159.341,2.016-.261,4.122.46s3.3,2.271,3.611,2.112c.153-.074.062-.619-.449-1.34a5.644,5.644,0,0,0-2.782-2,5.428,5.428,0,0,0-3.407-.045C581.78,112.306,581.422,112.693,581.5,112.846Z" transform="translate(-197.884 -20.833)" fill="#263238"/>
      <path id="Trazado_286525" data-name="Trazado 286525" d="M612.231,137.39A2.061,2.061,0,0,0,613.452,140a1.976,1.976,0,0,0,2.618-1.085,2.073,2.073,0,0,0-1.221-2.618,1.982,1.982,0,0,0-2.618,1.09Z" transform="translate(-211.119 -31.363)" fill="#263238"/>
      <path id="Trazado_286526" data-name="Trazado 286526" d="M617.392,126.635c.153.341,2.016-.256,4.122.46s3.293,2.271,3.611,2.118c.148-.079.062-.625-.449-1.34a5.678,5.678,0,0,0-2.788-2.01,5.411,5.411,0,0,0-3.407-.045C617.687,126.1,617.313,126.482,617.392,126.635Z" transform="translate(-213.395 -26.792)" fill="#263238"/>
      <path id="Trazado_286527" data-name="Trazado 286527" d="M590.653,138.367a14.972,14.972,0,0,0-3.22-1.772c-.517-.238-.994-.517-.96-.92a3.23,3.23,0,0,1,.9-1.471l2.981-3.566c4.185-5.111,7.41-9.352,7.2-9.523s-3.765,3.827-7.95,8.921c-1.016,1.261-1.993,2.459-2.919,3.611a3.426,3.426,0,0,0-.994,2.021,1.436,1.436,0,0,0,.619,1.085,4.037,4.037,0,0,0,.874.437A14.246,14.246,0,0,0,590.653,138.367Z" transform="translate(-199.699 -24.867)" fill="#263238"/>
      <path id="Trazado_286528" data-name="Trazado 286528" d="M597.938,157.756c-.341-.131-1.136,2.158-3.623,3.117s-4.866-.108-4.991.2c-.08.131.4.625,1.414,1.005a6.059,6.059,0,0,0,4.122-.04,5.252,5.252,0,0,0,2.89-2.663C598.159,158.46,598.1,157.8,597.938,157.756Z" transform="translate(-201.266 -40.701)" fill="#263238"/>
      <path id="Trazado_286529" data-name="Trazado 286529" d="M622.69,111.93c0,.642,2.215,1.085,4.588,2.215s4.151,2.487,4.651,2.084c.227-.2.062-.857-.568-1.7a8.83,8.83,0,0,0-7.036-3.276C623.3,111.328,622.7,111.629,622.69,111.93Z" transform="translate(-215.689 -20.604)" fill="#263238"/>
      <path id="Trazado_286530" data-name="Trazado 286530" d="M587.211,100.869c.21.608,1.828.568,3.583,1.136s3.123,1.414,3.628,1.028c.233-.193.165-.75-.329-1.425a5.468,5.468,0,0,0-5.815-1.766C587.495,100.153,587.126,100.579,587.211,100.869Z" transform="translate(-200.351 -15.573)" fill="#263238"/>
      <path id="Trazado_286531" data-name="Trazado 286531" d="M648.392,154.5c.273,0,10.374.392,6.911,9.653s-12.078,3.89-11.993,3.617S648.392,154.5,648.392,154.5Z" transform="translate(-224.6 -39.297)" fill="#ffbf9d"/>
      <path id="Trazado_286532" data-name="Trazado 286532" d="M650.6,168.422c.051,0,.119.176.346.4a1.7,1.7,0,0,0,1.2.477c1.136,0,2.521-1.244,3.191-2.9a5.678,5.678,0,0,0,.414-2.487,1.976,1.976,0,0,0-.755-1.7.874.874,0,0,0-1.136.085c-.221.216-.233.42-.284.42s-.142-.233.074-.568a1.136,1.136,0,0,1,.568-.449,1.312,1.312,0,0,1,.982.1,2.436,2.436,0,0,1,1.136,2.073,5.924,5.924,0,0,1-.409,2.8c-.761,1.845-2.368,3.242-3.856,3.129a1.874,1.874,0,0,1-1.391-.8C650.528,168.661,650.556,168.428,650.6,168.422Z" transform="translate(-227.735 -42.384)" fill="#ff9a6c"/>
      <path id="Trazado_286533" data-name="Trazado 286533" d="M600.531,75.25c-1.181-1.4,5.173-4.543,9.494-4.781,6.53-.386,15.621,1.317,20.187,4.741,5.508,4.117,9.454,9.159,10.4,15.968a39.015,39.015,0,0,1-3.044,20.152,11.84,11.84,0,0,1-3.475,5.15c-2.073,1.55-5.048,1.885-6.025,4.753a4.145,4.145,0,0,1-2.044,2.453c-2.385,1.136-3.8-1.334-4.105-3.407-.642-4.406.789-8.818,2.2-13.06,1.005-3,2.044-6.059,3.975-8.574,1.045-1.368,2.328-2.544,3.3-3.975a6.026,6.026,0,0,0,1.136-4.872,5.848,5.848,0,0,0-.46-1.05,10.34,10.34,0,0,0-8.87-5.5c-5.922-.153-15.9-.818-17.518-3.475-2.368-3.827-2.533-5.792-2.533-5.792Z" transform="translate(-206.051 -2.958)" fill="#263238"/>
      <path id="Trazado_286534" data-name="Trazado 286534" d="M610.023,66.585c.6.3,14.548,8.921,14.457,21.493s-2.391,15.65-2.391,15.65a7.733,7.733,0,0,1,1.136,1.9c.375.954-1.766,4.191-3.6,3.112-12.526-11.624-29.789-18.3-49.481-24.417L555.29,79c-4.35-.948-5.434-2.567-3.31-3,1.63-.341,15.121-1.022,15.121-1.022l2.913-.9,9.085-6.422s-.352-1.454,1.493-1.925S598.292,60.623,610.023,66.585Z" transform="translate(-184.676 0)" fill="#ff725e"/>
      <path id="Trazado_286535" data-name="Trazado 286535" d="M584.52,82.12s.2.079.568.2l1.7.534c1.465.437,3.549,1.175,6.116,2.118a122.161,122.161,0,0,1,19.142,9.358,187.315,187.315,0,0,1,17.6,12.072c2.18,1.652,3.912,3.027,5.11,3.975l1.391,1.085c.318.244.494.363.494.363s-.153-.148-.466-.409l-1.357-1.136c-1.187-.965-2.907-2.362-5.071-4.032a174.526,174.526,0,0,0-17.6-12.152,116.635,116.635,0,0,0-19.238-9.307,87.761,87.761,0,0,0-8.393-2.674Z" transform="translate(-199.194 -8.017)" fill="#263238"/>
      <g id="Grupo_874802" data-name="Grupo 874802" transform="translate(402.237 68.453)" opacity="0.3">
        <path id="Trazado_286536" data-name="Trazado 286536" d="M648.961,81.726s-15.4-8.245-23.906-7.246l1-.136L618.1,75c-1.346.114-2.885.153-3.8-.829a34.171,34.171,0,0,1,12.436-2C634.35,72.209,645.525,74.912,648.961,81.726Z" transform="translate(-614.3 -72.169)"/>
      </g>
      <path id="Trazado_286537" data-name="Trazado 286537" d="M643.2,81.271a12.4,12.4,0,0,0-1.136-1.459,21.526,21.526,0,0,0-3.736-3.373,25.4,25.4,0,0,0-6.638-3.407,21.39,21.39,0,0,0-9.034-1.255,37.581,37.581,0,0,0-4.679.772c-1.488.335-2.936.568-4.3.965a23.094,23.094,0,0,1-3.85.92,7.438,7.438,0,0,1-3.373-.449c-4.026-1.323-6.2-3-5.928-3.186a.659.659,0,0,0,.21.426,5.39,5.39,0,0,0,1.09.823,23.377,23.377,0,0,0,4.577,2.107,7.7,7.7,0,0,0,3.453.488,23.228,23.228,0,0,0,3.9-.892c1.34-.369,2.805-.619,4.293-.954a39.831,39.831,0,0,1,4.645-.75,21.527,21.527,0,0,1,8.932,1.221,25.983,25.983,0,0,1,6.61,3.322,22.8,22.8,0,0,1,3.765,3.288c.4.437.7.789.9,1.033A3.777,3.777,0,0,0,643.2,81.271Z" transform="translate(-206.099 -3.124)" fill="#263238"/>
      <g id="Grupo_874803" data-name="Grupo 874803" transform="translate(417.466 78.782)" opacity="0.3">
        <path id="Trazado_286538" data-name="Trazado 286538" d="M663.277,104.851c-2.919-1.028-4.872-2.544-7.558-4.179-2.839-1.738-5.741-3.328-8.518-5.2-2.107-1.42-4.656-2.919-5.593-5.111a3.572,3.572,0,0,0-.051,3.515c.6,1.136,3.123,3.163,4.2,3.9,6.138,4.174,10.4,7.024,17.262,9.926a21.415,21.415,0,0,0,.25-2.839" transform="translate(-641.12 -90.36)"/>
      </g>
      <path id="Trazado_286539" data-name="Trazado 286539" d="M663.551,97.386c1.579,1.437,2.527,2.368,2.039,3.975-.4,1.329-1.221,2.839-2.6,2.629a3.35,3.35,0,0,1-1.136-.5L643.052,92.48a3.117,3.117,0,0,1-1.556-1.5,2.16,2.16,0,0,1,1.652-2.533,5.713,5.713,0,0,1,3.322.375,71.087,71.087,0,0,1,17.081,8.557" transform="translate(-223.781 -10.699)" fill="#ff725e"/>
      <path id="Trazado_286540" data-name="Trazado 286540" d="M641.63,90.87a2.084,2.084,0,0,1-.239-1.068,2.675,2.675,0,0,1,1.7-2.271,6.606,6.606,0,0,1,4.367.5c1.567.636,3.333,1.357,5.111,2.18a56.782,56.782,0,0,1,8.841,4.906c1.068.732,1.891,1.38,2.464,1.828l.647.528a1.377,1.377,0,0,0,.239.17,2.043,2.043,0,0,0-.2-.21l-.619-.568c-.568-.471-1.357-1.136-2.419-1.9a51.938,51.938,0,0,0-8.841-4.991c-1.806-.829-3.549-1.545-5.15-2.175a6.747,6.747,0,0,0-4.543-.443,2.765,2.765,0,0,0-1.738,2.436,1.794,1.794,0,0,0,.176.823A.941.941,0,0,0,641.63,90.87Z" transform="translate(-223.71 -10.18)" fill="#263238"/>
      <path id="Trazado_286541" data-name="Trazado 286541" d="M593.07,74.36l12.782,4.094-2.3,3.208-13.7-5.031Z" transform="translate(-201.497 -4.663)" fill="#fff"/>
      <path id="Trazado_286542" data-name="Trazado 286542" d="M604.144,96.634c.028-.068-5.349-2.839-12.021-6.144S580,84.511,580,84.579s5.349,2.839,12.021,6.144S604.11,96.7,604.144,96.634Z" transform="translate(-197.24 -9.079)" fill="#263238"/>
      <path id="Trazado_286543" data-name="Trazado 286543" d="M548.105,210.712l.17-8.393-28.721,10.67s-5.309-17.245-5.309-18.057l-6.365,3.975L497.3,194.364l-10.579-5.224-21.4,37.477L442.88,292.793l52.877,35.274,39.215-42.02,23.849-36.341L571.926,226.7Z" transform="translate(-137.982 -54.267)" fill="#ff725e"/>
      <path id="Trazado_286544" data-name="Trazado 286544" d="M566.016,220.74a5.754,5.754,0,0,1-.04-.84c0-.568,0-1.374-.034-2.351l.131.079a35.984,35.984,0,0,0-8.648,5.923l-.227.216v-.312c0-.375-.045-.772-.068-1.175-.233-4.117-.426-7.842-.568-10.545-.057-1.317-.1-2.4-.136-3.2v-.869a.153.153,0,1,1,.057,0c0,.227.045.517.08.863.057.8.131,1.88.221,3.191.182,2.7.4,6.422.636,10.539,0,.4.045.8.062,1.175l-.244-.1A33.934,33.934,0,0,1,566,217.464l.136-.057v.142c0,.977-.04,1.766-.051,2.351A5.727,5.727,0,0,1,566.016,220.74Z" transform="translate(-186.998 -62.143)" fill="#263238"/>
      <path id="Trazado_286545" data-name="Trazado 286545" d="M604.307,227.84a1.607,1.607,0,0,1-.329.176l-.96.46-3.555,1.63-11.788,5.27-5.6,2.476-.238.1.045-.256a44.13,44.13,0,0,0,.647-8.063l.131.079L580.01,231l-.71.329c-.159.074-.244.108-.25.1a1.075,1.075,0,0,1,.227-.142l.687-.375,2.618-1.363.125-.068v.153a41.255,41.255,0,0,1-.568,8.137l-.193-.153,5.593-2.487,11.822-5.2,3.6-1.545.982-.4A1.6,1.6,0,0,1,604.307,227.84Z" transform="translate(-196.83 -70.992)" fill="#263238"/>
      <rect id="Rectángulo_44898" data-name="Rectángulo 44898" width="232.835" height="166.307" rx="14.57" transform="translate(132.702 114.851)" fill="#455a64"/>
      <path id="Trazado_286546" data-name="Trazado 286546" d="M123.6,427.84H375.861v4.446a10.107,10.107,0,0,1-10.107,10.107H133.707A10.108,10.108,0,0,1,123.6,432.286V427.84Z" transform="translate(0 -157.425)" fill="#455a64"/>
      <rect id="Rectángulo_44899" data-name="Rectángulo 44899" width="219.684" height="140.443" transform="translate(138.954 121.461)" fill="#263238"/>
      <path id="Trazado_286547" data-name="Trazado 286547" d="M304.23,425.1l3.129,5.377h44.047l2.907-5.377Z" transform="translate(-78.062 -156.241)" fill="#263238"/>
      <rect id="Rectángulo_44900" data-name="Rectángulo 44900" width="211.087" height="135.236" rx="3.27" transform="translate(143.474 126.214)" fill="#ebebeb"/>
      <path id="Trazado_286548" data-name="Trazado 286548" d="M369.3,317.017H158.21l.221-125.327H369.3Z" transform="translate(-14.957 -55.369)" fill="#fafafa"/>
      <path id="Trazado_286549" data-name="Trazado 286549" d="M187.2,181.7a1.738,1.738,0,1,1-1.738-1.823A1.783,1.783,0,0,1,187.2,181.7Z" transform="translate(-25.983 -50.265)" fill="#263238"/>
      <path id="Trazado_286550" data-name="Trazado 286550" d="M168.637,181.7a1.738,1.738,0,1,1-1.738-1.823A1.783,1.783,0,0,1,168.637,181.7Z" transform="translate(-17.962 -50.265)" fill="#263238"/>
      <path id="Trazado_286551" data-name="Trazado 286551" d="M178.177,181.7a1.738,1.738,0,1,1-1.738-1.823,1.783,1.783,0,0,1,1.738,1.823Z" transform="translate(-22.085 -50.265)" fill="#263238"/>
      <path id="Trazado_286552" data-name="Trazado 286552" d="M370.466,424.975c0,.091-51.673.159-115.412.159s-115.424-.068-115.424-.159,51.673-.165,115.424-.165S370.466,424.884,370.466,424.975Z" transform="translate(-6.928 -156.115)" fill="#263238"/>
      <path id="Trazado_286553" data-name="Trazado 286553" d="M280.706,221.848a45.035,45.035,0,0,1,10.982-4.77l2.271-10.874,18.364-.324,2.646,10.789a45.217,45.217,0,0,1,11.141,4.384l9.284-6.082,13.214,12.759-5.746,9.5a44.977,44.977,0,0,1,4.77,10.988l10.868,2.271.324,18.364L348.034,271.5a45,45,0,0,1-4.389,11.107l6.087,9.284L336.973,305.1l-9.488-5.752a44.977,44.977,0,0,1-10.988,4.77L314.225,315l-18.369.318-2.64-10.789a44.912,44.912,0,0,1-11.113-4.355l-9.284,6.087L259.605,293.5l5.752-9.489a44.994,44.994,0,0,1-4.776-10.988l-10.868-2.271-.324-18.364,10.789-2.646a45.128,45.128,0,0,1,4.384-11.141l-6.082-9.284L271.24,216.1Zm9.789,24.468a13.936,13.936,0,1,1,0,.017Z" transform="translate(-54.362 -61.501)" fill="#e0e0e0"/>
      <path id="Trazado_286554" data-name="Trazado 286554" d="M430.967,234.062a15.724,15.724,0,0,1,1.278-3.924l-2.271-3.066,4.111-4.815,3.407,1.783a15.54,15.54,0,0,1,3.674-1.868l.568-3.787,6.309-.494,1.136,3.651a15.507,15.507,0,0,1,3.924,1.283l3.066-2.271,4.815,4.117-1.783,3.407a15.49,15.49,0,0,1,1.874,3.68l3.782.568.494,6.314-3.651,1.136a15.359,15.359,0,0,1-1.283,3.924l2.271,3.072-4.111,4.81-3.407-1.783a15.49,15.49,0,0,1-3.68,1.874l-.568,3.787-6.309.494-1.136-3.657a15.5,15.5,0,0,1-3.924-1.278l-3.072,2.271-4.8-4.162,1.783-3.407a15.6,15.6,0,0,1-1.874-3.68l-3.782-.568-.494-6.314,3.651-1.136Zm8.557,1.914a6.814,6.814,0,1,0,5.587-6.064,6.814,6.814,0,0,0-5.587,6.064Z" transform="translate(-131.253 -66.692)" fill="#e0e0e0"/>
      <path id="Trazado_286555" data-name="Trazado 286555" d="M187.113,341.349a18.171,18.171,0,0,1,.789-4.81l-3.22-3.14,3.941-6.348,4.27,1.476a18.361,18.361,0,0,1,3.975-2.839l-.034-4.514,7.28-1.7,1.97,4.06a18.129,18.129,0,0,1,4.81.789l3.174-3.22,6.348,3.941-1.476,4.27a18.363,18.363,0,0,1,2.839,3.975l4.514-.034,1.7,7.274-4.066,1.959a18.41,18.41,0,0,1-.795,4.81l3.22,3.168-3.941,6.354-4.27-1.476a18.229,18.229,0,0,1-3.975,2.839l.034,4.514-7.274,1.7-1.976-4.06a18.172,18.172,0,0,1-4.793-.818l-3.169,3.22-6.354-3.941,1.476-4.27a18.363,18.363,0,0,1-2.839-3.975l-4.543.034-1.7-7.274,4.06-1.976Zm10.522,2.044a19.3,19.3,0,1,1,0,.017Z" transform="translate(-25.684 -110.591)" fill="#e0e0e0"/>
      <path id="Trazado_286556" data-name="Trazado 286556" d="M211.147,241.906a11.437,11.437,0,0,1,.965-2.958l-1.7-2.317,3.1-3.628,2.555,1.346a11.8,11.8,0,0,1,2.771-1.414l.42-2.839,4.758-.375.852,2.754a11.886,11.886,0,0,1,2.958.965l2.317-1.7,3.623,3.1-1.34,2.555a11.573,11.573,0,0,1,1.408,2.771l2.839.415.375,4.758-2.748.829a11.794,11.794,0,0,1-.96,2.958l1.7,2.311-3.1,3.628-2.555-1.346a11.59,11.59,0,0,1-2.771,1.414l-.415,2.839-4.758.369-.857-2.754a11.511,11.511,0,0,1-2.958-.965l-2.311,1.7-3.628-3.1,1.34-2.555a11.572,11.572,0,0,1-1.408-2.771l-2.839-.42-.369-4.758,2.754-.852Zm6.445,2.311a5.111,5.111,0,1,0,1.211-3.729A5.11,5.11,0,0,0,217.592,244.217Z" transform="translate(-36.652 -71.804)" fill="#ebebeb"/>
      <path id="Trazado_286557" data-name="Trazado 286557" d="M432.359,333.439a10.273,10.273,0,0,1,.829-2.544l-1.482-1.987,2.663-3.117,2.2,1.136a10,10,0,0,1,2.379-1.215l.358-2.453,4.088-.318.733,2.368a10.039,10.039,0,0,1,2.544.829l1.987-1.482,3.117,2.663-1.136,2.192a10.048,10.048,0,0,1,1.215,2.385l2.453.358.318,4.088-2.368.733a10.037,10.037,0,0,1-.829,2.544l1.482,1.987-2.663,3.112-2.192-1.136a10.263,10.263,0,0,1-2.385,1.215l-.358,2.447-4.088.318-.733-2.362a10.275,10.275,0,0,1-2.544-.829l-1.987,1.482-3.129-2.663L433.966,341a10,10,0,0,1-1.215-2.379l-2.447-.358-.324-4.088,2.368-.732Zm5.536,1.982a4.4,4.4,0,1,0,4.02-4.724,4.4,4.4,0,0,0-4.02,4.724Z" transform="translate(-132.407 -112.091)" fill="#ebebeb"/>
      <path id="Trazado_286558" data-name="Trazado 286558" d="M317.039,300.629H288.8a9.483,9.483,0,0,1-8.205-14.2l14.128-24.468L308.845,237.5a9.483,9.483,0,0,1,16.416,0l14.128,24.468,14.128,24.468a9.483,9.483,0,0,1-8.211,14.2Z" transform="translate(-67.306 -73.119)" fill="#ff725e"/>
      <path id="Trazado_286559" data-name="Trazado 286559" d="M352.527,293.507s.074.142.216.437a3.884,3.884,0,0,1-.375,3.646,3.833,3.833,0,0,1-1.062,1.056,3.464,3.464,0,0,1-1.624.534c-4.815.051-11.766.04-20.363.062l-30.2.034h-4.316a3.719,3.719,0,0,1-3.481-2.521,4.055,4.055,0,0,1-.142-2.271c.045-.187.108-.375.17-.568a3.763,3.763,0,0,1,.25-.528l.568-.994c.727-1.334,1.465-2.674,2.2-4.032l9.153-16.8,9.21-16.791q2.22-4.071,4.372-7.989c.363-.647.7-1.3,1.085-1.942a4.366,4.366,0,0,1,1.59-1.579,4.673,4.673,0,0,1,4.27-.193,4.469,4.469,0,0,1,1.7,1.351,17.039,17.039,0,0,1,1.051,1.834c.664,1.215,1.323,2.413,1.965,3.594q1.942,3.543,3.753,6.876c2.425,4.435,4.679,8.569,6.734,12.339,4.111,7.547,7.433,13.656,9.733,17.887l2.635,4.866c.3.568.522.977.676,1.272l.227.437s-.091-.142-.25-.426l-.7-1.255L348.893,287c-2.317-4.219-5.678-10.306-9.812-17.836l-6.763-12.328-3.77-6.865c-.647-1.181-1.3-2.379-1.97-3.594a18.3,18.3,0,0,0-1.039-1.783,4.224,4.224,0,0,0-1.59-1.266,4.395,4.395,0,0,0-4.02.182A4.151,4.151,0,0,0,318.44,245c-.375.619-.715,1.283-1.073,1.931l-4.372,7.989c-2.964,5.428-6.042,11.044-9.188,16.8l-9.193,16.791c-.744,1.357-1.476,2.7-2.209,4.032a8.461,8.461,0,0,0-.937,2.01,3.776,3.776,0,0,0,.131,2.129,3.407,3.407,0,0,0,3.214,2.334h4.316l30.2.028,20.357.028a3.345,3.345,0,0,0,1.573-.5,3.765,3.765,0,0,0,1.051-1.022,3.873,3.873,0,0,0,.67-2.181A4.276,4.276,0,0,0,352.527,293.507Z" transform="translate(-72.381 -77.388)" fill="#263238"/>
      <path id="Trazado_286560" data-name="Trazado 286560" d="M337.67,303.479c0-2.5,2-4.372,4.844-4.372s4.8,1.868,4.8,4.372a4.494,4.494,0,0,1-4.8,4.457A4.554,4.554,0,0,1,337.67,303.479Zm.045-25.649h9.6l-1.613,18.9h-6.411Z" transform="translate(-92.514 -92.596)" fill="#fff"/>
      <path id="Trazado_286561" data-name="Trazado 286561" d="M340.966,235.669a7.665,7.665,0,0,0-1.794-.375,6.394,6.394,0,0,0-4.1,1.374,10.164,10.164,0,0,0-2.686,3.475c-.517,1.022-.761,1.7-.806,1.675a1.7,1.7,0,0,1,.119-.488,11.936,11.936,0,0,1,.5-1.278,9.568,9.568,0,0,1,2.709-3.623,6.246,6.246,0,0,1,4.293-1.34,4.207,4.207,0,0,1,1.346.329C340.824,235.55,340.978,235.652,340.966,235.669Z" transform="translate(-89.882 -74.119)" fill="#fff"/>
      <path id="Trazado_286562" data-name="Trazado 286562" d="M327.31,252.454a3.912,3.912,0,0,1,.619-1.363c.414-.7.806-1.232.88-1.192a3.863,3.863,0,0,1-.625,1.34,3.912,3.912,0,0,1-.874,1.215Z" transform="translate(-88.036 -80.524)" fill="#fff"/>
      <g id="Grupo_874804" data-name="Grupo 874804" transform="translate(214.192 174.69)" opacity="0.3">
        <path id="Trazado_286563" data-name="Trazado 286563" d="M332.854,259.26l-44,27.108-5.712,9.9,52.82-31.634Z" transform="translate(-283.14 -259.26)" fill="#fff"/>
      </g>
      <g id="Grupo_874805" data-name="Grupo 874805" transform="translate(212.512 186.705)" opacity="0.3">
        <path id="Trazado_286564" data-name="Trazado 286564" d="M338.5,280.42l-58.322,34.4a6.246,6.246,0,0,0,1.266,2.453L339.53,282.2Z" transform="translate(-280.18 -280.42)" fill="#fff"/>
      </g>
      <path id="Trazado_286569" data-name="Trazado 286569" d="M504.327,296.17a1.5,1.5,0,0,1-.187.426,10,10,0,0,1-.664,1.068,13.77,13.77,0,0,1-6.507,5,9.406,9.406,0,0,1-1.2.363,1.426,1.426,0,0,1-.454.074c0-.051.619-.221,1.584-.63a15.7,15.7,0,0,0,6.417-4.929C503.952,296.709,504.282,296.147,504.327,296.17Z" transform="translate(-160.64 -100.521)" fill="#263238"/>
      <path id="Trazado_286570" data-name="Trazado 286570" d="M561.655,325.082l-16.331-7.609-14.6-1.823,5.36,4.543s-18.875,6.581-19.2,8.063,1.488,5.468,4.815,4.73a5.656,5.656,0,0,0-1.09,4.775c.778,2.5,2.5,2.975,5.678,2.391,0,0-2.158,3.231-.466,4.878a5.564,5.564,0,0,0,4.327,1.232s.034,3.935,2.112,4.276a34.042,34.042,0,0,0,10.034-.727l10.988-3.407,7.121-1.6Z" transform="translate(-169.946 -108.94)" fill="#ffbf9d"/>
      <path id="Trazado_286571" data-name="Trazado 286571" d="M535.26,341.02c.062.216-2.112,1.033-4.849,1.834s-5.02,1.266-5.082,1.05,2.112-1.039,4.849-1.834S535.2,340.8,535.26,341.02Z" transform="translate(-173.613 -119.882)" fill="#ff9a6c"/>
      <path id="Trazado_286572" data-name="Trazado 286572" d="M541.663,354.684c.062.216-1.658.926-3.85,1.59s-4.026,1.016-4.094.8,1.664-.926,3.856-1.584S541.6,354.474,541.663,354.684Z" transform="translate(-177.238 -125.783)" fill="#ff9a6c"/>
      <path id="Trazado_286573" data-name="Trazado 286573" d="M546.938,365.978c.04.244-1.527.568-3.367,1.033s-3.276,1.136-3.407.9,1.221-1.17,3.18-1.7S546.909,365.779,546.938,365.978Z" transform="translate(-180.02 -130.621)" fill="#ff9a6c"/>
      <path id="Trazado_286574" data-name="Trazado 286574" d="M548.394,322.459c.062.221-2.078,1-4.73,1.914s-4.815,1.613-4.906,1.4,1.965-1.255,4.645-2.175S548.337,322.243,548.394,322.459Z" transform="translate(-179.415 -111.859)" fill="#ff9a6c"/>
      <path id="Trazado_286575" data-name="Trazado 286575" d="M586.049,329.74l35.37,12.81-2.067,24.275-38.942-15.7Z" transform="translate(-197.417 -115.029)" fill="#ffbf9d"/>
      <path id="Trazado_286576" data-name="Trazado 286576" d="M649.814,254.93a36.021,36.021,0,0,1,7.3,13.333c2.686,8.569,15.332,44.893,15.025,56.448-.335,11.953-8.381,20.482-26.064,15.757-10.55-2.839-23.122-7.382-23.122-7.382l8.938-29.38,6.99,1.8-11.289-21.192Z" transform="translate(-215.802 -82.699)" fill="#ff725e"/>
      <path id="Trazado_286577" data-name="Trazado 286577" d="M639.193,279.38c.068.051-4.827,7.018-10.925,15.564s-11.09,15.451-11.158,15.394,4.827-7.018,10.925-15.564S639.13,279.334,639.193,279.38Z" transform="translate(-213.277 -93.265)" fill="#263238"/>
      <path id="Trazado_286578" data-name="Trazado 286578" d="M662.061,346.493s-.307-.148-.857-.4a16.093,16.093,0,0,0-2.425-.857c-1.051-.29-2.323-.568-3.736-.869l-4.588-1.011c-3.254-.727-6.2-1.4-8.324-1.908l-2.516-.613a5.329,5.329,0,0,1-.914-.261,5.942,5.942,0,0,1,.937.153l2.538.517c2.141.454,5.111,1.1,8.347,1.823L655.1,344.1c1.408.318,2.68.613,3.731.931a13.934,13.934,0,0,1,2.419.954,5.791,5.791,0,0,1,.608.358.948.948,0,0,1,.2.148Z" transform="translate(-222.608 -119.71)" fill="#263238"/>
      <g id="Grupo_874807" data-name="Grupo 874807" transform="translate(422.804 222.382)" opacity="0.3">
        <path id="Trazado_286579" data-name="Trazado 286579" d="M676.209,348.945a4.378,4.378,0,0,0-2.43-3.248,11.771,11.771,0,0,0-4.066-1.09,188.411,188.411,0,0,0-19.193-1.357l.568.256a119.662,119.662,0,0,1,23.139,6.746,1.783,1.783,0,0,0,1.34.159A1.4,1.4,0,0,0,676.209,348.945Z" transform="translate(-650.52 -343.25)"/>
      </g>
      <g id="Grupo_874808" data-name="Grupo 874808" transform="translate(279.759 114.997)" opacity="0.3">
        <path id="Trazado_286580" data-name="Trazado 286580" d="M421.623,154.582c-5.962-1.016-13.094.715-19.057-.3a3.972,3.972,0,0,0-2.646.165,3.305,3.305,0,0,0-1.312,2.839,10.789,10.789,0,0,0,3.407,8.041,15.269,15.269,0,0,0,8.012,3.827,11.015,11.015,0,0,0,7.058-.823C420.811,166.308,422.6,158.676,421.623,154.582Z" transform="translate(-398.608 -154.137)"/>
      </g>
      <path id="Trazado_286581" data-name="Trazado 286581" d="M395.087,157.03s-3.617-4.242-4.14-6.2c-.346-1.295-.176-4.923,0-7.223a3.975,3.975,0,0,1,2.584-3.521,1.312,1.312,0,0,1,1.346.108,13.524,13.524,0,0,1,1.647-1.851c1.42-1.454,2.1-2.436,5.218-1.533,0,0,2.3-2.425,3.623-2.243a20.442,20.442,0,0,1,2.629.568s5.037-.216,6.07,1.386a4.616,4.616,0,0,0,2.271,1.516,6.246,6.246,0,0,1,3.594,3.276,13.009,13.009,0,0,1,1.005,4.389l-5.111.2s.363,11.76-.926,12.708-1.777.608-1.777.608-.982,2.76-4.815.721c0,0-3.18.96-4.543-.352s-6.348-13.912-6.348-13.912l.142,6.246s2.629,4.049,1.34,5S395.087,157.03,395.087,157.03Z" transform="translate(-115.451 -30.681)" fill="#ffbf9d"/>
      <path id="Trazado_286582" data-name="Trazado 286582" d="M409.63,146.06a3.974,3.974,0,0,1,.29.738l.693,2.044c.568,1.7,1.346,4.134,2.175,6.786a56.675,56.675,0,0,0,2.305,6.723,14.437,14.437,0,0,0,1.045,1.874c.278.426.454.642.437.659s-.062-.04-.153-.142a5.24,5.24,0,0,1-.375-.449,11.448,11.448,0,0,1-1.136-1.851,49.122,49.122,0,0,1-2.4-6.723c-.84-2.646-1.573-5.065-2.1-6.814-.238-.835-.443-1.527-.6-2.073A4.317,4.317,0,0,1,409.63,146.06Z" transform="translate(-123.612 -35.649)" fill="#ff9a6c"/>
      <path id="Trazado_286583" data-name="Trazado 286583" d="M420.7,143.5a3.786,3.786,0,0,1,.261.761l.608,2.107c.494,1.777,1.136,4.242,1.885,6.967s1.357,5.2,1.8,7c.21.852.38,1.567.517,2.124a3.943,3.943,0,0,1,.148.795,4.973,4.973,0,0,1-.261-.761c-.159-.568-.358-1.261-.6-2.107-.5-1.777-1.17-4.242-1.885-6.967s-1.357-5.2-1.806-7c-.2-.857-.38-1.567-.511-2.129a4.218,4.218,0,0,1-.153-.789Z" transform="translate(-128.396 -34.543)" fill="#ff9a6c"/>
    </g>
  </g>
</svg>
