<svg xmlns="http://www.w3.org/2000/svg" width="1241.5" height="674.867" viewBox="0 0 1241.5 674.867">
  <g id="Grupo_894175" data-name="Grupo 894175" transform="translate(-178.5 -480.525)">
    <path id="Trazado_622658" data-name="Trazado 622658" d="M0,0V123.415" transform="translate(516.09 898.172)" fill="none" stroke="#81b728" stroke-width="3"/>
    <path id="Trazado_622659" data-name="Trazado 622659" d="M0,0H55.582" transform="translate(180 1043.979)" fill="none" stroke="#81b728" stroke-width="3"/>
    <path id="Trazado_622620" data-name="Trazado 622620" d="M172.671,477.79H91V732.639h62.819" transform="translate(89 394.962)" fill="none" stroke="#81b728" stroke-miterlimit="10" stroke-width="3"/>
    <path id="Trazado_622660" data-name="Trazado 622660" d="M0,0V66.925" transform="translate(434.01 706.244)" fill="none" stroke="#81b728" stroke-width="3"/>
    <path id="Trazado_622621" data-name="Trazado 622621" d="M406.415,466V390H244.91v75.081" transform="translate(109.674 383.169)" fill="none" stroke="#81b728" stroke-miterlimit="10" stroke-width="3"/>
    <path id="Trazado_622661" data-name="Trazado 622661" d="M0,0V66.925" transform="translate(1255.16 706.244)" fill="none" stroke="#81b728" stroke-width="3"/>
    <path id="Trazado_622622" data-name="Trazado 622622" d="M1130.315,466V390H968.81v75.081" transform="translate(206.913 383.169)" fill="none" stroke="#81b728" stroke-miterlimit="10" stroke-width="3"/>
    <path id="Trazado_622662" data-name="Trazado 622662" d="M0,0V142.925" transform="translate(845.453 706.244)" fill="none" stroke="#81b728" stroke-width="3"/>
    <path id="Trazado_622623" data-name="Trazado 622623" d="M829.568,466V390H540.7v75.081" transform="translate(149.406 383.169)" fill="none" stroke="#81b728" stroke-miterlimit="10" stroke-width="3"/>
    <path id="Trazado_622663" data-name="Trazado 622663" d="M0,0V100.955" transform="translate(846.769 564.454)" fill="none" stroke="#81b728" stroke-width="3"/>
    <path id="Trazado_622624" data-name="Trazado 622624" d="M1191.421,525.584h-134.2a11.3,11.3,0,0,1-11.309-11.309V443.459a11.311,11.311,0,0,1,11.309-11.309h134.2a11.3,11.3,0,0,1,11.309,11.309v70.816A11.318,11.318,0,0,1,1191.421,525.584Z" transform="translate(217.269 388.832)" fill="#ea5330"/>
    <path id="Trazado_622625" data-name="Trazado 622625" d="M1035.51,527.683H906.231a13.77,13.77,0,0,1-13.771-13.771V448.031a13.77,13.77,0,0,1,13.771-13.771H1035.51a13.77,13.77,0,0,1,13.771,13.771v65.882A13.77,13.77,0,0,1,1035.51,527.683Z" transform="translate(196.657 389.115)" fill="#ea5330"/>
    <path id="Trazado_622626" data-name="Trazado 622626" d="M852.6,510.489H752.987a12.974,12.974,0,0,1-12.977-12.977V459.467a12.974,12.974,0,0,1,12.977-12.977H852.6a12.974,12.974,0,0,1,12.977,12.977v38.045A12.981,12.981,0,0,1,852.6,510.489Z" transform="translate(176.179 390.758)" fill="#ea5330"/>
    <path id="Trazado_622627" data-name="Trazado 622627" d="M735.862,510.09H618.425a11.275,11.275,0,0,1-11.275-11.275v-41.46a11.275,11.275,0,0,1,11.275-11.275H735.862a11.275,11.275,0,0,1,11.275,11.275v41.46A11.275,11.275,0,0,1,735.862,510.09Z" transform="translate(158.333 390.703)" fill="#ea5330"/>
    <path id="Trazado_622628" data-name="Trazado 622628" d="M599.078,510.09H497.192a11.836,11.836,0,0,1-11.842-11.842V457.922a11.836,11.836,0,0,1,11.842-11.842H599.078a11.836,11.836,0,0,1,11.842,11.842v40.325A11.836,11.836,0,0,1,599.078,510.09Z" transform="translate(141.971 390.703)" fill="#ea5330"/>
    <path id="Trazado_622629" data-name="Trazado 622629" d="M301.919,512.59H173.593a19.025,19.025,0,0,1-19.023-19.023V467.6a19.025,19.025,0,0,1,19.023-19.023H301.919A19.025,19.025,0,0,1,320.942,467.6v25.965A19.025,19.025,0,0,1,301.919,512.59Z" transform="translate(97.539 391.039)" fill="#ea5330"/>
    <path id="Trazado_622630" data-name="Trazado 622630" d="M455.919,512.59H327.593a19.025,19.025,0,0,1-19.023-19.023V467.6a19.025,19.025,0,0,1,19.023-19.023H455.919A19.025,19.025,0,0,1,474.942,467.6v25.965A19.025,19.025,0,0,1,455.919,512.59Z" transform="translate(118.225 391.039)" fill="#ea5330"/>
    <path id="Trazado_622631" data-name="Trazado 622631" d="M400.026,343.762H250.3a20.981,20.981,0,0,1-20.985-20.985V309.165A20.981,20.981,0,0,1,250.3,288.18H400.026a20.981,20.981,0,0,1,20.985,20.985v13.612A20.988,20.988,0,0,1,400.026,343.762Z" transform="translate(107.579 369.493)" fill="#81b728"/>
    <path id="Trazado_622632" data-name="Trazado 622632" d="M301.016,659.822H151.285A20.981,20.981,0,0,1,130.3,638.837V625.225a20.981,20.981,0,0,1,20.985-20.985H301.016A20.981,20.981,0,0,1,322,625.225v13.612A20.981,20.981,0,0,1,301.016,659.822Z" transform="translate(94.279 411.948)" fill="#119788"/>
    <path id="Trazado_622633" data-name="Trazado 622633" d="M301.016,733.542H151.285A20.981,20.981,0,0,1,130.3,712.557V698.945a20.981,20.981,0,0,1,20.985-20.985H301.016A20.981,20.981,0,0,1,322,698.945v13.612A20.988,20.988,0,0,1,301.016,733.542Z" transform="translate(94.279 421.85)" fill="#119788"/>
    <path id="Trazado_622634" data-name="Trazado 622634" d="M480.6,659.822H330.865a20.981,20.981,0,0,1-20.985-20.985V625.225a20.981,20.981,0,0,1,20.985-20.985H480.6a20.981,20.981,0,0,1,20.985,20.985v13.612A20.988,20.988,0,0,1,480.6,659.822Z" transform="translate(118.401 411.948)" fill="#119788"/>
    <path id="Trazado_622635" data-name="Trazado 622635" d="M764.026,343.762H614.3a20.981,20.981,0,0,1-20.985-20.985V309.165A20.981,20.981,0,0,1,614.3,288.18H764.026a20.981,20.981,0,0,1,20.985,20.985v13.612A20.988,20.988,0,0,1,764.026,343.762Z" transform="translate(156.473 369.493)" fill="#81b728"/>
    <path id="Trazado_622636" data-name="Trazado 622636" d="M1121.516,343.352H971.785A20.981,20.981,0,0,1,950.8,322.367V308.755a20.981,20.981,0,0,1,20.985-20.985h149.731a20.981,20.981,0,0,1,20.985,20.985v13.612A20.988,20.988,0,0,1,1121.516,343.352Z" transform="translate(204.494 369.438)" fill="#81b728"/>
    <path id="Trazado_622637" data-name="Trazado 622637" d="M876.528,220.476H519.352A19.354,19.354,0,0,1,500,201.125V151.362a19.355,19.355,0,0,1,19.352-19.352H876.517a19.354,19.354,0,0,1,19.352,19.352v49.763A19.338,19.338,0,0,1,876.528,220.476Z" transform="translate(143.939 348.515)" fill="#119788"/>
    <g id="Grupo" transform="translate(655.423 497.855)">
      <text id="Interpretación_del_entorno_y" data-name="Interpretación del entorno, y" transform="translate(53.155 19)" fill="#fff" font-size="20" font-family="Roboto-Bold, Roboto" font-weight="700"><tspan x="0" y="0">Interpretación del entorno, y</tspan></text>
      <text id="ambientación_en_la_propagación_vegetal" data-name="ambientación en la propagación vegetal" transform="translate(0 43.501)" fill="#fff" font-size="20" font-family="Roboto-Bold, Roboto" font-weight="700"><tspan x="0" y="0">ambientación en la propagación vegetal</tspan></text>
    </g>
    <g id="Grupo_894126" data-name="Grupo 894126" transform="translate(376.115 672.144)">
      <text id="Condiciones" transform="translate(0 19)" fill="#fff" font-size="20" font-family="Roboto-Bold, Roboto" font-weight="700"><tspan x="0" y="0">Condiciones</tspan></text>
    </g>
    <g id="Grupo_894127" data-name="Grupo 894127" transform="translate(278.01 858.302)">
      <text id="Ambientales" transform="translate(0 19)" fill="#fff" font-size="20" font-family="Roboto-Bold, Roboto" font-weight="700"><tspan x="0" y="0">Ambientales</tspan></text>
    </g>
    <g id="Grupo_894128" data-name="Grupo 894128" transform="translate(242.542 1030.662)">
      <text id="Agroambientales" transform="translate(0 19)" fill="#fff" font-size="20" font-family="Roboto-Bold, Roboto" font-weight="700"><tspan x="0" y="0">Agroambientales</tspan></text>
    </g>
    <g id="Grupo_894129" data-name="Grupo 894129" transform="translate(455.56 1030.662)">
      <text id="Infraestructura" transform="translate(0 19)" fill="#fff" font-size="20" font-family="Roboto-Bold, Roboto" font-weight="700"><tspan x="0" y="0">Infraestructura</tspan></text>
    </g>
    <g id="Grupo_894130" data-name="Grupo 894130" transform="translate(251.49 1114.279)">
      <text id="Agroclimáticas" transform="translate(0 19)" fill="#fff" font-size="20" font-family="Roboto-Bold, Roboto" font-weight="700"><tspan x="0" y="0">Agroclimáticas</tspan></text>
    </g>
    <g id="Grupo_894131" data-name="Grupo 894131" transform="translate(477.934 858.869)">
      <text id="Físicas" transform="translate(0 19)" fill="#fff" font-size="20" font-family="Roboto-Bold, Roboto" font-weight="700"><tspan x="0" y="0">Físicas</tspan></text>
    </g>
    <g id="Grupo_894132" data-name="Grupo 894132" transform="translate(652.06 855.466)">
      <text id="Siembra" transform="translate(0 19)" fill="#fff" font-size="20" font-family="Roboto-Bold, Roboto" font-weight="700"><tspan x="0" y="0">Siembra</tspan></text>
    </g>
    <g id="Grupo_894133" data-name="Grupo 894133" transform="translate(786.818 855.466)">
      <text id="Enrraizado" transform="translate(0 19)" fill="#fff" font-size="20" font-family="Roboto-Bold, Roboto" font-weight="700"><tspan x="0" y="0">Enrraizado</tspan></text>
    </g>
    <g id="Grupo_894134" data-name="Grupo 894134" transform="translate(952.879 855.919)">
      <text id="Riego" transform="translate(0 19)" fill="#fff" font-size="20" font-family="Roboto-Bold, Roboto" font-weight="700"><tspan x="0" y="0">Riego</tspan></text>
    </g>
    <g id="Grupo_894135" data-name="Grupo 894135" transform="translate(1106.012 844.521)">
      <g id="Grupo-2" data-name="Grupo">
        <text id="En_manejo_de" data-name="En manejo de" transform="translate(0 19)" fill="#fff" font-size="20" font-family="Roboto-Bold, Roboto" font-weight="700"><tspan x="0" y="0">En manejo de</tspan></text>
        <text id="agroinsumos" transform="translate(1.531 43.501)" fill="#fff" font-size="20" font-family="Roboto-Bold, Roboto" font-weight="700"><tspan x="0" y="0">agroinsumos</tspan></text>
      </g>
    </g>
    <g id="Grupo_894136" data-name="Grupo 894136" transform="translate(1285.825 829.889)">
      <g id="Grupo-3" data-name="Grupo">
        <text id="En_salud_y_" data-name="En salud y " transform="translate(6.477 19)" fill="#fff" font-size="20" font-family="Roboto-Bold, Roboto" font-weight="700"><tspan x="0" y="0">En salud y </tspan></text>
        <text id="seguridad" transform="translate(10.3 43.501)" fill="#fff" font-size="20" font-family="Roboto-Bold, Roboto" font-weight="700"><tspan x="0" y="0">seguridad</tspan></text>
        <text id="ocupacional" transform="translate(0 68.003)" fill="#fff" font-size="20" font-family="Roboto-Bold, Roboto" font-weight="700"><tspan x="0" y="0">ocupacional</tspan></text>
      </g>
    </g>
    <g id="Grupo_894137" data-name="Grupo 894137" transform="translate(808.529 671.21)">
      <text id="Procesos" transform="translate(0 19)" fill="#fff" font-size="20" font-family="Roboto-Bold, Roboto" font-weight="700"><tspan x="0" y="0">Procesos</tspan></text>
    </g>
    <g id="Grupo_894138" data-name="Grupo 894138" transform="translate(1189.04 671.677)">
      <text id="Normatividad" transform="translate(0 19)" fill="#fff" font-size="20" font-family="Roboto-Bold, Roboto" font-weight="700"><tspan x="0" y="0">Normatividad</tspan></text>
    </g>
    <path id="Trazado_622638" data-name="Trazado 622638" d="M1132.065,302.119V242H314.93v60.119" transform="translate(119.08 363.29)" fill="none" stroke="#81b728" stroke-miterlimit="10" stroke-width="3"/>
  </g>
</svg>
